<?xml version="1.0" standalone="no"?><!-- Generator: Gravit.io --><svg xmlns="http://www.w3.org/2000/svg" xmlns:xlink="http://www.w3.org/1999/xlink" style="isolation:isolate" viewBox="0 0 500 500" width="500" height="500"><defs><clipPath id="_clipPath_LqiC347vGcgExXP3RbPnevUGPZwOYPYK"><rect width="500" height="500"/></clipPath></defs><g clip-path="url(#_clipPath_LqiC347vGcgExXP3RbPnevUGPZwOYPYK)"><line x1="249.999" y1="330.96" x2="250" y2="169.04"/><g id="Group"><path d=" M 179.348 273.786 L 179.348 206.222 L 232 183.654 L 284.652 206.222 L 284.652 273.786 L 232 296.346 L 179.348 273.786 Z " fill="rgb(247,143,143)"/><path d=" M 232 188.061 L 280.602 208.887 L 280.602 271.105 L 232 291.931 L 183.398 271.105 L 183.398 208.887 L 232 188.061 Z  M 232 179.248 L 175.298 203.549 L 175.298 276.451 L 232 300.752 L 288.702 276.451 L 288.702 203.549 L 232 179.248 Z " fill="rgb(199,67,67)"/><path d=" M 232 300.752 L 288.702 276.451 L 288.702 203.549 L 232 227.85 L 232 300.752 Z " fill="rgb(199,67,67)"/><path d=" M 232 188.11 L 231.263 188.377 L 183.609 208.798 L 232 227.85 L 278.423 207.955 L 232.753 188.385 L 232 188.11 Z " fill="rgb(216,100,100)"/></g></g></svg>