<?xml version="1.0" standalone="no"?><!-- Generator: Gravit.io --><svg xmlns="http://www.w3.org/2000/svg" xmlns:xlink="http://www.w3.org/1999/xlink" style="isolation:isolate" viewBox="0 0 600 600" width="600" height="600"><defs><clipPath id="_clipPath_ZhrNeLcqEGs0mI9e1adchdjcAMQemG3z"><rect width="600" height="600"/></clipPath></defs><g clip-path="url(#_clipPath_ZhrNeLcqEGs0mI9e1adchdjcAMQemG3z)"><g transform="matrix(1,0,0,1,66.141,449.107)"><text transform="matrix(1,0,0,1,0,48)" style="font-family:&quot;FreeMono&quot;;font-weight:400;font-size:60px;font-style:normal;fill:#ffffff;stroke:none;">Matheus Lopes</text></g><g id="Group"><line x1="304.133" y1="315.948" x2="304.134" y2="193.887"/><g id="Group"><path d=" M 200.325 321.625 L 200.325 192.416 L 301.016 149.258 L 401.706 192.416 L 401.706 321.625 L 301.016 364.767 L 200.325 321.625 Z " fill="rgb(247,143,143)"/><path d=" M 301.016 157.685 L 393.961 197.512 L 393.961 316.497 L 301.016 356.324 L 208.071 316.497 L 208.071 197.512 L 301.016 157.685 Z  M 301.016 140.831 L 192.58 187.304 L 192.58 326.721 L 301.016 373.194 L 409.452 326.721 L 409.452 187.304 L 301.016 140.831 Z " fill="rgb(199,67,67)"/><path d=" M 301.016 373.194 L 409.452 326.721 L 409.452 187.304 L 301.016 233.776 L 301.016 373.194 Z " fill="rgb(199,67,67)"/><path d=" M 301.016 157.778 L 299.606 158.289 L 208.473 197.342 L 301.016 235.782 L 393.961 197.512 L 302.456 158.305 L 301.016 157.778 Z " fill="rgb(216,100,100)"/></g><path d=" M 393.569 197.765 L 409.783 206.604 L 409.783 187.8 L 393.569 197.765 Z " fill-rule="evenodd" fill="rgb(195,207,217)"/><path d=" M 409.868 206.169 L 393.477 207.759 L 393.63 197.496 L 409.868 206.169 Z " fill-rule="evenodd" fill="rgb(195,207,217)"/><path d=" M 409.841 308.182 L 393.336 316.737 L 409.769 327.069 L 409.841 308.182 Z " fill-rule="evenodd" fill="rgb(195,207,217)"/><path d=" M 393.419 316.855 L 393.537 205.153 L 409.71 308.316 L 393.419 316.855 Z " fill-rule="evenodd" fill="rgb(195,207,217)"/><path d=" M 392.746 205.868 L 409.084 311.455 L 408.995 205.799 L 392.746 205.868 Z " fill-rule="evenodd" fill="rgb(195,207,217)"/><path d=" M 409.883 311.164 L 409.818 327.069 L 392.3 316.825 L 392.239 316.855 L 392.239 316.789 L 392.149 316.737 L 392.239 316.694 L 392.362 207.754 L 392.301 207.759 L 392.46 197.795 L 392.4 197.765 L 392.461 197.729 L 392.465 197.496 L 392.681 197.604 L 409.833 187.8 L 409.833 205.799 L 409.836 205.799 L 409.836 206.125 L 409.925 206.169 L 409.836 206.177 L 409.932 311.455 L 409.883 311.164 Z " fill-rule="evenodd" fill="rgb(255,255,255)"/><path d=" M 192.396 311.682 L 192.457 327.595 L 208.782 317.346 L 208.838 317.375 L 208.838 317.31 L 208.922 317.258 L 208.838 317.214 L 208.724 208.218 L 208.781 208.224 L 208.632 198.255 L 208.689 198.224 L 208.631 198.189 L 208.628 197.955 L 208.426 198.063 L 192.443 188.254 L 192.443 206.263 L 192.44 206.263 L 192.44 206.589 L 192.357 206.633 L 192.44 206.641 L 192.351 311.973 L 192.396 311.682 Z " fill-rule="evenodd" fill="rgb(255,255,255)"/><path d=" M 289.096 230.825 L 301.512 236.04 L 287.898 244.601 L 287.902 244.652 L 287.851 244.631 L 287.781 244.675 L 287.776 244.6 L 202.629 209.098 L 202.614 209.142 L 194.873 205.794 L 194.83 205.825 L 194.822 205.772 L 194.641 205.693 L 194.794 205.581 L 192.614 190.752 L 196.256 192.266 L 206.689 196.604 L 206.69 196.602 L 206.945 196.707 L 207.007 196.661 L 206.985 196.724 L 289.339 230.887 L 289.096 230.825 Z " fill-rule="evenodd" fill="rgb(255,255,255)"/><path d=" M 395.831 193.973 L 408.152 188.588 L 405.513 205.366 L 405.554 205.402 L 405.504 205.424 L 405.49 205.51 L 405.43 205.457 L 321.132 242.588 L 321.155 242.633 L 313.4 245.917 L 313.395 245.973 L 313.349 245.939 L 313.168 246.015 L 313.185 245.815 L 300.429 236.165 L 314.351 230.015 L 314.35 230.013 L 314.602 229.901 L 314.609 229.819 L 314.642 229.883 L 396.041 193.837 L 395.831 193.973 Z " fill-rule="evenodd" fill="rgb(255,255,255)"/><path d=" M 301.215 235.77 L 314.487 245.377 L 301.08 250.947 L 301.215 235.77 Z " fill-rule="evenodd" fill="rgb(255,255,255)"/><path d=" M 301.202 235.911 L 287.377 244.571 L 301.749 250.935 L 301.202 235.911 Z " fill-rule="evenodd" fill="rgb(255,255,255)"/></g></g></svg>