<?xml version="1.0" standalone="no"?><!-- Generator: Gravit.io --><svg xmlns="http://www.w3.org/2000/svg" xmlns:xlink="http://www.w3.org/1999/xlink" style="isolation:isolate" viewBox="0 0 500 500" width="500" height="500"><defs><clipPath id="_clipPath_lBsy1SRN0xtEZurYU4OQPOPjwIDO6RVL"><rect width="500" height="500"/></clipPath></defs><g clip-path="url(#_clipPath_lBsy1SRN0xtEZurYU4OQPOPjwIDO6RVL)"><g id="Group"/><g transform="matrix(1,0,0,1,51.434,403.155)"><text transform="matrix(1,0,0,1,0,54)" style="font-family:&quot;FreeSans&quot;;font-weight:400;font-size:60px;font-style:normal;fill:#ffffff;stroke:none;">Matheus Lopes</text></g><g id="Group"><line x1="257.404" y1="321.529" x2="257.405" y2="159.608"/><path d=" M 119.697 329.789 L 119.697 158.386 L 253.268 101.135 L 386.84 158.386 L 386.84 329.789 L 253.268 387.019 L 119.697 329.789 Z " fill="rgb(247,143,143)"/><path d=" M 253.268 112.314 L 376.565 165.147 L 376.565 322.987 L 253.268 375.82 L 129.971 322.987 L 129.971 165.147 L 253.268 112.314 Z  M 253.268 89.956 L 109.422 151.604 L 109.422 336.55 L 253.268 398.198 L 397.114 336.55 L 397.114 151.604 L 253.268 89.956 Z " fill="rgb(199,67,67)"/><path d=" M 253.268 398.198 L 397.114 336.55 L 397.114 151.604 L 253.268 213.253 L 253.268 398.198 Z " fill="rgb(199,67,67)"/><path d=" M 253.268 112.437 L 251.398 113.115 L 130.506 164.921 L 253.268 215.913 L 376.565 165.147 L 255.179 113.136 L 253.268 112.437 Z " fill="rgb(216,100,100)"/><path d=" M 376.045 164.753 L 397.554 176.478 L 397.554 151.534 L 376.045 164.753 Z " fill-rule="evenodd" fill="rgb(195,207,217)"/><path d=" M 397.667 175.902 L 375.923 178.012 L 376.125 164.397 L 397.667 175.902 Z " fill-rule="evenodd" fill="rgb(195,207,217)"/><path d=" M 397.631 311.228 L 375.736 322.576 L 397.535 336.282 L 397.631 311.228 Z " fill-rule="evenodd" fill="rgb(195,207,217)"/><path d=" M 375.846 322.732 L 376.002 174.554 L 397.457 311.406 L 375.846 322.732 Z " fill-rule="evenodd" fill="rgb(195,207,217)"/><path d=" M 374.953 175.503 L 396.626 315.569 L 396.508 175.411 L 374.953 175.503 Z " fill-rule="evenodd" fill="rgb(195,207,217)"/><path d=" M 397.687 315.183 L 397.6 336.282 L 374.361 322.693 L 374.281 322.732 L 374.281 322.646 L 374.162 322.576 L 374.281 322.518 L 374.444 178.004 L 374.363 178.012 L 374.574 164.794 L 374.494 164.753 L 374.576 164.706 L 374.581 164.397 L 374.867 164.539 L 397.62 151.534 L 397.62 175.411 L 397.624 175.411 L 397.624 175.844 L 397.741 175.902 L 397.624 175.913 L 397.751 315.569 L 397.687 315.183 Z " fill-rule="evenodd" fill="rgb(255,255,255)"/><path d=" M 109.178 315.87 L 109.259 336.979 L 130.915 323.384 L 130.99 323.423 L 130.99 323.336 L 131.101 323.267 L 130.99 323.209 L 130.838 178.62 L 130.914 178.628 L 130.717 165.403 L 130.791 165.362 L 130.715 165.315 L 130.711 165.006 L 130.443 165.148 L 109.24 152.136 L 109.24 176.026 L 109.237 176.026 L 109.236 176.459 L 109.127 176.517 L 109.236 176.528 L 109.118 316.256 L 109.178 315.87 Z " fill-rule="evenodd" fill="rgb(255,255,255)"/><path d=" M 237.456 208.609 L 253.927 215.528 L 235.867 226.884 L 235.872 226.952 L 235.805 226.923 L 235.712 226.982 L 235.705 226.882 L 122.753 179.787 L 122.733 179.845 L 112.464 175.404 L 112.407 175.445 L 112.396 175.375 L 112.156 175.271 L 112.359 175.122 L 109.467 155.45 L 114.299 157.459 L 128.139 163.213 L 128.14 163.21 L 128.478 163.35 L 128.561 163.29 L 128.532 163.373 L 237.779 208.691 L 237.456 208.609 Z " fill-rule="evenodd" fill="rgb(255,255,255)"/><path d=" M 379.045 159.784 L 395.39 152.58 L 391.889 175.025 L 391.944 175.073 L 391.877 175.103 L 391.859 175.218 L 391.779 175.147 L 279.954 224.822 L 279.984 224.882 L 269.697 229.275 L 269.69 229.351 L 269.629 229.304 L 269.388 229.407 L 269.412 229.139 L 252.489 216.23 L 270.958 208.001 L 270.956 207.998 L 271.291 207.849 L 271.3 207.739 L 271.344 207.825 L 379.324 159.602 L 379.045 159.784 Z " fill-rule="evenodd" fill="rgb(255,255,255)"/><path d=" M 253.533 215.715 L 271.138 228.46 L 253.353 235.849 L 253.533 215.715 Z " fill-rule="evenodd" fill="rgb(255,255,255)"/><path d=" M 253.735 215.715 L 234.582 226.166 L 253.332 235.856 L 253.735 215.715 Z " fill-rule="evenodd" fill="rgb(255,255,255)"/></g></g></svg>