<?xml version="1.0" encoding="utf-8"?>
<!-- Generator: Adobe Illustrator 19.0.0, SVG Export Plug-In . SVG Version: 6.00 Build 0)  -->
<svg version="1.1" id="Camada_1" xmlns="http://www.w3.org/2000/svg" xmlns:xlink="http://www.w3.org/1999/xlink" x="0px" y="0px"
	 viewBox="-5 97 600 600" style="enable-background:new -5 97 600 600;" xml:space="preserve">
<style type="text/css">
	.st0{clip-path:url(#SVGID_2_);}
	.st1{fill:#FFFFFF;}
	.st2{font-family:'CenturyGothic';}
	.st3{font-size:60px;}
	.st4{fill:none;}
	.st5{fill:#F78F8F;}
	.st6{fill:#C74343;}
	.st7{fill:#D86464;}
	.st8{fill:#C3CFD9;}
</style>
<g>
	<defs>
		<rect id="SVGID_1_" x="-5" y="97" width="600" height="600"/>
	</defs>
	<clipPath id="SVGID_2_">
		<use xlink:href="#SVGID_1_"  style="overflow:visible;"/>
	</clipPath>
	<g class="st0">
		<g transform="matrix(1,0,0,1,66.141,449.107)">
			<text transform="matrix(1 0 0 1 2.842 145)" class="st1 st2 st3">Matheus Lopes</text>
		</g>
		<g id="Group_1_">
			<line class="st4" x1="291.3" y1="412.9" x2="291.3" y2="290.9"/>
			<g id="Group">
				<path class="st5" d="M187.5,418.6V289.4l100.7-43.2l100.7,43.2v129.2l-100.7,43.1L187.5,418.6z"/>
				<path class="st6" d="M288.2,254.7l92.9,39.8v119l-92.9,39.8l-92.9-39.8v-119L288.2,254.7z M288.2,237.8l-108.4,46.5v139.4
					l108.4,46.5l108.4-46.5V284.3L288.2,237.8z"/>
				<path class="st6" d="M288.2,470.2l108.4-46.5V284.3l-108.4,46.5V470.2z"/>
				<path class="st7" d="M288.2,254.8l-1.4,0.5l-91.1,39.1l92.5,38.4l92.9-38.3l-91.5-39.2L288.2,254.8z"/>
			</g>
			<path class="st8" d="M380.7,294.8l16.2,8.8v-18.8L380.7,294.8z"/>
			<path class="st8" d="M397,303.2l-16.4,1.6l0.2-10.3L397,303.2z"/>
			<path class="st8" d="M397,405.2l-16.5,8.6l16.4,10.3L397,405.2z"/>
			<path class="st8" d="M380.6,413.9l0.1-111.7l16.2,103.2L380.6,413.9z"/>
			<path class="st8" d="M379.9,302.9l16.3,105.6l-0.1-105.7L379.9,302.9z"/>
			<path class="st1" d="M397,408.2l-0.1,15.9l-17.5-10.2l-0.1,0v-0.1l-0.1-0.1l0.1,0l0.1-108.9l-0.1,0l0.2-10l-0.1,0l0.1,0l0-0.2
				l0.2,0.1l17.2-9.8v18h0v0.3l0.1,0l-0.1,0l0.1,105.3L397,408.2z"/>
			<path class="st1" d="M179.6,408.7l0.1,15.9l16.3-10.2l0.1,0v-0.1l0.1-0.1l-0.1,0l-0.1-109l0.1,0l-0.1-10l0.1,0l-0.1,0l0-0.2
				l-0.2,0.1l-16-9.8v18h0v0.3l-0.1,0l0.1,0L179.5,409L179.6,408.7z"/>
			<path class="st1" d="M276.3,327.8l12.4,5.2l-13.6,8.6l0,0.1l-0.1,0l-0.1,0l0-0.1l-85.1-35.5l0,0l-7.7-3.3l0,0l0-0.1l-0.2-0.1
				l0.2-0.1l-2.2-14.8l3.6,1.5l10.4,4.3l0,0l0.3,0.1l0.1,0l0,0.1l82.4,34.2L276.3,327.8z"/>
			<path class="st1" d="M383,291l12.3-5.4l-2.6,16.8l0,0l0,0l0,0.1l-0.1-0.1l-84.3,37.1l0,0l-7.8,3.3l0,0.1l0,0l-0.2,0.1l0-0.2
				l-12.8-9.7l13.9-6.1l0,0l0.3-0.1l0-0.1l0,0.1l81.4-36L383,291z"/>
			<path class="st1" d="M288.4,332.8l13.3,9.6l-13.4,5.6L288.4,332.8z"/>
			<path class="st1" d="M288.4,332.9l-13.8,8.7l14.4,6.4L288.4,332.9z"/>
		</g>
	</g>
</g>
</svg>
