<?xml version="1.0" standalone="no"?><!-- Generator: Gravit.io --><svg xmlns="http://www.w3.org/2000/svg" xmlns:xlink="http://www.w3.org/1999/xlink" style="isolation:isolate" viewBox="0 0 500 500" width="500" height="500"><defs><clipPath id="_clipPath_U3ofyXqZIYvJYIQKkPifQy0goQDHStwB"><rect width="500" height="500"/></clipPath></defs><g clip-path="url(#_clipPath_U3ofyXqZIYvJYIQKkPifQy0goQDHStwB)"><line x1="249.999" y1="321.529" x2="250" y2="159.608"/><g id="Group"><path d=" M 112.292 329.789 L 112.292 158.386 L 245.864 101.135 L 379.435 158.386 L 379.435 329.789 L 245.864 387.019 L 112.292 329.789 Z " fill="rgb(247,143,143)"/><path d=" M 245.864 112.314 L 369.16 165.147 L 369.16 322.987 L 245.864 375.82 L 122.567 322.987 L 122.567 165.147 L 245.864 112.314 Z  M 245.864 89.956 L 102.018 151.604 L 102.018 336.55 L 245.864 398.198 L 389.71 336.55 L 389.71 151.604 L 245.864 89.956 Z " fill="rgb(199,67,67)"/><path d=" M 245.864 398.198 L 389.71 336.55 L 389.71 151.604 L 245.864 213.253 L 245.864 398.198 Z " fill="rgb(199,67,67)"/><path d=" M 245.864 112.437 L 243.994 113.115 L 123.101 164.921 L 245.864 215.913 L 369.16 165.147 L 247.775 113.136 L 245.864 112.437 Z " fill="rgb(216,100,100)"/></g><g transform="matrix(1,0,0,1,36.868,404.688)"><text transform="matrix(1,0,0,1,0.16,64.131)" style="font-family:&quot;Open Sans&quot;;font-weight:400;font-size:60px;font-style:normal;fill:#000000;stroke:none;">Matheus Lopes</text></g><path d=" M 368.64 164.753 L 390.149 176.478 L 390.149 151.534 L 368.64 164.753 Z " fill-rule="evenodd" fill="rgb(195,207,217)"/><path d=" M 390.263 175.902 L 368.518 178.012 L 368.721 164.397 L 390.263 175.902 Z " fill-rule="evenodd" fill="rgb(195,207,217)"/><path d=" M 390.227 311.228 L 368.331 322.576 L 390.131 336.282 L 390.227 311.228 Z " fill-rule="evenodd" fill="rgb(195,207,217)"/><path d=" M 368.442 322.732 L 368.597 174.554 L 390.053 311.406 L 368.442 322.732 Z " fill-rule="evenodd" fill="rgb(195,207,217)"/><path d=" M 367.548 175.503 L 389.222 315.569 L 389.104 175.411 L 367.548 175.503 Z " fill-rule="evenodd" fill="rgb(195,207,217)"/><path d=" M 390.282 315.183 L 390.195 336.282 L 366.957 322.693 L 366.876 322.732 L 366.876 322.646 L 366.757 322.576 L 366.876 322.518 L 367.04 178.004 L 366.958 178.012 L 367.17 164.794 L 367.089 164.753 L 367.171 164.706 L 367.176 164.397 L 367.463 164.539 L 390.215 151.534 L 390.215 175.411 L 390.219 175.411 L 390.219 175.844 L 390.337 175.902 L 390.219 175.913 L 390.346 315.569 L 390.282 315.183 Z " fill-rule="evenodd" fill="rgb(255,255,255)"/><path d=" M 101.773 315.87 L 101.854 336.979 L 123.51 323.384 L 123.586 323.423 L 123.585 323.336 L 123.697 323.267 L 123.585 323.209 L 123.433 178.62 L 123.509 178.628 L 123.312 165.403 L 123.387 165.362 L 123.311 165.315 L 123.306 165.006 L 123.039 165.148 L 101.836 152.136 L 101.836 176.026 L 101.832 176.026 L 101.832 176.459 L 101.722 176.517 L 101.832 176.528 L 101.714 316.256 L 101.773 315.87 Z " fill-rule="evenodd" fill="rgb(255,255,255)"/><path d=" M 230.052 208.609 L 246.522 215.528 L 228.463 226.884 L 228.468 226.952 L 228.4 226.923 L 228.308 226.982 L 228.301 226.882 L 115.348 179.787 L 115.328 179.845 L 105.06 175.404 L 105.002 175.445 L 104.992 175.375 L 104.751 175.271 L 104.955 175.122 L 102.063 155.45 L 106.895 157.459 L 120.734 163.213 L 120.735 163.21 L 121.073 163.35 L 121.157 163.29 L 121.127 163.373 L 230.374 208.691 L 230.052 208.609 Z " fill-rule="evenodd" fill="rgb(255,255,255)"/><path d=" M 371.641 159.784 L 387.985 152.58 L 384.485 175.025 L 384.54 175.073 L 384.473 175.103 L 384.455 175.218 L 384.374 175.147 L 272.55 224.822 L 272.58 224.882 L 262.292 229.275 L 262.285 229.351 L 262.224 229.304 L 261.984 229.407 L 262.007 229.139 L 245.085 216.23 L 263.553 208.001 L 263.552 207.998 L 263.886 207.849 L 263.896 207.739 L 263.939 207.825 L 371.92 159.602 L 371.641 159.784 Z " fill-rule="evenodd" fill="rgb(255,255,255)"/><path d=" M 246.129 215.715 L 263.734 228.46 L 245.949 235.849 L 246.129 215.715 Z " fill-rule="evenodd" fill="rgb(255,255,255)"/><path d=" M 246.33 215.715 L 227.177 226.166 L 245.927 235.856 L 246.33 215.715 Z " fill-rule="evenodd" fill="rgb(255,255,255)"/></g></svg>