<?xml version="1.0" standalone="no"?><!-- Generator: Gravit.io --><svg xmlns="http://www.w3.org/2000/svg" xmlns:xlink="http://www.w3.org/1999/xlink" style="isolation:isolate" viewBox="0 0 100 100" width="100" height="100"><defs><clipPath id="_clipPath_fBEpzRjujl9EE8hqxLKaMYqSK8hP4k58"><rect width="100" height="100"/></clipPath></defs><g clip-path="url(#_clipPath_fBEpzRjujl9EE8hqxLKaMYqSK8hP4k58)"><g id="Group"><line x1="50.271" y1="70.667" x2="50.271" y2="24.62"/><g id="Group"><path d=" M 11.11 72.808 L 11.11 24.065 L 49.095 7.784 L 87.08 24.065 L 87.08 72.808 L 49.095 89.083 L 11.11 72.808 Z " fill="rgb(247,143,143)"/><path d=" M 49.095 10.963 L 84.158 25.988 L 84.158 70.874 L 49.095 85.898 L 14.032 70.874 L 14.032 25.988 L 49.095 10.963 Z  M 49.095 4.605 L 8.189 22.137 L 8.189 74.731 L 49.095 92.262 L 90.001 74.731 L 90.001 22.137 L 49.095 4.605 Z " fill="rgb(199,67,67)"/><path d=" M 49.095 92.262 L 90.001 74.731 L 90.001 22.137 L 49.095 39.668 L 49.095 92.262 Z " fill="rgb(199,67,67)"/><path d=" M 49.095 10.999 L 48.563 11.191 L 14.184 25.924 L 49.095 40.425 L 84.158 25.988 L 49.638 11.197 L 49.095 10.999 Z " fill="rgb(216,100,100)"/></g><path d=" M 84.01 26.083 L 90.126 29.418 L 90.126 22.324 L 84.01 26.083 Z " fill-rule="evenodd" fill="rgb(195,207,217)"/><path d=" M 90.159 29.254 L 83.975 29.854 L 84.033 25.982 L 90.159 29.254 Z " fill-rule="evenodd" fill="rgb(195,207,217)"/><path d=" M 90.148 67.737 L 83.922 70.964 L 90.121 74.862 L 90.148 67.737 Z " fill-rule="evenodd" fill="rgb(195,207,217)"/><path d=" M 83.953 71.009 L 83.998 28.87 L 90.099 67.788 L 83.953 71.009 Z " fill-rule="evenodd" fill="rgb(195,207,217)"/><path d=" M 83.699 29.14 L 89.863 68.972 L 89.829 29.114 L 83.699 29.14 Z " fill-rule="evenodd" fill="rgb(195,207,217)"/><path d=" M 90.164 68.862 L 90.139 74.862 L 83.531 70.997 L 83.508 71.009 L 83.508 70.984 L 83.474 70.964 L 83.508 70.948 L 83.555 29.851 L 83.531 29.854 L 83.592 26.095 L 83.569 26.083 L 83.592 26.07 L 83.593 25.982 L 83.675 26.022 L 90.145 22.324 L 90.145 29.114 L 90.146 29.114 L 90.146 29.237 L 90.18 29.254 L 90.146 29.257 L 90.182 68.972 L 90.164 68.862 Z " fill-rule="evenodd" fill="rgb(255,255,255)"/><path d=" M 8.119 69.057 L 8.142 75.06 L 14.301 71.194 L 14.322 71.205 L 14.322 71.181 L 14.354 71.161 L 14.322 71.144 L 14.279 30.027 L 14.3 30.029 L 14.244 26.268 L 14.265 26.256 L 14.244 26.243 L 14.243 26.155 L 14.166 26.196 L 8.137 22.495 L 8.137 29.289 L 8.136 29.289 L 8.136 29.412 L 8.105 29.429 L 8.136 29.432 L 8.102 69.167 L 8.119 69.057 Z " fill-rule="evenodd" fill="rgb(255,255,255)"/><path d=" M 44.598 38.555 L 49.282 40.522 L 44.147 43.752 L 44.148 43.771 L 44.129 43.763 L 44.102 43.78 L 44.101 43.751 L 11.979 30.359 L 11.974 30.375 L 9.054 29.112 L 9.037 29.124 L 9.034 29.104 L 8.966 29.074 L 9.024 29.032 L 8.201 23.438 L 9.575 24.009 L 13.511 25.645 L 13.511 25.644 L 13.608 25.684 L 13.631 25.667 L 13.623 25.691 L 44.69 38.578 L 44.598 38.555 Z " fill-rule="evenodd" fill="rgb(255,255,255)"/><path d=" M 84.863 24.653 L 89.511 22.621 L 88.516 28.951 L 88.531 28.964 L 88.512 28.973 L 88.507 29.005 L 88.484 28.985 L 56.684 42.992 L 56.692 43.009 L 53.767 44.248 L 53.765 44.269 L 53.748 44.256 L 53.679 44.285 L 53.686 44.21 L 48.873 40.569 L 54.125 38.249 L 54.125 38.248 L 54.22 38.206 L 54.223 38.175 L 54.235 38.2 L 84.942 24.602 L 84.863 24.653 Z " fill-rule="evenodd" fill="rgb(255,255,255)"/><path d=" M 49.17 40.42 L 54.177 44.045 L 49.119 46.146 L 49.17 40.42 Z " fill-rule="evenodd" fill="rgb(255,255,255)"/><path d=" M 49.165 40.474 L 43.95 43.741 L 49.372 46.141 L 49.165 40.474 Z " fill-rule="evenodd" fill="rgb(255,255,255)"/></g></g></svg>