<?xml version="1.0" standalone="no"?><!-- Generator: Gravit.io --><svg xmlns="http://www.w3.org/2000/svg" xmlns:xlink="http://www.w3.org/1999/xlink" style="isolation:isolate" viewBox="0 0 1920 1080" width="1920" height="1080"><defs><clipPath id="_clipPath_SdL2gdBp3F3hCeSe6uHs6I4XNCxAWcpe"><rect width="1920" height="1080"/></clipPath></defs><g clip-path="url(#_clipPath_SdL2gdBp3F3hCeSe6uHs6I4XNCxAWcpe)"><path d=" M 1930.459 1254.67 L 1930.459 828.753 C 1929.974 828.267 1929.489 828.267 1929.004 827.782 C 1929.004 827.782 1929.004 827.782 1929.004 827.782 C 1929.489 825.842 1929.974 824.872 1930.459 823.902 L 1930.459 823.416 C 1930.459 823.902 1930.459 823.902 1930.459 823.416 L 1930.459 821.476 L 1929.974 820.991 C 1927.549 819.536 1925.123 817.595 1921.727 816.14 C 1919.787 815.17 1917.361 814.685 1914.936 814.685 C 1914.936 813.229 1915.421 811.289 1915.421 809.834 C 1915.421 801.587 1913.481 794.796 1910.57 794.796 C 1909.115 794.796 1908.145 796.251 1907.174 799.161 C 1905.719 794.796 1903.779 791.885 1901.838 792.37 C 1899.413 792.855 1898.443 798.191 1898.928 804.983 C 1898.928 804.983 1898.443 804.983 1898.443 804.983 C 1897.957 797.706 1896.017 792.37 1893.592 792.37 C 1890.681 792.37 1888.741 799.161 1888.741 807.408 C 1888.741 808.378 1888.741 808.863 1889.226 809.349 C 1889.226 809.834 1889.226 810.319 1888.741 810.319 C 1888.255 810.319 1887.285 809.834 1886.315 809.349 C 1887.285 809.834 1887.285 809.349 1886.315 809.349 C 1885.83 808.863 1884.86 808.863 1884.375 808.378 C 1884.375 807.893 1884.375 807.408 1884.375 806.923 C 1885.83 800.617 1885.83 793.825 1883.404 793.34 C 1881.464 792.855 1878.068 796.251 1876.128 801.587 C 1875.643 794.796 1873.217 789.459 1870.307 789.459 C 1868.366 789.459 1866.911 792.37 1866.426 797.221 C 1865.941 793.34 1864.486 790.915 1863.03 790.915 C 1862.06 790.915 1861.09 791.885 1860.12 793.34 C 1858.179 788.974 1856.239 785.579 1854.299 786.064 C 1851.873 786.064 1850.903 790.915 1851.873 797.221 C 1850.903 797.706 1849.933 798.191 1849.448 799.647 C 1848.962 799.647 1848.962 799.647 1849.448 799.647 C 1849.448 799.647 1849.448 799.647 1849.448 799.647 C 1848.477 799.161 1847.992 799.161 1847.507 799.161 C 1847.022 790.915 1848.477 784.608 1846.052 783.638 C 1845.082 783.153 1843.141 784.608 1841.201 788.004 C 1840.716 788.004 1840.716 787.519 1840.231 787.519 C 1838.29 787.519 1837.32 790.915 1836.35 795.766 C 1835.38 795.766 1834.895 795.281 1835.38 795.281 L 1835.38 795.281 L 1835.38 795.281 L 1835.38 795.281 L 1834.409 796.251 L 1834.409 796.736 C 1834.409 796.736 1833.924 796.736 1832.954 796.736 C 1832.954 796.736 1832.954 796.736 1832.954 796.736 C 1833.924 793.825 1834.895 791.4 1833.439 789.945 C 1832.954 789.459 1831.014 789.459 1829.558 790.43 C 1829.558 790.43 1829.558 789.945 1829.558 789.945 C 1828.588 788.974 1825.193 790.43 1822.767 793.825 C 1822.282 788.004 1820.342 783.638 1817.916 783.638 C 1815.491 783.638 1813.55 788.004 1813.065 793.34 C 1812.58 792.855 1812.58 792.855 1812.095 792.37 C 1811.61 791.885 1811.125 791.885 1811.125 791.885 C 1811.61 788.974 1812.095 787.034 1810.64 786.064 C 1809.184 784.608 1803.848 788.004 1800.938 794.31 C 1798.997 790.915 1796.087 789.459 1794.631 789.945 C 1793.661 790.43 1793.176 791.4 1793.176 793.34 C 1792.206 791.885 1791.236 791.4 1790.265 791.4 C 1789.78 791.4 1789.295 791.885 1788.325 792.37 C 1786.385 788.974 1783.474 787.519 1782.019 787.519 C 1781.534 786.064 1781.049 785.579 1780.078 785.094 C 1778.623 784.608 1775.712 787.034 1774.257 790.915 C 1773.772 790.915 1773.287 791.4 1772.802 791.4 C 1772.317 786.064 1772.802 782.668 1771.832 781.213 C 1771.347 780.728 1770.376 780.728 1768.921 781.698 C 1767.951 776.847 1766.01 773.451 1764.555 773.451 C 1762.615 773.451 1761.159 779.757 1760.674 788.004 C 1757.764 787.519 1755.338 787.519 1758.734 788.004 L 1758.734 788.004 L 1758.734 788.004 L 1758.734 788.004 L 1758.734 788.489 L 1758.249 789.459 L 1757.764 790.915 C 1757.764 790.915 1757.764 791.4 1757.279 791.4 C 1755.823 786.064 1753.883 782.668 1751.457 782.668 C 1750.002 782.668 1749.032 784.123 1748.547 786.549 C 1748.062 781.698 1747.577 777.817 1745.636 777.332 C 1744.181 776.847 1741.755 779.757 1740.3 784.123 C 1739.815 783.153 1738.845 782.668 1738.36 782.668 C 1736.904 782.668 1735.449 785.094 1734.479 788.489 C 1733.994 787.519 1733.509 787.034 1732.539 786.549 C 1731.083 786.064 1728.173 788.489 1726.717 792.855 C 1726.717 792.855 1726.717 792.855 1726.717 792.855 C 1727.202 787.034 1727.202 782.183 1725.262 781.698 C 1724.777 780.728 1724.777 779.757 1723.807 779.272 C 1722.351 777.817 1716.045 784.123 1716.53 793.34 C 1716.045 793.34 1715.56 793.825 1714.59 794.31 C 1714.59 794.31 1714.59 794.31 1714.59 794.31 C 1714.59 793.825 1714.59 793.825 1714.59 793.34 C 1715.075 789.459 1715.56 787.034 1714.105 785.579 C 1713.62 785.094 1712.649 785.094 1711.679 785.579 C 1711.194 784.608 1710.224 784.123 1709.739 784.123 C 1708.284 784.123 1706.828 787.034 1705.858 791.4 C 1705.373 792.37 1704.888 793.34 1704.403 794.31 L 1703.433 794.31 L 1702.948 792.855 L 1702.948 792.855 L 1702.948 792.855 C 1707.313 792.37 1703.918 792.855 1700.037 792.855 C 1700.037 788.004 1700.037 784.608 1698.097 783.638 C 1696.156 782.668 1691.305 788.004 1690.335 796.251 L 1689.85 796.251 L 1688.395 796.251 C 1687.909 794.796 1688.395 794.796 1688.395 796.251 L 1687.424 796.251 C 1687.424 796.251 1687.424 796.251 1687.424 796.251 C 1689.365 787.519 1688.88 780.243 1685.969 779.272 C 1684.029 778.787 1681.118 783.153 1679.178 789.945 C 1678.693 786.549 1677.722 784.608 1676.267 784.123 C 1674.327 784.123 1672.386 787.034 1670.931 792.37 C 1670.931 792.37 1670.446 791.885 1670.446 791.885 C 1669.961 791.4 1668.505 791.4 1666.565 792.855 C 1665.11 789.945 1663.169 788.004 1661.714 788.004 C 1660.259 788.004 1659.289 789.945 1658.803 792.855 C 1657.348 793.825 1656.378 795.766 1654.923 797.706 C 1654.923 797.706 1654.923 797.221 1654.923 797.221 C 1654.923 797.221 1654.923 797.221 1654.923 797.221 C 1653.952 789.945 1652.012 785.094 1650.072 785.579 C 1648.616 785.579 1647.646 788.489 1646.676 792.855 L 1644.25 786.549 L 1642.795 782.668 L 1642.31 780.728 L 1642.31 780.243 L 1642.31 780.243 L 1642.31 780.243 C 1645.706 780.243 1644.25 780.243 1641.825 780.243 C 1641.34 776.847 1640.37 774.906 1638.914 774.421 C 1637.459 773.936 1635.034 776.847 1634.063 780.728 C 1633.093 780.728 1632.608 780.728 1633.093 780.728 L 1633.093 781.213 L 1633.093 782.183 L 1633.093 782.183 C 1631.153 782.183 1630.183 782.183 1633.093 782.183 L 1632.608 788.489 C 1632.608 788.489 1632.123 788.004 1632.123 788.004 C 1631.638 788.004 1631.638 788.004 1631.153 788.004 C 1631.153 788.004 1631.153 787.519 1631.153 787.519 C 1631.638 775.392 1634.548 765.205 1632.123 764.234 C 1630.668 763.264 1625.817 768.6 1623.391 776.847 C 1621.936 775.877 1617.085 781.213 1615.145 789.459 C 1615.145 789.459 1615.145 789.459 1615.145 789.459 C 1613.689 788.974 1610.294 793.34 1608.353 800.132 C 1605.928 801.587 1603.017 805.953 1602.047 812.259 C 1602.047 813.229 1602.047 813.714 1602.047 814.685 C 1602.047 814.685 1601.562 814.685 1601.077 814.685 L 1601.077 814.2 L 1601.077 814.2 C 1602.047 814.2 1598.651 814.2 1595.741 813.714 C 1595.741 807.893 1595.741 804.012 1593.315 803.042 C 1591.375 802.072 1587.979 806.438 1586.524 812.744 C 1586.039 808.378 1584.098 805.468 1581.673 805.468 C 1578.762 805.468 1576.822 809.834 1576.822 815.655 C 1576.822 815.655 1576.822 815.655 1576.822 815.655 C 1575.851 810.804 1573.911 807.408 1571.486 807.893 C 1569.545 808.378 1568.09 811.289 1567.605 815.17 C 1564.209 814.685 1562.269 814.685 1561.784 814.685 C 1561.784 814.685 1561.784 814.685 1561.298 814.2 C 1560.813 814.2 1560.813 814.2 1560.328 814.2 C 1559.358 812.744 1557.903 811.774 1556.933 811.774 C 1554.992 812.259 1553.537 815.655 1553.052 820.021 C 1549.171 820.021 1545.775 820.021 1550.141 820.021 L 1550.141 820.021 L 1550.141 820.506 L 1550.141 822.931 C 1550.141 824.387 1549.656 825.842 1549.656 827.297 C 1549.656 827.297 1549.171 827.297 1549.171 827.297 C 1549.171 826.812 1549.171 826.812 1549.171 826.327 C 1548.686 824.872 1548.686 823.902 1548.686 822.446 L 1548.686 820.506 L 1548.686 819.536 C 1548.686 819.536 1548.686 819.536 1548.686 819.536 L 1548.686 819.536 L 1548.686 819.051 L 1548.686 819.051 C 1552.082 819.051 1550.626 819.051 1548.201 819.051 C 1548.686 811.289 1548.201 804.983 1545.775 804.498 C 1544.32 804.012 1541.894 807.893 1539.954 813.229 C 1539.954 813.229 1539.954 813.229 1539.954 813.229 C 1538.014 812.744 1535.103 817.11 1532.678 823.416 C 1532.678 823.416 1532.678 822.931 1532.678 822.931 L 1532.678 819.536 L 1532.678 817.595 L 1532.678 817.11 L 1532.678 817.11 L 1532.678 817.11 C 1533.163 817.11 1533.648 817.11 1532.678 817.11 L 1532.678 817.11 C 1531.222 817.11 1530.252 816.625 1529.282 816.625 C 1528.797 816.14 1528.312 815.655 1527.827 815.655 C 1527.342 815.655 1526.371 815.655 1525.886 816.14 C 1521.52 815.655 1527.827 816.14 1524.916 816.14 L 1524.916 816.14 L 1524.916 816.14 L 1524.916 816.14 L 1524.916 816.625 L 1524.916 817.11 L 1524.916 817.11 C 1522.976 819.051 1521.52 822.931 1520.55 827.782 C 1520.55 828.753 1520.55 829.723 1520.55 830.208 C 1520.55 830.208 1520.065 830.208 1520.065 830.208 C 1520.065 823.902 1518.125 819.051 1515.214 819.051 C 1513.274 819.051 1511.333 821.961 1510.363 825.842 C 1509.878 825.842 1509.878 825.842 1509.393 825.842 C 1507.938 823.416 1506.482 821.961 1504.542 822.446 C 1504.057 822.446 1503.572 822.931 1503.087 823.416 C 1503.087 823.416 1503.087 822.931 1503.087 822.931 C 1503.087 822.931 1502.601 822.931 1502.601 822.931 C 1501.631 820.506 1500.176 818.565 1498.721 818.565 C 1496.78 818.565 1495.325 820.991 1494.355 824.872 C 1494.355 820.506 1492.899 817.595 1491.444 817.11 C 1489.504 816.625 1487.078 820.021 1485.623 824.387 C 1485.138 818.08 1484.653 813.714 1482.712 813.229 C 1481.742 812.744 1479.802 815.17 1478.346 818.565 C 1477.861 818.565 1477.861 818.565 1477.376 818.565 C 1478.346 811.774 1478.832 805.953 1476.891 805.468 C 1474.951 804.983 1469.615 810.804 1467.189 820.991 C 1464.279 820.506 1462.338 820.021 1465.734 820.506 L 1465.734 820.506 L 1465.734 820.506 L 1465.734 820.991 L 1465.249 821.961 L 1464.279 823.416 C 1463.793 824.387 1463.308 825.357 1463.308 826.327 L 1463.308 826.327 L 1463.308 826.327 L 1463.308 826.327 C 1463.308 826.812 1463.308 826.812 1463.308 827.297 C 1462.823 827.297 1462.823 827.297 1462.338 827.782 C 1462.338 827.782 1462.338 827.782 1462.338 827.782 C 1462.338 822.446 1460.398 818.08 1457.972 818.08 C 1455.547 818.08 1453.606 821.476 1453.121 825.842 C 1452.636 825.842 1452.151 825.842 1452.151 825.842 C 1452.636 822.931 1452.636 819.536 1453.121 816.14 L 1453.121 815.17 C 1453.121 815.17 1453.121 815.17 1453.121 815.17 L 1453.121 815.17 L 1453.121 814.685 L 1453.121 814.685 L 1453.121 814.685 C 1457.002 815.17 1454.577 814.685 1450.696 814.2 C 1450.211 811.774 1449.24 809.834 1448.27 809.349 C 1446.815 808.863 1444.875 810.804 1442.934 814.2 C 1441.479 814.2 1440.994 814.2 1442.934 814.2 C 1442.449 815.17 1441.964 816.625 1441.479 818.08 C 1440.509 816.625 1439.539 815.17 1438.083 815.17 C 1436.628 815.17 1435.173 816.625 1434.202 818.565 C 1433.232 818.565 1432.262 818.565 1431.292 818.565 C 1431.292 818.565 1431.292 818.565 1431.292 818.565 C 1431.777 815.17 1431.777 811.289 1429.351 810.319 C 1427.896 809.349 1424.986 810.804 1423.045 814.2 C 1422.075 810.804 1420.62 808.863 1419.164 808.863 C 1416.739 808.863 1414.313 814.685 1414.313 821.961 C 1413.828 819.536 1413.343 818.08 1411.888 817.595 C 1410.918 817.11 1409.462 818.08 1408.007 820.021 C 1407.037 815.655 1405.096 812.744 1403.156 812.744 C 1402.186 812.744 1401.701 813.229 1400.731 814.685 C 1399.76 814.685 1398.79 814.685 1398.305 814.685 C 1398.79 810.319 1398.79 807.408 1397.335 806.438 C 1396.85 806.438 1396.85 806.438 1396.365 806.438 C 1395.88 800.132 1394.424 796.251 1392.969 796.251 C 1391.029 796.251 1388.603 804.012 1387.633 815.17 C 1384.237 814.2 1382.297 813.714 1385.692 814.685 L 1385.692 814.685 L 1385.692 815.17 L 1385.207 817.11 C 1383.267 821.961 1382.782 827.297 1383.752 832.633 C 1383.752 834.089 1384.722 835.544 1384.722 836.999 L 1385.692 838.94 L 1385.692 839.425 C 1384.722 839.425 1384.237 839.425 1383.267 839.425 C 1382.782 836.999 1380.841 835.059 1378.416 835.059 C 1376.961 835.059 1375.99 836.029 1375.02 836.999 C 1374.535 836.999 1374.05 836.999 1373.08 836.999 C 1374.05 831.178 1375.02 825.842 1372.595 824.872 C 1371.139 824.387 1367.744 826.327 1365.318 830.693 C 1366.288 824.872 1365.803 820.506 1363.863 820.021 C 1361.923 819.536 1359.497 821.961 1357.557 826.812 C 1357.072 824.387 1356.587 822.931 1355.131 822.931 C 1354.646 822.931 1354.161 822.931 1353.676 823.416 C 1353.191 818.08 1351.25 814.2 1349.31 814.2 C 1348.34 814.2 1346.885 815.655 1345.914 817.595 C 1344.944 814.685 1343.489 812.744 1342.034 812.744 C 1341.063 812.744 1340.093 813.714 1339.608 815.655 C 1339.608 815.655 1339.608 815.655 1339.608 815.655 C 1339.123 814.2 1338.638 813.229 1337.668 812.744 C 1337.668 812.744 1337.183 812.744 1337.183 812.744 C 1336.697 809.349 1336.212 806.923 1334.757 806.438 C 1333.302 806.438 1331.361 808.863 1329.906 813.229 C 1329.906 813.229 1329.906 813.229 1329.906 813.229 C 1329.421 814.685 1328.936 816.625 1328.451 818.565 L 1327.481 818.565 C 1327.481 817.595 1326.995 816.625 1326.995 815.655 C 1324.57 803.527 1323.6 793.34 1320.689 792.855 C 1318.264 792.37 1314.868 803.527 1317.779 817.11 C 1317.779 817.595 1318.264 818.08 1318.264 818.565 C 1317.779 818.08 1317.293 817.595 1316.323 817.595 C 1314.383 817.595 1312.928 821.961 1312.928 827.782 C 1311.957 825.357 1310.502 823.902 1309.047 823.902 C 1307.591 823.902 1306.621 824.872 1305.651 826.812 C 1304.681 825.842 1304.196 825.357 1303.226 825.357 C 1303.226 825.357 1302.74 825.357 1302.74 825.357 C 1302.74 825.357 1302.74 825.357 1302.74 825.357 C 1301.285 813.714 1303.226 804.012 1300.315 803.042 C 1299.345 802.557 1296.919 804.983 1294.979 809.834 C 1294.009 796.251 1291.098 785.579 1288.673 785.579 C 1285.762 785.579 1284.307 797.706 1285.277 812.259 C 1285.277 812.744 1285.277 813.714 1285.277 814.2 C 1282.851 814.2 1281.396 814.685 1284.792 814.2 L 1284.792 814.2 L 1284.792 814.685 C 1284.792 814.685 1284.792 814.685 1284.792 814.685 L 1284.792 814.685 C 1280.911 814.2 1277.03 814.2 1281.396 814.685 L 1281.396 814.685 L 1281.396 814.685 L 1281.396 815.17 C 1281.396 815.17 1281.396 815.17 1281.396 815.17 L 1281.396 815.17 L 1281.396 816.14 L 1281.396 818.08 C 1281.396 820.506 1280.911 822.931 1280.911 825.357 C 1280.911 825.357 1280.426 825.357 1280.426 825.357 L 1279.941 826.327 C 1279.456 827.297 1278.971 827.782 1278.971 828.753 C 1278.971 828.753 1278.485 828.753 1278.485 828.753 C 1278.485 828.267 1278 827.782 1278 826.812 L 1278 825.842 C 1278 825.842 1278 825.842 1278 825.842 L 1278 825.842 C 1278 825.842 1278 825.842 1277.515 825.842 C 1277.515 825.842 1279.941 825.842 1276.545 825.357 C 1276.06 822.931 1274.605 820.506 1272.664 820.021 C 1271.694 819.536 1270.239 820.506 1269.269 821.476 C 1268.784 819.536 1268.298 818.08 1266.843 817.595 C 1264.903 817.11 1261.992 820.021 1260.052 824.872 C 1260.052 824.872 1260.052 824.872 1260.052 824.872 C 1260.052 824.387 1260.052 823.902 1260.052 823.416 C 1260.052 815.655 1258.111 808.863 1255.201 808.863 C 1253.745 808.863 1252.29 811.289 1251.32 814.685 C 1250.35 812.744 1249.38 811.289 1247.924 811.289 C 1246.954 811.289 1245.499 812.259 1245.014 814.2 C 1244.043 813.229 1243.558 812.259 1242.103 812.259 C 1240.648 812.259 1239.678 813.229 1238.707 815.17 C 1238.707 815.17 1238.707 815.17 1238.222 815.17 C 1237.737 814.685 1237.737 814.2 1237.252 814.2 L 1237.252 813.714 C 1237.737 813.714 1238.707 814.2 1237.252 813.714 L 1237.252 813.229 L 1237.252 813.229 L 1237.252 813.229 C 1236.767 813.229 1236.282 813.229 1235.797 812.744 C 1235.312 812.259 1234.827 812.259 1234.341 812.259 C 1234.341 812.259 1233.856 812.259 1233.856 812.259 C 1233.856 812.259 1233.856 812.259 1233.856 812.259 C 1233.856 807.408 1233.371 804.012 1231.431 803.527 C 1230.946 803.527 1230.946 803.527 1230.461 803.527 C 1229.976 802.072 1229.49 801.102 1228.52 801.102 C 1226.58 800.617 1224.639 804.983 1223.184 811.289 C 1220.274 810.804 1218.333 810.804 1218.818 810.804 L 1217.848 812.744 L 1217.848 813.229 C 1217.363 813.229 1217.363 813.229 1216.878 813.229 C 1217.848 804.983 1217.363 799.647 1215.423 799.161 C 1212.997 798.191 1207.661 808.378 1206.206 820.991 C 1206.206 821.961 1206.206 822.446 1205.721 823.416 C 1203.78 823.902 1201.355 824.387 1199.414 825.357 C 1195.533 824.872 1195.533 826.327 1195.533 827.782 C 1194.078 828.753 1193.108 829.723 1191.653 830.693 C 1191.653 830.693 1191.653 830.693 1191.653 830.693 C 1190.197 831.178 1189.227 831.663 1187.772 832.148 C 1187.772 832.148 1187.772 832.148 1187.772 832.148 C 1187.772 832.148 1187.772 832.148 1187.772 832.148 L 1188.257 828.753 L 1188.257 827.782 C 1185.832 826.812 1194.078 828.753 1182.436 825.842 L 1181.951 826.327 L 1181.951 826.327 C 1181.466 826.327 1181.466 826.327 1181.951 826.327 L 1180.981 827.782 C 1180.01 829.238 1179.525 830.693 1178.555 832.148 C 1178.555 832.148 1178.555 831.663 1178.07 831.663 L 1178.07 831.663 L 1178.07 830.693 L 1178.07 830.208 L 1178.07 830.208 C 1175.159 829.238 1184.861 832.633 1171.279 827.782 L 1171.279 828.267 L 1170.793 828.753 C 1169.823 828.267 1170.308 828.753 1170.793 828.753 L 1167.398 834.089 C 1165.942 832.148 1165.457 831.663 1167.398 834.089 L 1166.913 835.059 C 1165.942 835.059 1163.517 834.574 1158.666 833.604 L 1158.666 833.604 L 1158.666 833.604 C 1157.211 833.118 1158.181 833.604 1158.666 833.604 L 1158.666 833.604 C 1158.666 833.604 1158.666 833.604 1158.666 833.604 L 1158.181 834.089 L 1157.696 835.059 L 1156.726 836.999 C 1153.33 836.029 1147.994 834.574 1148.964 835.059 L 1148.964 835.544 C 1147.024 835.059 1146.053 834.574 1148.964 835.544 L 1148.964 835.544 L 1148.964 835.544 L 1148.479 836.514 L 1147.024 838.94 C 1147.024 838.94 1147.024 839.425 1146.538 839.425 C 1145.083 839.425 1144.113 839.425 1143.143 839.425 C 1139.747 839.425 1136.836 839.425 1140.717 839.425 L 1140.717 839.425 L 1140.717 839.425 L 1140.717 839.91 L 1140.232 842.335 C 1139.747 843.306 1139.262 844.761 1138.777 845.731 C 1137.322 845.246 1135.866 845.246 1134.896 844.761 C 1134.896 840.88 1133.926 837.969 1131.5 837.484 C 1130.53 837.484 1129.56 837.969 1128.59 838.94 C 1127.134 838.455 1124.709 839.91 1122.769 842.335 C 1121.313 839.91 1119.858 838.455 1118.403 838.94 C 1116.947 838.94 1115.977 840.395 1115.492 842.335 C 1115.492 840.395 1115.007 838.94 1114.037 838.94 C 1112.581 838.455 1109.671 840.395 1107.73 844.761 C 1107.73 844.276 1107.245 844.276 1106.76 844.276 C 1105.305 843.791 1101.909 848.157 1099.484 854.463 C 1098.514 854.463 1098.029 854.463 1096.573 854.463 L 1096.573 854.463 L 1096.573 854.948 C 1096.573 854.948 1096.573 854.948 1096.573 854.948 C 1096.088 854.948 1095.603 854.948 1095.118 854.948 C 1094.633 846.216 1092.692 839.425 1090.752 839.425 C 1088.812 839.425 1086.871 845.246 1085.901 853.493 C 1084.446 853.007 1083.961 853.007 1085.901 853.493 C 1085.901 854.463 1085.901 854.948 1085.901 855.918 L 1084.931 859.314 L 1084.446 860.769 C 1078.625 860.769 1079.595 860.769 1080.565 860.769 L 1080.565 860.769 L 1080.565 860.769 L 1080.565 861.254 L 1080.565 861.739 L 1080.08 864.165 C 1080.08 865.62 1080.08 866.59 1079.595 868.046 C 1079.11 868.046 1079.11 868.046 1078.625 868.046 C 1076.684 868.046 1074.744 867.56 1075.714 867.56 L 1075.714 867.56 L 1075.714 867.56 L 1075.714 868.046 C 1073.774 868.046 1073.288 868.046 1075.714 868.046 L 1075.714 868.046 C 1074.744 868.046 1073.774 868.531 1072.803 868.531 C 1072.318 868.531 1071.833 868.046 1071.348 868.046 C 1070.863 866.59 1069.893 865.135 1068.923 864.65 C 1069.408 864.165 1068.923 864.165 1066.012 864.165 C 1065.527 860.769 1064.557 858.829 1063.101 858.344 C 1060.676 857.373 1057.28 864.165 1055.825 872.411 C 1055.825 872.411 1055.825 872.897 1055.825 872.897 C 1053.884 873.382 1051.944 874.352 1050.489 875.322 C 1050.489 865.62 1050.004 857.373 1047.578 856.888 C 1045.153 856.403 1041.272 864.65 1040.787 874.837 C 1040.787 875.322 1040.302 875.807 1040.302 876.292 C 1039.331 876.777 1038.361 876.777 1037.391 877.262 C 1037.391 876.777 1037.391 876.292 1037.876 875.807 L 1038.361 871.441 L 1038.361 869.986 C 1040.787 869.986 1039.817 869.986 1038.361 869.986 L 1038.361 869.501 L 1038.361 869.501 C 1038.846 869.501 1036.421 869.016 1033.995 869.016 C 1033.51 865.135 1032.055 862.709 1030.6 862.709 C 1030.6 862.709 1030.115 862.709 1030.115 862.709 C 1029.629 860.769 1028.659 859.314 1027.689 858.829 C 1025.264 858.344 1021.868 863.68 1020.413 870.956 C 1019.927 870.471 1019.442 870.471 1018.957 870.471 C 1018.472 870.471 1017.987 870.471 1017.987 870.471 C 1017.502 870.471 1017.502 870.471 1017.017 870.471 C 1017.017 869.016 1017.502 867.56 1017.017 865.62 C 1018.472 860.284 1017.017 854.948 1014.591 854.463 C 1013.136 853.978 1011.681 854.948 1010.711 857.373 C 1010.711 857.373 1010.711 857.373 1010.226 857.373 C 1008.77 856.888 1005.86 860.769 1003.434 867.075 C 1002.949 860.284 1002.464 855.918 1000.038 854.948 C 998.583 854.463 997.128 856.403 995.673 859.799 C 995.187 843.791 995.673 831.663 992.762 831.178 C 990.822 830.693 987.426 839.91 986.456 852.522 C 985.971 853.493 985.485 854.948 985 856.888 C 984.515 857.373 984.03 857.858 983.06 858.829 C 980.149 858.829 979.179 859.314 982.575 858.829 L 982.575 858.829 L 982.575 858.829 C 982.575 858.829 982.575 858.829 982.575 859.314 C 980.634 862.224 978.694 866.59 977.239 871.926 C 975.298 873.382 973.843 876.777 972.873 881.628 C 972.388 876.777 970.932 873.867 968.992 873.867 C 968.022 873.867 967.052 875.322 966.081 877.262 C 966.081 877.262 966.081 877.262 966.081 877.262 C 965.596 875.322 964.626 873.867 963.171 873.867 C 963.171 873.867 963.171 873.867 963.171 873.867 C 962.686 873.382 962.201 872.897 961.716 872.411 C 959.29 871.926 955.409 877.748 954.924 886.479 C 954.924 886.964 954.439 887.45 954.439 887.45 C 952.014 886.964 949.103 886.964 946.677 886.479 L 946.677 886.479 C 947.648 886.479 945.222 886.479 942.797 886.479 C 941.826 886.479 940.371 886.479 939.401 886.479 L 939.886 885.994 L 939.886 885.994 C 940.371 885.994 938.916 885.994 936.49 885.994 C 935.52 884.054 934.55 882.599 933.095 882.599 C 932.124 882.599 930.669 883.569 930.184 885.024 C 930.184 885.024 930.184 885.024 930.184 885.024 C 929.699 884.054 928.729 883.569 928.244 883.084 C 927.759 881.628 927.274 880.658 926.303 880.173 C 925.333 879.688 924.363 880.173 923.393 880.658 C 922.423 875.322 920.967 871.441 919.027 871.441 C 918.057 871.441 916.601 872.897 915.631 875.322 C 914.661 873.867 913.691 872.897 913.206 872.897 C 911.75 872.897 910.78 874.837 909.81 878.233 C 908.84 877.748 907.87 877.748 907.384 877.748 C 907.384 877.748 907.384 877.262 907.384 877.262 L 907.87 874.352 L 908.355 872.897 L 908.355 872.411 L 908.355 872.411 C 904.959 872.411 914.661 872.411 903.989 872.411 L 903.989 870.956 L 903.989 869.986 L 903.989 869.501 C 907.384 869.986 905.444 869.986 902.533 869.016 C 903.019 863.195 902.533 859.314 901.078 858.829 C 898.653 858.344 893.802 868.046 891.376 880.173 C 891.376 881.143 890.891 882.599 890.891 883.569 C 890.406 883.569 889.921 883.569 889.436 884.054 L 889.436 884.054 C 886.04 884.054 897.197 884.054 881.674 884.054 L 881.674 884.539 L 881.674 884.539 C 879.249 884.539 876.823 885.024 874.398 885.509 C 873.913 884.539 873.913 884.054 873.913 884.539 L 873.913 884.539 L 873.913 884.539 L 873.913 884.539 L 873.427 884.539 L 872.942 884.539 C 871.972 882.599 871.972 881.628 872.942 884.539 L 872.457 884.539 L 871.972 884.539 C 871.487 884.539 871.002 885.024 870.517 885.024 C 859.36 882.599 868.091 884.539 865.181 884.054 L 865.181 884.054 L 865.181 884.539 L 864.696 885.994 L 864.696 885.994 C 863.725 885.994 862.755 885.509 861.785 885.509 C 862.755 885.024 864.696 884.539 856.449 884.539 L 856.449 885.509 C 853.053 885.509 850.143 885.024 846.747 885.509 C 844.321 885.509 841.896 885.994 839.956 885.994 C 839.956 885.994 839.471 885.994 839.471 885.994 L 839.471 885.994 L 839.471 885.509 L 839.471 885.024 L 839.471 885.024 C 836.56 884.539 845.292 885.994 835.105 884.054 L 834.62 883.084 L 834.62 882.599 L 834.62 882.599 L 834.62 882.599 C 835.59 882.599 830.739 882.599 827.343 882.113 C 825.888 879.203 823.462 877.262 822.007 877.748 C 821.522 877.748 820.552 878.718 820.552 879.688 C 820.067 876.777 819.096 874.352 818.126 874.352 C 816.671 873.867 814.73 876.777 813.275 881.143 C 813.275 881.143 812.79 881.143 812.305 880.658 C 811.82 876.292 809.879 873.382 807.939 872.897 C 805.999 872.411 804.058 875.807 803.088 880.658 C 801.148 880.173 798.722 880.173 797.752 879.688 C 797.267 878.718 796.297 876.777 794.356 877.262 C 793.871 876.777 792.901 876.292 791.931 876.292 C 789.99 876.292 788.05 878.233 787.565 881.143 C 787.08 881.143 786.595 881.143 786.11 881.143 C 784.654 881.143 783.199 881.143 781.744 881.143 L 781.259 880.658 L 781.259 880.173 L 781.259 880.173 L 781.259 880.173 C 786.595 879.203 779.803 880.173 775.437 881.143 L 774.952 877.748 L 774.952 876.777 C 780.773 876.777 773.497 876.777 768.646 876.777 L 767.676 874.352 L 767.191 873.867 C 767.191 873.867 767.191 873.867 767.191 873.867 C 770.101 873.382 769.131 873.867 767.191 873.867 C 766.706 870.956 766.22 869.016 764.28 868.531 C 762.825 868.046 760.399 869.501 758.944 872.897 C 757.974 872.897 757.004 872.897 756.033 872.897 C 750.212 872.897 751.182 872.897 752.153 872.897 L 752.153 872.897 L 752.153 873.382 C 751.668 875.322 751.668 876.777 751.182 878.718 C 750.697 878.718 750.212 878.718 749.727 878.718 C 748.272 878.718 746.817 878.718 744.876 878.718 L 744.876 878.718 C 743.421 878.718 744.391 878.718 744.876 878.718 L 744.876 878.718 L 744.876 879.203 C 744.876 879.203 744.391 879.203 744.391 879.203 L 744.391 879.203 L 744.391 879.203 L 744.391 879.203 C 744.876 879.203 743.906 879.203 742.936 879.688 C 738.085 879.203 733.234 878.718 728.383 878.233 C 727.898 877.748 727.413 877.748 726.927 877.262 C 723.047 877.262 721.106 877.748 719.651 877.748 C 718.681 877.748 717.711 877.748 716.74 877.748 L 716.255 876.292 L 716.255 875.807 L 716.255 875.807 C 719.651 875.807 718.681 875.807 716.255 875.807 C 717.225 875.807 714.8 875.807 711.889 875.807 C 708.979 875.807 706.068 875.807 706.068 875.807 C 703.643 875.807 702.672 875.807 706.068 875.807 L 706.068 875.807 L 706.068 875.807 L 706.068 875.807 L 706.068 876.292 L 706.068 876.777 C 705.583 876.292 705.583 876.292 705.098 875.807 L 705.098 875.807 L 705.098 875.807 L 705.098 875.807 C 706.068 875.807 702.672 876.292 699.277 876.777 C 698.307 876.777 696.851 876.777 695.881 876.777 C 695.881 876.292 695.881 875.807 695.396 875.322 C 695.396 873.867 694.426 871.926 693.456 870.956 C 693.456 870.956 693.456 870.956 693.456 870.471 C 693.456 870.471 692.97 870.471 692.97 870.471 C 692 869.986 691.03 869.501 690.06 869.501 C 689.09 869.501 688.119 869.986 687.634 870.471 C 687.634 870.471 687.634 870.471 687.149 870.471 C 687.149 870.471 687.149 870.471 687.149 870.471 C 686.179 870.471 686.179 870.956 686.664 871.441 C 686.179 872.411 685.694 873.867 685.694 875.322 C 684.724 873.382 683.754 872.411 682.298 871.926 C 682.298 871.926 682.298 871.441 682.298 871.441 C 681.328 871.441 680.358 871.441 679.388 871.441 C 678.903 870.956 678.903 870.956 678.417 870.471 C 677.932 869.016 676.962 868.046 675.507 868.046 C 674.052 867.56 672.111 869.986 671.141 873.382 C 669.686 872.897 668.716 872.897 667.745 872.897 C 669.201 865.62 668.716 859.799 666.29 859.314 C 664.35 858.829 661.924 861.739 659.984 866.59 C 659.984 860.284 659.499 855.918 657.558 855.433 C 655.618 854.948 652.707 859.799 651.252 867.56 C 649.797 867.56 648.341 867.075 647.371 867.075 C 647.371 867.075 647.371 867.075 647.371 867.075 C 647.856 858.344 647.371 851.552 644.946 850.582 C 643.005 850.097 640.58 853.978 639.124 859.314 C 631.363 858.344 640.095 859.314 636.699 859.314 L 636.699 859.314 L 636.699 859.314 L 636.699 859.799 L 636.699 859.799 C 636.699 859.799 636.699 859.799 636.699 859.799 L 636.699 859.799 L 636.699 859.799 L 636.699 860.284 L 636.699 862.224 C 636.699 862.709 636.699 863.195 636.699 863.68 C 636.214 863.68 636.214 863.68 635.729 863.195 C 635.729 863.195 635.729 862.709 635.729 862.709 C 636.214 857.858 634.759 853.978 632.333 853.978 C 630.878 846.216 626.997 840.88 625.057 841.365 C 622.146 842.335 623.116 849.612 623.116 858.829 C 623.116 859.314 623.116 859.314 623.116 859.799 C 622.631 859.799 622.631 859.799 622.146 859.799 C 622.146 859.314 622.146 859.314 622.146 858.829 C 622.631 852.522 621.661 847.186 618.75 846.701 C 616.81 846.216 614.869 848.642 613.899 852.037 C 612.444 847.671 610.504 845.246 609.048 845.246 C 607.593 845.731 606.138 847.671 605.653 850.582 C 604.682 851.067 603.712 852.037 603.227 853.493 C 602.742 853.007 602.257 853.007 601.772 853.007 C 600.316 853.007 598.861 854.463 597.891 856.403 C 596.921 854.463 595.465 853.007 594.495 853.007 C 593.04 853.007 592.07 853.978 591.1 855.918 C 590.129 854.948 589.644 854.463 588.674 854.463 C 586.249 854.463 584.308 857.373 583.823 861.254 C 583.338 861.254 583.338 861.254 582.853 861.254 L 582.853 861.254 C 583.338 861.254 582.853 861.254 582.368 861.254 C 580.427 859.314 578.487 858.829 577.032 859.314 C 576.547 859.799 576.062 860.284 575.576 861.254 C 574.121 861.254 573.636 861.254 573.151 861.254 C 572.666 861.254 572.666 861.254 572.666 861.254 C 572.666 857.858 571.696 854.948 569.755 854.463 C 567.33 853.493 564.419 857.858 562.964 863.68 C 562.479 863.68 561.023 863.68 558.598 863.68 C 555.202 862.709 552.292 862.224 549.381 861.254 C 548.411 859.799 547.926 858.344 547.441 857.373 C 546.956 857.858 545.985 858.344 545.5 858.344 C 545.015 857.858 544.53 857.858 543.56 857.373 C 543.56 857.858 543.56 858.829 544.045 859.314 C 543.56 859.314 543.56 859.799 543.075 859.799 C 542.59 859.799 542.105 859.799 541.619 859.314 C 541.619 859.314 541.619 859.314 541.619 859.314 C 541.619 859.314 541.619 859.314 541.619 859.314 C 540.164 857.373 539.679 854.463 540.164 851.552 L 540.649 848.642 C 540.649 848.642 540.649 848.642 540.649 848.642 L 540.649 848.157 C 541.619 848.157 542.59 847.671 537.254 846.701 C 537.254 846.701 537.254 846.701 537.254 846.701 C 537.739 841.85 536.768 837.969 534.343 837.484 C 533.858 837.484 532.888 837.484 532.403 837.969 L 531.917 836.029 L 531.917 835.059 L 531.917 835.059 C 537.739 835.544 528.522 834.574 525.126 834.574 C 524.156 834.089 523.671 833.604 522.701 833.118 C 522.215 831.663 521.73 829.723 521.245 828.267 L 521.245 827.782 C 524.156 827.782 523.671 827.782 521.245 827.782 L 521.245 827.297 L 521.245 827.297 L 521.245 827.297 C 522.215 827.297 519.305 827.297 516.394 827.782 C 516.394 820.991 515.424 816.14 513.484 815.655 C 512.028 815.17 510.088 818.08 508.633 822.931 L 508.633 820.991 L 508.633 819.536 L 508.633 819.051 L 508.633 819.051 L 508.633 819.051 L 508.633 819.051 C 509.603 819.051 511.058 819.051 504.267 819.051 C 502.811 819.051 501.841 819.051 500.871 819.051 C 500.386 815.655 499.416 813.714 497.96 813.229 C 496.02 812.744 493.595 817.11 492.624 822.931 C 490.684 822.931 490.199 822.931 492.624 822.931 C 492.139 824.387 492.139 826.327 492.139 827.782 C 492.139 828.267 492.139 829.238 492.139 829.723 C 492.139 830.208 492.139 830.208 492.139 830.693 C 492.139 831.178 492.139 832.148 492.139 832.633 C 489.229 832.633 486.803 832.633 485.348 832.633 C 485.348 832.633 485.348 832.148 485.348 832.148 C 485.833 832.148 486.318 832.633 486.318 832.148 C 486.803 831.663 485.833 830.208 484.378 827.297 C 484.378 827.297 484.378 826.812 484.378 826.812 C 484.378 826.327 484.378 825.842 484.863 825.842 C 484.863 825.842 484.378 825.842 484.378 825.357 C 484.378 824.872 484.863 824.387 484.863 823.902 L 484.863 822.446 L 484.863 821.961 C 484.378 821.961 483.893 821.961 483.408 822.446 C 483.408 822.446 483.408 821.961 483.408 821.961 C 483.408 821.476 482.922 820.991 482.922 820.506 C 483.893 820.506 483.408 820.506 482.922 820.506 C 482.922 820.506 482.922 820.021 482.922 820.021 C 482.922 819.536 482.922 819.051 482.922 819.051 L 482.922 817.11 C 482.437 817.11 481.952 817.11 481.467 816.625 C 480.982 816.14 480.982 816.14 480.497 815.655 C 480.012 815.655 479.527 815.655 479.527 816.14 C 479.042 811.774 478.071 807.893 477.101 804.983 C 477.586 804.983 477.586 804.983 477.101 804.498 C 476.131 801.102 474.676 799.161 473.706 799.161 C 472.735 799.161 471.765 801.587 471.28 804.983 C 470.795 803.527 470.31 803.042 469.34 802.557 C 468.369 802.557 467.399 803.527 465.944 805.468 C 464.489 804.983 463.518 804.983 462.548 804.498 C 462.548 802.072 463.033 800.132 463.033 797.706 L 463.518 791.885 C 463.518 791.885 463.518 791.885 463.518 791.885 L 463.518 791.885 L 463.518 791.4 C 462.063 791.4 461.093 790.915 460.123 790.915 C 458.667 790.43 457.697 790.43 457.212 790.43 C 456.242 790.43 456.242 790.43 456.727 790.43 C 454.787 790.915 457.212 793.34 455.757 793.825 L 456.242 788.974 L 456.242 785.579 C 458.667 786.064 457.697 785.579 456.242 785.579 L 456.242 785.579 L 456.242 784.608 C 456.727 784.608 456.242 784.608 455.757 784.608 C 455.272 777.817 453.816 772.966 451.876 772.966 C 449.451 772.966 447.025 779.757 446.54 788.974 C 445.57 788.974 444.6 788.974 443.629 788.974 C 442.659 785.579 441.689 783.153 440.719 783.638 C 438.293 783.638 436.353 789.945 435.383 799.161 C 434.898 799.161 434.412 799.161 433.927 798.676 C 433.927 797.706 433.927 796.251 434.412 794.796 L 436.353 787.034 L 436.838 785.094 L 437.323 784.123 L 437.323 783.638 C 437.323 783.638 437.323 783.638 437.323 783.638 L 437.323 783.638 C 442.659 784.608 435.868 783.153 431.502 782.668 L 431.502 782.668 L 431.987 780.728 C 434.898 781.213 434.412 781.213 431.987 780.728 L 431.987 780.243 C 432.472 780.243 431.502 780.243 430.532 779.757 C 430.047 770.055 428.591 762.294 426.166 762.294 C 423.74 762.294 421.8 769.085 421.315 777.817 C 421.315 777.817 421.315 777.817 421.315 777.817 C 421.315 779.272 421.315 780.728 421.315 782.183 C 421.315 782.183 421.315 782.183 421.315 782.668 C 418.404 782.183 415.979 781.213 416.949 781.698 L 416.949 781.698 L 416.949 781.698 C 414.523 781.213 413.553 780.728 416.949 781.698 L 416.949 781.698 L 416.949 782.183 L 416.464 784.123 C 415.979 785.094 415.494 786.064 415.008 787.034 C 414.523 786.549 414.038 786.549 413.553 786.064 C 413.553 786.064 413.553 786.064 413.553 786.064 C 414.038 781.213 414.523 777.332 414.523 773.936 C 414.523 773.936 414.523 773.936 414.523 773.936 C 414.523 770.541 414.038 768.6 412.583 768.115 C 411.613 767.63 409.672 769.57 407.732 772.481 C 407.247 772.481 406.277 772.481 405.792 772.481 L 405.792 771.996 C 405.307 771.996 404.336 771.511 403.851 771.511 C 403.366 766.66 402.396 763.749 400.941 763.264 C 400.456 763.264 399.485 763.749 398.515 765.205 C 398.515 756.958 399 750.652 396.575 749.681 C 395.119 749.196 392.694 752.107 390.754 756.473 C 389.298 753.562 387.843 751.622 386.388 752.107 C 386.388 752.107 385.903 752.107 385.903 752.107 C 385.417 750.166 384.932 748.711 383.477 748.226 C 381.537 747.741 379.596 749.681 377.656 753.562 C 377.656 752.592 378.141 751.137 378.141 749.681 C 378.141 741.435 376.201 734.643 373.29 734.643 C 372.805 734.643 372.32 735.128 371.835 735.613 C 371.835 730.277 370.864 726.397 368.924 725.911 C 367.469 725.911 366.499 727.367 365.043 730.277 C 365.043 725.426 364.558 722.516 363.103 722.031 C 360.677 721.546 356.311 731.733 353.401 744.345 C 353.401 744.83 353.401 744.83 353.401 745.315 C 353.401 743.86 353.401 742.89 353.886 741.435 C 356.311 728.337 356.311 717.18 353.401 716.695 C 352.916 716.695 352.431 716.695 351.946 717.18 C 352.431 704.567 350.975 695.35 349.035 695.35 C 346.124 695.35 344.184 710.873 340.788 729.792 C 340.303 732.218 339.818 734.643 339.818 736.584 C 339.333 734.158 338.848 732.218 337.878 731.248 C 337.878 727.852 337.393 725.426 336.422 725.426 C 333.997 724.941 329.146 734.158 325.75 746.286 C 325.265 747.256 325.265 748.711 324.78 749.681 C 324.295 747.741 323.325 746.771 322.355 746.771 C 322.355 746.771 321.869 746.771 321.384 746.771 C 320.899 742.405 319.444 739.494 317.989 739.009 C 317.018 739.009 316.533 739.494 315.563 740.464 C 315.563 737.554 315.078 735.613 313.623 735.128 C 311.197 734.643 306.831 742.405 304.406 753.077 C 304.406 753.077 303.921 752.592 303.921 752.592 C 302.465 752.107 300.525 753.562 299.07 756.473 C 298.585 756.473 297.614 756.473 297.129 755.988 L 296.644 756.958 C 296.644 756.958 296.644 756.958 296.644 756.958 L 296.159 758.413 C 296.644 750.166 294.704 743.375 292.278 743.375 C 289.368 743.375 286.942 750.166 286.457 758.413 C 286.457 758.413 286.457 758.898 286.457 758.898 C 284.517 758.413 283.061 758.413 282.091 757.928 C 282.091 757.443 282.091 756.958 282.091 756.473 L 282.091 755.988 L 282.091 755.988 C 286.942 756.958 282.576 755.988 278.21 755.017 C 277.725 754.532 277.24 754.047 276.27 754.047 C 275.785 754.047 275.785 754.047 275.3 754.532 C 275.3 754.532 274.815 754.532 274.815 754.532 C 274.815 753.562 274.815 753.077 274.33 752.107 L 274.33 751.622 L 274.33 751.137 L 274.33 751.137 C 278.21 751.137 276.27 751.137 273.359 751.137 L 261.717 751.137 C 261.232 750.652 261.232 750.652 260.747 750.166 C 260.747 750.166 260.262 749.681 260.262 749.681 C 258.321 748.711 261.232 746.771 257.836 745.801 C 257.836 740.95 257.836 737.069 255.896 736.584 C 254.441 736.099 252.015 739.494 250.075 744.83 C 243.768 741.92 247.649 746.286 245.224 745.801 C 244.739 746.771 243.768 747.741 242.798 748.711 C 242.798 747.741 242.798 746.771 243.283 746.771 L 243.283 744.83 C 240.858 743.375 249.104 746.286 237.947 741.435 L 236.977 742.405 C 236.977 742.405 236.977 742.405 236.492 742.89 C 236.492 742.89 236.492 742.405 236.492 742.405 L 236.492 739.979 L 236.492 738.524 L 236.492 738.039 L 236.492 737.554 L 236.492 737.554 C 239.402 737.554 237.947 737.554 236.007 737.554 C 236.492 731.248 236.977 726.397 235.037 725.426 C 233.581 724.456 229.215 729.792 227.275 737.554 C 223.879 736.099 219.028 734.643 223.394 736.099 L 223.394 736.099 L 223.394 736.099 L 223.394 736.099 C 223.394 736.099 223.394 736.099 223.394 736.099 L 223.394 736.584 C 223.394 737.069 222.909 737.069 222.909 737.554 C 221.939 736.584 220.484 735.613 219.513 734.643 C 219.513 733.188 219.999 731.733 219.999 730.277 L 220.484 726.882 L 220.969 725.426 L 220.969 724.456 L 220.969 724.456 L 220.969 724.456 C 220.969 724.456 220.969 724.456 220.969 724.456 L 220.969 724.456 C 221.939 724.456 222.424 724.456 220.969 724.456 L 220.969 724.456 L 220.969 723.971 C 219.513 723.971 218.543 723.971 217.088 723.971 C 210.297 711.358 215.148 720.575 213.207 717.665 L 212.722 717.665 C 212.237 717.665 211.752 718.15 210.782 718.15 C 210.297 708.933 209.326 703.112 207.386 703.112 C 205.446 703.112 203.99 708.448 202.535 716.209 C 201.08 715.724 199.139 715.239 196.714 714.754 L 196.714 714.754 C 195.258 714.269 195.744 714.754 196.714 714.754 L 196.714 714.754 C 196.714 714.754 196.714 714.754 196.714 714.754 L 196.714 714.754 L 196.714 714.754 L 195.744 717.665 L 194.773 722.516 C 190.407 722.516 186.527 723.001 191.378 722.516 L 191.378 723.001 L 190.893 724.941 L 190.407 728.822 L 189.437 733.188 L 189.437 733.188 C 189.437 733.188 189.437 733.188 189.437 733.188 L 189.437 733.188 L 189.437 733.188 C 170.518 729.792 184.101 732.218 179.735 731.733 L 179.735 731.733 C 179.735 731.733 179.735 731.733 179.735 731.733 C 179.735 731.733 179.735 731.733 179.735 731.733 L 179.735 731.733 L 179.735 732.218 L 179.735 732.218 C 179.25 732.218 179.25 732.218 178.765 732.218 C 179.25 732.218 178.765 732.218 177.795 732.218 C 177.31 731.248 176.825 730.762 175.854 730.762 C 174.884 730.762 173.914 731.248 173.429 732.218 C 171.003 732.218 168.578 732.218 169.548 732.218 L 169.548 732.218 C 167.123 732.218 166.152 732.218 169.548 732.218 L 169.548 732.218 L 169.548 732.703 L 169.548 733.188 L 169.548 734.643 C 169.548 734.643 169.548 734.643 169.548 734.643 C 168.578 734.643 167.608 734.158 166.638 734.158 C 165.667 732.703 164.697 731.733 163.242 731.733 C 162.272 731.733 161.301 732.218 160.816 733.188 C 160.331 733.188 160.331 733.188 160.816 733.188 C 160.331 733.673 159.846 734.643 159.361 736.099 C 159.361 736.099 159.361 736.099 158.876 736.099 C 158.391 736.099 156.936 735.613 155.48 735.613 C 155.48 735.613 154.995 735.613 154.995 735.613 C 154.51 735.613 154.025 735.613 153.54 735.613 C 152.57 735.613 152.085 735.613 151.599 735.128 C 149.174 734.643 147.234 734.643 150.629 735.128 L 150.629 735.128 L 150.629 736.099 L 150.144 739.009 L 150.144 739.979 C 149.659 740.95 149.174 741.435 148.689 742.405 C 148.689 741.92 148.689 741.92 148.689 741.435 C 150.144 736.099 148.689 730.762 146.263 729.792 C 143.838 728.822 140.927 732.703 139.472 738.524 C 138.017 739.009 137.047 739.009 136.076 739.009 C 136.076 739.009 135.591 739.009 135.591 739.009 L 135.591 739.009 C 135.591 739.009 135.106 739.009 135.106 739.009 C 134.136 738.524 132.196 738.039 129.77 737.554 C 130.255 730.762 131.225 725.911 128.8 724.941 C 126.859 723.971 120.553 730.277 120.068 739.979 C 120.068 738.524 120.068 736.584 120.068 734.643 C 118.128 733.673 117.157 733.673 116.672 733.673 C 116.187 732.703 115.217 731.733 114.247 730.762 C 114.247 729.307 114.247 727.852 114.247 726.397 C 112.792 726.397 111.821 726.397 110.851 726.397 L 110.851 724.941 L 110.851 723.971 L 110.851 723.971 L 110.851 723.971 C 107.455 723.971 105.515 723.971 104.545 723.971 C 104.06 723.971 103.09 723.971 102.604 723.971 L 102.604 723.486 C 103.575 725.426 101.634 714.754 96.298 719.605 C 95.813 719.605 95.328 719.12 94.843 719.12 C 95.328 715.724 95.813 712.329 95.813 708.448 L 95.813 705.537 L 95.813 704.567 L 95.813 704.567 C 100.664 704.567 96.298 704.567 91.932 704.567 C 90.962 704.567 89.507 704.567 88.537 704.567 C 88.537 700.686 89.992 697.291 90.477 693.41 L 90.477 692.925 L 90.477 692.44 L 90.477 692.44 L 90.477 692.44 C 87.081 691.469 95.813 693.41 87.566 691.469 C 88.051 682.738 85.141 676.431 83.2 676.916 C 80.775 677.887 79.805 685.648 77.379 696.805 C 76.409 701.171 76.409 705.052 76.894 708.448 C 75.439 713.784 72.528 717.18 69.618 720.09 C 69.618 718.635 69.618 719.12 69.133 720.09 C 68.647 720.575 67.677 721.06 67.192 721.546 C 56.52 721.546 72.528 721.546 65.252 721.546 L 65.252 721.546 L 65.252 721.546 L 64.767 722.031 L 64.282 722.516 L 63.796 723.486 C 60.886 723.486 58.46 723.971 58.946 723.971 L 58.946 723.971 L 59.431 724.941 L 59.916 725.426 C 58.946 725.911 58.46 725.911 57.49 726.397 C 56.035 725.911 54.095 725.911 51.184 724.941 C 51.184 723.486 51.184 722.031 51.184 720.575 C 51.184 719.12 51.184 718.15 50.699 717.18 C 52.154 717.18 51.669 717.18 50.699 717.18 C 50.214 711.844 48.273 707.963 45.848 707.963 C 43.907 707.963 42.452 711.358 41.482 715.724 C 40.997 715.724 40.512 715.724 40.997 715.724 L 40.997 715.724 L 40.997 716.209 L 40.997 716.209 C 38.086 712.814 36.631 713.784 35.661 715.239 C 34.691 712.814 33.72 710.388 34.691 713.299 C 34.205 713.299 33.72 713.299 33.235 713.784 C 33.235 713.299 33.235 713.299 33.235 713.299 C 33.235 713.299 33.235 712.814 33.235 712.814 C 36.146 703.112 32.75 694.38 30.325 694.865 C 28.384 695.35 26.929 698.746 25.959 703.597 C 25.474 703.597 25.474 703.597 24.989 703.597 C 24.989 703.597 24.503 703.597 24.503 703.597 C 24.503 698.261 24.989 694.865 24.503 694.865 C 24.018 694.865 23.048 697.776 22.078 703.112 C 19.652 697.776 15.772 694.865 14.316 695.835 C 11.891 697.291 13.346 702.142 13.831 708.933 C 12.376 708.448 10.921 708.448 9.95 708.448 C 10.436 706.993 10.436 705.537 10.436 703.597 C 10.436 697.291 8.495 692.44 5.585 692.44 C 2.674 692.44 0.734 697.291 0.734 703.597 C 0.734 706.507 1.219 708.933 1.704 710.873 C 0.734 710.388 -0.237 710.388 -1.207 709.903 L -1.207 707.478 L -1.207 706.022 L -1.207 705.537 L -1.207 705.052 C -4.603 704.567 4.614 705.537 -4.603 704.567 C -4.603 704.567 -4.603 704.567 -4.603 704.082 L -5.088 698.746 L -5.088 698.261 L -5.088 697.776 L -5.088 697.776 C -9.454 699.716 0.248 701.171 -9.939 699.716 L -9.939 1254.67 L 1930.459 1254.67 Z " fill="rgb(25,42,46)"/></g></svg>