<?xml version="1.0" standalone="no"?><!-- Generator: Gravit.io --><svg xmlns="http://www.w3.org/2000/svg" xmlns:xlink="http://www.w3.org/1999/xlink" style="isolation:isolate" viewBox="0 0 1920 1080" width="1920" height="1080"><defs><clipPath id="_clipPath_IgPLgdfXVnjtTgfGWFBwXqgIZp8WXrYD"><rect width="1920" height="1080"/></clipPath></defs><g clip-path="url(#_clipPath_IgPLgdfXVnjtTgfGWFBwXqgIZp8WXrYD)"><path d=" M 1990.148 479.552 C 1990.148 479.183 1990.706 478.446 1990.706 477.708 C 1990.706 475.863 1990.148 474.757 1989.033 474.757 C 1988.475 474.757 1987.917 475.494 1987.359 476.601 C 1986.801 476.601 1986.801 476.601 1986.243 476.601 C 1986.243 476.601 1986.243 476.601 1986.243 476.601 C 1986.243 476.601 1986.243 476.232 1986.243 476.232 C 1986.243 476.232 1986.243 476.232 1986.243 476.232 C 1986.801 476.232 1986.801 475.863 1987.359 475.125 C 1987.359 474.388 1987.359 473.65 1986.801 473.65 C 1986.243 473.65 1985.685 474.019 1985.685 474.757 C 1985.685 474.757 1985.685 475.125 1985.685 475.125 C 1985.685 475.125 1985.685 475.125 1985.127 475.125 C 1984.569 475.125 1984.569 475.494 1984.569 475.863 C 1984.012 475.863 1983.454 476.232 1983.454 476.601 C 1983.454 476.232 1982.896 476.232 1982.338 476.232 C 1982.338 476.232 1982.338 476.232 1982.338 476.232 C 1982.338 476.232 1982.338 476.232 1982.338 476.232 C 1981.78 476.232 1981.78 476.601 1981.78 476.97 C 1981.78 477.339 1981.78 477.339 1981.78 477.708 C 1981.78 477.708 1981.78 477.708 1981.78 477.708 C 1981.78 477.708 1981.78 477.708 1981.222 477.708 C 1981.222 477.708 1981.222 477.708 1981.222 477.339 C 1981.222 476.601 1980.664 476.232 1980.106 476.232 C 1979.548 476.232 1979.548 476.97 1979.548 477.708 C 1979.548 478.077 1980.106 478.077 1980.106 478.077 C 1980.106 478.446 1980.106 478.446 1980.106 478.814 C 1980.106 478.814 1980.106 478.814 1979.548 478.814 C 1979.548 478.446 1979.548 478.077 1978.991 478.077 C 1978.991 477.339 1978.991 476.601 1978.433 476.232 C 1977.875 476.232 1977.317 476.97 1977.317 478.077 C 1977.317 478.077 1977.317 478.077 1976.759 478.077 C 1976.201 478.077 1975.643 478.446 1976.201 479.183 C 1976.201 479.183 1976.201 479.183 1976.201 479.552 C 1976.201 479.552 1976.201 479.552 1976.201 479.552 C 1976.201 479.183 1976.201 479.183 1975.643 479.183 C 1975.643 478.814 1975.085 478.446 1975.085 478.446 C 1974.527 478.446 1973.97 478.814 1974.527 479.552 C 1974.527 479.552 1975.085 479.921 1975.085 479.921 C 1975.085 479.921 1974.527 479.921 1974.527 479.921 C 1974.527 479.921 1974.527 479.921 1974.527 479.921 C 1974.527 479.552 1973.97 479.183 1973.412 479.183 C 1972.854 479.183 1972.296 479.552 1972.854 480.29 C 1972.854 480.29 1972.854 480.29 1972.854 480.29 C 1972.296 480.29 1971.738 480.659 1971.18 480.659 C 1971.18 480.29 1970.622 479.921 1970.064 479.921 C 1970.064 479.921 1969.506 479.921 1969.506 480.29 C 1969.506 480.29 1969.506 479.921 1968.948 479.921 C 1968.391 479.921 1968.391 480.29 1967.833 481.028 C 1967.833 481.028 1967.275 481.028 1967.275 480.659 C 1967.275 480.659 1967.275 480.659 1966.717 480.29 C 1966.717 480.29 1966.159 479.921 1965.043 479.552 C 1963.927 479.552 1964.485 479.552 1963.927 478.814 C 1962.812 478.446 1962.254 478.446 1962.254 478.446 C 1962.254 477.708 1961.138 476.97 1960.022 477.339 C 1960.022 477.339 1960.022 477.339 1960.022 477.339 C 1960.022 477.339 1960.022 477.339 1960.022 477.339 C 1960.022 477.339 1960.022 477.339 1960.022 477.339 C 1959.464 477.708 1958.906 478.077 1960.58 478.077 C 1960.58 478.077 1960.58 478.446 1960.58 478.446 C 1960.022 478.446 1959.464 478.446 1958.906 478.077 C 1958.906 478.077 1959.464 478.077 1959.464 477.339 C 1959.464 476.601 1959.464 475.863 1958.906 475.863 C 1958.349 475.863 1958.349 476.232 1957.791 476.601 C 1957.791 476.601 1957.233 476.601 1957.233 476.97 C 1957.233 476.232 1956.675 475.494 1956.675 475.494 C 1956.117 475.494 1956.117 476.232 1956.117 477.339 C 1956.117 477.339 1956.117 477.708 1956.117 477.708 C 1956.117 477.708 1956.117 477.708 1956.117 477.708 C 1956.117 477.339 1956.117 477.339 1956.117 476.97 C 1956.117 475.863 1955.559 475.125 1955.001 475.125 C 1954.443 475.125 1954.443 476.232 1954.443 476.97 C 1954.443 477.339 1954.443 477.339 1954.443 477.708 C 1953.885 477.708 1952.77 477.708 1952.212 478.077 C 1952.212 478.077 1951.654 478.077 1951.096 478.077 C 1951.096 478.077 1951.096 478.077 1951.096 478.077 C 1951.096 478.077 1950.538 478.077 1950.538 478.077 C 1950.538 478.077 1950.538 478.077 1950.538 478.446 C 1950.538 478.077 1950.538 478.077 1949.98 478.077 C 1949.422 478.077 1948.864 478.446 1948.864 479.552 C 1948.864 479.552 1948.864 479.552 1948.864 479.552 C 1948.864 479.552 1948.864 479.552 1948.864 479.183 C 1948.864 478.446 1948.307 477.708 1947.749 477.708 C 1947.191 477.708 1947.191 478.446 1947.191 479.552 C 1947.191 479.552 1947.191 479.552 1947.191 479.552 C 1946.633 479.552 1946.633 479.552 1946.075 479.552 C 1946.075 479.183 1946.075 479.183 1946.075 479.183 C 1946.075 478.814 1945.517 478.814 1944.959 478.814 C 1944.959 478.077 1944.959 477.339 1944.959 477.339 C 1944.401 477.339 1943.843 478.077 1943.286 479.183 C 1943.286 479.183 1943.286 479.183 1943.286 479.183 C 1943.286 478.446 1942.728 477.339 1942.728 477.339 C 1942.728 477.339 1941.612 478.077 1942.17 478.814 C 1941.612 478.814 1941.612 478.814 1941.054 478.814 C 1941.054 478.077 1940.496 477.708 1940.496 477.339 C 1939.938 477.339 1939.938 477.708 1939.38 478.446 C 1938.822 478.446 1938.265 478.446 1937.707 478.446 C 1937.707 478.077 1937.149 478.077 1937.149 478.077 C 1937.149 478.077 1936.591 478.446 1936.591 478.446 C 1936.591 478.446 1936.033 478.446 1936.033 478.446 C 1936.033 477.708 1935.475 477.339 1934.917 477.339 C 1934.359 477.339 1934.359 477.708 1934.359 478.446 C 1934.359 478.446 1933.801 478.446 1933.801 478.446 C 1933.801 478.446 1933.801 478.446 1933.801 478.446 C 1933.243 478.446 1933.243 478.077 1932.686 478.446 C 1932.686 478.446 1932.686 478.446 1932.686 478.446 C 1932.128 478.446 1931.012 478.446 1930.454 478.446 C 1930.454 478.446 1929.896 478.077 1929.896 478.077 C 1929.896 478.077 1929.338 478.077 1929.338 478.446 C 1929.338 478.446 1929.338 478.446 1928.78 478.446 C 1928.78 478.446 1928.78 478.077 1929.338 477.708 C 1929.338 476.97 1929.338 476.601 1928.78 476.601 C 1928.222 476.601 1927.665 476.97 1927.665 477.708 C 1927.665 478.077 1927.665 478.446 1927.665 478.446 C 1926.549 478.446 1924.875 478.814 1923.759 478.814 C 1923.759 478.446 1923.201 478.077 1923.201 478.077 C 1922.644 478.077 1922.644 478.446 1922.644 479.183 C 1922.644 479.183 1922.644 479.183 1922.644 479.183 C 1922.644 478.814 1922.644 478.814 1922.086 478.814 C 1922.086 478.814 1922.086 478.814 1921.528 478.814 C 1921.528 478.814 1921.528 478.446 1920.97 478.446 C 1920.412 478.446 1919.854 478.814 1919.854 479.552 C 1919.854 479.552 1919.854 479.552 1919.854 479.552 C 1919.854 478.814 1919.854 478.446 1919.296 478.446 C 1919.296 478.446 1918.738 478.446 1918.738 479.183 C 1918.738 479.183 1918.738 478.814 1918.18 478.814 C 1918.18 478.814 1917.623 478.814 1917.623 479.183 C 1917.623 478.814 1917.623 478.814 1917.065 478.814 C 1916.507 478.814 1915.949 479.552 1915.391 480.29 C 1915.391 480.29 1915.391 480.659 1915.391 480.659 C 1915.391 480.659 1915.391 480.659 1915.391 480.659 C 1915.391 480.659 1915.391 480.29 1915.391 480.29 C 1915.391 479.183 1914.833 478.446 1914.275 478.446 C 1913.717 478.446 1913.717 479.183 1913.717 480.29 C 1913.717 480.659 1913.717 480.659 1913.717 481.028 C 1913.717 481.028 1913.717 481.028 1913.159 481.028 C 1913.159 481.028 1913.159 480.659 1913.159 480.29 C 1913.159 479.552 1913.159 478.446 1912.602 478.446 C 1912.044 478.446 1911.486 478.814 1911.486 479.921 C 1910.928 479.921 1910.928 480.29 1910.928 480.659 C 1910.928 481.028 1910.928 481.028 1910.928 481.397 C 1910.928 481.397 1910.928 481.397 1910.37 481.397 C 1910.37 481.397 1910.37 481.397 1910.37 481.397 C 1910.37 480.659 1909.812 480.29 1909.812 480.29 C 1909.812 480.29 1909.812 480.29 1909.812 480.29 C 1909.812 480.29 1909.812 479.921 1909.254 479.921 C 1909.254 479.921 1908.696 480.29 1908.696 480.659 C 1908.696 480.659 1908.696 480.659 1908.696 480.659 C 1908.696 480.659 1908.696 480.659 1908.138 480.659 C 1908.138 480.659 1908.138 480.29 1907.581 480.29 C 1907.023 480.29 1907.023 480.659 1906.465 481.397 C 1906.465 481.397 1906.465 481.397 1906.465 481.397 C 1906.465 481.028 1906.465 481.028 1905.907 480.659 C 1905.907 480.659 1905.349 480.659 1905.349 481.028 C 1905.349 480.659 1905.349 480.29 1904.791 480.29 C 1904.791 480.29 1904.233 480.29 1903.675 480.659 C 1903.117 480.659 1902.56 481.028 1902.56 481.766 C 1902.56 481.766 1902.56 481.766 1902.56 481.766 C 1902.002 481.397 1901.444 481.028 1901.444 481.028 C 1901.444 481.028 1901.444 481.397 1901.444 481.397 C 1901.444 481.397 1901.444 481.397 1901.444 481.397 C 1901.444 481.397 1901.444 481.397 1901.444 481.397 C 1901.444 481.028 1901.444 480.29 1900.886 480.29 C 1900.328 480.29 1900.328 480.29 1900.328 481.028 C 1900.328 481.028 1900.328 480.659 1899.77 480.659 C 1899.77 480.659 1899.212 480.659 1899.212 481.028 C 1899.212 480.659 1898.654 480.659 1898.654 480.659 C 1898.096 480.659 1898.096 481.028 1898.096 481.028 C 1898.096 480.659 1897.538 480.659 1897.538 480.659 C 1896.981 480.659 1896.981 481.028 1896.423 481.766 C 1896.423 481.766 1895.865 481.766 1895.865 481.766 C 1895.865 481.766 1895.865 481.766 1895.865 481.766 C 1895.865 481.397 1895.865 481.397 1895.307 481.397 C 1895.307 481.397 1894.749 481.397 1894.749 481.397 C 1894.749 481.028 1894.191 480.659 1894.191 480.659 C 1893.633 480.659 1893.633 481.028 1893.633 481.397 C 1893.633 480.659 1893.075 480.29 1893.075 480.29 C 1892.517 480.29 1892.517 481.028 1892.517 481.766 C 1892.517 481.766 1892.517 481.766 1891.96 481.766 C 1891.96 481.766 1891.402 481.766 1891.402 482.135 C 1891.402 481.397 1890.844 480.659 1890.844 480.659 C 1890.844 480.659 1890.286 480.659 1890.286 481.028 C 1890.286 481.028 1890.286 480.659 1889.728 480.659 C 1889.17 480.659 1889.17 481.028 1889.17 481.766 C 1889.17 481.397 1888.612 481.028 1888.612 481.028 C 1888.054 481.028 1888.054 481.397 1888.054 482.135 C 1888.054 482.135 1888.054 482.135 1888.054 482.503 C 1887.496 482.503 1886.381 482.503 1885.823 482.503 C 1885.823 481.397 1885.823 480.659 1885.265 480.659 C 1884.707 480.659 1884.149 481.397 1884.149 482.503 C 1884.149 482.503 1884.149 482.503 1884.149 482.503 C 1884.149 482.503 1884.149 482.503 1884.149 482.503 C 1884.149 481.766 1883.591 481.028 1883.591 481.028 C 1883.033 481.028 1883.033 481.766 1883.033 482.503 C 1883.033 482.503 1883.033 482.503 1883.033 482.503 C 1883.033 482.503 1882.475 482.503 1882.475 482.503 C 1882.475 481.766 1881.918 481.028 1881.918 481.028 C 1881.36 481.028 1881.36 481.397 1881.36 482.135 C 1881.36 482.135 1880.802 481.766 1880.802 481.766 C 1880.802 481.766 1880.802 481.766 1880.802 481.766 C 1880.802 481.397 1880.244 481.028 1880.244 481.028 C 1879.686 481.028 1879.686 481.397 1879.128 481.766 C 1879.128 481.397 1878.57 481.028 1878.57 481.028 C 1878.57 481.028 1878.012 481.028 1878.012 481.397 C 1878.012 481.397 1878.012 481.397 1878.012 481.397 C 1878.012 481.397 1877.454 481.766 1877.454 482.135 C 1877.454 482.135 1877.454 482.135 1877.454 482.135 C 1876.897 482.135 1876.897 482.503 1876.897 482.872 C 1876.897 482.872 1876.339 482.872 1876.339 482.872 C 1875.781 482.503 1875.781 482.135 1875.223 482.135 C 1875.223 482.135 1874.665 482.503 1874.665 482.503 C 1874.107 482.135 1874.107 482.135 1873.549 482.135 C 1873.549 482.135 1872.991 482.135 1872.991 482.503 C 1872.991 482.135 1872.433 481.766 1872.433 481.766 C 1871.876 481.766 1871.876 482.135 1871.876 482.503 C 1871.876 482.872 1871.876 482.872 1871.876 483.241 C 1871.318 483.241 1871.318 483.241 1870.76 483.241 C 1870.76 482.503 1870.76 481.766 1870.202 481.766 C 1870.202 481.766 1870.202 481.766 1869.644 481.766 C 1869.644 481.397 1869.086 481.028 1869.086 481.397 C 1869.086 481.028 1868.528 482.135 1868.528 483.241 C 1867.97 483.241 1867.412 483.241 1866.855 483.241 C 1866.855 483.241 1866.855 482.872 1866.297 482.872 C 1866.297 482.135 1865.739 481.766 1865.739 481.766 C 1865.181 481.766 1865.181 482.135 1865.181 482.872 C 1865.181 482.503 1864.623 482.503 1864.623 482.503 C 1864.623 482.503 1864.065 482.872 1864.065 483.241 C 1864.065 483.241 1863.507 483.241 1863.507 483.241 C 1863.507 483.241 1863.507 482.872 1862.949 482.872 C 1862.949 482.872 1862.391 482.872 1862.391 483.241 L 1862.391 483.241 C 1861.834 482.503 1861.276 481.766 1861.276 481.766 C 1860.718 481.766 1860.718 482.503 1860.718 483.241 C 1860.16 483.241 1859.602 483.241 1859.044 483.241 C 1859.044 482.503 1858.486 481.766 1858.486 481.766 C 1858.486 481.766 1857.928 482.135 1857.928 482.135 C 1857.928 481.766 1857.37 481.397 1857.37 481.397 C 1856.812 481.397 1856.812 482.135 1856.812 483.241 C 1856.812 483.241 1856.812 483.241 1856.812 483.241 C 1856.812 481.766 1856.255 481.028 1855.697 481.028 C 1855.139 481.028 1855.139 482.135 1855.139 483.241 C 1855.139 483.241 1855.139 483.241 1855.139 483.241 C 1855.139 482.503 1854.581 481.766 1854.023 481.766 C 1853.465 481.766 1853.465 482.503 1853.465 483.241 C 1853.465 483.241 1853.465 483.241 1853.465 483.241 C 1853.465 482.135 1852.907 481.397 1852.349 481.397 C 1852.349 481.397 1852.349 481.397 1852.349 481.397 C 1852.349 480.29 1852.349 479.183 1851.791 479.183 C 1851.234 479.183 1850.676 480.29 1850.676 482.135 C 1850.676 482.503 1850.676 482.503 1850.676 482.872 C 1850.676 482.872 1850.676 482.872 1850.676 482.872 C 1850.676 482.503 1850.676 482.135 1850.118 482.135 C 1850.118 482.135 1849.56 482.503 1849.56 482.872 C 1849.002 482.135 1849.002 481.766 1848.444 481.766 C 1848.444 481.766 1848.444 481.766 1848.444 481.766 C 1848.444 481.397 1847.886 481.028 1847.886 481.028 C 1847.328 481.028 1847.328 481.766 1847.328 482.872 C 1847.328 481.397 1846.77 480.29 1846.213 480.659 C 1845.655 480.659 1845.655 481.397 1845.655 482.872 C 1845.655 483.241 1845.655 483.61 1845.655 483.979 C 1845.655 483.979 1845.097 483.979 1845.097 484.348 C 1844.539 483.61 1844.539 482.872 1843.981 482.872 C 1843.423 482.872 1843.423 483.979 1843.423 485.086 C 1843.423 485.086 1843.423 485.086 1843.423 485.086 C 1843.423 483.61 1842.865 482.503 1842.307 482.872 C 1842.307 482.872 1841.749 483.241 1841.749 483.61 C 1841.749 483.61 1841.749 483.241 1841.192 483.241 C 1840.634 483.241 1840.634 484.717 1840.634 486.192 C 1840.634 486.192 1840.634 486.192 1840.634 486.192 C 1840.634 486.192 1840.634 486.192 1840.076 486.561 C 1840.076 486.192 1840.076 485.824 1840.076 485.455 C 1840.076 484.717 1840.076 483.979 1839.518 483.979 C 1839.518 483.61 1838.96 483.241 1838.96 483.241 C 1838.402 483.241 1838.402 483.979 1838.402 485.455 C 1838.402 485.824 1838.402 486.192 1838.402 486.561 C 1838.402 486.93 1838.402 487.299 1838.402 488.037 C 1837.844 488.406 1837.844 488.406 1837.286 488.775 C 1837.286 488.775 1837.286 488.775 1837.286 488.775 C 1837.286 488.406 1837.286 488.406 1837.286 488.037 C 1837.286 488.037 1837.286 487.668 1837.286 487.299 C 1837.286 486.192 1837.844 485.455 1837.286 485.086 C 1837.286 485.086 1836.171 485.455 1836.171 486.192 C 1836.171 486.192 1836.171 485.824 1835.613 485.824 C 1835.613 485.824 1835.055 486.192 1835.055 486.561 C 1835.055 486.561 1835.055 486.561 1835.055 486.561 C 1835.055 486.561 1834.497 486.93 1833.939 487.299 C 1833.939 486.93 1833.939 486.561 1833.381 486.561 C 1832.823 486.561 1832.823 486.93 1832.265 487.299 C 1831.707 487.299 1830.592 488.037 1830.034 489.513 C 1830.034 489.513 1830.034 489.513 1830.034 489.513 C 1830.034 489.144 1829.476 488.775 1829.476 488.775 C 1829.476 488.775 1828.918 489.144 1828.918 489.513 C 1828.918 489.513 1828.918 489.881 1828.918 489.881 C 1828.918 489.513 1828.918 489.513 1828.918 489.513 C 1828.36 489.513 1827.802 490.25 1827.802 490.988 C 1827.802 490.619 1827.244 489.881 1827.244 489.881 C 1826.686 489.881 1826.129 490.619 1826.129 491.726 C 1826.129 492.095 1826.129 492.095 1826.129 492.464 C 1826.129 492.833 1825.571 492.833 1825.571 493.202 C 1825.571 492.833 1825.571 492.464 1825.571 492.095 C 1825.571 490.988 1825.571 489.881 1825.013 489.881 C 1825.013 489.881 1824.455 490.25 1824.455 490.619 C 1823.897 490.619 1823.339 491.357 1823.339 492.464 C 1823.339 492.095 1823.339 491.726 1823.339 491.726 C 1822.781 491.726 1822.781 492.095 1822.223 493.202 C 1822.223 493.202 1822.223 493.202 1822.223 493.202 C 1822.223 493.202 1822.223 493.202 1822.223 493.202 C 1822.223 492.464 1822.223 491.726 1822.223 491.726 C 1822.223 491.726 1821.665 491.726 1821.665 492.095 C 1821.665 492.095 1821.665 491.726 1821.107 491.726 C 1821.107 491.726 1820.55 492.095 1820.55 492.464 C 1820.55 492.095 1819.992 491.726 1819.992 491.726 C 1819.434 491.726 1819.434 492.095 1818.876 492.833 C 1818.876 492.464 1818.876 492.464 1818.318 492.464 C 1817.76 492.464 1817.76 492.833 1817.202 493.57 C 1817.202 493.57 1817.202 493.57 1817.202 493.57 C 1816.644 493.57 1816.086 494.308 1816.086 495.046 C 1816.086 495.046 1816.086 495.415 1816.086 495.415 C 1816.086 495.415 1816.086 495.415 1816.086 495.784 C 1816.086 495.784 1816.086 495.784 1816.086 495.784 C 1816.644 494.677 1816.644 493.57 1816.086 493.57 C 1815.529 493.57 1814.971 494.308 1814.413 495.784 C 1814.413 496.153 1814.413 496.522 1814.413 496.522 C 1814.413 496.522 1814.413 496.522 1814.413 496.522 C 1814.413 496.522 1814.413 496.522 1814.413 496.153 C 1814.413 495.046 1813.855 494.308 1813.855 494.308 C 1813.855 494.308 1813.297 494.308 1813.297 494.677 C 1813.297 494.677 1813.297 494.308 1812.739 494.308 C 1812.181 494.308 1811.623 495.046 1811.623 496.153 C 1811.623 496.153 1811.623 496.522 1811.623 496.522 C 1811.623 496.522 1811.065 496.522 1811.065 496.522 C 1811.065 495.415 1811.065 494.677 1810.508 494.308 C 1809.95 494.308 1809.392 495.415 1809.392 496.891 C 1809.392 496.891 1809.392 496.891 1808.834 496.891 C 1808.834 496.522 1808.834 496.153 1808.276 496.153 C 1807.718 496.153 1807.16 496.522 1807.16 497.259 C 1807.16 497.259 1807.16 497.259 1807.16 497.259 C 1807.16 496.891 1806.602 496.522 1806.602 496.522 C 1806.602 496.522 1806.044 496.522 1806.044 496.891 C 1806.044 496.522 1806.044 496.522 1805.487 496.522 C 1805.487 496.522 1804.929 496.891 1804.371 497.259 C 1804.371 497.259 1804.371 496.891 1804.371 496.891 C 1804.371 496.891 1803.255 497.259 1802.697 497.997 C 1802.697 497.997 1802.697 497.628 1802.697 497.628 C 1802.139 497.628 1801.581 497.997 1801.023 499.104 C 1801.023 499.104 1801.023 498.735 1800.466 498.735 C 1799.908 498.735 1799.908 499.104 1799.35 499.473 C 1799.35 499.473 1799.35 499.473 1799.35 499.473 C 1799.908 498.366 1799.908 497.259 1799.35 496.891 C 1798.792 496.891 1798.234 497.628 1797.676 498.735 C 1797.118 498.735 1796.56 499.104 1796.002 500.211 C 1796.002 500.211 1796.002 500.58 1796.002 500.58 C 1796.002 500.211 1796.002 499.842 1795.445 499.473 C 1794.887 499.473 1794.329 499.842 1794.329 500.58 C 1794.329 500.948 1794.329 501.317 1794.329 501.317 C 1794.329 501.317 1793.771 501.317 1793.771 501.317 C 1793.771 501.317 1793.213 501.317 1793.213 501.317 C 1793.213 500.948 1793.213 500.948 1793.213 500.58 C 1794.329 499.473 1794.887 498.366 1794.329 497.997 C 1794.329 497.628 1793.213 498.735 1792.097 499.842 C 1792.097 499.842 1792.097 499.842 1792.097 499.842 C 1791.539 499.842 1791.539 500.211 1791.539 501.317 C 1790.981 501.317 1790.981 501.317 1790.424 501.317 C 1790.424 501.317 1790.424 500.948 1790.424 500.58 C 1790.424 499.842 1790.424 499.473 1789.866 499.473 C 1789.308 499.473 1788.75 499.842 1788.75 500.58 C 1788.75 500.58 1788.75 500.948 1788.75 500.948 C 1788.75 500.948 1788.192 500.948 1788.192 500.948 C 1788.192 499.842 1788.192 499.104 1788.192 499.104 C 1787.634 499.104 1787.076 499.842 1787.076 500.58 C 1787.076 500.58 1787.076 500.58 1787.076 500.211 C 1787.076 499.473 1786.518 498.735 1785.96 498.735 C 1785.403 498.735 1785.403 499.473 1785.403 500.211 C 1785.403 500.211 1785.403 500.58 1785.403 500.58 C 1785.403 500.58 1785.403 500.58 1785.403 500.58 C 1785.403 500.211 1785.403 499.842 1784.845 499.842 C 1784.845 499.842 1784.845 499.842 1784.845 499.842 C 1784.287 499.104 1783.729 498.366 1783.729 498.366 C 1783.171 498.366 1783.171 499.473 1783.729 500.211 C 1783.729 500.211 1783.729 500.58 1783.729 500.58 C 1783.171 500.58 1782.055 500.58 1781.497 500.58 C 1781.497 499.473 1781.497 498.366 1780.939 498.366 C 1780.381 498.366 1780.381 499.104 1779.824 500.211 C 1779.824 500.211 1779.266 499.842 1779.266 499.842 C 1779.266 499.842 1779.266 499.842 1778.708 499.842 C 1778.708 499.842 1778.708 499.473 1778.708 499.473 C 1778.708 498.735 1778.15 498.366 1777.592 498.366 C 1777.034 498.366 1777.034 499.104 1777.034 499.842 C 1777.034 500.211 1777.034 500.211 1777.034 500.58 C 1776.476 500.58 1775.918 500.58 1775.36 500.58 C 1774.803 499.842 1774.245 499.104 1774.245 499.104 C 1774.245 498.735 1774.245 498.366 1773.687 498.366 C 1773.129 498.366 1772.571 499.104 1772.571 500.211 C 1772.571 499.842 1772.013 499.842 1772.013 499.842 C 1771.455 499.842 1771.455 500.211 1771.455 500.211 C 1771.455 500.211 1771.455 500.211 1771.455 500.211 C 1770.897 500.211 1770.897 500.211 1770.339 500.211 C 1770.897 498.735 1770.339 497.259 1770.339 497.259 C 1769.782 497.259 1769.224 498.366 1768.666 500.211 C 1768.666 500.211 1768.108 500.211 1768.108 500.211 C 1768.108 500.211 1768.108 499.842 1768.108 499.842 C 1768.108 498.735 1768.108 497.628 1767.55 497.628 C 1767.55 497.259 1767.55 497.259 1766.992 497.259 C 1766.434 497.259 1765.876 498.366 1765.876 499.473 C 1765.876 499.842 1765.876 499.842 1765.876 500.211 C 1765.876 500.211 1765.318 500.211 1765.318 500.211 C 1765.318 499.473 1765.318 498.735 1764.761 498.735 C 1764.761 498.735 1764.761 498.735 1764.761 498.735 C 1764.761 498.735 1764.761 498.366 1764.761 498.366 C 1764.203 498.366 1763.645 499.104 1763.087 500.211 C 1763.087 500.211 1762.529 500.211 1762.529 500.211 C 1762.529 499.473 1762.529 498.735 1761.971 498.735 C 1761.971 498.735 1761.971 498.735 1761.971 498.735 C 1761.971 498.366 1761.413 497.997 1761.413 497.997 C 1761.413 497.997 1760.855 497.997 1760.855 498.366 C 1760.855 497.997 1760.855 497.997 1760.297 497.628 C 1760.297 497.628 1759.74 497.997 1759.74 498.366 C 1759.74 497.997 1759.74 497.628 1759.74 497.628 C 1759.74 497.628 1759.182 497.628 1759.182 497.628 C 1759.182 497.628 1759.182 497.628 1758.624 497.628 C 1758.624 497.628 1758.066 497.997 1758.066 498.366 C 1758.066 498.735 1757.508 499.104 1757.508 499.473 C 1757.508 499.473 1757.508 499.473 1757.508 499.842 C 1757.508 499.842 1757.508 499.842 1757.508 499.842 C 1757.508 499.104 1756.95 498.366 1756.95 498.366 C 1756.95 498.366 1756.392 498.735 1756.392 498.735 C 1755.834 498.366 1755.834 497.997 1755.276 497.997 C 1754.719 497.997 1754.719 498.735 1755.276 499.473 C 1755.276 499.473 1755.276 499.473 1755.276 499.473 C 1755.276 499.473 1754.719 499.473 1754.719 499.842 C 1754.719 498.735 1754.719 497.997 1754.719 497.997 C 1754.719 497.997 1754.161 498.366 1754.161 498.735 C 1754.161 498.366 1754.161 497.997 1753.603 497.997 C 1753.603 497.997 1753.045 498.366 1753.045 498.735 C 1753.045 498.366 1753.045 497.997 1752.487 497.997 C 1751.929 497.997 1751.371 499.104 1751.371 500.58 L 1751.371 500.58 C 1751.371 499.473 1750.813 498.366 1750.255 498.366 C 1749.698 498.366 1749.698 499.473 1749.698 500.58 L 1749.14 500.58 C 1749.698 499.473 1749.698 498.735 1749.14 498.366 C 1748.582 498.366 1748.024 499.104 1747.466 500.211 C 1747.466 500.211 1747.466 500.211 1747.466 500.211 C 1747.466 500.211 1746.908 500.211 1746.908 500.58 C 1746.35 500.58 1746.35 500.58 1745.792 500.58 C 1745.792 500.211 1745.792 500.211 1745.234 500.211 C 1745.234 500.211 1744.676 500.211 1744.676 500.58 C 1744.676 500.58 1744.119 500.58 1744.119 500.58 C 1744.119 499.473 1744.119 498.735 1744.119 498.366 C 1743.561 498.366 1743.003 499.104 1743.003 500.58 C 1743.003 500.58 1743.003 500.58 1742.445 500.58 C 1742.445 500.211 1742.445 499.473 1741.887 499.473 C 1741.329 499.473 1741.329 499.842 1740.771 500.58 L 1740.771 500.58 C 1740.771 499.842 1740.771 499.104 1740.213 499.104 C 1740.213 499.104 1739.655 499.104 1739.655 499.473 C 1739.655 499.473 1739.655 499.473 1739.655 499.473 C 1739.098 499.473 1739.098 499.842 1739.098 500.211 C 1739.098 500.58 1739.098 500.58 1739.655 500.58 C 1739.655 500.58 1739.655 500.58 1739.655 500.58 L 1738.54 500.58 C 1739.098 499.104 1739.655 497.628 1739.098 497.628 C 1738.54 497.628 1737.982 497.997 1737.424 499.104 C 1737.424 499.104 1737.424 499.104 1737.424 499.104 C 1737.424 499.104 1736.866 499.473 1736.866 499.842 C 1736.866 499.473 1736.866 499.104 1736.866 499.104 C 1736.866 499.104 1736.308 499.473 1735.75 499.842 C 1735.75 499.842 1735.75 499.842 1735.75 499.842 C 1735.75 499.842 1735.192 500.211 1734.634 500.58 C 1734.634 499.842 1734.077 499.473 1734.077 499.473 C 1734.077 499.473 1733.519 499.842 1733.519 500.211 C 1733.519 499.473 1733.519 498.735 1732.961 498.735 C 1732.403 498.735 1731.845 499.842 1731.845 500.948 C 1731.845 500.948 1731.845 500.948 1731.845 500.948 C 1731.845 500.948 1731.845 500.948 1731.287 500.948 C 1731.287 500.58 1731.287 499.842 1731.287 499.842 C 1731.287 499.842 1731.287 499.842 1731.287 499.842 C 1731.287 499.104 1731.287 498.366 1730.729 498.366 C 1730.171 498.366 1729.613 498.735 1729.613 499.473 C 1729.613 499.104 1729.613 498.735 1729.056 498.735 C 1728.498 498.735 1727.94 499.473 1727.94 500.211 C 1727.94 499.473 1727.94 498.735 1727.382 498.735 C 1727.382 498.735 1726.824 499.104 1726.824 499.473 C 1726.824 498.735 1726.824 497.997 1726.266 497.997 C 1726.266 497.997 1725.708 498.366 1725.708 498.735 C 1725.708 498.735 1725.708 498.735 1725.708 498.735 C 1725.708 498.735 1725.708 498.735 1725.708 498.735 C 1725.708 498.366 1725.708 498.366 1725.708 498.366 C 1725.15 498.366 1724.592 498.735 1724.035 499.842 C 1724.035 499.473 1724.035 499.104 1723.477 498.735 C 1723.477 498.735 1722.919 498.735 1722.919 499.104 C 1722.919 499.104 1722.919 498.735 1722.919 498.735 C 1722.919 498.735 1722.361 498.735 1722.361 499.104 C 1722.361 498.366 1722.361 497.997 1721.803 497.997 C 1721.803 497.997 1721.803 497.997 1721.245 497.997 C 1721.245 496.891 1721.245 496.153 1721.245 496.153 C 1720.687 496.153 1720.129 497.259 1719.571 498.366 C 1719.571 498.366 1719.571 498.366 1719.014 498.366 C 1719.014 497.259 1719.014 496.522 1718.456 496.522 C 1718.456 496.522 1717.898 496.522 1717.898 496.891 C 1717.898 496.522 1717.898 496.522 1717.34 496.522 C 1717.34 496.522 1717.34 496.522 1717.34 496.522 C 1717.34 496.153 1717.34 496.153 1716.782 496.153 C 1716.782 496.153 1716.224 496.522 1715.666 497.259 C 1715.108 497.259 1715.108 497.997 1715.108 498.735 C 1715.108 498.735 1715.108 498.735 1715.108 498.735 C 1715.108 497.628 1715.108 496.522 1714.55 496.522 C 1713.993 496.522 1713.993 497.259 1713.435 498.366 C 1713.435 498.366 1713.435 498.366 1713.435 498.735 C 1713.435 498.735 1712.877 498.735 1712.877 498.735 C 1712.877 497.997 1712.877 497.628 1712.319 497.628 C 1712.319 497.628 1711.761 497.997 1711.761 498.366 C 1711.761 498.366 1711.203 498.366 1711.203 498.366 C 1711.203 498.366 1711.203 498.366 1711.203 498.366 C 1711.203 498.366 1711.203 498.366 1711.203 498.366 C 1711.203 498.366 1711.203 498.366 1711.203 498.366 C 1711.203 497.259 1711.203 496.153 1710.645 496.153 C 1710.645 496.153 1710.087 496.522 1710.087 496.891 C 1710.087 496.153 1710.087 495.415 1709.529 495.415 C 1708.972 495.415 1708.972 496.153 1708.414 497.628 C 1708.414 497.628 1708.414 497.997 1707.856 497.997 C 1707.856 497.259 1707.856 496.891 1707.298 496.891 C 1707.298 496.891 1706.74 497.259 1706.74 497.628 C 1706.74 497.628 1706.74 497.628 1706.74 497.628 C 1706.182 497.628 1705.624 498.735 1705.624 500.58 C 1705.624 500.58 1705.624 500.58 1705.624 500.58 C 1705.624 500.58 1705.066 500.948 1705.066 501.317 C 1705.066 500.948 1705.066 500.948 1704.508 500.948 C 1703.95 500.948 1703.95 501.686 1703.95 502.424 C 1703.393 502.793 1702.835 503.162 1702.277 503.531 C 1702.277 503.531 1702.277 503.531 1702.277 503.531 C 1702.277 502.055 1702.277 500.948 1701.719 500.58 C 1701.161 500.58 1700.603 501.686 1700.603 503.162 C 1700.603 503.531 1700.603 503.9 1700.603 504.637 C 1700.603 504.637 1700.603 504.637 1700.603 504.637 C 1700.603 504.637 1700.603 504.637 1700.603 504.269 C 1700.603 502.424 1700.603 500.58 1700.045 500.58 C 1699.487 500.58 1699.487 501.317 1698.929 502.424 C 1698.929 502.055 1698.929 502.055 1698.372 502.055 C 1697.814 502.055 1697.814 502.793 1697.256 503.9 C 1697.256 502.424 1697.256 501.686 1696.698 501.686 C 1696.14 501.686 1696.14 502.424 1695.582 503.9 C 1695.582 503.9 1695.582 503.531 1695.582 503.531 C 1695.024 503.531 1694.466 505.006 1694.466 507.22 C 1694.466 506.482 1694.466 505.744 1693.908 505.744 C 1693.351 505.744 1693.351 506.482 1692.793 507.22 C 1692.793 507.22 1692.235 507.589 1692.235 507.958 C 1692.235 507.958 1692.235 507.958 1692.235 507.958 C 1692.235 507.958 1692.235 507.958 1691.677 508.326 C 1691.677 507.589 1691.677 507.22 1691.119 507.22 C 1690.561 507.22 1690.003 508.326 1689.445 510.171 C 1689.445 510.54 1689.445 510.909 1689.445 511.647 C 1688.887 511.647 1688.887 512.015 1688.33 512.015 C 1688.33 511.278 1688.33 510.909 1688.887 510.171 C 1689.445 508.326 1690.003 506.851 1689.445 506.482 C 1688.887 506.482 1687.772 507.958 1687.214 510.171 C 1687.214 510.54 1687.214 510.54 1687.214 510.909 C 1687.214 510.54 1687.214 510.171 1686.656 510.171 C 1686.098 510.171 1685.54 510.909 1685.54 512.015 C 1685.54 512.015 1685.54 512.015 1685.54 512.015 C 1685.54 512.015 1684.982 512.015 1684.982 512.384 C 1684.982 512.015 1684.982 512.015 1684.424 512.015 C 1683.866 512.015 1683.866 512.753 1683.309 513.86 C 1683.309 513.491 1682.751 513.122 1682.751 513.122 C 1682.193 513.122 1682.193 513.86 1681.635 514.967 C 1681.635 514.229 1681.635 513.491 1681.077 513.491 C 1681.077 513.491 1680.519 513.86 1680.519 514.229 C 1680.519 514.229 1680.519 514.229 1680.519 514.229 C 1679.961 514.229 1679.961 514.967 1679.403 515.704 C 1679.403 515.704 1679.403 515.704 1678.845 515.336 C 1678.845 515.336 1678.288 515.336 1678.288 515.336 C 1678.288 515.336 1678.288 515.336 1678.288 515.336 C 1677.73 515.336 1677.73 515.704 1677.172 516.811 C 1677.172 516.811 1677.172 516.811 1676.614 517.18 C 1676.614 516.073 1676.056 514.967 1676.056 514.967 C 1675.498 514.967 1674.94 516.073 1674.94 517.918 C 1674.94 517.918 1674.94 517.918 1674.382 517.918 C 1674.382 516.811 1673.824 516.073 1673.824 516.073 C 1673.824 516.073 1673.267 516.811 1673.267 517.549 C 1673.267 517.18 1673.267 517.18 1672.709 517.18 C 1672.151 517.18 1671.593 517.918 1671.593 519.025 C 1671.593 519.025 1671.593 519.025 1671.593 519.393 C 1671.593 519.393 1671.035 519.025 1671.035 519.025 C 1670.477 519.025 1669.919 519.393 1669.919 519.393 C 1669.919 519.393 1669.919 519.762 1669.919 519.762 C 1669.361 520.131 1668.803 520.131 1668.245 520.5 C 1668.245 520.5 1668.245 520.131 1668.245 520.131 C 1668.245 520.131 1668.245 520.131 1668.245 520.131 C 1668.803 520.131 1669.361 519.393 1669.361 519.025 C 1669.361 518.287 1669.361 517.918 1668.803 517.549 C 1668.245 517.549 1667.688 517.918 1667.688 518.656 C 1667.688 518.656 1667.688 519.025 1667.688 519.025 C 1667.688 519.025 1667.688 519.025 1667.688 519.025 C 1667.13 519.025 1667.13 519.393 1666.572 520.131 C 1666.572 520.131 1666.572 520.131 1666.014 520.131 C 1666.014 519.393 1666.014 518.656 1665.456 518.287 C 1665.456 518.287 1664.898 518.287 1664.898 518.656 C 1664.898 518.656 1664.898 518.656 1664.898 518.656 C 1664.898 518.656 1664.898 518.656 1664.34 518.656 C 1664.34 517.918 1664.34 517.549 1663.782 517.549 C 1663.224 517.549 1663.224 518.287 1662.667 519.025 C 1662.667 518.287 1662.109 517.918 1662.109 517.918 C 1661.551 517.918 1660.993 519.025 1660.993 520.5 C 1660.993 521.238 1660.993 521.976 1661.551 522.714 C 1660.993 522.714 1660.993 523.082 1660.435 523.082 C 1659.877 520.869 1660.435 519.393 1659.877 519.025 C 1659.877 519.025 1659.877 519.025 1659.319 519.393 C 1659.319 519.025 1659.319 519.025 1658.761 519.025 C 1658.203 519.025 1658.203 520.5 1658.203 522.345 C 1658.203 522.714 1658.203 523.451 1658.203 523.82 C 1658.203 523.82 1658.203 523.82 1658.203 523.82 C 1658.203 523.451 1658.203 523.082 1658.203 522.345 C 1658.203 520.5 1658.203 519.025 1657.646 519.025 C 1657.646 519.025 1657.646 519.393 1657.088 519.393 C 1656.53 519.393 1656.53 520.131 1656.53 521.238 C 1656.53 520.869 1655.972 520.5 1655.972 520.5 C 1655.972 520.5 1655.414 520.5 1655.414 520.869 C 1655.414 520.5 1655.414 520.5 1654.856 520.5 C 1654.298 520.5 1654.298 520.869 1653.74 521.607 C 1653.74 521.238 1653.182 520.869 1653.182 520.869 C 1652.625 520.869 1652.625 521.238 1652.625 521.976 C 1652.625 520.869 1652.067 520.5 1652.067 520.5 C 1652.067 520.5 1651.509 521.238 1651.509 521.976 C 1651.509 521.976 1651.509 521.976 1651.509 521.976 C 1650.951 521.976 1650.393 522.714 1650.393 523.82 C 1650.393 523.82 1650.393 524.189 1649.835 524.189 C 1649.835 523.82 1649.835 523.82 1649.835 523.82 C 1649.277 523.82 1649.277 524.189 1648.719 524.927 C 1648.719 525.296 1648.161 525.665 1648.161 526.403 C 1648.161 526.403 1647.604 526.771 1647.604 527.14 C 1647.604 526.403 1647.604 526.034 1647.046 526.034 C 1646.488 526.034 1646.488 526.771 1645.93 527.878 C 1645.93 527.509 1645.93 527.14 1645.372 527.14 C 1645.372 527.14 1644.814 527.509 1644.814 527.878 C 1644.814 527.509 1644.814 527.14 1644.814 526.771 C 1644.814 525.665 1644.814 524.927 1644.256 524.927 C 1644.256 524.927 1643.698 525.296 1643.698 525.665 C 1643.698 525.665 1643.698 525.665 1643.698 525.665 C 1643.698 525.665 1643.14 526.034 1643.14 526.403 C 1643.14 525.665 1643.14 525.296 1642.583 525.296 C 1642.025 525.296 1641.467 526.403 1640.909 528.247 C 1640.909 528.247 1640.909 528.247 1640.909 528.247 C 1640.909 528.247 1640.909 528.616 1640.351 528.616 C 1640.351 528.616 1640.351 528.616 1639.793 528.247 C 1639.235 528.247 1639.235 528.616 1639.235 528.985 C 1639.235 528.985 1639.235 528.985 1639.235 528.985 C 1639.235 528.985 1638.677 528.985 1638.677 529.354 C 1638.677 529.354 1638.677 529.354 1638.677 529.354 C 1638.677 529.354 1638.119 529.354 1638.119 529.723 C 1638.119 528.985 1638.119 528.616 1637.562 528.616 C 1637.004 528.616 1636.446 529.723 1636.446 530.829 C 1636.446 530.829 1635.888 531.198 1635.888 531.567 C 1635.888 531.567 1635.888 531.567 1635.888 531.567 C 1635.888 531.567 1635.888 531.567 1635.888 531.567 C 1635.888 530.829 1635.888 530.46 1635.33 530.46 C 1635.33 530.46 1634.772 530.829 1634.772 531.198 C 1634.772 531.198 1634.772 531.198 1634.772 531.198 C 1634.214 531.198 1634.214 531.936 1633.656 532.674 C 1633.656 532.674 1633.656 532.674 1633.656 532.674 C 1633.098 532.674 1633.098 533.043 1633.098 533.412 C 1633.098 533.043 1632.541 533.043 1632.541 533.043 C 1632.541 533.043 1631.983 533.043 1631.983 533.412 C 1631.983 533.412 1631.425 533.781 1631.425 534.15 C 1631.425 533.781 1631.425 533.781 1630.867 533.781 C 1630.867 533.781 1630.867 533.781 1630.309 533.781 C 1630.309 533.412 1630.309 533.412 1629.751 533.412 C 1629.751 533.412 1629.193 533.781 1628.635 534.15 C 1628.635 534.15 1628.635 533.781 1628.077 533.781 C 1627.519 533.781 1626.962 534.887 1626.962 535.994 C 1626.962 536.732 1626.962 537.101 1626.962 537.47 C 1626.962 537.47 1626.962 537.47 1626.404 537.47 C 1626.404 537.47 1626.404 537.101 1626.404 537.101 C 1626.404 535.994 1626.404 534.887 1625.846 534.887 C 1625.288 534.887 1625.288 535.625 1624.73 536.363 C 1624.73 536.363 1624.73 536.363 1624.73 536.363 C 1624.73 536.363 1624.73 536.363 1624.172 536.363 C 1624.172 535.994 1623.614 535.625 1623.614 535.625 C 1623.056 535.625 1623.056 536.732 1623.056 537.47 C 1623.056 538.207 1623.056 538.576 1623.056 538.945 C 1623.056 538.945 1622.498 539.314 1622.498 539.314 C 1622.498 539.314 1622.498 539.314 1622.498 539.314 C 1622.498 538.207 1622.498 537.47 1621.941 537.47 C 1621.941 537.47 1621.383 537.839 1621.383 538.207 C 1621.383 537.839 1621.383 537.47 1620.825 537.47 C 1620.267 537.47 1619.709 538.207 1619.709 538.945 C 1619.709 538.945 1619.709 538.945 1619.709 538.945 C 1619.151 538.945 1619.151 539.683 1619.151 540.421 C 1619.151 540.79 1619.151 540.79 1619.151 541.159 C 1619.151 541.159 1618.593 541.528 1618.593 541.528 C 1618.593 541.159 1618.593 540.79 1618.593 540.052 C 1619.151 538.207 1619.151 536.732 1618.593 536.732 C 1618.593 536.732 1618.035 536.732 1618.035 537.47 C 1618.035 536.732 1618.035 536.732 1618.035 536.732 C 1617.477 536.732 1616.92 538.207 1616.362 540.79 C 1616.362 541.159 1616.362 541.159 1616.362 541.528 C 1616.362 541.528 1616.362 541.528 1616.362 541.528 C 1616.362 540.421 1616.362 539.683 1615.804 539.683 C 1615.804 539.683 1615.246 540.052 1615.246 540.421 C 1615.246 540.052 1615.246 540.052 1614.688 540.052 C 1614.13 540.052 1613.572 541.159 1613.572 542.634 C 1613.572 542.634 1613.572 543.003 1613.572 543.003 C 1613.572 543.003 1613.572 543.003 1613.572 543.003 C 1613.572 543.003 1613.572 542.634 1613.014 542.634 C 1613.014 542.265 1613.014 541.896 1612.456 541.528 C 1612.456 541.528 1612.456 541.528 1612.456 541.528 C 1612.456 541.528 1612.456 541.159 1612.456 541.159 C 1611.899 541.159 1611.341 541.896 1610.783 543.372 C 1610.783 543.003 1610.783 542.634 1610.225 542.634 C 1610.225 542.634 1609.667 543.003 1609.667 543.003 C 1609.667 543.003 1609.667 542.634 1609.667 542.634 C 1609.667 542.634 1609.109 542.634 1609.109 543.003 C 1609.109 542.634 1609.109 542.634 1608.551 542.634 C 1607.993 542.634 1607.435 543.372 1606.878 544.848 C 1606.32 544.848 1605.762 545.585 1605.762 546.692 L 1605.762 546.692 C 1605.762 545.585 1605.204 544.848 1605.204 544.848 C 1604.646 544.848 1604.088 545.954 1604.088 547.43 C 1604.088 547.43 1604.088 547.799 1604.088 547.799 C 1604.088 547.799 1604.088 547.799 1604.088 547.799 C 1604.088 547.43 1604.088 547.061 1603.53 547.061 C 1603.53 547.061 1602.972 547.43 1602.414 547.799 C 1602.414 547.43 1602.414 547.43 1601.857 547.43 C 1601.299 547.43 1600.741 548.168 1600.741 549.274 C 1600.741 549.274 1600.741 549.274 1600.741 549.274 C 1600.741 548.537 1600.741 548.168 1600.741 547.799 C 1600.183 547.799 1599.625 548.537 1599.067 549.643 C 1599.067 549.643 1599.067 550.012 1598.509 550.012 C 1598.509 549.643 1598.509 549.274 1597.951 549.274 C 1597.393 549.274 1596.836 550.75 1596.278 552.595 C 1596.278 552.595 1596.278 552.963 1596.278 552.963 C 1596.278 552.963 1596.278 552.963 1595.72 553.332 C 1595.72 553.332 1595.72 553.332 1595.72 552.963 C 1595.72 551.857 1595.72 550.75 1595.162 550.75 C 1595.162 550.75 1595.162 550.75 1595.162 550.75 C 1595.162 550.381 1595.162 550.012 1594.604 550.012 C 1594.046 550.012 1593.488 550.75 1593.488 551.488 C 1593.488 551.488 1593.488 551.488 1593.488 551.488 C 1593.488 551.488 1592.93 551.857 1592.372 552.595 C 1592.372 552.595 1592.372 552.595 1592.372 552.595 C 1591.814 552.595 1591.814 552.963 1591.257 553.701 C 1591.257 553.701 1591.257 553.701 1591.257 553.701 C 1591.257 552.963 1591.257 552.595 1591.257 552.226 C 1590.699 552.226 1590.141 552.963 1589.583 554.07 C 1589.583 554.07 1589.583 554.07 1589.583 554.07 C 1589.025 554.07 1588.467 554.808 1588.467 555.546 C 1588.467 555.546 1588.467 555.546 1588.467 555.546 C 1587.909 555.546 1587.909 556.284 1587.351 557.021 C 1587.351 556.652 1587.351 556.652 1586.793 556.652 C 1586.236 556.652 1586.236 557.021 1585.678 557.759 C 1585.678 557.759 1585.678 557.759 1585.678 557.759 C 1585.678 557.759 1585.12 558.128 1584.562 558.497 C 1584.562 558.497 1584.562 558.497 1584.562 558.497 C 1584.562 558.497 1584.562 558.497 1584.562 558.497 C 1584.562 558.128 1584.562 557.759 1584.004 557.759 C 1583.446 557.759 1582.888 558.497 1582.888 559.604 C 1582.888 559.235 1582.888 559.235 1582.33 559.235 C 1581.772 559.235 1581.215 559.973 1581.215 561.079 C 1581.215 561.079 1581.215 561.448 1581.215 561.448 C 1581.215 561.448 1581.215 561.448 1581.215 561.448 C 1581.215 561.448 1580.657 561.448 1580.657 561.817 C 1580.657 561.817 1580.657 561.448 1580.099 561.448 C 1580.099 561.448 1579.541 561.448 1579.541 561.817 C 1579.541 561.817 1579.541 561.817 1579.541 561.817 C 1578.983 561.817 1578.425 562.924 1577.867 564.399 C 1577.867 564.399 1577.867 564.399 1577.867 564.399 C 1577.867 564.399 1577.867 564.399 1577.867 564.399 C 1577.309 564.399 1576.751 565.137 1576.751 566.244 C 1576.751 566.613 1576.751 566.613 1576.751 566.982 C 1576.751 566.982 1576.751 566.613 1576.194 566.613 C 1575.636 566.613 1575.636 567.351 1575.078 568.088 C 1575.078 566.982 1575.078 566.244 1574.52 566.244 C 1573.962 566.244 1573.962 566.982 1573.404 567.719 C 1573.404 567.719 1573.404 567.719 1573.404 567.719 C 1572.846 567.719 1572.288 568.457 1572.288 569.195 C 1572.288 568.826 1572.288 568.457 1571.73 568.457 C 1571.73 568.457 1571.173 568.457 1571.173 568.826 C 1571.173 568.088 1570.615 567.719 1570.057 567.719 C 1570.057 567.719 1569.499 568.088 1569.499 568.826 C 1569.499 568.088 1569.499 567.719 1568.941 567.719 C 1568.941 567.719 1568.383 568.088 1568.383 568.457 C 1568.383 568.088 1567.825 567.719 1567.825 567.719 C 1567.825 567.719 1567.825 567.719 1567.825 567.719 C 1567.825 567.351 1567.267 567.351 1567.267 567.351 C 1567.267 567.351 1566.709 567.719 1566.709 568.457 C 1566.709 567.719 1566.709 567.351 1566.152 567.351 C 1566.152 567.351 1566.152 567.351 1565.594 567.351 C 1565.594 566.982 1565.036 566.613 1565.036 566.613 C 1564.478 566.613 1564.478 567.351 1563.92 568.088 C 1563.92 567.719 1563.92 567.719 1563.362 567.719 C 1563.362 567.719 1563.362 567.719 1562.804 567.719 C 1562.804 567.719 1562.804 567.719 1562.804 567.351 C 1562.804 566.613 1562.804 565.875 1562.804 565.506 C 1562.246 565.506 1561.688 566.613 1561.131 568.088 C 1561.131 568.088 1561.131 567.719 1561.131 567.719 C 1561.131 566.244 1561.131 565.137 1560.573 565.137 C 1560.573 565.137 1560.015 565.506 1560.015 566.244 C 1560.015 565.137 1559.457 564.399 1559.457 564.399 C 1558.899 564.399 1558.899 565.137 1558.899 566.244 C 1558.899 565.875 1558.899 565.875 1558.341 565.875 C 1557.783 565.875 1557.783 566.244 1557.225 567.351 C 1557.225 566.244 1556.667 565.137 1556.667 565.137 C 1556.667 565.137 1556.109 565.506 1556.109 565.875 C 1556.109 565.875 1556.109 565.875 1555.552 565.875 C 1555.552 565.875 1555.552 565.875 1555.552 565.875 C 1555.552 565.875 1555.552 565.875 1555.552 565.875 C 1555.552 565.875 1555.552 565.875 1555.552 565.875 C 1555.552 565.506 1555.552 565.137 1554.994 565.137 C 1554.994 565.137 1554.436 565.506 1554.436 565.875 C 1554.436 565.875 1554.436 565.506 1553.878 565.506 C 1553.878 565.506 1553.32 565.875 1553.32 566.244 C 1553.32 566.244 1553.32 565.875 1553.32 565.875 C 1553.32 564.768 1553.32 564.03 1552.762 564.03 C 1552.204 564.03 1552.204 564.768 1551.646 565.875 C 1551.646 566.244 1551.088 566.613 1551.088 566.982 C 1551.088 566.613 1550.531 566.244 1549.973 566.244 C 1549.973 566.244 1549.415 566.244 1549.415 566.613 C 1549.415 566.244 1549.415 566.244 1548.857 566.244 C 1548.857 566.244 1548.857 566.244 1548.857 566.244 C 1548.857 565.506 1548.299 565.137 1548.299 565.137 C 1547.741 565.137 1547.741 565.506 1547.183 566.244 C 1547.183 566.244 1547.183 566.244 1546.625 566.244 C 1546.625 566.244 1546.067 566.244 1546.067 566.613 C 1546.067 566.613 1546.067 566.613 1545.51 566.613 C 1545.51 566.613 1544.952 566.613 1544.952 566.982 C 1544.952 566.613 1544.394 566.244 1544.394 566.244 C 1544.394 566.244 1543.836 566.613 1543.836 566.982 C 1543.836 566.982 1543.836 566.613 1543.278 566.613 C 1543.278 566.613 1543.278 566.613 1543.278 566.613 C 1543.278 565.875 1543.278 565.506 1542.72 565.506 C 1542.162 565.506 1541.604 566.613 1541.604 568.088 C 1541.604 566.613 1541.604 565.506 1541.046 565.506 C 1540.489 565.506 1540.489 566.244 1539.931 566.982 C 1539.931 566.982 1539.931 566.613 1539.373 566.613 C 1538.815 566.613 1538.815 566.982 1538.257 567.719 C 1538.257 566.982 1537.699 566.613 1537.699 566.613 C 1537.141 566.613 1537.141 566.982 1537.141 567.719 C 1537.141 567.719 1537.141 567.719 1536.583 567.719 C 1536.583 567.719 1536.025 568.088 1536.025 568.088 C 1536.025 568.088 1536.025 568.088 1535.468 568.088 C 1535.468 568.088 1534.91 568.088 1534.91 568.457 C 1534.91 567.719 1534.91 567.351 1534.352 567.351 C 1533.794 567.351 1533.794 567.719 1533.236 568.457 C 1533.236 568.088 1533.236 568.088 1532.678 568.088 C 1532.678 568.088 1532.12 568.088 1532.12 568.457 C 1532.12 568.088 1532.12 568.088 1531.562 568.088 C 1531.004 568.088 1530.447 569.195 1530.447 570.302 C 1530.447 570.302 1530.447 570.671 1530.447 570.671 C 1530.447 570.671 1529.889 570.671 1529.889 570.671 C 1529.889 569.564 1529.889 568.826 1529.889 568.826 C 1529.331 568.826 1528.773 569.933 1528.215 571.408 C 1528.215 571.408 1528.215 571.408 1528.215 571.408 C 1528.215 571.408 1528.215 571.408 1528.215 571.408 C 1528.215 571.408 1528.215 571.408 1528.215 571.04 C 1528.215 569.933 1528.773 568.826 1528.215 568.457 C 1527.657 568.457 1527.099 569.195 1527.099 569.933 C 1527.099 569.933 1527.099 569.933 1527.099 569.933 C 1527.099 569.564 1527.099 569.564 1526.541 569.564 C 1526.541 569.564 1526.541 569.564 1526.541 569.564 C 1526.541 569.195 1526.541 568.826 1525.983 568.826 C 1525.983 568.826 1525.426 569.195 1524.868 570.302 C 1524.868 569.933 1524.868 569.933 1524.31 569.933 C 1524.31 569.933 1523.752 570.302 1523.194 571.04 C 1523.194 570.671 1523.194 570.302 1522.636 570.302 C 1522.636 570.302 1522.078 570.671 1522.078 571.04 C 1522.078 571.04 1522.078 570.671 1521.52 570.671 C 1520.962 570.671 1520.405 571.777 1520.405 572.884 C 1520.405 572.884 1520.405 572.884 1520.405 572.884 C 1520.405 572.884 1519.847 573.253 1519.847 573.622 C 1519.847 573.253 1519.289 573.253 1519.289 573.253 C 1518.731 573.253 1518.731 573.991 1518.731 575.466 C 1518.731 575.466 1518.731 575.466 1518.731 575.466 C 1518.731 574.36 1518.731 573.622 1518.173 573.622 C 1518.173 573.622 1517.615 573.991 1517.615 574.729 C 1517.615 574.36 1517.615 573.991 1517.057 573.991 C 1516.499 573.991 1516.499 575.097 1515.941 576.204 C 1515.941 576.573 1515.383 576.573 1515.383 576.942 C 1515.383 576.204 1515.383 575.835 1514.826 575.466 C 1514.268 575.466 1513.71 576.204 1513.71 577.68 C 1513.71 578.049 1513.71 578.049 1513.71 578.418 C 1513.71 578.418 1513.71 578.418 1513.71 578.418 C 1513.71 578.418 1513.71 578.418 1513.71 578.418 C 1513.152 578.418 1513.152 578.786 1512.594 579.155 C 1512.594 579.155 1512.594 578.786 1512.036 578.786 C 1512.036 578.786 1511.478 578.786 1511.478 579.155 C 1511.478 578.049 1511.478 577.311 1510.92 577.311 C 1510.362 577.311 1509.805 578.418 1509.805 580.262 C 1509.805 580.262 1509.805 580.262 1509.805 580.262 C 1509.805 580.262 1509.805 580.262 1509.805 580.262 C 1509.247 580.262 1508.689 581 1508.689 582.107 C 1508.689 582.475 1508.689 582.475 1508.689 582.475 C 1508.689 582.475 1508.689 582.475 1508.131 582.107 C 1507.573 582.107 1507.573 582.475 1507.015 583.213 C 1507.015 583.213 1507.015 583.213 1507.015 583.213 C 1507.015 582.475 1507.015 581.738 1506.457 581.738 C 1505.899 581.738 1505.341 582.107 1505.341 583.213 C 1505.341 582.844 1505.341 582.844 1504.784 582.844 C 1504.784 582.844 1504.226 583.213 1504.226 583.213 C 1504.226 582.475 1504.226 582.107 1503.668 582.107 C 1503.668 582.107 1503.11 582.475 1502.552 583.213 C 1498.647 583.582 1498.647 585.427 1498.647 587.64 C 1495.299 583.213 1488.605 585.427 1485.815 585.427 L 1485.815 587.64 C 1482.468 585.427 1489.163 583.213 1482.468 583.213 C 1482.468 585.427 1482.468 585.427 1482.468 587.64 C 1482.468 585.427 1482.468 585.427 1479.121 585.427 C 1482.468 589.853 1472.426 585.427 1472.426 589.853 C 1472.426 587.64 1472.426 587.64 1472.426 585.427 C 1475.773 587.64 1469.079 589.853 1469.079 592.067 C 1469.079 585.427 1459.037 598.707 1459.037 589.853 C 1455.689 596.494 1446.205 592.067 1439.51 596.494 C 1439.51 594.28 1439.51 594.28 1439.51 592.067 C 1432.816 592.067 1429.468 594.28 1423.332 598.707 C 1419.984 600.921 1416.637 600.921 1413.29 600.921 C 1416.637 603.134 1409.942 605.347 1416.637 605.347 C 1409.942 603.134 1406.595 607.561 1400.458 607.561 C 1400.458 605.347 1403.805 605.347 1407.153 605.347 L 1403.805 603.134 C 1384.279 611.619 1361.406 607.561 1341.322 611.619 C 1341.322 609.405 1341.322 609.405 1341.322 607.192 C 1337.974 611.619 1328.49 607.192 1325.143 611.619 L 1321.795 609.405 C 1325.143 609.405 1328.49 609.405 1331.838 609.405 C 1325.143 611.619 1319.006 607.192 1315.659 611.619 C 1315.659 609.405 1315.659 609.405 1315.659 607.192 C 1308.964 615.677 1296.133 622.317 1289.438 631.17 C 1286.09 628.957 1282.743 626.744 1279.396 624.53 C 1282.743 631.17 1272.701 622.317 1272.701 626.744 C 1272.701 624.53 1272.701 624.53 1272.701 622.317 C 1262.659 622.317 1249.828 615.677 1239.786 622.317 C 1239.786 620.103 1239.786 617.89 1236.438 615.677 C 1236.438 617.89 1236.438 617.89 1236.438 620.103 C 1236.438 617.89 1236.438 617.89 1236.438 615.677 C 1239.786 615.677 1246.48 615.677 1249.27 615.677 C 1242.575 615.677 1249.27 617.89 1245.922 620.103 C 1235.88 615.677 1219.702 620.103 1209.659 615.677 L 1213.007 615.677 C 1200.175 613.463 1186.786 613.463 1173.954 617.89 C 1167.26 617.89 1157.776 620.103 1151.081 615.677 L 1154.428 615.677 C 1147.734 613.463 1141.597 613.463 1134.902 611.25 C 1118.723 615.677 1105.334 613.463 1089.155 613.463 C 1062.934 609.036 1040.061 609.036 1013.84 609.036 C 1013.84 611.25 1013.84 611.25 1013.84 613.463 C 1007.145 606.823 990.966 609.036 980.924 604.978 C 984.272 607.192 974.23 607.192 977.577 609.405 C 970.882 607.192 964.746 613.832 954.704 609.405 C 931.83 616.045 898.914 616.045 872.694 609.405 C 862.652 611.619 849.82 613.832 839.778 614.939 C 828.062 616.414 816.905 617.89 806.863 622.317 C 787.336 622.317 767.81 626.744 747.726 624.53 C 747.726 626.744 747.726 626.744 747.726 628.957 L 744.379 626.744 C 741.031 631.17 734.337 628.957 728.2 628.957 C 728.2 631.17 728.2 633.384 724.853 633.384 C 714.811 631.17 708.674 635.597 701.979 637.811 L 701.979 635.597 C 691.937 640.024 679.106 635.597 669.064 644.082 C 652.885 644.082 632.801 648.509 616.622 641.868 L 613.275 644.082 C 613.275 641.868 609.927 641.868 606.58 641.868 C 603.232 641.868 603.232 644.082 603.232 646.295 C 606.58 646.295 606.58 646.295 606.58 644.082 C 596.538 644.082 587.054 648.509 577.012 646.295 L 577.012 644.082 C 573.664 646.295 580.359 648.509 573.664 648.509 C 573.664 646.295 573.664 646.295 573.664 644.082 C 566.97 646.295 557.485 646.295 552.464 646.664 C 545.212 647.033 537.959 646.295 531.265 644.082 C 531.265 646.295 527.917 646.295 524.57 646.295 L 527.917 648.509 C 491.654 644.082 455.949 631.17 419.687 641.868 C 409.644 635.228 393.466 626.744 403.508 616.045 C 400.16 613.832 396.813 609.405 390.676 609.405 C 390.676 611.619 390.676 611.619 390.676 613.832 C 387.329 611.619 387.329 611.619 383.982 609.405 C 383.982 611.619 380.634 611.619 377.287 611.619 C 377.287 609.405 377.287 609.405 377.287 607.192 C 367.245 609.405 361.108 602.765 351.066 604.978 C 347.719 600.552 341.024 600.552 334.887 600.552 C 334.887 602.765 334.887 602.765 334.887 604.978 C 334.887 600.552 324.845 598.338 328.192 594.28 L 324.845 596.494 C 324.845 594.28 324.845 594.28 324.845 592.067 C 321.498 592.067 318.15 592.067 314.803 594.28 C 318.15 589.853 314.803 585.796 308.108 583.582 C 308.108 583.582 308.108 585.796 308.666 585.427 C 311.456 579.155 298.624 576.942 298.624 570.302 C 298.624 572.515 298.624 572.515 298.624 574.729 C 298.624 572.515 298.624 570.302 298.624 570.302 C 288.582 563.662 282.445 557.39 269.056 552.963 C 265.709 552.963 262.361 552.963 259.014 552.963 C 255.667 550.75 252.319 548.537 246.74 548.537 C 246.74 547.799 246.74 547.43 246.183 547.43 C 246.183 547.43 246.183 547.43 245.625 547.43 C 245.625 547.43 245.625 547.061 245.067 547.061 C 245.067 547.061 245.067 547.061 244.509 547.061 C 244.509 547.061 244.509 547.061 243.951 547.43 C 243.951 547.061 243.951 546.692 243.393 546.692 C 242.835 546.692 242.835 547.061 242.277 547.799 C 242.277 547.799 242.277 547.799 242.277 547.799 C 242.277 547.799 242.277 547.799 242.277 547.799 C 242.277 546.323 242.277 545.217 241.719 545.217 C 241.719 545.217 241.162 545.585 240.604 546.692 C 240.604 545.954 240.604 545.217 240.046 545.217 C 240.046 545.217 240.046 545.217 240.046 545.217 C 240.604 544.11 240.604 543.003 240.046 543.003 C 240.046 543.003 239.488 543.003 239.488 543.372 C 239.488 543.372 239.488 543.003 238.93 543.003 C 238.93 542.634 238.93 542.265 238.372 542.265 C 238.372 542.265 238.372 542.265 237.814 542.634 C 237.814 542.634 237.814 542.634 237.814 542.634 C 237.256 542.634 237.256 542.634 237.256 543.003 C 237.256 543.003 237.256 542.634 236.698 542.634 C 236.698 542.634 236.141 542.634 236.141 542.634 C 236.141 542.634 236.141 542.265 236.141 541.896 C 236.141 541.159 236.141 540.79 235.583 540.79 C 235.583 540.79 235.583 540.79 235.025 540.79 C 235.025 540.79 234.467 540.421 234.467 540.421 C 234.467 540.421 233.909 540.421 233.909 540.421 C 233.909 540.421 233.909 540.421 233.909 540.421 C 233.909 539.683 233.909 539.314 233.351 539.314 C 233.351 539.314 233.351 539.314 233.351 539.314 C 233.351 538.945 232.793 538.576 232.793 538.207 C 232.235 538.207 231.677 538.576 231.677 539.314 C 231.677 540.052 231.677 540.421 232.235 540.421 C 232.235 540.421 232.235 540.421 232.235 540.421 C 231.677 540.421 231.677 540.052 231.12 540.052 C 231.12 539.683 231.12 539.683 231.12 539.314 C 231.12 538.576 231.12 537.839 230.562 537.839 C 230.562 537.839 230.562 537.839 230.004 537.839 C 230.004 537.839 230.004 537.839 230.004 537.839 C 230.004 537.839 229.446 537.839 229.446 538.207 C 229.446 538.207 229.446 538.207 229.446 538.207 C 229.446 538.207 229.446 538.207 228.888 538.207 C 228.888 538.207 228.888 537.839 228.33 537.839 C 228.33 537.47 227.772 537.47 227.772 537.47 C 227.772 537.47 227.214 537.47 227.214 537.839 C 227.214 537.47 227.214 537.101 226.656 537.101 C 226.098 537.101 225.541 537.47 225.541 538.207 C 225.541 538.207 225.541 538.576 225.541 538.576 C 225.541 538.576 225.541 538.576 224.983 538.576 C 224.983 538.576 224.983 538.207 224.983 538.207 C 224.983 537.47 224.983 536.732 224.425 536.732 C 224.425 536.732 223.867 536.732 223.867 537.101 C 223.867 537.101 223.867 537.101 223.867 537.101 C 223.309 537.101 223.309 537.47 222.751 537.839 C 222.751 537.839 222.193 537.47 222.193 537.47 C 222.193 537.101 222.193 536.732 221.635 536.732 C 221.635 536.732 221.077 536.732 221.077 537.101 C 221.077 536.363 220.52 535.994 219.962 535.994 C 219.962 535.994 219.404 535.994 219.404 536.363 C 219.404 536.363 219.404 536.363 219.404 536.363 C 219.404 536.363 219.404 536.363 219.404 536.363 C 219.404 536.363 219.404 536.363 218.846 536.363 C 218.846 536.363 218.846 536.363 218.288 536.363 C 218.288 536.363 217.73 536.363 217.73 536.732 C 217.73 536.732 217.73 536.732 217.73 536.732 C 217.73 536.732 217.73 536.363 217.73 536.363 C 217.73 535.625 217.73 535.256 217.172 535.256 C 216.614 535.256 216.056 535.625 216.056 536.363 C 216.056 536.363 216.056 536.732 216.056 536.732 C 216.056 536.732 216.056 537.101 215.499 537.47 C 215.499 537.47 215.499 537.47 215.499 537.47 C 215.499 537.47 215.499 537.47 215.499 537.47 C 215.499 537.47 215.499 537.47 215.499 537.47 C 215.499 537.47 214.941 537.101 214.941 537.101 C 214.383 537.101 214.383 537.101 214.383 537.101 C 214.383 537.101 213.825 537.101 213.825 537.47 C 213.825 537.47 213.267 537.47 213.825 537.101 C 213.825 537.101 213.825 537.101 213.825 537.101 C 213.825 536.732 213.267 536.363 213.267 536.363 C 212.709 536.363 212.709 536.732 212.709 537.101 C 212.709 537.101 212.709 537.101 212.151 537.101 C 212.151 536.732 212.151 536.732 211.593 536.732 C 211.593 536.732 211.593 536.732 211.035 536.732 C 211.035 536.363 210.478 535.994 210.478 535.994 C 209.92 535.994 209.92 536.363 209.92 536.732 C 209.92 536.732 209.92 536.363 209.362 536.363 C 208.804 536.363 208.804 536.363 208.246 536.732 C 208.246 536.363 207.688 536.363 207.688 536.363 C 207.13 536.363 207.13 536.732 207.13 537.101 C 207.13 537.101 207.13 537.101 206.572 536.732 C 206.572 536.732 206.572 536.732 206.014 536.732 C 206.014 536.363 205.457 535.994 204.899 535.994 C 204.341 535.994 204.341 536.363 204.341 536.732 C 204.341 536.732 203.783 536.363 203.783 536.363 C 203.783 536.363 203.225 536.363 203.225 536.363 C 203.225 536.363 203.225 536.363 203.225 536.363 C 203.225 536.363 202.667 536.363 202.667 536.363 C 202.667 536.363 202.109 536.363 202.109 536.363 C 202.109 536.363 202.109 536.363 202.109 536.363 C 202.109 536.363 202.109 536.363 201.551 536.363 C 201.551 536.363 201.551 536.363 200.993 536.363 C 200.993 536.363 200.436 536.363 200.436 536.363 C 200.436 536.363 200.436 535.994 199.878 535.994 C 199.878 535.994 199.878 535.994 199.32 535.994 C 199.32 535.994 199.32 535.625 198.762 535.625 C 198.204 535.625 198.204 535.994 197.646 536.363 C 197.646 536.363 197.646 536.363 197.646 536.363 C 197.646 535.625 197.646 534.887 197.088 534.887 C 197.088 534.887 197.088 534.887 197.088 534.887 C 196.53 534.518 195.415 533.781 194.857 535.256 C 194.857 535.625 194.299 535.625 194.299 535.994 C 194.299 535.994 193.741 535.625 193.741 535.625 C 193.741 535.256 193.741 534.887 193.183 534.887 C 193.183 534.887 192.625 534.887 192.625 534.887 C 192.625 534.887 192.625 534.887 192.067 534.887 C 192.067 534.887 192.067 534.887 191.509 534.887 C 191.509 534.887 191.509 534.887 191.509 534.887 C 191.509 534.887 190.951 534.887 190.951 535.256 L 190.951 535.256 C 190.951 534.887 190.951 534.887 190.951 534.887 C 190.951 534.887 190.951 534.887 190.394 534.887 C 190.394 534.887 190.394 534.887 190.394 534.887 C 189.836 534.887 188.72 534.887 189.278 535.256 C 189.278 535.256 189.278 534.887 188.72 534.887 C 188.72 534.887 188.162 534.887 188.162 534.887 C 188.162 534.518 188.162 534.518 187.604 534.15 C 187.604 533.781 187.046 534.15 186.488 534.518 C 186.488 534.518 186.488 534.518 186.488 534.518 C 186.488 534.15 186.488 534.15 186.488 533.781 L 186.488 533.412 C 186.488 533.412 186.488 533.412 186.488 533.412 L 186.488 533.412 C 186.488 533.412 186.488 533.412 186.488 533.412 C 186.488 533.412 185.93 533.412 184.815 533.043 L 184.815 533.412 C 184.815 533.412 184.815 533.412 184.815 533.412 L 184.815 533.412 C 184.815 533.412 184.815 533.412 184.815 533.412 C 184.815 533.412 184.815 533.412 184.815 533.412 C 185.372 532.674 184.815 531.936 184.257 531.936 C 184.257 531.936 183.699 531.936 183.699 532.305 C 183.699 532.305 183.699 532.305 183.699 532.305 C 183.141 532.305 183.141 532.674 182.583 533.412 C 182.583 533.043 182.025 533.043 182.025 533.043 C 182.025 533.043 181.467 533.043 181.467 533.412 C 181.467 533.412 181.467 533.412 181.467 533.412 C 181.467 532.674 181.467 531.936 181.467 531.936 C 181.467 531.936 181.467 531.936 181.467 531.936 C 181.467 531.936 181.467 531.567 180.909 531.567 C 180.351 531.567 180.351 531.567 180.351 531.936 C 180.351 531.936 180.351 531.936 180.351 531.936 C 180.351 531.936 180.351 531.936 180.351 531.936 C 180.351 531.567 180.351 531.567 179.794 531.198 C 179.794 531.198 179.236 530.829 179.236 530.829 C 179.236 530.829 178.678 530.829 178.678 530.829 C 178.678 530.46 178.12 530.092 178.12 530.092 C 178.12 530.092 177.562 530.092 177.562 530.46 C 177.562 530.46 177.562 530.092 177.004 530.092 C 177.004 530.092 177.004 530.092 176.446 530.092 C 176.446 529.354 176.446 528.616 175.888 528.616 C 175.33 528.616 175.33 528.985 174.773 530.092 C 174.773 530.092 174.773 530.092 174.773 530.092 C 174.773 529.723 174.215 529.354 173.657 529.354 C 173.657 529.354 173.657 529.354 173.657 529.354 C 173.657 529.354 173.657 528.985 173.657 528.985 C 174.215 528.247 173.657 527.878 173.099 527.509 C 173.657 527.14 171.425 527.509 171.983 528.616 C 171.983 528.616 171.983 528.616 171.983 528.985 C 171.983 528.985 171.983 528.985 171.425 528.985 C 171.425 528.985 171.425 528.985 171.425 528.985 C 170.867 528.985 170.867 528.985 170.309 528.985 C 170.309 528.985 170.309 528.616 169.752 528.616 C 169.752 528.616 169.752 528.616 169.752 528.616 C 169.752 528.616 169.752 528.616 169.752 528.616 C 169.752 528.247 169.194 528.247 169.194 528.247 C 169.194 528.247 169.194 528.247 169.194 528.247 C 169.194 527.878 168.636 527.509 168.636 527.509 C 168.636 527.509 168.078 527.509 168.078 527.878 C 168.078 527.14 167.52 526.771 167.52 527.14 C 167.52 527.14 166.962 527.14 166.962 527.509 C 166.962 526.771 166.404 526.403 166.404 526.403 C 166.404 526.403 165.846 526.771 165.846 527.509 C 164.731 527.878 164.731 528.247 164.731 528.616 C 164.731 528.616 164.731 528.616 164.173 528.616 C 164.173 528.616 164.173 528.616 164.173 528.616 C 164.173 528.616 164.173 528.616 163.615 528.985 C 163.615 528.985 163.615 528.985 163.057 528.985 C 163.057 528.985 163.057 528.985 163.057 528.985 C 163.057 528.985 162.499 528.985 161.383 528.985 C 161.383 528.616 160.825 528.616 160.825 528.616 C 160.825 528.616 160.825 528.616 160.825 528.616 C 160.825 528.247 160.267 527.878 160.267 527.878 C 159.71 527.878 159.71 528.616 159.152 529.354 C 159.152 529.354 159.152 529.354 159.152 529.723 C 159.152 529.723 158.594 529.723 158.594 529.723 C 158.594 529.723 158.594 529.723 158.594 529.354 C 158.594 528.985 158.594 528.247 158.036 528.247 C 157.478 528.247 156.92 528.616 156.92 528.985 C 156.92 528.985 156.92 529.354 156.92 529.354 C 156.92 529.354 156.362 529.354 156.362 529.354 C 156.362 529.354 156.362 528.985 156.362 528.616 C 156.362 528.616 156.362 528.616 156.362 528.616 C 156.362 528.247 155.804 528.247 156.362 528.616 C 155.804 528.616 155.804 528.985 155.246 528.985 C 155.246 528.985 154.689 528.985 154.689 528.985 C 154.689 528.616 154.689 528.247 154.131 528.247 C 153.573 528.247 153.573 528.247 153.015 528.616 C 153.015 528.247 153.015 528.247 152.457 527.878 C 152.457 527.509 151.341 527.878 151.341 528.985 C 151.341 528.985 151.341 528.985 151.341 529.354 C 151.341 529.354 151.341 529.354 151.341 529.354 C 151.341 529.354 151.341 529.354 151.341 529.354 C 151.341 528.616 151.341 528.247 150.783 528.247 C 150.783 528.247 150.225 528.247 150.225 528.616 C 150.225 528.616 150.225 528.247 149.667 528.247 C 149.667 528.247 149.667 527.878 149.667 527.878 C 149.667 527.509 149.11 527.14 149.11 527.14 C 148.552 527.14 148.552 527.509 148.552 528.247 C 148.552 527.878 147.994 527.878 147.994 527.509 C 147.994 527.509 147.994 527.509 147.994 527.509 C 147.994 527.14 147.994 527.14 147.436 527.14 C 147.436 527.14 146.878 527.14 146.878 527.509 C 146.878 525.665 146.878 524.558 146.32 524.558 C 146.32 524.558 145.762 524.558 145.762 524.927 C 145.762 524.558 145.762 524.558 145.204 524.558 C 144.646 524.558 144.646 525.665 144.646 527.509 C 144.646 527.878 144.646 527.878 144.646 527.878 C 144.646 527.509 144.646 527.14 144.089 527.14 C 143.531 527.14 142.973 527.509 142.973 527.878 C 142.973 527.14 142.973 526.771 142.415 526.771 C 142.415 526.771 142.415 526.771 141.857 526.771 C 141.857 526.403 141.299 526.034 141.299 526.034 C 140.741 526.034 140.741 526.403 140.183 527.14 C 140.183 527.14 140.183 526.771 139.625 526.771 C 139.068 526.771 139.068 527.14 139.068 527.509 C 138.51 527.509 138.51 527.878 137.952 528.616 C 137.952 528.616 137.952 528.985 137.952 528.985 C 137.952 528.985 137.952 528.985 137.952 528.985 C 137.952 528.985 137.952 528.616 137.952 528.616 C 137.952 528.247 137.952 527.878 137.952 527.878 C 137.952 527.14 137.394 526.771 137.394 526.771 C 137.394 526.771 136.836 527.14 136.836 527.509 C 136.836 527.509 136.836 527.14 136.278 527.14 C 136.278 527.14 135.72 527.14 135.72 527.509 C 135.72 526.771 135.72 526.403 135.162 526.403 C 135.162 526.403 134.604 526.403 134.604 526.771 C 134.047 526.771 134.047 527.14 134.047 527.509 C 134.047 527.509 134.047 527.509 133.489 527.509 C 133.489 527.509 132.931 527.878 132.931 527.878 C 132.931 527.14 132.373 526.771 132.373 526.771 C 132.373 526.403 131.815 526.403 131.815 526.403 C 131.257 526.403 131.257 527.14 131.257 527.878 C 131.257 527.509 130.699 527.509 130.699 527.509 C 130.699 527.509 130.141 527.509 130.141 527.878 C 129.583 527.14 129.583 526.771 129.026 526.771 C 129.026 526.771 128.468 527.14 128.468 527.509 C 128.468 527.14 127.91 527.14 127.91 527.14 C 127.91 527.14 127.352 527.509 127.352 527.509 C 127.352 526.771 126.794 526.034 126.236 526.034 C 126.236 526.034 125.678 526.403 125.678 526.403 C 125.12 526.403 124.562 526.034 124.562 526.403 C 124.562 526.403 124.562 526.403 124.562 526.403 C 124.562 526.034 124.562 526.034 124.562 526.034 C 124.562 526.034 124.562 525.665 124.562 525.665 C 124.562 525.665 124.005 525.665 124.005 525.665 C 124.005 524.558 123.447 523.82 123.447 523.82 C 123.447 523.82 122.889 524.189 122.889 524.927 C 122.889 524.927 122.889 524.927 122.889 524.927 C 122.889 524.927 122.889 524.927 122.889 524.927 C 123.447 524.189 122.331 524.558 121.773 525.296 C 121.773 525.296 121.773 525.296 121.773 525.296 C 121.773 525.296 121.773 524.927 121.215 524.927 C 121.215 524.927 121.215 524.927 121.215 524.927 C 121.215 524.558 121.215 524.189 121.215 523.82 C 121.215 522.345 120.657 520.869 120.657 520.869 C 120.657 520.869 120.099 520.869 120.099 521.238 C 120.099 521.238 120.099 521.238 120.099 521.238 C 119.541 521.238 118.984 522.714 118.984 524.927 C 118.984 525.665 118.984 526.034 118.984 526.771 C 118.984 526.403 118.426 525.665 118.426 524.927 C 117.31 524.558 116.752 524.927 116.752 525.296 C 116.752 525.296 116.752 525.296 116.194 525.665 C 116.194 525.665 115.636 525.296 115.636 525.296 C 115.636 525.665 115.636 525.665 115.636 526.034 C 115.636 526.034 115.636 526.403 115.636 526.403 C 115.636 526.403 115.636 526.403 115.078 526.403 C 115.078 526.403 115.078 526.403 115.078 526.403 C 115.078 526.034 115.078 525.665 114.52 525.665 C 114.52 525.665 113.963 526.034 113.963 526.403 C 113.963 526.403 113.963 526.403 113.963 526.403 C 113.963 526.403 113.963 526.403 113.405 526.403 C 113.405 526.034 112.847 525.665 112.847 525.665 C 112.847 525.665 112.289 526.034 112.289 526.771 C 112.289 526.771 111.731 526.403 111.731 526.403 C 111.731 526.403 111.731 526.403 111.173 526.771 C 111.173 526.771 111.173 526.771 111.173 526.771 C 111.173 526.034 110.615 525.665 110.057 525.665 C 109.499 525.665 109.499 526.034 109.499 526.771 C 109.499 526.771 109.499 526.403 109.499 526.403 C 109.499 526.403 109.499 526.403 109.499 526.403 C 109.499 524.558 108.941 523.451 108.941 523.451 C 108.384 523.451 108.384 524.927 107.826 526.771 C 107.268 526.771 107.826 526.771 107.826 527.14 C 107.826 527.14 107.826 527.14 107.826 527.14 C 107.826 527.14 107.826 527.14 107.826 527.14 C 107.826 527.14 107.826 527.14 107.826 527.14 C 107.268 526.403 107.268 526.034 106.71 526.034 C 106.71 526.034 106.71 526.034 106.152 526.403 C 106.152 526.403 106.152 526.403 106.152 526.403 C 106.152 526.403 105.594 526.771 105.594 526.771 C 105.594 526.771 105.594 526.771 105.036 526.771 C 103.92 526.034 103.92 526.771 103.92 527.509 C 103.92 527.509 103.92 527.509 103.92 527.509 C 103.92 527.878 103.92 527.878 103.92 527.878 C 103.92 527.878 103.92 527.878 103.92 527.878 C 103.92 527.509 103.363 527.14 102.805 527.14 C 102.805 527.14 102.805 527.14 102.805 527.14 C 102.805 527.14 102.247 527.14 102.247 527.14 C 102.247 527.14 101.689 527.14 101.689 527.14 C 101.689 527.14 101.689 527.14 101.689 527.14 C 101.689 527.14 101.689 527.14 101.689 527.14 C 101.689 527.14 101.689 526.771 101.689 526.771 C 102.247 525.296 101.689 525.296 101.131 526.034 C 101.131 526.034 101.131 526.034 101.131 526.034 C 101.131 525.296 101.131 524.927 100.573 524.927 C 100.573 524.927 100.573 525.296 100.015 525.665 C 100.015 525.296 99.457 525.296 99.457 525.296 C 99.457 525.296 99.457 525.296 98.899 525.665 C 98.899 525.296 98.899 525.296 98.342 525.296 L 98.342 525.296 C 98.342 523.82 98.342 522.714 97.784 522.714 C 97.226 522.714 96.668 523.82 96.668 524.927 C 96.668 525.296 96.668 525.665 96.668 526.034 C 96.668 526.034 96.11 526.034 96.11 526.403 C 96.11 525.665 95.552 525.296 94.994 525.296 C 94.994 525.296 94.436 525.665 94.436 525.665 C 94.436 525.296 93.878 525.296 93.878 525.296 C 93.878 525.296 93.878 525.296 93.321 525.665 C 93.321 525.665 93.321 525.665 93.321 525.665 C 93.321 525.665 93.321 525.665 93.321 525.665 C 93.321 525.296 92.763 525.296 92.763 525.296 C 92.763 525.296 92.205 525.665 92.205 525.665 C 92.205 525.296 91.647 525.296 91.647 525.296 C 91.647 525.296 91.089 525.296 91.089 525.665 C 91.089 525.296 90.531 524.927 90.531 524.927 C 90.531 523.82 90.531 523.082 89.973 522.714 C 89.415 522.714 89.415 523.451 88.857 524.558 C 88.857 524.558 88.857 524.558 88.857 524.927 C 88.857 524.927 88.857 524.927 88.857 524.927 C 88.857 524.927 88.3 524.927 88.3 524.558 C 88.3 524.189 87.742 524.189 87.742 524.189 C 87.742 524.189 87.184 524.189 87.184 524.558 C 87.184 523.82 86.626 523.451 86.068 523.451 C 86.068 523.451 86.068 523.451 86.068 523.451 C 86.068 523.451 86.068 523.451 86.068 523.451 C 85.51 523.451 85.51 523.82 85.51 524.189 C 85.51 524.189 84.952 524.189 84.952 524.189 C 84.952 524.189 84.952 524.189 84.952 524.189 C 84.952 523.451 84.394 523.082 84.394 523.082 C 84.394 523.082 84.394 523.082 84.394 523.082 C 83.836 523.082 83.836 523.082 83.279 523.82 C 82.721 523.82 82.721 523.82 82.721 523.451 C 82.721 523.451 82.721 523.451 82.721 523.451 C 82.721 523.451 82.721 523.082 82.163 523.082 C 82.163 523.082 82.163 523.082 82.163 523.082 C 82.163 523.082 81.605 522.714 81.605 522.714 C 81.605 522.714 81.047 522.714 81.047 523.082 C 81.047 522.345 80.489 521.607 79.931 521.607 C 79.931 521.607 79.373 521.976 79.373 522.345 C 79.373 522.345 79.373 522.345 79.373 522.345 C 78.815 522.345 78.258 523.082 78.258 524.189 C 78.258 523.82 78.258 523.451 77.7 523.451 C 77.142 523.451 76.584 524.189 76.584 524.927 C 76.584 524.927 76.026 524.927 76.026 524.927 C 76.026 524.927 76.026 524.558 76.026 524.558 C 76.026 523.451 76.026 522.345 75.468 522.345 C 75.468 522.345 75.468 522.345 74.91 522.345 C 74.91 522.345 74.91 521.976 74.352 521.976 C 73.794 521.976 73.236 522.714 73.236 523.82 C 73.236 524.189 73.236 524.189 73.236 524.189 C 72.679 524.189 72.679 524.189 72.121 524.189 C 72.121 524.189 72.121 523.82 72.121 523.82 C 72.679 522.714 72.679 521.976 72.121 521.976 C 72.121 521.976 71.563 521.976 71.563 521.976 C 71.563 521.976 71.563 521.607 71.005 521.976 C 70.447 521.976 70.447 522.345 70.447 523.082 C 70.447 523.082 69.889 522.714 69.889 522.714 C 69.889 522.714 69.889 522.714 69.889 522.714 C 69.889 521.976 69.331 521.238 69.331 521.238 C 69.331 521.238 68.773 521.607 68.773 521.976 C 68.215 522.345 68.215 523.082 68.215 523.82 C 68.215 523.82 68.215 523.82 68.215 524.189 C 68.215 524.189 68.215 524.189 68.215 524.189 C 68.215 524.189 68.215 523.82 68.215 523.82 C 68.215 522.714 68.215 521.976 67.658 521.976 C 67.658 521.976 67.1 521.976 67.1 522.345 C 67.1 521.976 67.1 521.607 66.542 521.238 C 66.542 521.238 65.984 521.607 65.984 521.976 C 65.984 521.976 65.426 521.976 65.426 522.345 C 65.426 521.976 65.426 521.607 64.868 521.607 C 64.868 521.607 64.31 521.607 64.31 521.976 C 64.31 521.976 64.31 521.976 64.31 521.976 C 63.752 521.976 63.752 522.714 63.194 523.451 C 63.194 522.345 63.194 521.238 62.637 521.238 C 62.079 521.238 62.079 521.976 61.521 523.451 C 61.521 522.714 60.963 521.976 60.963 521.976 C 60.963 521.976 60.405 521.976 60.405 522.345 C 60.405 521.976 60.405 521.607 59.847 521.607 C 59.289 521.607 59.289 521.976 58.731 523.082 C 58.731 523.082 58.731 523.082 58.731 523.082 C 58.731 523.082 58.173 523.082 58.173 523.082 C 58.173 523.082 58.173 523.082 58.173 523.082 C 58.173 523.082 58.173 523.082 57.616 523.082 C 57.616 522.714 57.616 522.345 57.058 522.345 C 57.058 522.345 56.5 522.345 56.5 522.714 C 56.5 522.345 56.5 521.976 55.942 522.345 C 55.384 522.345 55.384 522.714 54.826 523.451 C 54.826 523.451 54.826 523.451 54.268 523.82 C 54.268 522.714 54.268 521.976 53.71 521.976 C 53.71 521.976 53.71 521.976 53.71 521.976 C 53.71 521.607 53.71 521.607 53.152 521.607 C 53.152 521.607 52.595 521.607 52.595 521.976 C 52.595 521.607 52.037 520.869 52.037 520.869 C 51.479 520.869 51.479 521.238 50.921 521.976 C 50.921 521.976 50.921 521.976 50.921 521.976 C 50.921 521.607 50.921 521.607 50.363 521.607 C 49.805 521.607 49.805 521.976 49.805 522.345 C 49.805 521.976 49.805 521.607 49.247 521.607 C 48.689 521.607 48.131 521.976 48.131 522.714 C 48.131 522.714 47.574 522.714 47.574 523.082 C 47.574 523.082 47.574 522.714 47.016 522.714 C 47.016 522.714 47.016 522.714 47.016 522.714 C 47.016 522.714 46.458 522.714 46.458 522.714 C 46.458 522.714 45.9 522.714 45.9 523.082 C 45.9 523.082 45.342 522.714 45.342 522.714 C 45.342 522.714 44.784 522.714 44.784 522.714 C 44.784 522.714 44.784 522.714 44.784 522.714 C 44.784 522.714 44.784 522.714 44.226 522.714 C 44.226 522.714 44.226 522.345 43.668 522.345 C 43.668 522.345 43.11 522.345 43.11 522.345 C 43.11 522.345 42.553 521.976 42.553 521.976 C 42.553 521.976 41.995 521.976 41.995 522.345 C 41.995 522.345 41.995 522.345 41.995 522.345 C 41.995 522.345 41.995 522.345 41.437 522.345 C 41.437 522.345 41.437 522.345 41.437 522.345 C 41.437 521.976 40.879 521.607 40.879 521.607 C 40.879 521.607 40.321 521.607 40.321 521.976 C 40.321 521.976 39.763 521.976 39.763 521.607 C 39.763 521.607 39.205 521.607 39.205 521.976 C 38.089 521.607 36.974 521.607 35.858 521.238 C 33.068 520.869 30.279 520.869 27.489 520.869 C 27.489 520.869 26.932 520.5 26.932 520.5 C 26.932 520.5 26.374 520.5 26.374 520.869 C 26.374 520.869 26.374 520.869 25.816 520.869 C 25.258 520.869 24.7 520.5 24.7 520.5 C 24.7 520.131 24.7 519.762 24.142 519.762 C 23.584 519.762 23.584 520.131 23.026 520.5 C 23.026 520.5 22.468 520.5 22.468 520.5 C 22.468 520.5 22.468 520.131 21.911 520.131 C 21.911 520.131 21.353 520.131 21.353 520.131 C 21.353 520.131 21.353 520.131 21.353 519.762 C 21.353 519.393 21.353 518.656 20.795 518.656 C 20.237 518.656 20.237 519.025 19.679 519.393 C 19.679 519.393 19.679 519.393 19.679 519.393 C 19.679 519.393 19.679 519.393 19.679 519.393 C 19.679 519.025 19.679 518.287 19.121 518.287 C 18.563 518.287 18.563 518.656 18.005 519.025 C 18.005 519.025 18.005 519.025 18.005 519.025 C 18.005 519.025 18.005 519.025 17.447 519.025 C 17.447 519.025 17.447 519.025 17.447 519.025 C 17.447 519.025 16.89 519.025 16.89 519.025 C 16.89 518.656 16.332 518.656 16.332 518.656 C 16.332 518.656 15.774 518.656 15.774 519.025 C 15.774 519.025 15.774 519.025 15.774 519.025 C 15.774 518.656 15.216 518.287 15.216 518.287 C 15.216 518.287 14.658 518.656 14.658 518.656 C 14.658 518.656 14.1 518.287 14.1 518.287 C 14.1 518.287 14.1 518.287 14.1 518.287 C 14.1 517.918 13.542 517.918 13.542 517.918 C 12.984 517.918 12.984 518.287 12.984 518.656 C 12.984 518.656 12.426 519.025 12.426 519.025 C 10.753 518.287 8.521 518.287 6.848 519.025 C 6.848 519.025 6.848 519.025 6.848 519.025 C 6.848 519.025 6.29 519.025 6.29 519.393 C 5.732 519.762 5.174 520.131 5.174 520.5 C 5.174 520.5 4.616 520.5 4.616 520.5 C 4.616 520.5 4.058 520.5 4.058 520.869 C 4.058 520.5 4.058 520.131 3.5 520.131 C 2.942 520.131 2.942 520.5 2.384 521.607 C 2.384 521.238 1.827 521.238 1.827 521.238 C 1.827 520.869 1.269 520.5 1.269 520.5 C 0.711 520.5 0.711 520.869 0.153 521.607 C 0.153 521.607 0.153 521.607 -0.405 521.607 C -0.405 521.607 -0.405 521.607 -0.405 521.607 C -0.405 521.607 -0.405 521.607 -0.405 521.607 C -0.405 521.607 -0.405 521.607 -0.963 521.607 C -0.963 521.238 -0.963 520.869 -1.521 520.869 C -1.521 520.869 -2.079 520.869 -2.079 521.238 C -2.079 521.238 -2.079 521.238 -2.079 521.238 C -2.079 521.238 -2.637 521.238 -2.637 521.607 C -2.637 521.238 -3.195 521.238 -3.195 521.238 C -3.752 521.238 -3.752 521.976 -3.752 522.345 C -3.752 522.345 -3.752 521.976 -3.752 521.976 C -3.752 521.976 -3.752 521.976 -3.752 521.976 C -3.752 521.976 -3.752 521.976 -4.31 521.976 C -4.31 521.607 -4.31 521.607 -4.868 521.238 C -4.868 521.238 -5.426 521.238 -5.426 521.607 C -5.426 521.238 -5.984 520.869 -5.984 521.238 C -6.542 521.238 -6.542 521.976 -6.542 522.345 C -6.542 522.345 -6.542 522.345 -6.542 522.345 C -6.542 521.976 -6.542 521.607 -6.542 521.607 C -6.542 521.607 -7.1 521.607 -7.658 521.976 C -7.658 521.238 -8.216 520.869 -8.216 520.869 C -8.216 520.869 -8.773 520.869 -8.773 521.238 C -8.773 521.238 -8.773 521.238 -8.773 521.238 C -9.331 521.238 -9.331 521.607 -9.889 522.714 C -9.889 522.714 -9.889 522.714 -10.447 522.714 C -10.447 522.714 -10.447 522.714 -10.447 522.714 C -9.889 521.607 -9.889 520.869 -10.447 520.869 C -10.447 520.869 -11.005 520.869 -11.005 521.238 C -11.005 521.238 -11.005 520.869 -11.563 520.869 C -12.121 520.869 -12.121 521.238 -12.121 521.607 C -12.679 520.869 -13.237 520.131 -13.794 520.5 C -13.794 520.5 -13.794 520.869 -13.794 520.869 C -13.794 520.5 -13.794 520.131 -14.352 520.131 C -14.352 520.131 -14.91 520.5 -15.468 521.238 C -15.468 521.238 -15.468 521.238 -15.468 521.238 C -15.468 521.238 -15.468 520.869 -15.468 520.5 C -15.468 520.131 -15.468 519.393 -16.026 519.393 C -16.026 519.393 -16.584 519.025 -16.584 519.025 C -16.584 519.025 -16.584 519.025 -16.584 519.025 C -17.142 518.656 -17.142 518.656 -17.7 518.656 C -17.7 518.656 -17.7 519.025 -17.7 519.393 C -17.7 519.393 -17.7 519.393 -17.7 519.393 C -17.7 519.393 -17.7 519.393 -17.7 519.393 C -17.7 519.025 -17.7 519.025 -18.258 519.025 C -18.258 519.025 -18.258 518.656 -18.258 518.656 C -18.258 517.918 -18.815 517.18 -19.373 517.18 C -19.373 517.18 -19.373 517.18 -19.931 517.549 C -19.931 517.18 -20.489 516.811 -20.489 516.811 C -20.489 516.811 -21.047 516.811 -21.047 517.18 C -21.047 516.811 -21.605 516.442 -21.605 516.442 C -22.163 516.442 -22.163 516.811 -22.163 517.549 C -22.163 517.18 -22.163 517.18 -22.163 517.18 C -22.163 516.073 -22.163 515.336 -22.721 515.336 C -23.279 515.336 -23.279 516.073 -23.836 517.18 C -23.836 516.811 -24.394 516.442 -24.394 516.442 C -24.952 516.442 -24.952 517.549 -24.952 518.656 C -24.952 518.656 -24.952 518.656 -24.952 518.656 L -24.952 518.656 C -24.952 518.656 -24.952 518.656 -24.952 518.656 C -24.952 518.656 -24.952 518.656 -25.51 518.656 C -26.626 518.656 -27.742 518.656 -28.3 519.025 C -28.3 519.025 -28.3 519.025 -28.857 519.025 C -28.857 519.025 -29.415 519.025 -29.415 519.393 C -29.415 519.393 -29.415 519.393 -29.415 519.393 C -29.415 519.025 -29.973 519.025 -29.973 519.025 C -30.531 519.025 -30.531 519.393 -31.089 520.131 C -31.089 520.131 -31.089 520.131 -31.089 520.131 C -31.089 519.762 -31.647 519.393 -31.647 519.393 C -32.205 519.393 -32.205 519.762 -32.205 520.131 C -32.205 520.131 -32.205 520.131 -32.205 520.131 C -32.205 520.131 -32.205 520.131 -32.205 520.131 C -32.205 519.393 -32.763 519.025 -32.763 519.025 C -32.763 519.025 -32.763 519.025 -32.763 519.025 C -32.763 518.656 -32.763 518.656 -33.321 518.656 C -33.321 518.656 -33.878 518.656 -33.878 519.025 C -33.878 519.025 -33.878 518.656 -34.436 518.656 C -34.436 518.656 -34.994 518.656 -34.994 519.025 C -34.994 518.656 -35.552 518.287 -35.552 518.287 C -35.552 518.287 -35.552 518.287 -36.11 518.656 C -36.11 518.287 -36.668 518.287 -36.668 518.287 C -36.668 518.287 -36.668 518.287 -36.668 518.287 C -36.668 517.549 -36.668 517.18 -36.668 517.18 C -36.668 517.18 -37.226 517.18 -37.226 517.549 C -37.226 517.18 -37.226 516.811 -37.226 516.811 C -37.784 516.811 -38.342 517.549 -38.9 518.656 C -38.9 518.656 -38.9 518.656 -39.457 518.656 C -39.457 518.656 -40.015 518.656 -40.015 519.025 C -40.015 518.656 -40.573 518.656 -40.573 518.656 C -40.573 518.656 -40.573 518.656 -40.573 518.656 C -40.573 517.918 -41.131 517.549 -41.689 517.549 C -41.689 517.549 -41.689 517.549 -41.689 517.549 C -42.247 517.18 -42.247 517.18 -42.247 517.549 C -42.247 517.918 -42.247 517.918 -42.805 518.287 C -42.805 518.287 -43.363 517.918 -43.363 517.918 C -43.363 517.549 -43.363 517.18 -43.921 517.18 C -43.921 517.18 -43.921 517.18 -43.921 517.18 C -43.921 516.442 -43.921 516.073 -44.478 516.073 C -44.478 516.073 -45.036 516.073 -45.036 516.442 C -45.036 516.073 -45.594 515.704 -45.594 515.704 C -45.594 515.704 -46.152 515.704 -46.152 516.073 C -46.152 516.073 -46.152 516.073 -46.71 516.073 C -46.71 516.073 -47.268 516.073 -47.268 516.442 C -47.268 516.073 -47.826 516.073 -47.826 516.073 C -47.826 516.073 -47.826 516.073 -47.826 516.073 C -47.826 516.073 -47.826 515.704 -47.826 515.704 C -47.826 515.336 -48.384 514.967 -48.384 514.967 C -48.384 514.967 -48.942 514.967 -48.942 515.336 C -48.942 515.336 -49.499 514.967 -49.499 514.967 C -49.499 514.967 -49.499 514.967 -49.499 514.598 C -49.499 514.598 -49.499 514.229 -49.499 514.229 C -49.499 514.229 -49.499 514.229 -49.499 514.229 C -49.499 513.491 -50.057 513.122 -50.615 513.122 C -51.173 513.122 -51.173 513.491 -51.173 513.86 C -51.173 513.86 -51.173 513.86 -51.173 513.86 C -51.173 513.122 -51.173 512.753 -51.731 512.753 C -51.731 512.753 -51.731 512.753 -52.289 512.753 C -52.289 511.647 -52.289 510.909 -52.847 510.909 C -53.405 510.909 -53.405 511.647 -53.963 512.753 C -53.963 512.753 -53.963 512.753 -53.963 512.753 C -53.963 512.753 -53.963 512.753 -53.963 512.753 C -53.963 512.384 -53.963 512.384 -54.52 512.384 C -54.52 511.278 -54.52 510.54 -55.078 510.54 C -55.636 510.54 -56.194 511.647 -56.194 513.122 C -56.194 512.753 -56.752 512.384 -56.752 512.384 C -56.752 512.384 -57.31 512.384 -57.31 512.753 C -57.31 512.753 -57.31 512.753 -57.868 512.753 C -57.868 512.753 -58.426 512.753 -58.426 513.122 C -58.426 513.122 -58.426 513.122 -58.426 513.122 C -58.426 512.384 -58.426 512.015 -58.984 512.015 C -58.984 512.015 -59.541 512.015 -59.541 512.384 C -59.541 512.015 -60.099 511.647 -60.657 511.647 C -60.657 511.647 -61.215 512.015 -61.215 512.384 C -61.215 512.384 -61.215 512.384 -61.215 512.384 C -61.215 512.015 -61.773 512.015 -61.773 512.015 C -61.773 512.015 -61.773 512.015 -61.773 512.015 C -61.773 511.647 -62.331 511.278 -62.331 511.278 C -62.331 511.278 -62.331 511.278 -62.889 511.278 C -62.889 511.278 -62.889 511.278 -63.447 511.278 C -63.447 511.278 -64.005 511.278 -64.005 511.647 C -64.005 511.647 -64.005 511.647 -64.005 511.647 C -64.005 511.647 -64.005 511.647 -64.005 511.647 C -64.005 511.278 -64.005 510.909 -64.562 510.909 C -65.12 510.909 -65.678 511.647 -65.678 512.015 C -65.678 512.015 -65.678 512.015 -65.678 512.015 C -65.678 512.015 -65.678 512.015 -65.678 512.015 C -65.678 511.647 -66.236 510.909 -66.236 510.909 C -66.236 510.54 -66.794 510.171 -66.794 510.171 C -66.794 510.171 -67.352 510.171 -67.352 510.54 C -67.352 510.54 -67.352 510.54 -67.352 510.54 C -67.91 510.54 -68.468 510.909 -68.468 511.647 C -68.468 511.647 -68.468 511.647 -68.468 511.647 C -68.468 511.278 -69.026 510.54 -69.583 510.54 C -69.583 510.54 -70.141 510.909 -70.141 510.909 C -70.141 510.54 -70.699 510.171 -70.699 510.54 C -71.257 510.54 -71.815 510.909 -71.815 511.278 C -71.815 511.278 -71.815 511.278 -71.815 511.278 C -71.815 511.278 -71.815 511.278 -72.373 511.278 C -72.373 511.278 -72.931 511.278 -72.931 511.278 C -72.931 511.278 -72.931 511.278 -72.931 510.909 C -72.931 510.54 -74.604 510.909 -76.836 511.278 C -76.836 511.278 -76.836 511.278 -76.836 511.278 C -77.394 511.278 -77.394 511.278 -77.952 511.647 C -77.952 511.278 -78.51 510.909 -78.51 510.909 C -79.068 510.909 -79.068 511.278 -79.068 511.647 C -79.068 511.647 -79.068 511.647 -79.068 511.647 C -79.626 511.647 -80.183 512.015 -80.183 512.384 C -80.183 512.384 -80.183 512.384 -80.183 512.384 C -80.183 512.384 -80.183 512.384 -80.741 512.384 C -80.741 512.384 -80.741 512.384 -80.741 512.384 C -80.183 511.647 -79.626 510.909 -80.183 510.909 C -80.183 510.909 -80.741 510.909 -81.299 511.278 C -81.299 511.278 -81.299 511.278 -81.299 511.278 C -81.857 511.278 -81.857 511.647 -82.415 512.015 C -82.415 512.015 -82.415 512.015 -82.415 512.015 C -82.415 512.015 -82.973 512.384 -82.973 512.384 C -82.973 511.647 -82.973 511.278 -83.531 511.278 C -83.531 511.278 -84.089 511.647 -84.647 512.015 C -84.647 512.015 -84.647 512.015 -84.647 512.015 C -85.204 512.015 -85.204 512.384 -85.762 513.122 C -85.762 512.753 -85.762 512.384 -86.32 512.384 C -86.32 512.384 -86.32 512.384 -86.32 512.384 C -86.32 511.647 -86.32 511.278 -86.878 511.278 C -87.436 511.278 -87.994 512.384 -87.994 513.86 C -87.994 513.122 -87.994 512.753 -88.552 512.753 C -89.11 512.753 -89.668 513.86 -89.668 514.967 C -89.668 514.967 -89.668 514.967 -89.668 514.967 C -89.668 514.967 -89.668 514.967 -89.668 514.967 C -89.668 514.598 -89.668 514.229 -89.668 514.229 C -90.225 514.229 -90.783 514.967 -91.341 515.704 C -91.341 515.704 -91.899 516.073 -91.899 516.073 C -93.015 516.811 -93.573 517.549 -93.573 518.287 C -93.573 518.656 -94.131 519.025 -94.131 519.393 C -94.131 519.025 -94.131 518.656 -94.689 518.656 C -95.246 518.656 -95.804 519.393 -95.804 520.5 C -95.804 519.762 -95.804 519.025 -96.362 519.025 C -96.92 519.025 -96.92 519.393 -97.478 520.131 C -97.478 520.131 -97.478 520.131 -97.478 520.131 C -97.478 520.131 -98.036 520.5 -98.036 520.5 C -98.036 520.5 -98.036 520.5 -98.036 520.5 C -98.036 520.5 -98.594 520.5 -98.594 520.869 C -98.594 520.869 -98.594 520.5 -99.152 520.5 C -99.152 520.5 -99.152 520.5 -99.152 520.5 C -99.152 520.5 -99.152 520.131 -99.71 520.131 C -99.71 520.131 -100.267 520.131 -100.267 520.5 C -100.267 520.5 -100.267 520.5 -100.825 520.5 C -100.825 520.5 -100.825 520.5 -100.825 520.5 C -100.825 520.131 -100.825 520.131 -100.825 520.131 C -101.383 520.131 -101.383 520.131 -101.941 520.869 C -101.941 520.5 -101.941 520.131 -102.499 520.131 C -102.499 520.131 -103.057 520.131 -103.057 520.5 C -103.057 520.5 -103.057 520.5 -103.615 520.5 C -104.173 520.5 -104.731 521.238 -104.731 522.345 C -104.731 522.345 -104.731 522.345 -104.731 522.345 C -104.731 522.345 -104.731 522.345 -104.731 522.345 C -104.731 522.345 -104.731 521.976 -104.731 521.976 C -104.731 521.607 -105.288 521.238 -105.288 521.238 C -105.288 520.5 -105.288 520.131 -105.288 520.131 C -105.288 520.131 -105.846 520.5 -106.404 521.238 C -106.404 521.238 -106.404 521.238 -106.962 521.238 C -107.52 521.238 -107.52 521.607 -108.078 522.345 C -108.078 521.976 -108.078 521.976 -108.636 521.976 C -108.636 521.976 -109.194 521.976 -109.194 521.976 C -109.194 521.976 -109.752 521.976 -109.752 521.976 C -109.752 521.976 -109.752 521.976 -109.752 521.976 C -109.752 521.238 -109.752 520.869 -110.309 520.869 C -110.867 520.869 -111.425 521.607 -111.425 522.345 C -111.425 522.345 -111.425 522.345 -111.425 522.345 C -111.425 522.345 -111.425 522.714 -111.983 523.082 C -111.983 523.082 -111.983 523.082 -111.983 523.082 C -111.983 523.082 -111.983 522.714 -112.541 522.714 C -112.541 522.345 -113.099 522.345 -113.099 522.714 C -113.099 522.345 -113.099 522.345 -113.657 521.976 C -114.215 521.976 -114.773 522.345 -114.773 522.714 C -114.773 522.714 -114.773 522.345 -115.331 522.345 C -115.331 522.345 -115.331 522.345 -115.888 522.345 C -115.888 521.976 -116.446 521.607 -116.446 521.607 C -116.446 521.607 -117.004 521.976 -117.004 522.345 C -117.004 521.976 -117.562 521.976 -117.562 521.607 C -117.562 521.607 -118.12 521.607 -118.12 521.976 C -118.12 521.976 -118.678 521.607 -118.678 521.607 C -118.678 521.607 -119.236 521.976 -119.236 521.976 C -120.352 521.607 -121.467 520.869 -123.141 520.5 C -123.141 520.5 -123.141 520.5 -123.699 520.5 C -124.257 520.5 -124.815 520.5 -125.373 520.131 C -125.373 519.393 -125.373 519.762 -125.93 520.131 C -126.488 520.131 -126.488 520.131 -127.046 520.131 C -127.046 519.762 -127.046 519.762 -127.604 520.131 C -127.604 520.131 -127.604 520.131 -128.162 520.131 C -128.162 520.131 -128.162 520.131 -128.162 520.131 C -128.72 519.762 -126.488 519.762 -129.836 519.393 L -129.836 519.762 C -130.951 519.762 -132.067 519.762 -133.183 519.762 C -134.299 519.762 -135.415 519.762 -135.972 520.131 C -135.972 520.131 -136.53 520.131 -136.53 520.131 C -136.53 519.762 -136.53 519.762 -137.088 520.131 C -137.088 520.131 -137.088 520.131 -137.088 520.131 C -137.088 520.131 -137.088 520.131 -137.088 520.131 C -137.088 519.762 -137.088 519.762 -137.088 519.393 C -137.088 519.393 -137.088 519.025 -137.088 518.656 C -139.32 518.287 -138.762 518.656 -138.762 519.025 C -138.762 519.025 -138.762 519.025 -138.762 519.025 C -138.762 519.025 -139.32 519.025 -139.32 519.025 C -139.32 518.656 -139.32 517.918 -139.32 517.918 C -139.32 517.918 -139.878 517.918 -140.436 518.656 C -140.436 518.287 -140.436 517.918 -140.993 517.918 C -141.551 517.918 -141.551 518.287 -141.551 518.656 C -141.551 518.656 -142.109 518.656 -142.109 519.025 C -142.109 519.025 -142.667 519.025 -142.667 518.656 C -142.667 518.287 -142.667 518.287 -142.667 517.918 C -142.667 517.549 -142.667 517.549 -143.225 517.549 C -143.225 517.549 -143.783 517.918 -143.783 518.287 C -144.341 518.287 -144.899 518.287 -144.899 517.918 C -144.899 517.18 -144.899 516.811 -145.457 516.811 C -145.457 516.811 -146.014 516.811 -146.014 517.18 C -146.014 516.811 -146.014 516.442 -146.572 516.442 C -147.13 516.442 -147.13 516.811 -147.688 517.549 C -147.688 517.549 -147.688 517.549 -148.246 517.549 L -148.246 517.549 C -148.246 517.549 -148.246 517.549 -148.246 517.549 C -148.246 517.549 -148.246 517.549 -148.246 517.549 C -148.246 517.549 -148.246 517.549 -148.246 517.549 C -148.246 516.811 -148.246 516.073 -148.804 516.073 C -148.804 516.073 -149.362 516.073 -149.92 516.811 C -149.92 516.811 -149.92 516.811 -149.92 516.811 C -149.92 517.18 -150.478 517.18 -150.478 517.549 C -150.478 517.549 -150.478 517.549 -151.035 517.549 C -151.035 517.549 -151.035 517.549 -151.035 517.549 C -151.035 516.811 -151.035 516.442 -151.593 516.442 C -151.593 516.442 -152.151 516.442 -152.151 516.442 C -152.151 516.073 -152.709 516.073 -152.709 516.073 C -152.709 516.073 -153.267 516.073 -153.267 516.442 C -153.267 516.442 -153.825 516.073 -153.825 516.073 C -153.825 516.073 -154.383 516.442 -154.383 516.811 C -154.383 516.442 -154.941 516.073 -154.941 516.073 C -154.941 516.073 -154.941 516.073 -155.499 516.073 C -155.499 516.073 -155.499 515.704 -156.057 515.704 C -156.614 515.704 -157.172 516.442 -157.172 517.18 C -157.172 516.811 -157.172 516.442 -157.172 516.442 C -157.172 515.704 -157.172 514.967 -157.73 514.967 C -157.73 514.967 -158.288 515.336 -158.288 515.336 C -158.288 514.598 -158.288 514.229 -158.846 514.229 C -158.846 514.229 -158.846 514.229 -158.846 514.229 C -158.846 514.229 -158.846 513.86 -159.404 513.86 C -159.962 513.86 -160.52 514.967 -160.52 516.073 C -160.52 516.442 -160.52 516.442 -160.52 516.811 C -160.52 516.442 -160.52 516.442 -161.078 516.442 C -161.078 516.442 -161.635 516.442 -161.635 517.18 C -161.635 516.811 -161.635 516.442 -162.193 516.442 C -162.751 516.442 -163.309 517.18 -163.309 518.287 C -163.309 518.287 -163.309 518.656 -163.309 518.656 C -163.309 518.656 -163.309 518.656 -163.309 518.656 C -163.867 518.656 -163.867 519.025 -164.425 519.762 C -163.867 518.287 -164.425 516.811 -164.425 516.811 C -164.983 516.811 -164.983 517.549 -165.541 518.287 C -165.541 518.287 -165.541 518.287 -165.541 518.287 C -165.541 518.287 -165.541 518.287 -166.099 518.287 C -166.099 518.287 -166.099 517.918 -166.656 517.918 C -166.656 517.918 -167.214 517.918 -167.214 518.287 C -167.214 517.918 -167.214 517.549 -167.772 517.549 C -167.772 517.549 -167.772 517.549 -168.33 517.549 C -168.33 517.18 -168.33 516.811 -168.888 516.811 C -169.446 516.811 -169.446 517.18 -170.004 518.287 C -170.004 517.918 -170.004 517.918 -170.562 517.918 C -171.12 517.918 -171.677 518.656 -171.677 519.762 C -172.235 519.762 -172.235 520.5 -172.235 520.869 C -172.235 520.5 -172.235 520.5 -172.793 520.5 C -172.793 520.5 -173.351 520.5 -173.351 520.869 C -175.025 520.869 -176.698 520.869 -178.372 520.869 C -178.372 520.131 -178.93 519.762 -178.93 519.762 C -179.488 519.762 -179.488 520.131 -180.046 520.869 C -180.604 520.869 -181.162 520.869 -181.719 520.869 C -181.719 520.869 -181.719 520.869 -181.719 520.869 C -181.719 520.131 -182.277 519.393 -182.277 519.393 C -182.277 519.393 -182.277 519.393 -182.277 519.393 C -182.277 519.393 -182.277 519.025 -182.277 519.025 C -182.277 519.025 -182.277 519.025 -182.277 519.025 C -182.277 518.656 -182.277 518.287 -182.835 518.656 C -182.835 518.656 -182.835 518.656 -183.393 518.656 C -183.393 518.656 -183.951 518.656 -183.951 518.656 C -184.509 517.918 -184.509 518.287 -184.509 519.025 C -184.509 519.025 -184.509 519.025 -184.509 519.025 L -184.509 519.025 C -184.509 519.025 -184.509 519.025 -184.509 519.025 C -184.509 519.025 -185.067 519.025 -185.625 519.025 C -186.183 519.025 -184.509 518.656 -186.74 518.656 C -186.74 518.656 -187.298 518.656 -187.298 518.656 C -187.856 518.287 -186.74 517.549 -187.856 517.18 C -187.856 517.18 -187.856 517.18 -187.856 517.18 C -187.856 517.18 -187.856 517.18 -188.414 517.18 C -188.414 517.18 -188.972 517.18 -188.972 517.18 C -188.972 517.18 -188.972 517.18 -188.972 517.549 C -189.53 517.549 -189.53 517.918 -188.972 517.918 C -188.972 517.549 -189.53 517.549 -189.53 517.549 C -190.088 517.549 -190.088 518.287 -190.088 519.393 C -190.088 519.393 -190.088 519.393 -190.088 519.393 C -190.088 519.393 -190.088 519.393 -190.646 519.393 C -190.646 519.393 -190.646 519.393 -190.646 519.393 C -190.646 519.393 -190.646 519.393 -190.646 519.393 L -190.646 519.393 C -190.646 519.393 -190.646 519.025 -190.646 519.025 C -190.646 517.918 -190.646 517.18 -191.204 517.18 C -191.762 517.18 -191.762 517.549 -191.762 517.918 C -191.762 517.918 -191.762 517.918 -191.762 517.918 C -191.762 517.918 -191.762 517.918 -191.762 517.918 C -191.762 517.918 -191.762 517.918 -191.762 517.918 C -191.762 516.811 -191.762 516.073 -192.319 515.704 C -192.877 515.704 -193.435 516.442 -193.435 517.549 C -193.435 517.549 -193.435 517.549 -193.435 517.549 C -193.435 517.18 -193.435 517.18 -193.993 517.18 C -193.993 517.18 -193.993 517.18 -194.551 517.18 C -194.551 517.18 -194.551 517.18 -194.551 517.18 C -194.551 516.442 -195.109 515.704 -195.109 515.704 C -195.667 515.704 -195.667 516.442 -196.225 517.18 C -196.225 516.811 -196.783 516.442 -196.783 516.442 C -196.783 516.442 -196.783 516.442 -197.34 516.442 C -197.34 515.704 -197.34 515.336 -197.898 515.336 C -198.456 515.336 -198.456 515.704 -199.014 516.442 C -199.014 516.073 -199.572 515.704 -199.572 515.336 C -199.572 515.336 -200.13 515.336 -200.13 515.704 C -200.13 514.967 -200.688 514.229 -200.688 514.229 C -200.688 514.229 -201.246 514.598 -201.246 514.967 C -201.246 514.967 -201.246 514.967 -201.246 514.967 C -201.804 514.967 -201.804 515.336 -201.804 515.704 C -201.804 514.967 -201.804 514.598 -202.361 514.598 C -202.361 513.86 -202.919 513.491 -202.919 513.491 C -202.919 513.491 -203.477 513.86 -203.477 513.86 C -203.477 513.86 -203.477 513.491 -204.035 513.491 C -204.035 513.491 -204.035 513.491 -204.593 513.491 C -204.593 512.753 -205.151 512.015 -205.151 512.015 C -205.709 512.015 -206.267 513.122 -206.267 514.598 C -206.267 514.598 -206.267 514.967 -206.267 514.967 C -206.267 514.967 -206.825 514.967 -206.825 514.967 C -206.825 514.967 -206.825 514.967 -207.382 514.967 C -207.382 514.967 -207.382 514.967 -207.382 514.967 C -207.382 514.967 -207.382 514.598 -207.382 514.598 C -206.825 514.229 -206.825 513.86 -207.382 513.86 C -207.382 513.86 -206.825 513.491 -207.94 513.491 C -207.94 513.122 -207.94 513.122 -208.498 513.122 C -208.498 513.122 -208.498 513.122 -208.498 513.122 C -208.498 512.753 -208.498 512.384 -209.056 512.384 C -209.056 511.647 -209.056 510.909 -209.056 510.909 C -209.614 510.909 -209.614 511.278 -210.172 512.015 C -210.172 512.015 -210.73 512.015 -210.73 512.015 C -210.73 510.909 -210.73 510.171 -211.288 510.171 C -211.846 510.171 -211.846 510.54 -212.403 511.647 C -212.403 511.278 -212.403 510.909 -212.961 510.909 C -213.519 510.909 -213.519 511.278 -214.077 511.647 C -214.077 511.278 -214.077 510.909 -214.635 510.909 C -214.635 510.909 -214.635 510.909 -214.635 510.909 C -214.635 510.54 -214.635 510.54 -215.193 510.54 C -215.193 510.54 -215.751 510.54 -215.751 510.909 C -215.751 510.54 -215.751 510.54 -216.309 510.54 C -216.309 510.54 -216.867 510.909 -217.424 511.278 C -217.424 511.278 -217.424 510.909 -217.982 510.909 C -217.982 510.909 -218.54 510.909 -218.54 511.278 C -218.54 511.278 -218.54 511.278 -218.54 511.278 C -219.098 511.278 -219.656 511.278 -220.214 511.278 C -220.214 511.278 -220.772 511.278 -220.772 511.278 C -220.772 510.909 -221.33 510.54 -221.33 510.54 C -221.33 510.54 -221.33 510.54 -221.888 510.54 C -221.888 510.54 -221.888 510.54 -222.445 510.54 C -222.445 510.54 -223.003 510.54 -223.003 510.909 C -223.003 510.54 -223.561 510.171 -223.561 510.171 C -223.561 510.171 -224.119 510.171 -224.119 510.54 C -224.119 510.54 -224.119 510.54 -224.119 510.54 C -224.119 510.54 -224.119 510.54 -224.119 510.54 C -224.119 510.54 -224.119 510.54 -224.677 510.54 C -224.677 510.54 -224.677 510.54 -224.677 510.909 C -224.677 511.278 -225.235 511.647 -225.235 512.015 C -225.235 512.015 -225.235 512.015 -225.235 512.015 C -225.235 512.015 -225.793 512.015 -225.793 512.015 C -225.793 512.015 -225.793 512.015 -225.793 512.015 C -225.235 510.909 -225.235 510.171 -225.793 509.802 C -225.793 509.802 -225.793 509.802 -226.351 509.802 C -226.351 509.433 -226.351 509.064 -226.351 509.064 C -226.909 509.064 -227.466 509.802 -228.024 510.909 C -228.024 510.909 -228.582 510.909 -228.582 510.909 C -228.024 509.802 -228.024 508.695 -229.14 509.064 C -229.698 509.064 -229.698 509.064 -229.698 509.433 C -229.698 509.433 -229.698 509.433 -229.698 509.433 C -229.698 509.064 -229.698 508.695 -229.698 508.695 C -229.698 508.695 -229.698 508.695 -229.698 508.695 C -229.698 508.695 -229.698 508.695 -230.256 508.695 C -230.256 508.695 -230.814 508.695 -230.814 508.695 C -231.372 508.326 -231.372 508.326 -231.372 508.695 C -231.372 508.695 -231.372 508.695 -231.372 508.326 C -231.372 508.326 -231.372 508.326 -231.372 508.326 C -231.372 507.589 -231.93 507.22 -232.488 507.22 C -232.488 507.22 -232.488 507.22 -233.045 507.589 C -233.045 506.851 -233.603 506.482 -233.603 506.482 C -233.603 506.482 -234.161 506.851 -234.161 507.22 C -234.161 507.22 -234.161 507.22 -234.161 507.22 C -234.161 507.22 -234.161 507.22 -234.719 507.589 C -234.719 506.851 -234.719 506.482 -235.277 506.482 C -235.277 506.482 -235.835 506.482 -235.835 506.851 C -235.835 506.851 -235.835 506.851 -235.835 506.851 C -235.835 506.482 -236.393 506.482 -236.393 506.482 C -236.393 506.482 -236.393 506.482 -236.393 506.482 C -236.393 505.744 -236.951 505.006 -237.509 505.006 C -237.509 505.006 -238.066 505.375 -238.066 505.744 C -238.066 505.375 -238.624 505.006 -238.624 505.006 C -239.182 505.006 -239.182 505.375 -239.182 506.113 C -239.182 506.113 -239.182 506.113 -239.182 506.482 L -239.182 1186.366 L 1992.38 1186.366 L 1992.38 479.921 C 1991.264 479.921 1990.706 479.921 1990.148 479.552 Z " fill="rgb(55,118,134)"/></g></svg>