<?xml version="1.0" standalone="no"?><!-- Generator: Gravit.io --><svg xmlns="http://www.w3.org/2000/svg" xmlns:xlink="http://www.w3.org/1999/xlink" style="isolation:isolate" viewBox="0 0 1920 1080" width="1920" height="1080"><defs><clipPath id="_clipPath_1vpGWyLMkzyqLnPDHb5z1Oy3rVDLO7gO"><rect width="1920" height="1080"/></clipPath></defs><g clip-path="url(#_clipPath_1vpGWyLMkzyqLnPDHb5z1Oy3rVDLO7gO)"><path d=" M 1606.259 485.468 C 1539.885 502.238 1472.057 521.737 1423.609 560.737 C 1410.044 561.517 1396.478 562.297 1382.912 562.687 C 1348.03 566.977 1306.364 561.517 1271.482 571.657 C 1259.854 575.167 1248.711 580.237 1239.021 588.037 C 1166.349 595.836 1088.832 588.037 1016.159 595.836 C 1011.314 607.536 1011.314 619.236 1001.625 627.036 C 928.952 580.237 841.746 552.937 755.508 531.487 C 745.334 528.757 735.159 525.637 725.47 521.737 C 715.78 513.937 706.09 506.918 695.916 501.458 C 682.351 494.438 662.972 486.638 648.437 478.838 C 619.368 470.258 587.392 467.918 557.354 465.578 C 547.18 464.798 537.006 464.018 527.316 463.238 C 503.092 463.238 478.868 471.038 454.644 467.138 C 391.661 459.338 333.523 439.838 270.541 435.938 C 183.334 428.139 100.972 447.638 19.579 439.838 C 7.467 437.888 -2.707 435.548 -10.459 433.598 L -10.459 1241.278 L 1927.471 1241.278 L 1927.471 315.43 C 1899.371 323.62 1868.364 336.49 1836.388 353.65 C 1825.729 359.499 1815.071 365.739 1803.928 372.369 C 1792.785 377.049 1782.611 382.119 1771.952 387.579 C 1761.778 393.039 1751.604 398.889 1741.914 404.739 C 1704.609 428.139 1665.85 447.638 1629.999 473.768 C 1622.247 477.668 1614.495 481.568 1606.259 485.468 Z " fill="rgb(177,204,203)"/></g></svg>