<?xml version="1.0" standalone="no"?><!-- Generator: Gravit.io --><svg xmlns="http://www.w3.org/2000/svg" xmlns:xlink="http://www.w3.org/1999/xlink" style="isolation:isolate" viewBox="0 0 1920 1080" width="1920" height="1080"><defs><clipPath id="_clipPath_g9mMUG3igKL9ixcKOjLhUOhMOBBD1oL6"><rect width="1920" height="1080"/></clipPath></defs><g clip-path="url(#_clipPath_g9mMUG3igKL9ixcKOjLhUOhMOBBD1oL6)"><path d=" M 1844.994 316.455 C 1839.901 314.19 1834.303 312.314 1829.713 309.659 C 1825.641 308.155 1829.69 306.965 1819.018 305.133 L 1811.438 308.664 C 1800.817 312.606 1788.1 308.868 1777.899 302.797 C 1767.194 297.117 1757.484 289.117 1743.738 283.848 C 1737.119 281.211 1727.973 279.751 1719.875 282.132 C 1716.835 282.543 1714.819 284.1 1712.292 285.277 C 1711.264 283.747 1709.221 282.225 1709.721 281.45 C 1706.63 276.088 1702.528 271.119 1699.437 265.757 C 1697.891 263.076 1696.345 260.395 1695.307 257.709 L 1693.748 253.488 L 1693.231 252.338 C 1690.183 251.98 1700.337 252.661 1686.121 251.63 L 1686.124 252.015 L 1685.62 252.405 L 1684.115 254.342 C 1680.607 259.377 1675.067 264.045 1671.058 269.854 C 1669.55 271.407 1669.056 272.951 1668.054 274.5 L 1667.544 274.119 C 1662.93 268.77 1658.317 263.421 1653.197 258.077 L 1646.026 250.44 L 1645.002 249.294 L 1644.491 248.914 C 1630.285 249.038 1640.435 249.334 1636.884 249.365 L 1635.379 251.303 C 1634.374 252.467 1633.369 253.63 1631.857 254.798 C 1621.287 264.514 1606.126 271.576 1595.069 283.606 C 1584.522 296.016 1582.62 310.661 1575.621 322.655 C 1569.13 334.645 1553.989 344.016 1540.368 352.989 C 1525.729 361.586 1509.567 370.196 1491.84 373.815 C 1487.788 374.62 1483.225 375.045 1480.174 374.302 C 1464.983 377.899 1472.117 381.301 1466.566 384.814 C 1462.06 391.782 1458.573 399.127 1455.081 406.086 L 1450.606 416.519 L 1447.041 415.01 C 1438.382 411.236 1429.22 407.852 1421.065 403.689 C 1403.744 395.756 1386.921 386.664 1370.598 376.798 C 1337.956 357.45 1307.313 334.621 1282.724 307.889 L 1281.7 306.743 L 1281.189 306.362 C 1287.791 307.075 1272.046 305.287 1273.572 305.659 L 1272.561 306.053 L 1269.537 308.389 L 1263.485 312.676 L 1251.893 321.631 C 1244.333 327.471 1236.269 333.701 1228.199 339.161 C 1212.061 350.465 1194.38 359.473 1172.591 362.743 C 1161.953 364.76 1150.297 366.402 1139.162 369.579 C 1133.591 370.782 1128.031 373.14 1122.974 375.109 L 1117.416 377.852 L 1117.416 377.852 C 1115.878 375.941 1114.849 374.41 1114.332 373.26 C 1115.347 373.251 1114.839 373.256 1114.332 373.26 L 1114.332 373.26 L 1113.805 370.955 C 1115.837 371.322 1096.01 366.876 1104.145 368.73 L 1103.641 369.119 L 1103.14 369.893 L 1102.139 371.442 C 1099.128 375.317 1096.118 379.193 1093.614 383.065 C 1088.611 391.192 1084.626 399.696 1081.149 408.195 L 1078.669 414.761 L 1078.172 415.92 C 1073.599 415.19 1069.533 414.456 1065.461 412.951 C 1055.287 409.96 1046.118 405.806 1037.949 400.103 C 1010.522 396.878 994.28 396.25 974.405 386.415 C 969.822 384.53 965.236 382.26 961.154 379.601 C 959.114 378.464 957.579 376.938 955.539 375.801 C 945.859 371.266 948.423 374.323 944.354 373.204 C 934.203 372.907 925.034 368.753 915.864 364.598 C 911.278 362.329 907.196 359.67 902.609 357.4 L 901.591 357.024 C 907.676 356.586 892.966 357.099 894.492 357.471 L 893.988 357.86 L 892.476 359.028 L 889.452 361.364 L 883.4 365.652 C 875.84 371.492 867.773 377.337 859.696 382.026 C 843.547 392.176 823.824 399.662 804.061 402.529 C 783.787 405.016 761.954 403.282 740.184 408.861 C 734.61 409.68 730.071 412.799 725.014 414.768 L 718.963 419.055 C 711.809 413.343 702.64 409.189 692.976 406.578 C 672.128 401.371 651.329 401.938 632.033 400.181 C 593.954 397.434 560.291 377.325 522.192 372.269 C 503.887 367.809 484.09 366.827 469.322 360.797 C 454.565 355.921 436.186 342.993 415.949 349.714 C 368.647 394.781 299.183 400.391 241.452 413.214 C 126.537 443.473 34.413 468.913 -31.436 481.806 C -42.578 484.213 -52.201 486.222 -61.827 487.846 L -54.565 1320.042 L 1974.866 1302.33 L 1966.518 345.805 C 1964.993 345.434 1963.467 345.062 1961.939 344.305 C 1931.403 333.793 1888.745 329.546 1844.994 316.455 Z " fill="rgb(198,217,211)"/></g></svg>