<?xml version="1.0" standalone="no"?><!-- Generator: Gravit.io --><svg xmlns="http://www.w3.org/2000/svg" xmlns:xlink="http://www.w3.org/1999/xlink" style="isolation:isolate" viewBox="0 0 1920 1080" width="1920" height="1080"><defs><clipPath id="_clipPath_LVHaSCLyADhjizTMfde7x7tVIgxfYNaM"><rect width="1920" height="1080"/></clipPath></defs><g clip-path="url(#_clipPath_LVHaSCLyADhjizTMfde7x7tVIgxfYNaM)"><path d=" M 1851.222 300.032 C 1846.129 297.767 1840.531 295.891 1835.941 293.236 C 1831.869 291.732 1835.918 290.542 1825.246 288.71 L 1817.666 292.241 C 1807.045 296.183 1794.328 292.445 1784.127 286.374 C 1773.422 280.694 1763.711 272.695 1749.966 267.425 C 1743.347 264.788 1734.201 263.328 1726.103 265.709 C 1723.062 266.12 1721.046 267.678 1718.52 268.854 C 1717.492 267.324 1715.449 265.802 1715.949 265.027 C 1712.858 259.665 1708.756 254.697 1705.664 249.334 C 1704.119 246.653 1702.573 243.972 1701.535 241.286 L 1699.976 237.066 L 1699.459 235.915 C 1696.411 235.557 1706.565 236.238 1692.349 235.207 L 1692.352 235.592 L 1691.848 235.982 L 1690.343 237.92 C 1686.835 242.954 1681.294 247.622 1677.286 253.431 C 1675.777 254.984 1675.283 256.529 1674.282 258.077 L 1673.771 257.697 C 1669.158 252.348 1664.545 246.999 1659.424 241.654 L 1652.254 234.018 L 1651.229 232.872 L 1650.719 232.491 C 1636.513 232.615 1646.663 232.911 1643.112 232.942 L 1641.606 234.88 C 1640.602 236.044 1639.597 237.208 1638.085 238.376 C 1627.515 248.092 1612.354 255.153 1601.297 267.183 C 1590.75 279.593 1588.848 294.238 1581.849 306.232 C 1575.357 318.223 1560.217 327.593 1546.596 336.566 C 1531.956 345.163 1515.795 353.773 1498.068 357.392 C 1494.015 358.197 1489.453 358.622 1486.402 357.879 C 1471.211 361.476 1478.344 364.878 1472.794 368.391 C 1468.288 375.359 1464.8 382.704 1461.309 389.663 L 1456.834 400.096 L 1453.269 398.587 C 1444.61 394.814 1435.448 391.429 1427.293 387.266 C 1409.972 379.333 1393.149 370.241 1376.826 360.375 C 1344.184 341.027 1313.541 318.198 1288.952 291.466 L 1287.928 290.32 L 1287.417 289.94 C 1294.019 290.652 1278.274 288.865 1279.8 289.236 L 1278.788 289.63 L 1275.764 291.966 L 1269.713 296.253 L 1258.121 305.208 C 1250.561 311.048 1242.497 317.278 1234.426 322.738 C 1218.288 334.042 1200.608 343.05 1178.819 346.32 C 1168.181 348.338 1156.525 349.979 1145.39 353.156 C 1139.819 354.359 1134.259 356.718 1129.202 358.686 L 1123.644 361.43 L 1123.644 361.43 C 1122.105 359.518 1121.077 357.987 1120.56 356.837 C 1121.575 356.828 1121.067 356.833 1120.56 356.837 L 1120.56 356.837 L 1120.032 354.532 C 1122.065 354.899 1102.238 350.453 1110.372 352.307 L 1109.868 352.696 L 1109.368 353.47 L 1108.366 355.019 C 1105.356 358.895 1102.345 362.77 1099.842 366.642 C 1094.839 374.769 1090.854 383.273 1087.377 391.772 L 1084.897 398.338 L 1084.4 399.497 C 1079.827 398.767 1075.761 398.033 1071.689 396.528 C 1061.515 393.538 1052.345 389.383 1044.177 383.68 C 1016.75 380.455 1000.508 379.827 980.633 369.992 C 976.05 368.107 971.464 365.837 967.382 363.178 C 965.342 362.041 963.806 360.515 961.767 359.378 C 952.087 354.843 954.651 357.9 950.582 356.781 C 940.431 356.484 931.262 352.33 922.092 348.176 C 917.506 345.906 913.424 343.247 908.837 340.977 L 907.819 340.601 C 913.904 340.163 899.194 340.676 900.719 341.048 L 900.215 341.437 L 898.703 342.606 L 895.679 344.942 L 889.628 349.229 C 882.068 355.069 874.001 360.914 865.923 365.604 C 849.775 375.753 830.052 383.239 810.289 386.106 C 790.015 388.593 768.181 386.859 746.412 392.438 C 740.838 393.257 736.299 396.376 731.242 398.345 L 725.19 402.632 C 718.037 396.92 708.868 392.766 699.204 390.156 C 678.356 384.948 657.557 385.515 638.261 383.758 C 600.182 381.011 566.519 360.903 528.42 355.846 C 510.114 351.386 490.317 350.404 475.55 344.374 C 460.793 339.498 442.414 326.57 422.177 333.291 C 374.875 378.358 305.411 383.969 247.679 396.791 C 132.765 427.05 40.64 452.491 -25.209 465.384 C -36.35 467.791 -45.973 469.799 -55.6 471.423 L -48.337 1303.619 L 1981.094 1285.907 L 1972.746 329.382 C 1971.221 329.011 1969.695 328.639 1968.166 327.883 C 1937.631 317.37 1894.973 313.123 1851.222 300.032 Z " fill="rgb(198,217,211)"/></g></svg>