<?xml version="1.0" standalone="no"?><!-- Generator: Gravit.io --><svg xmlns="http://www.w3.org/2000/svg" xmlns:xlink="http://www.w3.org/1999/xlink" style="isolation:isolate" viewBox="0 0 1000 344" width="1000" height="344"><defs><clipPath id="_clipPath_T6imrcZFrC0UoQCyEBusLrXLlvtzyIpi"><rect width="1000" height="344"/></clipPath></defs><g clip-path="url(#_clipPath_T6imrcZFrC0UoQCyEBusLrXLlvtzyIpi)"><path d=" M 835.553 150.803 C 801.089 155.141 765.872 160.185 740.716 170.272 C 733.672 170.474 726.629 170.676 719.585 170.777 C 701.473 171.886 679.839 170.474 661.727 173.097 C 655.69 174.005 649.904 175.316 644.873 177.334 C 607.139 179.351 566.89 177.334 529.157 179.351 C 526.641 182.378 526.641 185.404 521.61 187.422 C 483.877 175.316 438.597 168.255 393.82 162.707 C 388.537 162 383.254 161.193 378.223 160.185 C 373.192 158.167 368.161 156.351 362.878 154.939 C 355.835 153.123 345.772 151.106 338.226 149.088 C 323.132 146.869 306.53 146.264 290.933 145.658 C 285.65 145.457 280.368 145.255 275.337 145.053 C 262.759 145.053 250.181 147.071 237.603 146.062 C 204.901 144.044 174.714 139 142.012 137.992 C 96.732 135.974 53.967 141.018 11.705 139 C 5.417 138.496 0.134 137.891 -3.891 137.386 L -3.891 346.304 L 1002.335 346.304 L 1002.335 106.821 C 987.744 108.939 971.645 112.268 955.042 116.707 C 949.508 118.22 943.974 119.834 938.188 121.549 C 932.402 122.759 927.119 124.071 921.585 125.483 C 916.302 126.895 911.02 128.408 905.989 129.921 C 886.619 135.974 866.494 141.018 847.879 147.777 C 843.854 148.786 839.829 149.794 835.553 150.803 Z " fill="rgb(177,204,203)"/></g></svg>