<?xml version="1.0" standalone="no"?><!-- Generator: Gravit.io --><svg xmlns="http://www.w3.org/2000/svg" xmlns:xlink="http://www.w3.org/1999/xlink" style="isolation:isolate" viewBox="0 0 1000 344" width="1000" height="344"><defs><clipPath id="_clipPath_pNDST8vghFygSfqGA9SW5eJqJuNjC7EW"><rect width="1000" height="344"/></clipPath></defs><g clip-path="url(#_clipPath_pNDST8vghFygSfqGA9SW5eJqJuNjC7EW)"><path d=" M 940.157 88.387 C 937.653 87.778 934.899 87.27 932.645 86.56 C 930.642 86.154 932.645 85.849 927.387 85.342 L 923.631 86.255 C 918.373 87.27 912.113 86.255 907.106 84.631 C 901.847 83.109 897.09 80.977 890.33 79.556 C 887.075 78.846 882.568 78.44 878.561 79.049 C 877.059 79.15 876.057 79.556 874.805 79.861 C 874.305 79.455 873.303 79.049 873.554 78.846 C 872.051 77.425 870.048 76.105 868.546 74.684 C 867.795 73.974 867.043 73.263 866.543 72.553 L 865.791 71.436 L 865.541 71.132 C 864.039 71.03 869.046 71.233 862.036 70.929 L 862.036 71.03 L 861.785 71.132 L 861.034 71.639 C 859.281 72.959 856.527 74.177 854.524 75.699 C 853.773 76.105 853.522 76.511 853.022 76.917 L 852.771 76.816 C 850.518 75.395 848.264 73.974 845.76 72.553 L 842.255 70.523 L 841.754 70.218 L 841.504 70.117 C 834.493 70.117 839.501 70.218 837.748 70.218 L 836.997 70.726 C 836.496 71.03 835.995 71.335 835.244 71.639 C 829.986 74.177 822.474 76.004 816.966 79.15 C 811.707 82.398 810.706 86.255 807.2 89.402 C 803.945 92.549 796.434 94.985 789.673 97.319 C 782.412 99.552 774.399 101.785 765.636 102.699 C 763.633 102.902 761.379 103.003 759.877 102.8 C 752.365 103.714 755.871 104.627 753.116 105.541 C 750.863 107.368 749.11 109.296 747.357 111.123 L 745.104 113.864 L 743.351 113.458 C 739.095 112.443 734.588 111.529 730.581 110.413 C 722.068 108.281 713.805 105.845 705.793 103.206 C 689.768 98.03 674.745 91.939 662.726 84.834 L 662.225 84.53 L 661.975 84.428 C 665.23 84.631 657.468 84.124 658.219 84.225 L 657.718 84.327 L 656.216 84.936 L 653.211 86.052 L 647.452 88.387 C 643.696 89.909 639.69 91.533 635.684 92.955 C 627.671 95.898 618.908 98.233 608.141 99.045 C 602.883 99.552 597.124 99.958 591.615 100.77 C 588.861 101.075 586.107 101.684 583.603 102.191 L 580.849 102.902 L 580.849 102.902 C 580.097 102.394 579.597 101.988 579.346 101.684 C 579.847 101.684 579.597 101.684 579.346 101.684 L 579.346 101.684 L 579.096 101.075 C 580.097 101.176 570.332 99.958 574.339 100.466 L 574.088 100.567 L 573.838 100.77 L 573.337 101.176 C 571.835 102.191 570.332 103.206 569.08 104.221 C 566.576 106.353 564.573 108.586 562.821 110.819 L 561.569 112.544 L 561.318 112.849 C 559.065 112.646 557.062 112.443 555.059 112.037 C 550.051 111.225 545.544 110.108 541.538 108.586 C 528.017 107.672 520.004 107.469 510.239 104.83 C 507.985 104.323 505.732 103.714 503.729 103.003 C 502.727 102.699 501.976 102.293 500.975 101.988 C 496.217 100.77 497.469 101.582 495.466 101.278 C 490.458 101.176 485.951 100.06 481.444 98.943 C 479.191 98.334 477.188 97.624 474.934 97.015 L 474.433 96.913 C 477.438 96.812 470.177 96.913 470.928 97.015 L 470.677 97.116 L 469.926 97.421 L 468.424 98.03 L 465.419 99.146 C 461.663 100.669 457.657 102.191 453.651 103.409 C 445.639 106.048 435.873 107.977 426.108 108.687 C 416.093 109.296 405.326 108.789 394.559 110.21 C 391.805 110.413 389.551 111.225 387.047 111.732 L 384.043 112.849 C 380.537 111.326 376.03 110.21 371.273 109.499 C 361.007 108.078 350.741 108.18 341.226 107.672 C 322.447 106.86 305.921 101.481 287.142 100.06 C 278.128 98.842 268.363 98.537 261.102 96.913 C 253.84 95.594 244.826 92.142 234.811 93.868 C 211.274 105.642 176.971 106.962 148.427 110.21 C 91.588 117.924 46.018 124.42 13.467 127.668 C 7.958 128.277 3.201 128.785 -1.556 129.191 L -1.556 348.638 L 1000 348.638 L 1000 96.406 C 999.249 96.304 998.498 96.203 997.746 96 C 982.723 93.158 961.69 91.939 940.157 88.387 Z " fill="rgb(198,217,211)"/></g></svg>