<?xml version="1.0" standalone="no"?><!-- Generator: Gravit.io --><svg xmlns="http://www.w3.org/2000/svg" xmlns:xlink="http://www.w3.org/1999/xlink" style="isolation:isolate" viewBox="0 0 1000 344" width="1000" height="344"><defs><clipPath id="_clipPath_F2SNYIyVILwaGn9xqCTbJQpO7H1rmJzA"><rect width="1000" height="344"/></clipPath></defs><g clip-path="url(#_clipPath_F2SNYIyVILwaGn9xqCTbJQpO7H1rmJzA)"><path d=" M 1003.113 345.525 L 1003.113 256.462 C 1002.861 256.361 1002.61 256.361 1002.358 256.26 C 1002.358 256.26 1002.358 256.26 1002.358 256.26 C 1002.61 255.854 1002.861 255.651 1003.113 255.448 L 1003.113 255.347 C 1003.113 255.448 1003.113 255.448 1003.113 255.347 L 1003.113 254.941 L 1002.861 254.839 C 1001.604 254.535 1000.346 254.129 998.585 253.825 C 997.579 253.622 996.321 253.521 995.063 253.521 C 995.063 253.216 995.315 252.811 995.315 252.506 C 995.315 250.782 994.308 249.362 992.799 249.362 C 992.044 249.362 991.541 249.666 991.038 250.275 C 990.283 249.362 989.277 248.753 988.271 248.855 C 987.013 248.956 986.51 250.072 986.762 251.492 C 986.762 251.492 986.51 251.492 986.51 251.492 C 986.259 249.97 985.252 248.855 983.995 248.855 C 982.485 248.855 981.479 250.275 981.479 251.999 C 981.479 252.202 981.479 252.303 981.731 252.405 C 981.731 252.506 981.731 252.608 981.479 252.608 C 981.227 252.608 980.724 252.506 980.221 252.405 C 980.724 252.506 980.724 252.405 980.221 252.405 C 979.97 252.303 979.467 252.303 979.215 252.202 C 979.215 252.101 979.215 251.999 979.215 251.898 C 979.97 250.579 979.97 249.159 978.712 249.057 C 977.706 248.956 975.945 249.666 974.939 250.782 C 974.687 249.362 973.429 248.246 971.92 248.246 C 970.914 248.246 970.159 248.855 969.907 249.869 C 969.656 249.057 968.901 248.55 968.146 248.55 C 967.643 248.55 967.14 248.753 966.637 249.057 C 965.631 248.144 964.625 247.434 963.618 247.536 C 962.361 247.536 961.858 248.55 962.361 249.869 C 961.858 249.97 961.354 250.072 961.103 250.376 C 960.851 250.376 960.851 250.376 961.103 250.376 C 961.103 250.376 961.103 250.376 961.103 250.376 C 960.6 250.275 960.348 250.275 960.097 250.275 C 959.845 248.55 960.6 247.232 959.342 247.029 C 958.839 246.927 957.833 247.232 956.826 247.942 C 956.575 247.942 956.575 247.84 956.323 247.84 C 955.317 247.84 954.814 248.55 954.311 249.565 C 953.808 249.565 953.556 249.463 953.808 249.463 L 953.808 249.463 L 953.808 249.463 L 953.808 249.463 L 953.305 249.666 L 953.305 249.767 C 953.305 249.767 953.053 249.767 952.55 249.767 C 952.55 249.767 952.55 249.767 952.55 249.767 C 953.053 249.159 953.556 248.652 952.802 248.347 C 952.55 248.246 951.544 248.246 950.789 248.449 C 950.789 248.449 950.789 248.347 950.789 248.347 C 950.286 248.144 948.525 248.449 947.267 249.159 C 947.016 247.942 946.01 247.029 944.752 247.029 C 943.494 247.029 942.488 247.942 942.236 249.057 C 941.985 248.956 941.985 248.956 941.733 248.855 C 941.482 248.753 941.23 248.753 941.23 248.753 C 941.482 248.144 941.733 247.739 940.978 247.536 C 940.224 247.232 937.457 247.942 935.947 249.26 C 934.941 248.55 933.432 248.246 932.677 248.347 C 932.174 248.449 931.922 248.652 931.922 249.057 C 931.419 248.753 930.916 248.652 930.413 248.652 C 930.161 248.652 929.91 248.753 929.407 248.855 C 928.401 248.144 926.891 247.84 926.137 247.84 C 925.885 247.536 925.633 247.434 925.13 247.333 C 924.376 247.232 922.866 247.739 922.112 248.55 C 921.86 248.55 921.609 248.652 921.357 248.652 C 921.105 247.536 921.357 246.826 920.854 246.521 C 920.602 246.42 920.099 246.42 919.345 246.623 C 918.841 245.608 917.835 244.898 917.081 244.898 C 916.074 244.898 915.32 246.217 915.068 247.942 C 913.559 247.84 912.301 247.84 914.062 247.942 L 914.062 247.942 L 914.062 247.942 L 914.062 247.942 L 914.062 248.043 L 913.81 248.246 L 913.559 248.55 C 913.559 248.55 913.559 248.652 913.307 248.652 C 912.553 247.536 911.546 246.826 910.289 246.826 C 909.534 246.826 909.031 247.13 908.779 247.637 C 908.528 246.623 908.276 245.811 907.27 245.71 C 906.515 245.608 905.257 246.217 904.503 247.13 C 904.251 246.927 903.748 246.826 903.496 246.826 C 902.742 246.826 901.987 247.333 901.484 248.043 C 901.232 247.84 900.981 247.739 900.478 247.637 C 899.723 247.536 898.214 248.043 897.459 248.956 C 897.459 248.956 897.459 248.956 897.459 248.956 C 897.711 247.739 897.711 246.724 896.704 246.623 C 896.453 246.42 896.453 246.217 895.95 246.116 C 895.195 245.811 891.925 247.13 892.176 249.057 C 891.925 249.057 891.673 249.159 891.17 249.26 C 891.17 249.26 891.17 249.26 891.17 249.26 C 891.17 249.159 891.17 249.159 891.17 249.057 C 891.422 248.246 891.673 247.739 890.919 247.434 C 890.667 247.333 890.164 247.333 889.661 247.434 C 889.409 247.232 888.906 247.13 888.655 247.13 C 887.9 247.13 887.145 247.739 886.642 248.652 C 886.391 248.855 886.139 249.057 885.888 249.26 L 885.384 249.26 L 885.133 248.956 L 885.133 248.956 L 885.133 248.956 C 887.397 248.855 885.636 248.956 883.624 248.956 C 883.624 247.942 883.624 247.232 882.617 247.029 C 881.611 246.826 879.096 247.942 878.592 249.666 L 878.341 249.666 L 877.586 249.666 C 877.335 249.362 877.586 249.362 877.586 249.666 L 877.083 249.666 C 877.083 249.666 877.083 249.666 877.083 249.666 C 878.089 247.84 877.838 246.319 876.328 246.116 C 875.322 246.014 873.813 246.927 872.807 248.347 C 872.555 247.637 872.052 247.232 871.297 247.13 C 870.291 247.13 869.285 247.739 868.53 248.855 C 868.53 248.855 868.279 248.753 868.279 248.753 C 868.027 248.652 867.272 248.652 866.266 248.956 C 865.511 248.347 864.505 247.942 863.751 247.942 C 862.996 247.942 862.493 248.347 862.241 248.956 C 861.487 249.159 860.983 249.565 860.229 249.97 C 860.229 249.97 860.229 249.869 860.229 249.869 C 860.229 249.869 860.229 249.869 860.229 249.869 C 859.726 248.347 858.719 247.333 857.713 247.434 C 856.959 247.434 856.455 248.043 855.952 248.956 L 854.695 247.637 L 853.94 246.826 L 853.688 246.42 L 853.688 246.319 L 853.688 246.319 L 853.688 246.319 C 855.449 246.319 854.695 246.319 853.437 246.319 C 853.185 245.608 852.682 245.203 851.927 245.101 C 851.173 245 849.915 245.608 849.412 246.42 C 848.909 246.42 848.657 246.42 848.909 246.42 L 848.909 246.521 L 848.909 246.724 L 848.909 246.724 C 847.903 246.724 847.399 246.724 848.909 246.724 L 848.657 248.043 C 848.657 248.043 848.406 247.942 848.406 247.942 C 848.154 247.942 848.154 247.942 847.903 247.942 C 847.903 247.942 847.903 247.84 847.903 247.84 C 848.154 245.304 849.663 243.174 848.406 242.971 C 847.651 242.768 845.135 243.884 843.878 245.608 C 843.123 245.406 840.607 246.521 839.601 248.246 C 839.601 248.246 839.601 248.246 839.601 248.246 C 838.846 248.144 837.086 249.057 836.079 250.478 C 834.822 250.782 833.312 251.695 832.809 253.013 C 832.809 253.216 832.809 253.318 832.809 253.521 C 832.809 253.521 832.558 253.521 832.306 253.521 L 832.306 253.419 L 832.306 253.419 C 832.809 253.419 831.048 253.419 829.539 253.318 C 829.539 252.101 829.539 251.289 828.281 251.086 C 827.275 250.883 825.514 251.796 824.759 253.115 C 824.508 252.202 823.502 251.593 822.244 251.593 C 820.734 251.593 819.728 252.506 819.728 253.724 C 819.728 253.724 819.728 253.724 819.728 253.724 C 819.225 252.709 818.219 251.999 816.961 252.101 C 815.955 252.202 815.2 252.811 814.949 253.622 C 813.188 253.521 812.182 253.521 811.93 253.521 C 811.93 253.521 811.93 253.521 811.678 253.419 C 811.427 253.419 811.427 253.419 811.175 253.419 C 810.672 253.115 809.918 252.912 809.414 252.912 C 808.408 253.013 807.654 253.724 807.402 254.637 C 805.389 254.637 803.629 254.637 805.893 254.637 L 805.893 254.637 L 805.893 254.738 L 805.893 255.245 C 805.893 255.549 805.641 255.854 805.641 256.158 C 805.641 256.158 805.389 256.158 805.389 256.158 C 805.389 256.057 805.389 256.057 805.389 255.955 C 805.138 255.651 805.138 255.448 805.138 255.144 L 805.138 254.738 L 805.138 254.535 C 805.138 254.535 805.138 254.535 805.138 254.535 L 805.138 254.535 L 805.138 254.434 L 805.138 254.434 C 806.899 254.434 806.144 254.434 804.886 254.434 C 805.138 252.811 804.886 251.492 803.629 251.39 C 802.874 251.289 801.616 252.101 800.61 253.216 C 800.61 253.216 800.61 253.216 800.61 253.216 C 799.604 253.115 798.094 254.028 796.837 255.347 C 796.837 255.347 796.837 255.245 796.837 255.245 L 796.837 254.535 L 796.837 254.129 L 796.837 254.028 L 796.837 254.028 L 796.837 254.028 C 797.088 254.028 797.34 254.028 796.837 254.028 L 796.837 254.028 C 796.082 254.028 795.579 253.926 795.076 253.926 C 794.824 253.825 794.573 253.724 794.321 253.724 C 794.069 253.724 793.566 253.724 793.315 253.825 C 791.051 253.724 794.321 253.825 792.812 253.825 L 792.812 253.825 L 792.812 253.825 L 792.812 253.825 L 792.812 253.926 L 792.812 254.028 L 792.812 254.028 C 791.805 254.434 791.051 255.245 790.548 256.26 C 790.548 256.462 790.548 256.665 790.548 256.767 C 790.548 256.767 790.296 256.767 790.296 256.767 C 790.296 255.448 789.29 254.434 787.781 254.434 C 786.774 254.434 785.768 255.042 785.265 255.854 C 785.013 255.854 785.013 255.854 784.762 255.854 C 784.007 255.347 783.253 255.042 782.246 255.144 C 781.995 255.144 781.743 255.245 781.492 255.347 C 781.492 255.347 781.492 255.245 781.492 255.245 C 781.492 255.245 781.24 255.245 781.24 255.245 C 780.737 254.738 779.982 254.332 779.228 254.332 C 778.221 254.332 777.467 254.839 776.964 255.651 C 776.964 254.738 776.209 254.129 775.454 254.028 C 774.448 253.926 773.19 254.637 772.436 255.549 C 772.184 254.231 771.932 253.318 770.926 253.216 C 770.423 253.115 769.417 253.622 768.662 254.332 C 768.411 254.332 768.411 254.332 768.159 254.332 C 768.662 252.912 768.914 251.695 767.908 251.593 C 766.901 251.492 764.134 252.709 762.876 254.839 C 761.367 254.738 760.361 254.637 762.122 254.738 L 762.122 254.738 L 762.122 254.738 L 762.122 254.839 L 761.87 255.042 L 761.367 255.347 C 761.116 255.549 760.864 255.752 760.864 255.955 L 760.864 255.955 L 760.864 255.955 L 760.864 255.955 C 760.864 256.057 760.864 256.057 760.864 256.158 C 760.612 256.158 760.612 256.158 760.361 256.26 C 760.361 256.26 760.361 256.26 760.361 256.26 C 760.361 255.144 759.355 254.231 758.097 254.231 C 756.839 254.231 755.833 254.941 755.581 255.854 C 755.33 255.854 755.078 255.854 755.078 255.854 C 755.33 255.245 755.33 254.535 755.581 253.825 L 755.581 253.622 C 755.581 253.622 755.581 253.622 755.581 253.622 L 755.581 253.622 L 755.581 253.521 L 755.581 253.521 L 755.581 253.521 C 757.594 253.622 756.336 253.521 754.324 253.419 C 754.072 252.912 753.569 252.506 753.066 252.405 C 752.311 252.303 751.305 252.709 750.299 253.419 C 749.544 253.419 749.292 253.419 750.299 253.419 C 750.047 253.622 749.796 253.926 749.544 254.231 C 749.041 253.926 748.538 253.622 747.783 253.622 C 747.028 253.622 746.274 253.926 745.771 254.332 C 745.268 254.332 744.764 254.332 744.261 254.332 C 744.261 254.332 744.261 254.332 744.261 254.332 C 744.513 253.622 744.513 252.811 743.255 252.608 C 742.5 252.405 740.991 252.709 739.985 253.419 C 739.482 252.709 738.727 252.303 737.972 252.303 C 736.715 252.303 735.457 253.521 735.457 255.042 C 735.205 254.535 734.954 254.231 734.199 254.129 C 733.696 254.028 732.941 254.231 732.187 254.637 C 731.683 253.724 730.677 253.115 729.671 253.115 C 729.168 253.115 728.916 253.216 728.413 253.521 C 727.91 253.521 727.407 253.521 727.155 253.521 C 727.407 252.608 727.407 251.999 726.652 251.796 C 726.401 251.796 726.401 251.796 726.149 251.796 C 725.898 250.478 725.143 249.666 724.388 249.666 C 723.382 249.666 722.124 251.289 721.621 253.622 C 719.86 253.419 718.854 253.318 720.615 253.521 L 720.615 253.521 L 720.615 253.622 L 720.363 254.028 C 719.357 255.042 719.106 256.158 719.609 257.274 C 719.609 257.578 720.112 257.883 720.112 258.187 L 720.615 258.593 L 720.615 258.694 C 720.112 258.694 719.86 258.694 719.357 258.694 C 719.106 258.187 718.099 257.781 716.842 257.781 C 716.087 257.781 715.584 257.984 715.081 258.187 C 714.829 258.187 714.578 258.187 714.075 258.187 C 714.578 256.97 715.081 255.854 713.823 255.651 C 713.068 255.549 711.307 255.955 710.05 256.868 C 710.553 255.651 710.301 254.738 709.295 254.637 C 708.289 254.535 707.031 255.042 706.025 256.057 C 705.773 255.549 705.522 255.245 704.767 255.245 C 704.515 255.245 704.264 255.245 704.012 255.347 C 703.761 254.231 702.754 253.419 701.748 253.419 C 701.245 253.419 700.49 253.724 699.987 254.129 C 699.484 253.521 698.73 253.115 697.975 253.115 C 697.472 253.115 696.969 253.318 696.717 253.724 C 696.717 253.724 696.717 253.724 696.717 253.724 C 696.466 253.419 696.214 253.216 695.711 253.115 C 695.711 253.115 695.459 253.115 695.459 253.115 C 695.208 252.405 694.956 251.898 694.202 251.796 C 693.447 251.796 692.441 252.303 691.686 253.216 C 691.686 253.216 691.686 253.216 691.686 253.216 C 691.434 253.521 691.183 253.926 690.931 254.332 L 690.428 254.332 C 690.428 254.129 690.177 253.926 690.177 253.724 C 688.919 251.188 688.416 249.057 686.906 248.956 C 685.649 248.855 683.888 251.188 685.397 254.028 C 685.397 254.129 685.649 254.231 685.649 254.332 C 685.397 254.231 685.146 254.129 684.642 254.129 C 683.636 254.129 682.882 255.042 682.882 256.26 C 682.378 255.752 681.624 255.448 680.869 255.448 C 680.114 255.448 679.611 255.651 679.108 256.057 C 678.605 255.854 678.354 255.752 677.85 255.752 C 677.85 255.752 677.599 255.752 677.599 255.752 C 677.599 255.752 677.599 255.752 677.599 255.752 C 676.844 253.318 677.85 251.289 676.341 251.086 C 675.838 250.985 674.58 251.492 673.574 252.506 C 673.071 249.666 671.561 247.434 670.304 247.434 C 668.794 247.434 668.04 249.97 668.543 253.013 C 668.543 253.115 668.543 253.318 668.543 253.419 C 667.285 253.419 666.53 253.521 668.291 253.419 L 668.291 253.419 L 668.291 253.521 C 668.291 253.521 668.291 253.521 668.291 253.521 L 668.291 253.521 C 666.279 253.419 664.266 253.419 666.53 253.521 L 666.53 253.521 L 666.53 253.521 L 666.53 253.622 C 666.53 253.622 666.53 253.622 666.53 253.622 L 666.53 253.622 L 666.53 253.825 L 666.53 254.231 C 666.53 254.738 666.279 255.245 666.279 255.752 C 666.279 255.752 666.027 255.752 666.027 255.752 L 665.776 255.955 C 665.524 256.158 665.273 256.26 665.273 256.462 C 665.273 256.462 665.021 256.462 665.021 256.462 C 665.021 256.361 664.769 256.26 664.769 256.057 L 664.769 255.854 C 664.769 255.854 664.769 255.854 664.769 255.854 L 664.769 255.854 C 664.769 255.854 664.769 255.854 664.518 255.854 C 664.518 255.854 665.776 255.854 664.015 255.752 C 663.763 255.245 663.009 254.738 662.002 254.637 C 661.499 254.535 660.745 254.738 660.241 254.941 C 659.99 254.535 659.738 254.231 658.984 254.129 C 657.977 254.028 656.468 254.637 655.462 255.651 C 655.462 255.651 655.462 255.651 655.462 255.651 C 655.462 255.549 655.462 255.448 655.462 255.347 C 655.462 253.724 654.456 252.303 652.946 252.303 C 652.192 252.303 651.437 252.811 650.934 253.521 C 650.431 253.115 649.928 252.811 649.173 252.811 C 648.67 252.811 647.915 253.013 647.664 253.419 C 647.161 253.216 646.909 253.013 646.154 253.013 C 645.4 253.013 644.896 253.216 644.393 253.622 C 644.393 253.622 644.393 253.622 644.142 253.622 C 643.89 253.521 643.89 253.419 643.639 253.419 L 643.639 253.318 C 643.89 253.318 644.393 253.419 643.639 253.318 L 643.639 253.216 L 643.639 253.216 L 643.639 253.216 C 643.387 253.216 643.136 253.216 642.884 253.115 C 642.632 253.013 642.381 253.013 642.129 253.013 C 642.129 253.013 641.878 253.013 641.878 253.013 C 641.878 253.013 641.878 253.013 641.878 253.013 C 641.878 251.999 641.626 251.289 640.62 251.188 C 640.368 251.188 640.368 251.188 640.117 251.188 C 639.865 250.883 639.614 250.68 639.111 250.68 C 638.104 250.579 637.098 251.492 636.344 252.811 C 634.834 252.709 633.828 252.709 634.08 252.709 L 633.576 253.115 L 633.576 253.216 C 633.325 253.216 633.325 253.216 633.073 253.216 C 633.576 251.492 633.325 250.376 632.319 250.275 C 631.061 250.072 628.294 252.202 627.539 254.839 C 627.539 255.042 627.539 255.144 627.288 255.347 C 626.281 255.448 625.024 255.549 624.017 255.752 C 622.005 255.651 622.005 255.955 622.005 256.26 C 621.25 256.462 620.747 256.665 619.992 256.868 C 619.992 256.868 619.992 256.868 619.992 256.868 C 619.238 256.97 618.735 257.071 617.98 257.172 C 617.98 257.172 617.98 257.172 617.98 257.172 C 617.98 257.172 617.98 257.172 617.98 257.172 L 618.232 256.462 L 618.232 256.26 C 616.974 256.057 621.25 256.462 615.213 255.854 L 614.961 255.955 L 614.961 255.955 C 614.71 255.955 614.71 255.955 614.961 255.955 L 614.458 256.26 C 613.955 256.564 613.704 256.868 613.2 257.172 C 613.2 257.172 613.2 257.071 612.949 257.071 L 612.949 257.071 L 612.949 256.868 L 612.949 256.767 L 612.949 256.767 C 611.439 256.564 616.471 257.274 609.427 256.26 L 609.427 256.361 L 609.175 256.462 C 608.672 256.361 608.924 256.462 609.175 256.462 L 607.415 257.578 C 606.66 257.172 606.408 257.071 607.415 257.578 L 607.163 257.781 C 606.66 257.781 605.402 257.68 602.887 257.477 L 602.887 257.477 L 602.887 257.477 C 602.132 257.375 602.635 257.477 602.887 257.477 L 602.887 257.477 C 602.887 257.477 602.887 257.477 602.887 257.477 L 602.635 257.578 L 602.383 257.781 L 601.88 258.187 C 600.119 257.984 597.352 257.68 597.855 257.781 L 597.855 257.883 C 596.849 257.781 596.346 257.68 597.855 257.883 L 597.855 257.883 L 597.855 257.883 L 597.604 258.085 L 596.849 258.593 C 596.849 258.593 596.849 258.694 596.598 258.694 C 595.843 258.694 595.34 258.694 594.837 258.694 C 593.076 258.694 591.567 258.694 593.579 258.694 L 593.579 258.694 L 593.579 258.694 L 593.579 258.795 L 593.327 259.303 C 593.076 259.506 592.824 259.81 592.573 260.013 C 591.818 259.911 591.063 259.911 590.56 259.81 C 590.56 258.998 590.057 258.39 588.799 258.288 C 588.296 258.288 587.793 258.39 587.29 258.593 C 586.535 258.491 585.278 258.795 584.271 259.303 C 583.517 258.795 582.762 258.491 582.007 258.593 C 581.253 258.593 580.75 258.897 580.498 259.303 C 580.498 258.897 580.246 258.593 579.743 258.593 C 578.989 258.491 577.479 258.897 576.473 259.81 C 576.473 259.708 576.222 259.708 575.97 259.708 C 575.215 259.607 573.454 260.52 572.197 261.839 C 571.694 261.839 571.442 261.839 570.687 261.839 L 570.687 261.839 L 570.687 261.94 C 570.687 261.94 570.687 261.94 570.687 261.94 C 570.436 261.94 570.184 261.94 569.933 261.94 C 569.681 260.114 568.675 258.694 567.669 258.694 C 566.662 258.694 565.656 259.911 565.153 261.636 C 564.398 261.534 564.147 261.534 565.153 261.636 C 565.153 261.839 565.153 261.94 565.153 262.143 L 564.65 262.853 L 564.398 263.157 C 561.38 263.157 561.883 263.157 562.386 263.157 L 562.386 263.157 L 562.386 263.157 L 562.386 263.259 L 562.386 263.36 L 562.134 263.867 C 562.134 264.172 562.134 264.375 561.883 264.679 C 561.631 264.679 561.631 264.679 561.38 264.679 C 560.374 264.679 559.367 264.577 559.87 264.577 L 559.87 264.577 L 559.87 264.577 L 559.87 264.679 C 558.864 264.679 558.613 264.679 559.87 264.679 L 559.87 264.679 C 559.367 264.679 558.864 264.78 558.361 264.78 C 558.11 264.78 557.858 264.679 557.606 264.679 C 557.355 264.375 556.852 264.07 556.349 263.969 C 556.6 263.867 556.349 263.867 554.839 263.867 C 554.588 263.157 554.085 262.752 553.33 262.65 C 552.072 262.447 550.311 263.867 549.557 265.592 C 549.557 265.592 549.557 265.693 549.557 265.693 C 548.55 265.795 547.544 265.998 546.789 266.2 C 546.789 264.172 546.538 262.447 545.28 262.346 C 544.022 262.244 542.01 263.969 541.758 266.099 C 541.758 266.2 541.507 266.302 541.507 266.403 C 541.004 266.505 540.501 266.505 539.997 266.606 C 539.997 266.505 539.997 266.403 540.249 266.302 L 540.501 265.389 L 540.501 265.085 C 541.758 265.085 541.255 265.085 540.501 265.085 L 540.501 264.983 L 540.501 264.983 C 540.752 264.983 539.494 264.882 538.237 264.882 C 537.985 264.07 537.23 263.563 536.476 263.563 C 536.476 263.563 536.224 263.563 536.224 263.563 C 535.973 263.157 535.469 262.853 534.966 262.752 C 533.709 262.65 531.948 263.766 531.193 265.288 C 530.941 265.186 530.69 265.186 530.438 265.186 C 530.187 265.186 529.935 265.186 529.935 265.186 C 529.684 265.186 529.684 265.186 529.432 265.186 C 529.432 264.882 529.684 264.577 529.432 264.172 C 530.187 263.056 529.432 261.94 528.174 261.839 C 527.42 261.737 526.665 261.94 526.162 262.447 C 526.162 262.447 526.162 262.447 525.91 262.447 C 525.156 262.346 523.646 263.157 522.389 264.476 C 522.137 263.056 521.885 262.143 520.628 261.94 C 519.873 261.839 519.118 262.244 518.364 262.954 C 518.112 259.607 518.364 257.071 516.854 256.97 C 515.848 256.868 514.087 258.795 513.584 261.433 C 513.332 261.636 513.081 261.94 512.829 262.346 C 512.578 262.447 512.326 262.549 511.823 262.752 C 510.314 262.752 509.811 262.853 511.572 262.752 L 511.572 262.752 L 511.572 262.752 C 511.572 262.752 511.572 262.752 511.572 262.853 C 510.565 263.462 509.559 264.375 508.804 265.49 C 507.798 265.795 507.044 266.505 506.54 267.519 C 506.289 266.505 505.534 265.896 504.528 265.896 C 504.025 265.896 503.522 266.2 503.019 266.606 C 503.019 266.606 503.019 266.606 503.019 266.606 C 502.767 266.2 502.264 265.896 501.509 265.896 C 501.509 265.896 501.509 265.896 501.509 265.896 C 501.258 265.795 501.006 265.693 500.755 265.592 C 499.497 265.49 497.484 266.708 497.233 268.534 C 497.233 268.635 496.981 268.736 496.981 268.736 C 495.724 268.635 494.214 268.635 492.956 268.534 L 492.956 268.534 C 493.46 268.534 492.202 268.534 490.944 268.534 C 490.441 268.534 489.686 268.534 489.183 268.534 L 489.435 268.432 L 489.435 268.432 C 489.686 268.432 488.932 268.432 487.674 268.432 C 487.171 268.026 486.668 267.722 485.913 267.722 C 485.41 267.722 484.655 267.925 484.404 268.229 C 484.404 268.229 484.404 268.229 484.404 268.229 C 484.152 268.026 483.649 267.925 483.397 267.823 C 483.146 267.519 482.894 267.316 482.391 267.215 C 481.888 267.113 481.385 267.215 480.882 267.316 C 480.379 266.2 479.624 265.389 478.618 265.389 C 478.115 265.389 477.36 265.693 476.857 266.2 C 476.354 265.896 475.851 265.693 475.599 265.693 C 474.844 265.693 474.341 266.099 473.838 266.809 C 473.335 266.708 472.832 266.708 472.58 266.708 C 472.58 266.708 472.58 266.606 472.58 266.606 L 472.832 265.998 L 473.083 265.693 L 473.083 265.592 L 473.083 265.592 C 471.323 265.592 476.354 265.592 470.819 265.592 L 470.819 265.288 L 470.819 265.085 L 470.819 264.983 C 472.58 265.085 471.574 265.085 470.065 264.882 C 470.316 263.665 470.065 262.853 469.31 262.752 C 468.052 262.65 465.537 264.679 464.279 267.215 C 464.279 267.418 464.027 267.722 464.027 267.925 C 463.776 267.925 463.524 267.925 463.273 268.026 L 463.273 268.026 C 461.512 268.026 467.298 268.026 459.248 268.026 L 459.248 268.128 L 459.248 268.128 C 457.99 268.128 456.732 268.229 455.475 268.331 C 455.223 268.128 455.223 268.026 455.223 268.128 L 455.223 268.128 L 455.223 268.128 L 455.223 268.128 L 454.971 268.128 L 454.72 268.128 C 454.217 267.722 454.217 267.519 454.72 268.128 L 454.468 268.128 L 454.217 268.128 C 453.965 268.128 453.714 268.229 453.462 268.229 C 447.676 267.722 452.204 268.128 450.695 268.026 L 450.695 268.026 L 450.695 268.128 L 450.443 268.432 L 450.443 268.432 C 449.94 268.432 449.437 268.331 448.934 268.331 C 449.437 268.229 450.443 268.128 446.167 268.128 L 446.167 268.331 C 444.406 268.331 442.897 268.229 441.136 268.331 C 439.878 268.331 438.62 268.432 437.614 268.432 C 437.614 268.432 437.362 268.432 437.362 268.432 L 437.362 268.432 L 437.362 268.331 L 437.362 268.229 L 437.362 268.229 C 435.853 268.128 440.381 268.432 435.098 268.026 L 434.847 267.823 L 434.847 267.722 L 434.847 267.722 L 434.847 267.722 C 435.35 267.722 432.834 267.722 431.074 267.621 C 430.319 267.012 429.061 266.606 428.306 266.708 C 428.055 266.708 427.552 266.911 427.552 267.113 C 427.3 266.505 426.797 265.998 426.294 265.998 C 425.539 265.896 424.533 266.505 423.778 267.418 C 423.778 267.418 423.527 267.418 423.275 267.316 C 423.024 266.403 422.018 265.795 421.011 265.693 C 420.005 265.592 418.999 266.302 418.496 267.316 C 417.489 267.215 416.232 267.215 415.729 267.113 C 415.477 266.911 414.974 266.505 413.968 266.606 C 413.716 266.505 413.213 266.403 412.71 266.403 C 411.704 266.403 410.697 266.809 410.446 267.418 C 410.194 267.418 409.943 267.418 409.691 267.418 C 408.937 267.418 408.182 267.418 407.427 267.418 L 407.176 267.316 L 407.176 267.215 L 407.176 267.215 L 407.176 267.215 C 409.943 267.012 406.421 267.215 404.157 267.418 L 403.905 266.708 L 403.905 266.505 C 406.924 266.505 403.151 266.505 400.635 266.505 L 400.132 265.998 L 399.881 265.896 C 399.881 265.896 399.881 265.896 399.881 265.896 C 401.39 265.795 400.887 265.896 399.881 265.896 C 399.629 265.288 399.377 264.882 398.371 264.78 C 397.617 264.679 396.359 264.983 395.604 265.693 C 395.101 265.693 394.598 265.693 394.095 265.693 C 391.076 265.693 391.579 265.693 392.082 265.693 L 392.082 265.693 L 392.082 265.795 C 391.831 266.2 391.831 266.505 391.579 266.911 C 391.328 266.911 391.076 266.911 390.825 266.911 C 390.07 266.911 389.315 266.911 388.309 266.911 L 388.309 266.911 C 387.554 266.911 388.057 266.911 388.309 266.911 L 388.309 266.911 L 388.309 267.012 C 388.309 267.012 388.057 267.012 388.057 267.012 L 388.057 267.012 L 388.057 267.012 L 388.057 267.012 C 388.309 267.012 387.806 267.012 387.303 267.113 C 384.787 267.012 382.272 266.911 379.756 266.809 C 379.504 266.708 379.253 266.708 379.001 266.606 C 376.989 266.606 375.983 266.708 375.228 266.708 C 374.725 266.708 374.222 266.708 373.719 266.708 L 373.467 266.403 L 373.467 266.302 L 373.467 266.302 C 375.228 266.302 374.725 266.302 373.467 266.302 C 373.97 266.302 372.712 266.302 371.203 266.302 C 369.694 266.302 368.184 266.302 368.184 266.302 C 366.927 266.302 366.424 266.302 368.184 266.302 L 368.184 266.302 L 368.184 266.302 L 368.184 266.302 L 368.184 266.403 L 368.184 266.505 C 367.933 266.403 367.933 266.403 367.681 266.302 L 367.681 266.302 L 367.681 266.302 L 367.681 266.302 C 368.184 266.302 366.424 266.403 364.663 266.505 C 364.16 266.505 363.405 266.505 362.902 266.505 C 362.902 266.403 362.902 266.302 362.65 266.2 C 362.65 265.896 362.147 265.49 361.644 265.288 C 361.644 265.288 361.644 265.288 361.644 265.186 C 361.644 265.186 361.392 265.186 361.392 265.186 C 360.889 265.085 360.386 264.983 359.883 264.983 C 359.38 264.983 358.877 265.085 358.625 265.186 C 358.625 265.186 358.625 265.186 358.374 265.186 C 358.374 265.186 358.374 265.186 358.374 265.186 C 357.871 265.186 357.871 265.288 358.122 265.389 C 357.871 265.592 357.619 265.896 357.619 266.2 C 357.116 265.795 356.613 265.592 355.858 265.49 C 355.858 265.49 355.858 265.389 355.858 265.389 C 355.355 265.389 354.852 265.389 354.349 265.389 C 354.097 265.288 354.097 265.288 353.846 265.186 C 353.594 264.882 353.091 264.679 352.336 264.679 C 351.582 264.577 350.575 265.085 350.072 265.795 C 349.318 265.693 348.815 265.693 348.311 265.693 C 349.066 264.172 348.815 262.954 347.557 262.853 C 346.551 262.752 345.293 263.36 344.287 264.375 C 344.287 263.056 344.035 262.143 343.029 262.042 C 342.023 261.94 340.513 262.954 339.759 264.577 C 339.004 264.577 338.249 264.476 337.746 264.476 C 337.746 264.476 337.746 264.476 337.746 264.476 C 337.998 262.65 337.746 261.23 336.488 261.027 C 335.482 260.926 334.224 261.737 333.47 262.853 C 329.445 262.65 333.973 262.853 332.212 262.853 L 332.212 262.853 L 332.212 262.853 L 332.212 262.954 L 332.212 262.954 C 332.212 262.954 332.212 262.954 332.212 262.954 L 332.212 262.954 L 332.212 262.954 L 332.212 263.056 L 332.212 263.462 C 332.212 263.563 332.212 263.665 332.212 263.766 C 331.96 263.766 331.96 263.766 331.709 263.665 C 331.709 263.665 331.709 263.563 331.709 263.563 C 331.96 262.549 331.206 261.737 329.948 261.737 C 329.193 260.114 327.181 258.998 326.175 259.1 C 324.665 259.303 325.168 260.824 325.168 262.752 C 325.168 262.853 325.168 262.853 325.168 262.954 C 324.917 262.954 324.917 262.954 324.665 262.954 C 324.665 262.853 324.665 262.853 324.665 262.752 C 324.917 261.433 324.414 260.317 322.904 260.216 C 321.898 260.114 320.892 260.621 320.389 261.331 C 319.634 260.418 318.628 259.911 317.873 259.911 C 317.118 260.013 316.364 260.418 316.112 261.027 C 315.609 261.129 315.106 261.331 314.854 261.636 C 314.603 261.534 314.351 261.534 314.1 261.534 C 313.345 261.534 312.59 261.839 312.087 262.244 C 311.584 261.839 310.83 261.534 310.326 261.534 C 309.572 261.534 309.069 261.737 308.566 262.143 C 308.062 261.94 307.811 261.839 307.308 261.839 C 306.05 261.839 305.044 262.447 304.792 263.259 C 304.541 263.259 304.541 263.259 304.289 263.259 L 304.289 263.259 C 304.541 263.259 304.289 263.259 304.038 263.259 C 303.031 262.853 302.025 262.752 301.27 262.853 C 301.019 262.954 300.767 263.056 300.516 263.259 C 299.761 263.259 299.51 263.259 299.258 263.259 C 299.006 263.259 299.006 263.259 299.006 263.259 C 299.006 262.549 298.503 261.94 297.497 261.839 C 296.239 261.636 294.73 262.549 293.975 263.766 C 293.724 263.766 292.969 263.766 291.711 263.766 C 289.95 263.563 288.441 263.462 286.932 263.259 C 286.429 262.954 286.177 262.65 285.925 262.447 C 285.674 262.549 285.171 262.65 284.919 262.65 C 284.668 262.549 284.416 262.549 283.913 262.447 C 283.913 262.549 283.913 262.752 284.165 262.853 C 283.913 262.853 283.913 262.954 283.661 262.954 C 283.41 262.954 283.158 262.954 282.907 262.853 C 282.907 262.853 282.907 262.853 282.907 262.853 C 282.907 262.853 282.907 262.853 282.907 262.853 C 282.152 262.447 281.901 261.839 282.152 261.23 L 282.404 260.621 C 282.404 260.621 282.404 260.621 282.404 260.621 L 282.404 260.52 C 282.907 260.52 283.41 260.418 280.643 260.216 C 280.643 260.216 280.643 260.216 280.643 260.216 C 280.894 259.201 280.391 258.39 279.133 258.288 C 278.882 258.288 278.379 258.288 278.127 258.39 L 277.876 257.984 L 277.876 257.781 L 277.876 257.781 C 280.894 257.883 276.115 257.68 274.354 257.68 C 273.851 257.578 273.599 257.477 273.096 257.375 C 272.845 257.071 272.593 256.665 272.341 256.361 L 272.341 256.26 C 273.851 256.26 273.599 256.26 272.341 256.26 L 272.341 256.158 L 272.341 256.158 L 272.341 256.158 C 272.845 256.158 271.335 256.158 269.826 256.26 C 269.826 254.839 269.323 253.825 268.317 253.724 C 267.562 253.622 266.556 254.231 265.801 255.245 L 265.801 254.839 L 265.801 254.535 L 265.801 254.434 L 265.801 254.434 L 265.801 254.434 L 265.801 254.434 C 266.304 254.434 267.059 254.434 263.537 254.434 C 262.782 254.434 262.279 254.434 261.776 254.434 C 261.525 253.724 261.021 253.318 260.267 253.216 C 259.261 253.115 258.003 254.028 257.5 255.245 C 256.493 255.245 256.242 255.245 257.5 255.245 C 257.248 255.549 257.248 255.955 257.248 256.26 C 257.248 256.361 257.248 256.564 257.248 256.665 C 257.248 256.767 257.248 256.767 257.248 256.868 C 257.248 256.97 257.248 257.172 257.248 257.274 C 255.739 257.274 254.481 257.274 253.726 257.274 C 253.726 257.274 253.726 257.172 253.726 257.172 C 253.978 257.172 254.229 257.274 254.229 257.172 C 254.481 257.071 253.978 256.767 253.223 256.158 C 253.223 256.158 253.223 256.057 253.223 256.057 C 253.223 255.955 253.223 255.854 253.475 255.854 C 253.475 255.854 253.223 255.854 253.223 255.752 C 253.223 255.651 253.475 255.549 253.475 255.448 L 253.475 255.144 L 253.475 255.042 C 253.223 255.042 252.972 255.042 252.72 255.144 C 252.72 255.144 252.72 255.042 252.72 255.042 C 252.72 254.941 252.468 254.839 252.468 254.738 C 252.972 254.738 252.72 254.738 252.468 254.738 C 252.468 254.738 252.468 254.637 252.468 254.637 C 252.468 254.535 252.468 254.434 252.468 254.434 L 252.468 254.028 C 252.217 254.028 251.965 254.028 251.714 253.926 C 251.462 253.825 251.462 253.825 251.211 253.724 C 250.959 253.724 250.708 253.724 250.708 253.825 C 250.456 252.912 249.953 252.101 249.45 251.492 C 249.701 251.492 249.701 251.492 249.45 251.39 C 248.947 250.68 248.192 250.275 247.689 250.275 C 247.186 250.275 246.683 250.782 246.431 251.492 C 246.18 251.188 245.928 251.086 245.425 250.985 C 244.922 250.985 244.419 251.188 243.664 251.593 C 242.909 251.492 242.406 251.492 241.903 251.39 C 241.903 250.883 242.155 250.478 242.155 249.97 L 242.406 248.753 C 242.406 248.753 242.406 248.753 242.406 248.753 L 242.406 248.753 L 242.406 248.652 C 241.652 248.652 241.148 248.55 240.645 248.55 C 239.891 248.449 239.388 248.449 239.136 248.449 C 238.633 248.449 238.633 248.449 238.884 248.449 C 237.878 248.55 239.136 249.057 238.381 249.159 L 238.633 248.144 L 238.633 247.434 C 239.891 247.536 239.388 247.434 238.633 247.434 L 238.633 247.434 L 238.633 247.232 C 238.884 247.232 238.633 247.232 238.381 247.232 C 238.13 245.811 237.375 244.797 236.369 244.797 C 235.111 244.797 233.853 246.217 233.602 248.144 C 233.099 248.144 232.596 248.144 232.092 248.144 C 231.589 247.434 231.086 246.927 230.583 247.029 C 229.325 247.029 228.319 248.347 227.816 250.275 C 227.564 250.275 227.313 250.275 227.061 250.173 C 227.061 249.97 227.061 249.666 227.313 249.362 L 228.319 247.739 L 228.571 247.333 L 228.822 247.13 L 228.822 247.029 C 228.822 247.029 228.822 247.029 228.822 247.029 L 228.822 247.029 C 231.589 247.232 228.068 246.927 225.804 246.826 L 225.804 246.826 L 226.055 246.42 C 227.564 246.521 227.313 246.521 226.055 246.42 L 226.055 246.319 C 226.307 246.319 225.804 246.319 225.3 246.217 C 225.049 244.188 224.294 242.565 223.036 242.565 C 221.779 242.565 220.772 243.985 220.521 245.811 C 220.521 245.811 220.521 245.811 220.521 245.811 C 220.521 246.116 220.521 246.42 220.521 246.724 C 220.521 246.724 220.521 246.724 220.521 246.826 C 219.011 246.724 217.754 246.521 218.257 246.623 L 218.257 246.623 L 218.257 246.623 C 216.999 246.521 216.496 246.42 218.257 246.623 L 218.257 246.623 L 218.257 246.724 L 218.005 247.13 C 217.754 247.333 217.502 247.536 217.251 247.739 C 216.999 247.637 216.747 247.637 216.496 247.536 C 216.496 247.536 216.496 247.536 216.496 247.536 C 216.747 246.521 216.999 245.71 216.999 245 C 216.999 245 216.999 245 216.999 245 C 216.999 244.29 216.747 243.884 215.993 243.783 C 215.49 243.681 214.483 244.087 213.477 244.696 C 213.226 244.696 212.723 244.696 212.471 244.696 L 212.471 244.594 C 212.219 244.594 211.716 244.493 211.465 244.493 C 211.213 243.478 210.71 242.87 209.955 242.768 C 209.704 242.768 209.201 242.87 208.698 243.174 C 208.698 241.45 208.949 240.131 207.691 239.928 C 206.937 239.827 205.679 240.435 204.673 241.348 C 203.918 240.739 203.163 240.334 202.409 240.435 C 202.409 240.435 202.157 240.435 202.157 240.435 C 201.906 240.029 201.654 239.725 200.899 239.624 C 199.893 239.522 198.887 239.928 197.881 240.739 C 197.881 240.537 198.132 240.232 198.132 239.928 C 198.132 238.203 197.126 236.783 195.617 236.783 C 195.365 236.783 195.114 236.885 194.862 236.986 C 194.862 235.87 194.359 235.059 193.353 234.957 C 192.598 234.957 192.095 235.262 191.34 235.87 C 191.34 234.856 191.089 234.247 190.334 234.146 C 189.076 234.045 186.812 236.175 185.303 238.812 C 185.303 238.914 185.303 238.914 185.303 239.015 C 185.303 238.711 185.303 238.508 185.554 238.203 C 186.812 235.465 186.812 233.132 185.303 233.03 C 185.051 233.03 184.8 233.03 184.548 233.132 C 184.8 230.494 184.045 228.567 183.039 228.567 C 181.53 228.567 180.523 231.813 178.762 235.769 C 178.511 236.276 178.259 236.783 178.259 237.189 C 178.008 236.682 177.756 236.276 177.253 236.073 C 177.253 235.363 177.002 234.856 176.498 234.856 C 175.241 234.755 172.725 236.682 170.964 239.218 C 170.713 239.421 170.713 239.725 170.461 239.928 C 170.21 239.522 169.706 239.319 169.203 239.319 C 169.203 239.319 168.952 239.319 168.7 239.319 C 168.449 238.406 167.694 237.798 166.939 237.696 C 166.436 237.696 166.185 237.798 165.682 238.001 C 165.682 237.392 165.43 236.986 164.675 236.885 C 163.418 236.783 161.154 238.406 159.896 240.638 C 159.896 240.638 159.644 240.537 159.644 240.537 C 158.889 240.435 157.883 240.739 157.129 241.348 C 156.877 241.348 156.374 241.348 156.122 241.247 L 155.871 241.45 C 155.871 241.45 155.871 241.45 155.871 241.45 L 155.619 241.754 C 155.871 240.029 154.865 238.609 153.607 238.609 C 152.097 238.609 150.84 240.029 150.588 241.754 C 150.588 241.754 150.588 241.855 150.588 241.855 C 149.582 241.754 148.827 241.754 148.324 241.652 C 148.324 241.551 148.324 241.45 148.324 241.348 L 148.324 241.247 L 148.324 241.247 C 150.84 241.45 148.576 241.247 146.312 241.044 C 146.06 240.942 145.809 240.841 145.305 240.841 C 145.054 240.841 145.054 240.841 144.802 240.942 C 144.802 240.942 144.551 240.942 144.551 240.942 C 144.551 240.739 144.551 240.638 144.299 240.435 L 144.299 240.334 L 144.299 240.232 L 144.299 240.232 C 146.312 240.232 145.305 240.232 143.796 240.232 L 137.759 240.232 C 137.507 240.131 137.507 240.131 137.256 240.029 C 137.256 240.029 137.004 239.928 137.004 239.928 C 135.998 239.725 137.507 239.319 135.746 239.116 C 135.746 238.102 135.746 237.291 134.74 237.189 C 133.985 237.088 132.728 237.798 131.721 238.914 C 128.451 238.305 130.464 239.218 129.206 239.116 C 128.954 239.319 128.451 239.522 127.948 239.725 C 127.948 239.522 127.948 239.319 128.2 239.319 L 128.2 238.914 C 126.942 238.609 131.218 239.218 125.432 238.203 L 124.929 238.406 C 124.929 238.406 124.929 238.406 124.678 238.508 C 124.678 238.508 124.678 238.406 124.678 238.406 L 124.678 237.899 L 124.678 237.595 L 124.678 237.493 L 124.678 237.392 L 124.678 237.392 C 126.187 237.392 125.432 237.392 124.426 237.392 C 124.678 236.073 124.929 235.059 123.923 234.856 C 123.168 234.653 120.904 235.769 119.898 237.392 C 118.137 237.088 115.622 236.783 117.886 237.088 L 117.886 237.088 L 117.886 237.088 L 117.886 237.088 C 117.886 237.088 117.886 237.088 117.886 237.088 L 117.886 237.189 C 117.886 237.291 117.634 237.291 117.634 237.392 C 117.131 237.189 116.376 236.986 115.873 236.783 C 115.873 236.479 116.125 236.175 116.125 235.87 L 116.376 235.16 L 116.628 234.856 L 116.628 234.653 L 116.628 234.653 L 116.628 234.653 C 116.628 234.653 116.628 234.653 116.628 234.653 L 116.628 234.653 C 117.131 234.653 117.383 234.653 116.628 234.653 L 116.628 234.653 L 116.628 234.552 C 115.873 234.552 115.37 234.552 114.616 234.552 C 111.094 231.914 113.609 233.842 112.603 233.233 L 112.352 233.233 C 112.1 233.233 111.848 233.334 111.345 233.334 C 111.094 231.407 110.591 230.19 109.584 230.19 C 108.578 230.19 107.824 231.306 107.069 232.929 C 106.314 232.827 105.308 232.726 104.05 232.624 L 104.05 232.624 C 103.296 232.523 103.547 232.624 104.05 232.624 L 104.05 232.624 C 104.05 232.624 104.05 232.624 104.05 232.624 L 104.05 232.624 L 104.05 232.624 L 103.547 233.233 L 103.044 234.247 C 100.78 234.247 98.768 234.349 101.283 234.247 L 101.283 234.349 L 101.032 234.755 L 100.78 235.566 L 100.277 236.479 L 100.277 236.479 C 100.277 236.479 100.277 236.479 100.277 236.479 L 100.277 236.479 L 100.277 236.479 C 90.466 235.769 97.51 236.276 95.246 236.175 L 95.246 236.175 C 95.246 236.175 95.246 236.175 95.246 236.175 C 95.246 236.175 95.246 236.175 95.246 236.175 L 95.246 236.175 L 95.246 236.276 L 95.246 236.276 C 94.994 236.276 94.994 236.276 94.743 236.276 C 94.994 236.276 94.743 236.276 94.239 236.276 C 93.988 236.073 93.736 235.972 93.233 235.972 C 92.73 235.972 92.227 236.073 91.975 236.276 C 90.718 236.276 89.46 236.276 89.963 236.276 L 89.963 236.276 C 88.705 236.276 88.202 236.276 89.963 236.276 L 89.963 236.276 L 89.963 236.378 L 89.963 236.479 L 89.963 236.783 C 89.963 236.783 89.963 236.783 89.963 236.783 C 89.46 236.783 88.957 236.682 88.454 236.682 C 87.951 236.378 87.447 236.175 86.693 236.175 C 86.19 236.175 85.687 236.276 85.435 236.479 C 85.183 236.479 85.183 236.479 85.435 236.479 C 85.183 236.58 84.932 236.783 84.68 237.088 C 84.68 237.088 84.68 237.088 84.429 237.088 C 84.177 237.088 83.423 236.986 82.668 236.986 C 82.668 236.986 82.416 236.986 82.416 236.986 C 82.165 236.986 81.913 236.986 81.662 236.986 C 81.159 236.986 80.907 236.986 80.655 236.885 C 79.398 236.783 78.391 236.783 80.152 236.885 L 80.152 236.885 L 80.152 237.088 L 79.901 237.696 L 79.901 237.899 C 79.649 238.102 79.398 238.203 79.146 238.406 C 79.146 238.305 79.146 238.305 79.146 238.203 C 79.901 237.088 79.146 235.972 77.888 235.769 C 76.631 235.566 75.121 236.378 74.367 237.595 C 73.612 237.696 73.109 237.696 72.606 237.696 C 72.606 237.696 72.354 237.696 72.354 237.696 L 72.354 237.696 C 72.354 237.696 72.103 237.696 72.103 237.696 C 71.599 237.595 70.593 237.493 69.335 237.392 C 69.587 235.972 70.09 234.957 68.832 234.755 C 67.826 234.552 64.556 235.87 64.304 237.899 C 64.304 237.595 64.304 237.189 64.304 236.783 C 63.298 236.58 62.795 236.58 62.543 236.58 C 62.292 236.378 61.789 236.175 61.286 235.972 C 61.286 235.668 61.286 235.363 61.286 235.059 C 60.531 235.059 60.028 235.059 59.525 235.059 L 59.525 234.755 L 59.525 234.552 L 59.525 234.552 L 59.525 234.552 C 57.764 234.552 56.758 234.552 56.254 234.552 C 56.003 234.552 55.5 234.552 55.248 234.552 L 55.248 234.45 C 55.751 234.856 54.745 232.624 51.978 233.639 C 51.726 233.639 51.475 233.537 51.223 233.537 C 51.475 232.827 51.726 232.117 51.726 231.306 L 51.726 230.697 L 51.726 230.494 L 51.726 230.494 C 54.242 230.494 51.978 230.494 49.714 230.494 C 49.211 230.494 48.456 230.494 47.953 230.494 C 47.953 229.683 48.708 228.973 48.959 228.161 L 48.959 228.06 L 48.959 227.958 L 48.959 227.958 L 48.959 227.958 C 47.198 227.755 51.726 228.161 47.45 227.755 C 47.702 225.929 46.192 224.611 45.186 224.712 C 43.928 224.915 43.425 226.538 42.167 228.871 C 41.664 229.784 41.664 230.596 41.916 231.306 C 41.161 232.421 39.652 233.132 38.142 233.74 C 38.142 233.436 38.142 233.537 37.891 233.74 C 37.639 233.842 37.136 233.943 36.885 234.045 C 31.35 234.045 39.652 234.045 35.878 234.045 L 35.878 234.045 L 35.878 234.045 L 35.627 234.146 L 35.375 234.247 L 35.124 234.45 C 33.614 234.45 32.357 234.552 32.608 234.552 L 32.608 234.552 L 32.86 234.755 L 33.111 234.856 C 32.608 234.957 32.357 234.957 31.854 235.059 C 31.099 234.957 30.093 234.957 28.583 234.755 C 28.583 234.45 28.583 234.146 28.583 233.842 C 28.583 233.537 28.583 233.334 28.332 233.132 C 29.086 233.132 28.835 233.132 28.332 233.132 C 28.08 232.016 27.074 231.204 25.816 231.204 C 24.81 231.204 24.055 231.914 23.552 232.827 C 23.301 232.827 23.049 232.827 23.301 232.827 L 23.301 232.827 L 23.301 232.929 L 23.301 232.929 C 21.791 232.219 21.037 232.421 20.533 232.726 C 20.03 232.219 19.527 231.711 20.03 232.32 C 19.779 232.32 19.527 232.32 19.276 232.421 C 19.276 232.32 19.276 232.32 19.276 232.32 C 19.276 232.32 19.276 232.219 19.276 232.219 C 20.785 230.19 19.024 228.364 17.766 228.465 C 16.76 228.567 16.005 229.277 15.502 230.291 C 15.251 230.291 15.251 230.291 14.999 230.291 C 14.999 230.291 14.748 230.291 14.748 230.291 C 14.748 229.175 14.999 228.465 14.748 228.465 C 14.496 228.465 13.993 229.074 13.49 230.19 C 12.232 229.074 10.22 228.465 9.465 228.668 C 8.207 228.973 8.962 229.987 9.213 231.407 C 8.459 231.306 7.704 231.306 7.201 231.306 C 7.453 231.001 7.453 230.697 7.453 230.291 C 7.453 228.973 6.446 227.958 4.937 227.958 C 3.428 227.958 2.421 228.973 2.421 230.291 C 2.421 230.9 2.673 231.407 2.925 231.813 C 2.421 231.711 1.918 231.711 1.415 231.61 L 1.415 231.103 L 1.415 230.798 L 1.415 230.697 L 1.415 230.596 C -0.346 230.494 4.434 230.697 -0.346 230.494 C -0.346 230.494 -0.346 230.494 -0.346 230.393 L -0.597 229.277 L -0.597 229.175 L -0.597 229.074 L -0.597 229.074 C -2.861 229.48 2.17 229.784 -3.113 229.48 L -3.113 345.525 L 1003.113 345.525 Z " fill="rgb(25,42,46)"/></g></svg>