<?xml version="1.0" standalone="no"?><!-- Generator: Gravit.io --><svg xmlns="http://www.w3.org/2000/svg" xmlns:xlink="http://www.w3.org/1999/xlink" style="isolation:isolate" viewBox="0 0 1000 344" width="1000" height="344"><defs><clipPath id="_clipPath_wUBDu0Jknw8bWn6cBRtPgWM4vi2heCNj"><rect width="1000" height="344"/></clipPath></defs><g clip-path="url(#_clipPath_wUBDu0Jknw8bWn6cBRtPgWM4vi2heCNj)"><path d=" M 1001.33 154.138 C 1001.33 154.036 1001.581 153.831 1001.581 153.627 C 1001.581 153.115 1001.33 152.808 1000.828 152.808 C 1000.576 152.808 1000.325 153.013 1000.074 153.32 C 999.823 153.32 999.823 153.32 999.572 153.32 C 999.572 153.32 999.572 153.32 999.572 153.32 C 999.572 153.32 999.572 153.217 999.572 153.217 C 999.572 153.217 999.572 153.217 999.572 153.217 C 999.823 153.217 999.823 153.115 1000.074 152.91 C 1000.074 152.706 1000.074 152.501 999.823 152.501 C 999.572 152.501 999.321 152.603 999.321 152.808 C 999.321 152.808 999.321 152.91 999.321 152.91 C 999.321 152.91 999.321 152.91 999.069 152.91 C 998.818 152.91 998.818 153.013 998.818 153.115 C 998.567 153.115 998.316 153.217 998.316 153.32 C 998.316 153.217 998.065 153.217 997.814 153.217 C 997.814 153.217 997.814 153.217 997.814 153.217 C 997.814 153.217 997.814 153.217 997.814 153.217 C 997.562 153.217 997.562 153.32 997.562 153.422 C 997.562 153.524 997.562 153.524 997.562 153.627 C 997.562 153.627 997.562 153.627 997.562 153.627 C 997.562 153.627 997.562 153.627 997.311 153.627 C 997.311 153.627 997.311 153.627 997.311 153.524 C 997.311 153.32 997.06 153.217 996.809 153.217 C 996.558 153.217 996.558 153.422 996.558 153.627 C 996.558 153.729 996.809 153.729 996.809 153.729 C 996.809 153.831 996.809 153.831 996.809 153.934 C 996.809 153.934 996.809 153.934 996.558 153.934 C 996.558 153.831 996.558 153.729 996.307 153.729 C 996.307 153.524 996.307 153.32 996.055 153.217 C 995.804 153.217 995.553 153.422 995.553 153.729 C 995.553 153.729 995.553 153.729 995.302 153.729 C 995.051 153.729 994.8 153.831 995.051 154.036 C 995.051 154.036 995.051 154.036 995.051 154.138 C 995.051 154.138 995.051 154.138 995.051 154.138 C 995.051 154.036 995.051 154.036 994.8 154.036 C 994.8 153.934 994.548 153.831 994.548 153.831 C 994.297 153.831 994.046 153.934 994.297 154.138 C 994.297 154.138 994.548 154.241 994.548 154.241 C 994.548 154.241 994.297 154.241 994.297 154.241 C 994.297 154.241 994.297 154.241 994.297 154.241 C 994.297 154.138 994.046 154.036 993.795 154.036 C 993.544 154.036 993.293 154.138 993.544 154.343 C 993.544 154.343 993.544 154.343 993.544 154.343 C 993.293 154.343 993.041 154.445 992.79 154.445 C 992.79 154.343 992.539 154.241 992.288 154.241 C 992.288 154.241 992.037 154.241 992.037 154.343 C 992.037 154.343 992.037 154.241 991.786 154.241 C 991.534 154.241 991.534 154.343 991.283 154.548 C 991.283 154.548 991.032 154.548 991.032 154.445 C 991.032 154.445 991.032 154.445 990.781 154.343 C 990.781 154.343 990.53 154.241 990.027 154.138 C 989.525 154.138 989.776 154.138 989.525 153.934 C 989.023 153.831 988.772 153.831 988.772 153.831 C 988.772 153.627 988.269 153.422 987.767 153.524 C 987.767 153.524 987.767 153.524 987.767 153.524 C 987.767 153.524 987.767 153.524 987.767 153.524 C 987.767 153.524 987.767 153.524 987.767 153.524 C 987.516 153.627 987.265 153.729 988.018 153.729 C 988.018 153.729 988.018 153.831 988.018 153.831 C 987.767 153.831 987.516 153.831 987.265 153.729 C 987.265 153.729 987.516 153.729 987.516 153.524 C 987.516 153.32 987.516 153.115 987.265 153.115 C 987.013 153.115 987.013 153.217 986.762 153.32 C 986.762 153.32 986.511 153.32 986.511 153.422 C 986.511 153.217 986.26 153.013 986.26 153.013 C 986.009 153.013 986.009 153.217 986.009 153.524 C 986.009 153.524 986.009 153.627 986.009 153.627 C 986.009 153.627 986.009 153.627 986.009 153.627 C 986.009 153.524 986.009 153.524 986.009 153.422 C 986.009 153.115 985.758 152.91 985.506 152.91 C 985.255 152.91 985.255 153.217 985.255 153.422 C 985.255 153.524 985.255 153.524 985.255 153.627 C 985.004 153.627 984.502 153.627 984.251 153.729 C 984.251 153.729 983.999 153.729 983.748 153.729 C 983.748 153.729 983.748 153.729 983.748 153.729 C 983.748 153.729 983.497 153.729 983.497 153.729 C 983.497 153.729 983.497 153.729 983.497 153.831 C 983.497 153.729 983.497 153.729 983.246 153.729 C 982.995 153.729 982.744 153.831 982.744 154.138 C 982.744 154.138 982.744 154.138 982.744 154.138 C 982.744 154.138 982.744 154.138 982.744 154.036 C 982.744 153.831 982.492 153.627 982.241 153.627 C 981.99 153.627 981.99 153.831 981.99 154.138 C 981.99 154.138 981.99 154.138 981.99 154.138 C 981.739 154.138 981.739 154.138 981.488 154.138 C 981.488 154.036 981.488 154.036 981.488 154.036 C 981.488 153.934 981.237 153.934 980.985 153.934 C 980.985 153.729 980.985 153.524 980.985 153.524 C 980.734 153.524 980.483 153.729 980.232 154.036 C 980.232 154.036 980.232 154.036 980.232 154.036 C 980.232 153.831 979.981 153.524 979.981 153.524 C 979.981 153.524 979.478 153.729 979.73 153.934 C 979.478 153.934 979.478 153.934 979.227 153.934 C 979.227 153.729 978.976 153.627 978.976 153.524 C 978.725 153.524 978.725 153.627 978.474 153.831 C 978.223 153.831 977.971 153.831 977.72 153.831 C 977.72 153.729 977.469 153.729 977.469 153.729 C 977.469 153.729 977.218 153.831 977.218 153.831 C 977.218 153.831 976.967 153.831 976.967 153.831 C 976.967 153.627 976.716 153.524 976.464 153.524 C 976.213 153.524 976.213 153.627 976.213 153.831 C 976.213 153.831 975.962 153.831 975.962 153.831 C 975.962 153.831 975.962 153.831 975.962 153.831 C 975.711 153.831 975.711 153.729 975.46 153.831 C 975.46 153.831 975.46 153.831 975.46 153.831 C 975.209 153.831 974.706 153.831 974.455 153.831 C 974.455 153.831 974.204 153.729 974.204 153.729 C 974.204 153.729 973.953 153.729 973.953 153.831 C 973.953 153.831 973.953 153.831 973.702 153.831 C 973.702 153.831 973.702 153.729 973.953 153.627 C 973.953 153.422 973.953 153.32 973.702 153.32 C 973.45 153.32 973.199 153.422 973.199 153.627 C 973.199 153.729 973.199 153.831 973.199 153.831 C 972.697 153.831 971.943 153.934 971.441 153.934 C 971.441 153.831 971.19 153.729 971.19 153.729 C 970.939 153.729 970.939 153.831 970.939 154.036 C 970.939 154.036 970.939 154.036 970.939 154.036 C 970.939 153.934 970.939 153.934 970.688 153.934 C 970.688 153.934 970.688 153.934 970.436 153.934 C 970.436 153.934 970.436 153.831 970.185 153.831 C 969.934 153.831 969.683 153.934 969.683 154.138 C 969.683 154.138 969.683 154.138 969.683 154.138 C 969.683 153.934 969.683 153.831 969.432 153.831 C 969.432 153.831 969.181 153.831 969.181 154.036 C 969.181 154.036 969.181 153.934 968.929 153.934 C 968.929 153.934 968.678 153.934 968.678 154.036 C 968.678 153.934 968.678 153.934 968.427 153.934 C 968.176 153.934 967.925 154.138 967.674 154.343 C 967.674 154.343 967.674 154.445 967.674 154.445 C 967.674 154.445 967.674 154.445 967.674 154.445 C 967.674 154.445 967.674 154.343 967.674 154.343 C 967.674 154.036 967.422 153.831 967.171 153.831 C 966.92 153.831 966.92 154.036 966.92 154.343 C 966.92 154.445 966.92 154.445 966.92 154.548 C 966.92 154.548 966.92 154.548 966.669 154.548 C 966.669 154.548 966.669 154.445 966.669 154.343 C 966.669 154.138 966.669 153.831 966.418 153.831 C 966.167 153.831 965.915 153.934 965.915 154.241 C 965.664 154.241 965.664 154.343 965.664 154.445 C 965.664 154.548 965.664 154.548 965.664 154.65 C 965.664 154.65 965.664 154.65 965.413 154.65 C 965.413 154.65 965.413 154.65 965.413 154.65 C 965.413 154.445 965.162 154.343 965.162 154.343 C 965.162 154.343 965.162 154.343 965.162 154.343 C 965.162 154.343 965.162 154.241 964.911 154.241 C 964.911 154.241 964.66 154.343 964.66 154.445 C 964.66 154.445 964.66 154.445 964.66 154.445 C 964.66 154.445 964.66 154.445 964.408 154.445 C 964.408 154.445 964.408 154.343 964.157 154.343 C 963.906 154.343 963.906 154.445 963.655 154.65 C 963.655 154.65 963.655 154.65 963.655 154.65 C 963.655 154.548 963.655 154.548 963.404 154.445 C 963.404 154.445 963.153 154.445 963.153 154.548 C 963.153 154.445 963.153 154.343 962.901 154.343 C 962.901 154.343 962.65 154.343 962.399 154.445 C 962.148 154.445 961.897 154.548 961.897 154.752 C 961.897 154.752 961.897 154.752 961.897 154.752 C 961.646 154.65 961.394 154.548 961.394 154.548 C 961.394 154.548 961.394 154.65 961.394 154.65 C 961.394 154.65 961.394 154.65 961.394 154.65 C 961.394 154.65 961.394 154.65 961.394 154.65 C 961.394 154.548 961.394 154.343 961.143 154.343 C 960.892 154.343 960.892 154.343 960.892 154.548 C 960.892 154.548 960.892 154.445 960.641 154.445 C 960.641 154.445 960.39 154.445 960.39 154.548 C 960.39 154.445 960.139 154.445 960.139 154.445 C 959.887 154.445 959.887 154.548 959.887 154.548 C 959.887 154.445 959.636 154.445 959.636 154.445 C 959.385 154.445 959.385 154.548 959.134 154.752 C 959.134 154.752 958.883 154.752 958.883 154.752 C 958.883 154.752 958.883 154.752 958.883 154.752 C 958.883 154.65 958.883 154.65 958.632 154.65 C 958.632 154.65 958.38 154.65 958.38 154.65 C 958.38 154.548 958.129 154.445 958.129 154.445 C 957.878 154.445 957.878 154.548 957.878 154.65 C 957.878 154.445 957.627 154.343 957.627 154.343 C 957.376 154.343 957.376 154.548 957.376 154.752 C 957.376 154.752 957.376 154.752 957.125 154.752 C 957.125 154.752 956.873 154.752 956.873 154.855 C 956.873 154.65 956.622 154.445 956.622 154.445 C 956.622 154.445 956.371 154.445 956.371 154.548 C 956.371 154.548 956.371 154.445 956.12 154.445 C 955.869 154.445 955.869 154.548 955.869 154.752 C 955.869 154.65 955.618 154.548 955.618 154.548 C 955.366 154.548 955.366 154.65 955.366 154.855 C 955.366 154.855 955.366 154.855 955.366 154.957 C 955.115 154.957 954.613 154.957 954.362 154.957 C 954.362 154.65 954.362 154.445 954.111 154.445 C 953.859 154.445 953.608 154.65 953.608 154.957 C 953.608 154.957 953.608 154.957 953.608 154.957 C 953.608 154.957 953.608 154.957 953.608 154.957 C 953.608 154.752 953.357 154.548 953.357 154.548 C 953.106 154.548 953.106 154.752 953.106 154.957 C 953.106 154.957 953.106 154.957 953.106 154.957 C 953.106 154.957 952.855 154.957 952.855 154.957 C 952.855 154.752 952.604 154.548 952.604 154.548 C 952.352 154.548 952.352 154.65 952.352 154.855 C 952.352 154.855 952.101 154.752 952.101 154.752 C 952.101 154.752 952.101 154.752 952.101 154.752 C 952.101 154.65 951.85 154.548 951.85 154.548 C 951.599 154.548 951.599 154.65 951.348 154.752 C 951.348 154.65 951.096 154.548 951.096 154.548 C 951.096 154.548 950.845 154.548 950.845 154.65 C 950.845 154.65 950.845 154.65 950.845 154.65 C 950.845 154.65 950.594 154.752 950.594 154.855 C 950.594 154.855 950.594 154.855 950.594 154.855 C 950.343 154.855 950.343 154.957 950.343 155.059 C 950.343 155.059 950.092 155.059 950.092 155.059 C 949.841 154.957 949.841 154.855 949.589 154.855 C 949.589 154.855 949.338 154.957 949.338 154.957 C 949.087 154.855 949.087 154.855 948.836 154.855 C 948.836 154.855 948.585 154.855 948.585 154.957 C 948.585 154.855 948.334 154.752 948.334 154.752 C 948.082 154.752 948.082 154.855 948.082 154.957 C 948.082 155.059 948.082 155.059 948.082 155.161 C 947.831 155.161 947.831 155.161 947.58 155.161 C 947.58 154.957 947.58 154.752 947.329 154.752 C 947.329 154.752 947.329 154.752 947.078 154.752 C 947.078 154.65 946.827 154.548 946.827 154.65 C 946.827 154.548 946.575 154.855 946.575 155.161 C 946.324 155.161 946.073 155.161 945.822 155.161 C 945.822 155.161 945.822 155.059 945.571 155.059 C 945.571 154.855 945.32 154.752 945.32 154.752 C 945.068 154.752 945.068 154.855 945.068 155.059 C 945.068 154.957 944.817 154.957 944.817 154.957 C 944.817 154.957 944.566 155.059 944.566 155.161 C 944.566 155.161 944.315 155.161 944.315 155.161 C 944.315 155.161 944.315 155.059 944.064 155.059 C 944.064 155.059 943.813 155.059 943.813 155.161 L 943.813 155.161 C 943.561 154.957 943.31 154.752 943.31 154.752 C 943.059 154.752 943.059 154.957 943.059 155.161 C 942.808 155.161 942.557 155.161 942.306 155.161 C 942.306 154.957 942.054 154.752 942.054 154.752 C 942.054 154.752 941.803 154.855 941.803 154.855 C 941.803 154.752 941.552 154.65 941.552 154.65 C 941.301 154.65 941.301 154.855 941.301 155.161 C 941.301 155.161 941.301 155.161 941.301 155.161 C 941.301 154.752 941.05 154.548 940.799 154.548 C 940.547 154.548 940.547 154.855 940.547 155.161 C 940.547 155.161 940.547 155.161 940.547 155.161 C 940.547 154.957 940.296 154.752 940.045 154.752 C 939.794 154.752 939.794 154.957 939.794 155.161 C 939.794 155.161 939.794 155.161 939.794 155.161 C 939.794 154.855 939.543 154.65 939.292 154.65 C 939.292 154.65 939.292 154.65 939.292 154.65 C 939.292 154.343 939.292 154.036 939.04 154.036 C 938.789 154.036 938.538 154.343 938.538 154.855 C 938.538 154.957 938.538 154.957 938.538 155.059 C 938.538 155.059 938.538 155.059 938.538 155.059 C 938.538 154.957 938.538 154.855 938.287 154.855 C 938.287 154.855 938.036 154.957 938.036 155.059 C 937.785 154.855 937.785 154.752 937.533 154.752 C 937.533 154.752 937.533 154.752 937.533 154.752 C 937.533 154.65 937.282 154.548 937.282 154.548 C 937.031 154.548 937.031 154.752 937.031 155.059 C 937.031 154.65 936.78 154.343 936.529 154.445 C 936.278 154.445 936.278 154.65 936.278 155.059 C 936.278 155.161 936.278 155.264 936.278 155.366 C 936.278 155.366 936.026 155.366 936.026 155.468 C 935.775 155.264 935.775 155.059 935.524 155.059 C 935.273 155.059 935.273 155.366 935.273 155.673 C 935.273 155.673 935.273 155.673 935.273 155.673 C 935.273 155.264 935.022 154.957 934.771 155.059 C 934.771 155.059 934.519 155.161 934.519 155.264 C 934.519 155.264 934.519 155.161 934.268 155.161 C 934.017 155.161 934.017 155.571 934.017 155.98 C 934.017 155.98 934.017 155.98 934.017 155.98 C 934.017 155.98 934.017 155.98 933.766 156.082 C 933.766 155.98 933.766 155.878 933.766 155.775 C 933.766 155.571 933.766 155.366 933.515 155.366 C 933.515 155.264 933.264 155.161 933.264 155.161 C 933.012 155.161 933.012 155.366 933.012 155.775 C 933.012 155.878 933.012 155.98 933.012 156.082 C 933.012 156.185 933.012 156.287 933.012 156.492 C 932.761 156.594 932.761 156.594 932.51 156.696 C 932.51 156.696 932.51 156.696 932.51 156.696 C 932.51 156.594 932.51 156.594 932.51 156.492 C 932.51 156.492 932.51 156.389 932.51 156.287 C 932.51 155.98 932.761 155.775 932.51 155.673 C 932.51 155.673 932.008 155.775 932.008 155.98 C 932.008 155.98 932.008 155.878 931.757 155.878 C 931.757 155.878 931.505 155.98 931.505 156.082 C 931.505 156.082 931.505 156.082 931.505 156.082 C 931.505 156.082 931.254 156.185 931.003 156.287 C 931.003 156.185 931.003 156.082 930.752 156.082 C 930.501 156.082 930.501 156.185 930.25 156.287 C 929.998 156.287 929.496 156.492 929.245 156.901 C 929.245 156.901 929.245 156.901 929.245 156.901 C 929.245 156.799 928.994 156.696 928.994 156.696 C 928.994 156.696 928.743 156.799 928.743 156.901 C 928.743 156.901 928.743 157.003 928.743 157.003 C 928.743 156.901 928.743 156.901 928.743 156.901 C 928.491 156.901 928.24 157.106 928.24 157.31 C 928.24 157.208 927.989 157.003 927.989 157.003 C 927.738 157.003 927.487 157.208 927.487 157.515 C 927.487 157.617 927.487 157.617 927.487 157.72 C 927.487 157.822 927.236 157.822 927.236 157.924 C 927.236 157.822 927.236 157.72 927.236 157.617 C 927.236 157.31 927.236 157.003 926.984 157.003 C 926.984 157.003 926.733 157.106 926.733 157.208 C 926.482 157.208 926.231 157.413 926.231 157.72 C 926.231 157.617 926.231 157.515 926.231 157.515 C 925.98 157.515 925.98 157.617 925.729 157.924 C 925.729 157.924 925.729 157.924 925.729 157.924 C 925.729 157.924 925.729 157.924 925.729 157.924 C 925.729 157.72 925.729 157.515 925.729 157.515 C 925.729 157.515 925.477 157.515 925.477 157.617 C 925.477 157.617 925.477 157.515 925.226 157.515 C 925.226 157.515 924.975 157.617 924.975 157.72 C 924.975 157.617 924.724 157.515 924.724 157.515 C 924.473 157.515 924.473 157.617 924.222 157.822 C 924.222 157.72 924.222 157.72 923.97 157.72 C 923.719 157.72 923.719 157.822 923.468 158.027 C 923.468 158.027 923.468 158.027 923.468 158.027 C 923.217 158.027 922.966 158.231 922.966 158.436 C 922.966 158.436 922.966 158.538 922.966 158.538 C 922.966 158.538 922.966 158.538 922.966 158.641 C 922.966 158.641 922.966 158.641 922.966 158.641 C 923.217 158.334 923.217 158.027 922.966 158.027 C 922.715 158.027 922.463 158.231 922.212 158.641 C 922.212 158.743 922.212 158.845 922.212 158.845 C 922.212 158.845 922.212 158.845 922.212 158.845 C 922.212 158.845 922.212 158.845 922.212 158.743 C 922.212 158.436 921.961 158.231 921.961 158.231 C 921.961 158.231 921.71 158.231 921.71 158.334 C 921.71 158.334 921.71 158.231 921.459 158.231 C 921.208 158.231 920.956 158.436 920.956 158.743 C 920.956 158.743 920.956 158.845 920.956 158.845 C 920.956 158.845 920.705 158.845 920.705 158.845 C 920.705 158.538 920.705 158.334 920.454 158.231 C 920.203 158.231 919.952 158.538 919.952 158.948 C 919.952 158.948 919.952 158.948 919.701 158.948 C 919.701 158.845 919.701 158.743 919.449 158.743 C 919.198 158.743 918.947 158.845 918.947 159.05 C 918.947 159.05 918.947 159.05 918.947 159.05 C 918.947 158.948 918.696 158.845 918.696 158.845 C 918.696 158.845 918.445 158.845 918.445 158.948 C 918.445 158.845 918.445 158.845 918.194 158.845 C 918.194 158.845 917.942 158.948 917.691 159.05 C 917.691 159.05 917.691 158.948 917.691 158.948 C 917.691 158.948 917.189 159.05 916.938 159.255 C 916.938 159.255 916.938 159.152 916.938 159.152 C 916.687 159.152 916.435 159.255 916.184 159.561 C 916.184 159.561 916.184 159.459 915.933 159.459 C 915.682 159.459 915.682 159.561 915.431 159.664 C 915.431 159.664 915.431 159.664 915.431 159.664 C 915.682 159.357 915.682 159.05 915.431 158.948 C 915.18 158.948 914.928 159.152 914.677 159.459 C 914.426 159.459 914.175 159.561 913.924 159.868 C 913.924 159.868 913.924 159.971 913.924 159.971 C 913.924 159.868 913.924 159.766 913.673 159.664 C 913.421 159.664 913.17 159.766 913.17 159.971 C 913.17 160.073 913.17 160.175 913.17 160.175 C 913.17 160.175 912.919 160.175 912.919 160.175 C 912.919 160.175 912.668 160.175 912.668 160.175 C 912.668 160.073 912.668 160.073 912.668 159.971 C 913.17 159.664 913.421 159.357 913.17 159.255 C 913.17 159.152 912.668 159.459 912.166 159.766 C 912.166 159.766 912.166 159.766 912.166 159.766 C 911.914 159.766 911.914 159.868 911.914 160.175 C 911.663 160.175 911.663 160.175 911.412 160.175 C 911.412 160.175 911.412 160.073 911.412 159.971 C 911.412 159.766 911.412 159.664 911.161 159.664 C 910.91 159.664 910.659 159.766 910.659 159.971 C 910.659 159.971 910.659 160.073 910.659 160.073 C 910.659 160.073 910.407 160.073 910.407 160.073 C 910.407 159.766 910.407 159.561 910.407 159.561 C 910.156 159.561 909.905 159.766 909.905 159.971 C 909.905 159.971 909.905 159.971 909.905 159.868 C 909.905 159.664 909.654 159.459 909.403 159.459 C 909.152 159.459 909.152 159.664 909.152 159.868 C 909.152 159.868 909.152 159.971 909.152 159.971 C 909.152 159.971 909.152 159.971 909.152 159.971 C 909.152 159.868 909.152 159.766 908.9 159.766 C 908.9 159.766 908.9 159.766 908.9 159.766 C 908.649 159.561 908.398 159.357 908.398 159.357 C 908.147 159.357 908.147 159.664 908.398 159.868 C 908.398 159.868 908.398 159.971 908.398 159.971 C 908.147 159.971 907.645 159.971 907.393 159.971 C 907.393 159.664 907.393 159.357 907.142 159.357 C 906.891 159.357 906.891 159.561 906.64 159.868 C 906.64 159.868 906.389 159.766 906.389 159.766 C 906.389 159.766 906.389 159.766 906.138 159.766 C 906.138 159.766 906.138 159.664 906.138 159.664 C 906.138 159.459 905.886 159.357 905.635 159.357 C 905.384 159.357 905.384 159.561 905.384 159.766 C 905.384 159.868 905.384 159.868 905.384 159.971 C 905.133 159.971 904.882 159.971 904.631 159.971 C 904.379 159.766 904.128 159.561 904.128 159.561 C 904.128 159.459 904.128 159.357 903.877 159.357 C 903.626 159.357 903.375 159.561 903.375 159.868 C 903.375 159.766 903.124 159.766 903.124 159.766 C 902.872 159.766 902.872 159.868 902.872 159.868 C 902.872 159.868 902.872 159.868 902.872 159.868 C 902.621 159.868 902.621 159.868 902.37 159.868 C 902.621 159.459 902.37 159.05 902.37 159.05 C 902.119 159.05 901.868 159.357 901.617 159.868 C 901.617 159.868 901.365 159.868 901.365 159.868 C 901.365 159.868 901.365 159.766 901.365 159.766 C 901.365 159.459 901.365 159.152 901.114 159.152 C 901.114 159.05 901.114 159.05 900.863 159.05 C 900.612 159.05 900.361 159.357 900.361 159.664 C 900.361 159.766 900.361 159.766 900.361 159.868 C 900.361 159.868 900.11 159.868 900.11 159.868 C 900.11 159.664 900.11 159.459 899.858 159.459 C 899.858 159.459 899.858 159.459 899.858 159.459 C 899.858 159.459 899.858 159.357 899.858 159.357 C 899.607 159.357 899.356 159.561 899.105 159.868 C 899.105 159.868 898.854 159.868 898.854 159.868 C 898.854 159.664 898.854 159.459 898.603 159.459 C 898.603 159.459 898.603 159.459 898.603 159.459 C 898.603 159.357 898.351 159.255 898.351 159.255 C 898.351 159.255 898.1 159.255 898.1 159.357 C 898.1 159.255 898.1 159.255 897.849 159.152 C 897.849 159.152 897.598 159.255 897.598 159.357 C 897.598 159.255 897.598 159.152 897.598 159.152 C 897.598 159.152 897.347 159.152 897.347 159.152 C 897.347 159.152 897.347 159.152 897.096 159.152 C 897.096 159.152 896.844 159.255 896.844 159.357 C 896.844 159.459 896.593 159.561 896.593 159.664 C 896.593 159.664 896.593 159.664 896.593 159.766 C 896.593 159.766 896.593 159.766 896.593 159.766 C 896.593 159.561 896.342 159.357 896.342 159.357 C 896.342 159.357 896.091 159.459 896.091 159.459 C 895.84 159.357 895.84 159.255 895.589 159.255 C 895.337 159.255 895.337 159.459 895.589 159.664 C 895.589 159.664 895.589 159.664 895.589 159.664 C 895.589 159.664 895.337 159.664 895.337 159.766 C 895.337 159.459 895.337 159.255 895.337 159.255 C 895.337 159.255 895.086 159.357 895.086 159.459 C 895.086 159.357 895.086 159.255 894.835 159.255 C 894.835 159.255 894.584 159.357 894.584 159.459 C 894.584 159.357 894.584 159.255 894.333 159.255 C 894.082 159.255 893.83 159.561 893.83 159.971 L 893.83 159.971 C 893.83 159.664 893.579 159.357 893.328 159.357 C 893.077 159.357 893.077 159.664 893.077 159.971 L 892.826 159.971 C 893.077 159.664 893.077 159.459 892.826 159.357 C 892.575 159.357 892.323 159.561 892.072 159.868 C 892.072 159.868 892.072 159.868 892.072 159.868 C 892.072 159.868 891.821 159.868 891.821 159.971 C 891.57 159.971 891.57 159.971 891.319 159.971 C 891.319 159.868 891.319 159.868 891.068 159.868 C 891.068 159.868 890.816 159.868 890.816 159.971 C 890.816 159.971 890.565 159.971 890.565 159.971 C 890.565 159.664 890.565 159.459 890.565 159.357 C 890.314 159.357 890.063 159.561 890.063 159.971 C 890.063 159.971 890.063 159.971 889.812 159.971 C 889.812 159.868 889.812 159.664 889.561 159.664 C 889.309 159.664 889.309 159.766 889.058 159.971 L 889.058 159.971 C 889.058 159.766 889.058 159.561 888.807 159.561 C 888.807 159.561 888.556 159.561 888.556 159.664 C 888.556 159.664 888.556 159.664 888.556 159.664 C 888.305 159.664 888.305 159.766 888.305 159.868 C 888.305 159.971 888.305 159.971 888.556 159.971 C 888.556 159.971 888.556 159.971 888.556 159.971 L 888.054 159.971 C 888.305 159.561 888.556 159.152 888.305 159.152 C 888.054 159.152 887.802 159.255 887.551 159.561 C 887.551 159.561 887.551 159.561 887.551 159.561 C 887.551 159.561 887.3 159.664 887.3 159.766 C 887.3 159.664 887.3 159.561 887.3 159.561 C 887.3 159.561 887.049 159.664 886.798 159.766 C 886.798 159.766 886.798 159.766 886.798 159.766 C 886.798 159.766 886.546 159.868 886.295 159.971 C 886.295 159.766 886.044 159.664 886.044 159.664 C 886.044 159.664 885.793 159.766 885.793 159.868 C 885.793 159.664 885.793 159.459 885.542 159.459 C 885.291 159.459 885.039 159.766 885.039 160.073 C 885.039 160.073 885.039 160.073 885.039 160.073 C 885.039 160.073 885.039 160.073 884.788 160.073 C 884.788 159.971 884.788 159.766 884.788 159.766 C 884.788 159.766 884.788 159.766 884.788 159.766 C 884.788 159.561 884.788 159.357 884.537 159.357 C 884.286 159.357 884.035 159.459 884.035 159.664 C 884.035 159.561 884.035 159.459 883.784 159.459 C 883.532 159.459 883.281 159.664 883.281 159.868 C 883.281 159.664 883.281 159.459 883.03 159.459 C 883.03 159.459 882.779 159.561 882.779 159.664 C 882.779 159.459 882.779 159.255 882.528 159.255 C 882.528 159.255 882.277 159.357 882.277 159.459 C 882.277 159.459 882.277 159.459 882.277 159.459 C 882.277 159.459 882.277 159.459 882.277 159.459 C 882.277 159.357 882.277 159.357 882.277 159.357 C 882.025 159.357 881.774 159.459 881.523 159.766 C 881.523 159.664 881.523 159.561 881.272 159.459 C 881.272 159.459 881.021 159.459 881.021 159.561 C 881.021 159.561 881.021 159.459 881.021 159.459 C 881.021 159.459 880.77 159.459 880.77 159.561 C 880.77 159.357 880.77 159.255 880.518 159.255 C 880.518 159.255 880.518 159.255 880.267 159.255 C 880.267 158.948 880.267 158.743 880.267 158.743 C 880.016 158.743 879.765 159.05 879.514 159.357 C 879.514 159.357 879.514 159.357 879.263 159.357 C 879.263 159.05 879.263 158.845 879.011 158.845 C 879.011 158.845 878.76 158.845 878.76 158.948 C 878.76 158.845 878.76 158.845 878.509 158.845 C 878.509 158.845 878.509 158.845 878.509 158.845 C 878.509 158.743 878.509 158.743 878.258 158.743 C 878.258 158.743 878.007 158.845 877.756 159.05 C 877.504 159.05 877.504 159.255 877.504 159.459 C 877.504 159.459 877.504 159.459 877.504 159.459 C 877.504 159.152 877.504 158.845 877.253 158.845 C 877.002 158.845 877.002 159.05 876.751 159.357 C 876.751 159.357 876.751 159.357 876.751 159.459 C 876.751 159.459 876.5 159.459 876.5 159.459 C 876.5 159.255 876.5 159.152 876.249 159.152 C 876.249 159.152 875.997 159.255 875.997 159.357 C 875.997 159.357 875.746 159.357 875.746 159.357 C 875.746 159.357 875.746 159.357 875.746 159.357 C 875.746 159.357 875.746 159.357 875.746 159.357 C 875.746 159.357 875.746 159.357 875.746 159.357 C 875.746 159.05 875.746 158.743 875.495 158.743 C 875.495 158.743 875.244 158.845 875.244 158.948 C 875.244 158.743 875.244 158.538 874.993 158.538 C 874.742 158.538 874.742 158.743 874.49 159.152 C 874.49 159.152 874.49 159.255 874.239 159.255 C 874.239 159.05 874.239 158.948 873.988 158.948 C 873.988 158.948 873.737 159.05 873.737 159.152 C 873.737 159.152 873.737 159.152 873.737 159.152 C 873.486 159.152 873.235 159.459 873.235 159.971 C 873.235 159.971 873.235 159.971 873.235 159.971 C 873.235 159.971 872.983 160.073 872.983 160.175 C 872.983 160.073 872.983 160.073 872.732 160.073 C 872.481 160.073 872.481 160.278 872.481 160.482 C 872.23 160.585 871.979 160.687 871.728 160.789 C 871.728 160.789 871.728 160.789 871.728 160.789 C 871.728 160.38 871.728 160.073 871.476 159.971 C 871.225 159.971 870.974 160.278 870.974 160.687 C 870.974 160.789 870.974 160.892 870.974 161.096 C 870.974 161.096 870.974 161.096 870.974 161.096 C 870.974 161.096 870.974 161.096 870.974 160.994 C 870.974 160.482 870.974 159.971 870.723 159.971 C 870.472 159.971 870.472 160.175 870.221 160.482 C 870.221 160.38 870.221 160.38 869.969 160.38 C 869.718 160.38 869.718 160.585 869.467 160.892 C 869.467 160.482 869.467 160.278 869.216 160.278 C 868.965 160.278 868.965 160.482 868.714 160.892 C 868.714 160.892 868.714 160.789 868.714 160.789 C 868.462 160.789 868.211 161.199 868.211 161.813 C 868.211 161.608 868.211 161.403 867.96 161.403 C 867.709 161.403 867.709 161.608 867.458 161.813 C 867.458 161.813 867.207 161.915 867.207 162.017 C 867.207 162.017 867.207 162.017 867.207 162.017 C 867.207 162.017 867.207 162.017 866.955 162.12 C 866.955 161.915 866.955 161.813 866.704 161.813 C 866.453 161.813 866.202 162.12 865.951 162.631 C 865.951 162.734 865.951 162.836 865.951 163.041 C 865.7 163.041 865.7 163.143 865.448 163.143 C 865.448 162.938 865.448 162.836 865.7 162.631 C 865.951 162.12 866.202 161.71 865.951 161.608 C 865.7 161.608 865.197 162.017 864.946 162.631 C 864.946 162.734 864.946 162.734 864.946 162.836 C 864.946 162.734 864.946 162.631 864.695 162.631 C 864.444 162.631 864.193 162.836 864.193 163.143 C 864.193 163.143 864.193 163.143 864.193 163.143 C 864.193 163.143 863.941 163.143 863.941 163.245 C 863.941 163.143 863.941 163.143 863.69 163.143 C 863.439 163.143 863.439 163.348 863.188 163.655 C 863.188 163.552 862.937 163.45 862.937 163.45 C 862.686 163.45 862.686 163.655 862.434 163.962 C 862.434 163.757 862.434 163.552 862.183 163.552 C 862.183 163.552 861.932 163.655 861.932 163.757 C 861.932 163.757 861.932 163.757 861.932 163.757 C 861.681 163.757 861.681 163.962 861.43 164.166 C 861.43 164.166 861.43 164.166 861.179 164.064 C 861.179 164.064 860.927 164.064 860.927 164.064 C 860.927 164.064 860.927 164.064 860.927 164.064 C 860.676 164.064 860.676 164.166 860.425 164.473 C 860.425 164.473 860.425 164.473 860.174 164.575 C 860.174 164.268 859.923 163.962 859.923 163.962 C 859.672 163.962 859.42 164.268 859.42 164.78 C 859.42 164.78 859.42 164.78 859.169 164.78 C 859.169 164.473 858.918 164.268 858.918 164.268 C 858.918 164.268 858.667 164.473 858.667 164.678 C 858.667 164.575 858.667 164.575 858.416 164.575 C 858.165 164.575 857.913 164.78 857.913 165.087 C 857.913 165.087 857.913 165.087 857.913 165.189 C 857.913 165.189 857.662 165.087 857.662 165.087 C 857.411 165.087 857.16 165.189 857.16 165.189 C 857.16 165.189 857.16 165.292 857.16 165.292 C 856.909 165.394 856.658 165.394 856.406 165.496 C 856.406 165.496 856.406 165.394 856.406 165.394 C 856.406 165.394 856.406 165.394 856.406 165.394 C 856.658 165.394 856.909 165.189 856.909 165.087 C 856.909 164.882 856.909 164.78 856.658 164.678 C 856.406 164.678 856.155 164.78 856.155 164.985 C 856.155 164.985 856.155 165.087 856.155 165.087 C 856.155 165.087 856.155 165.087 856.155 165.087 C 855.904 165.087 855.904 165.189 855.653 165.394 C 855.653 165.394 855.653 165.394 855.402 165.394 C 855.402 165.189 855.402 164.985 855.151 164.882 C 855.151 164.882 854.899 164.882 854.899 164.985 C 854.899 164.985 854.899 164.985 854.899 164.985 C 854.899 164.985 854.899 164.985 854.648 164.985 C 854.648 164.78 854.648 164.678 854.397 164.678 C 854.146 164.678 854.146 164.882 853.895 165.087 C 853.895 164.882 853.644 164.78 853.644 164.78 C 853.392 164.78 853.141 165.087 853.141 165.496 C 853.141 165.701 853.141 165.906 853.392 166.11 C 853.141 166.11 853.141 166.213 852.89 166.213 C 852.639 165.599 852.89 165.189 852.639 165.087 C 852.639 165.087 852.639 165.087 852.388 165.189 C 852.388 165.087 852.388 165.087 852.137 165.087 C 851.885 165.087 851.885 165.496 851.885 166.008 C 851.885 166.11 851.885 166.315 851.885 166.417 C 851.885 166.417 851.885 166.417 851.885 166.417 C 851.885 166.315 851.885 166.213 851.885 166.008 C 851.885 165.496 851.885 165.087 851.634 165.087 C 851.634 165.087 851.634 165.189 851.383 165.189 C 851.132 165.189 851.132 165.394 851.132 165.701 C 851.132 165.599 850.881 165.496 850.881 165.496 C 850.881 165.496 850.63 165.496 850.63 165.599 C 850.63 165.496 850.63 165.496 850.378 165.496 C 850.127 165.496 850.127 165.599 849.876 165.803 C 849.876 165.701 849.625 165.599 849.625 165.599 C 849.374 165.599 849.374 165.701 849.374 165.906 C 849.374 165.599 849.123 165.496 849.123 165.496 C 849.123 165.496 848.871 165.701 848.871 165.906 C 848.871 165.906 848.871 165.906 848.871 165.906 C 848.62 165.906 848.369 166.11 848.369 166.417 C 848.369 166.417 848.369 166.52 848.118 166.52 C 848.118 166.417 848.118 166.417 848.118 166.417 C 847.867 166.417 847.867 166.52 847.616 166.724 C 847.616 166.827 847.364 166.929 847.364 167.134 C 847.364 167.134 847.113 167.236 847.113 167.338 C 847.113 167.134 847.113 167.031 846.862 167.031 C 846.611 167.031 846.611 167.236 846.36 167.543 C 846.36 167.441 846.36 167.338 846.109 167.338 C 846.109 167.338 845.857 167.441 845.857 167.543 C 845.857 167.441 845.857 167.338 845.857 167.236 C 845.857 166.929 845.857 166.724 845.606 166.724 C 845.606 166.724 845.355 166.827 845.355 166.929 C 845.355 166.929 845.355 166.929 845.355 166.929 C 845.355 166.929 845.104 167.031 845.104 167.134 C 845.104 166.929 845.104 166.827 844.853 166.827 C 844.602 166.827 844.35 167.134 844.099 167.645 C 844.099 167.645 844.099 167.645 844.099 167.645 C 844.099 167.645 844.099 167.748 843.848 167.748 C 843.848 167.748 843.848 167.748 843.597 167.645 C 843.346 167.645 843.346 167.748 843.346 167.85 C 843.346 167.85 843.346 167.85 843.346 167.85 C 843.346 167.85 843.095 167.85 843.095 167.952 C 843.095 167.952 843.095 167.952 843.095 167.952 C 843.095 167.952 842.843 167.952 842.843 168.055 C 842.843 167.85 842.843 167.748 842.592 167.748 C 842.341 167.748 842.09 168.055 842.09 168.362 C 842.09 168.362 841.839 168.464 841.839 168.566 C 841.839 168.566 841.839 168.566 841.839 168.566 C 841.839 168.566 841.839 168.566 841.839 168.566 C 841.839 168.362 841.839 168.259 841.588 168.259 C 841.588 168.259 841.336 168.362 841.336 168.464 C 841.336 168.464 841.336 168.464 841.336 168.464 C 841.085 168.464 841.085 168.668 840.834 168.873 C 840.834 168.873 840.834 168.873 840.834 168.873 C 840.583 168.873 840.583 168.975 840.583 169.078 C 840.583 168.975 840.332 168.975 840.332 168.975 C 840.332 168.975 840.081 168.975 840.081 169.078 C 840.081 169.078 839.829 169.18 839.829 169.282 C 839.829 169.18 839.829 169.18 839.578 169.18 C 839.578 169.18 839.578 169.18 839.327 169.18 C 839.327 169.078 839.327 169.078 839.076 169.078 C 839.076 169.078 838.825 169.18 838.574 169.282 C 838.574 169.282 838.574 169.18 838.322 169.18 C 838.071 169.18 837.82 169.487 837.82 169.794 C 837.82 169.999 837.82 170.101 837.82 170.203 C 837.82 170.203 837.82 170.203 837.569 170.203 C 837.569 170.203 837.569 170.101 837.569 170.101 C 837.569 169.794 837.569 169.487 837.318 169.487 C 837.067 169.487 837.067 169.692 836.815 169.896 C 836.815 169.896 836.815 169.896 836.815 169.896 C 836.815 169.896 836.815 169.896 836.564 169.896 C 836.564 169.794 836.313 169.692 836.313 169.692 C 836.062 169.692 836.062 169.999 836.062 170.203 C 836.062 170.408 836.062 170.51 836.062 170.613 C 836.062 170.613 835.811 170.715 835.811 170.715 C 835.811 170.715 835.811 170.715 835.811 170.715 C 835.811 170.408 835.811 170.203 835.56 170.203 C 835.56 170.203 835.308 170.306 835.308 170.408 C 835.308 170.306 835.308 170.203 835.057 170.203 C 834.806 170.203 834.555 170.408 834.555 170.613 C 834.555 170.613 834.555 170.613 834.555 170.613 C 834.304 170.613 834.304 170.817 834.304 171.022 C 834.304 171.124 834.304 171.124 834.304 171.227 C 834.304 171.227 834.053 171.329 834.053 171.329 C 834.053 171.227 834.053 171.124 834.053 170.92 C 834.304 170.408 834.304 169.999 834.053 169.999 C 834.053 169.999 833.801 169.999 833.801 170.203 C 833.801 169.999 833.801 169.999 833.801 169.999 C 833.55 169.999 833.299 170.408 833.048 171.124 C 833.048 171.227 833.048 171.227 833.048 171.329 C 833.048 171.329 833.048 171.329 833.048 171.329 C 833.048 171.022 833.048 170.817 832.797 170.817 C 832.797 170.817 832.546 170.92 832.546 171.022 C 832.546 170.92 832.546 170.92 832.294 170.92 C 832.043 170.92 831.792 171.227 831.792 171.636 C 831.792 171.636 831.792 171.738 831.792 171.738 C 831.792 171.738 831.792 171.738 831.792 171.738 C 831.792 171.738 831.792 171.636 831.541 171.636 C 831.541 171.534 831.541 171.431 831.29 171.329 C 831.29 171.329 831.29 171.329 831.29 171.329 C 831.29 171.329 831.29 171.227 831.29 171.227 C 831.039 171.227 830.787 171.431 830.536 171.841 C 830.536 171.738 830.536 171.636 830.285 171.636 C 830.285 171.636 830.034 171.738 830.034 171.738 C 830.034 171.738 830.034 171.636 830.034 171.636 C 830.034 171.636 829.783 171.636 829.783 171.738 C 829.783 171.636 829.783 171.636 829.532 171.636 C 829.28 171.636 829.029 171.841 828.778 172.25 C 828.527 172.25 828.276 172.455 828.276 172.762 L 828.276 172.762 C 828.276 172.455 828.025 172.25 828.025 172.25 C 827.773 172.25 827.522 172.557 827.522 172.966 C 827.522 172.966 827.522 173.069 827.522 173.069 C 827.522 173.069 827.522 173.069 827.522 173.069 C 827.522 172.966 827.522 172.864 827.271 172.864 C 827.271 172.864 827.02 172.966 826.769 173.069 C 826.769 172.966 826.769 172.966 826.518 172.966 C 826.266 172.966 826.015 173.171 826.015 173.478 C 826.015 173.478 826.015 173.478 826.015 173.478 C 826.015 173.273 826.015 173.171 826.015 173.069 C 825.764 173.069 825.513 173.273 825.262 173.58 C 825.262 173.58 825.262 173.682 825.011 173.682 C 825.011 173.58 825.011 173.478 824.759 173.478 C 824.508 173.478 824.257 173.887 824.006 174.399 C 824.006 174.399 824.006 174.501 824.006 174.501 C 824.006 174.501 824.006 174.501 823.755 174.603 C 823.755 174.603 823.755 174.603 823.755 174.501 C 823.755 174.194 823.755 173.887 823.504 173.887 C 823.504 173.887 823.504 173.887 823.504 173.887 C 823.504 173.785 823.504 173.682 823.252 173.682 C 823.001 173.682 822.75 173.887 822.75 174.092 C 822.75 174.092 822.75 174.092 822.75 174.092 C 822.75 174.092 822.499 174.194 822.248 174.399 C 822.248 174.399 822.248 174.399 822.248 174.399 C 821.996 174.399 821.996 174.501 821.745 174.706 C 821.745 174.706 821.745 174.706 821.745 174.706 C 821.745 174.501 821.745 174.399 821.745 174.296 C 821.494 174.296 821.243 174.501 820.992 174.808 C 820.992 174.808 820.992 174.808 820.992 174.808 C 820.741 174.808 820.489 175.013 820.489 175.217 C 820.489 175.217 820.489 175.217 820.489 175.217 C 820.238 175.217 820.238 175.422 819.987 175.627 C 819.987 175.524 819.987 175.524 819.736 175.524 C 819.485 175.524 819.485 175.627 819.234 175.831 C 819.234 175.831 819.234 175.831 819.234 175.831 C 819.234 175.831 818.982 175.934 818.731 176.036 C 818.731 176.036 818.731 176.036 818.731 176.036 C 818.731 176.036 818.731 176.036 818.731 176.036 C 818.731 175.934 818.731 175.831 818.48 175.831 C 818.229 175.831 817.978 176.036 817.978 176.343 C 817.978 176.241 817.978 176.241 817.727 176.241 C 817.475 176.241 817.224 176.445 817.224 176.752 C 817.224 176.752 817.224 176.855 817.224 176.855 C 817.224 176.855 817.224 176.855 817.224 176.855 C 817.224 176.855 816.973 176.855 816.973 176.957 C 816.973 176.957 816.973 176.855 816.722 176.855 C 816.722 176.855 816.471 176.855 816.471 176.957 C 816.471 176.957 816.471 176.957 816.471 176.957 C 816.22 176.957 815.968 177.264 815.717 177.673 C 815.717 177.673 815.717 177.673 815.717 177.673 C 815.717 177.673 815.717 177.673 815.717 177.673 C 815.466 177.673 815.215 177.878 815.215 178.185 C 815.215 178.287 815.215 178.287 815.215 178.389 C 815.215 178.389 815.215 178.287 814.964 178.287 C 814.713 178.287 814.713 178.492 814.461 178.696 C 814.461 178.389 814.461 178.185 814.21 178.185 C 813.959 178.185 813.959 178.389 813.708 178.594 C 813.708 178.594 813.708 178.594 813.708 178.594 C 813.457 178.594 813.206 178.799 813.206 179.003 C 813.206 178.901 813.206 178.799 812.954 178.799 C 812.954 178.799 812.703 178.799 812.703 178.901 C 812.703 178.696 812.452 178.594 812.201 178.594 C 812.201 178.594 811.95 178.696 811.95 178.901 C 811.95 178.696 811.95 178.594 811.699 178.594 C 811.699 178.594 811.447 178.696 811.447 178.799 C 811.447 178.696 811.196 178.594 811.196 178.594 C 811.196 178.594 811.196 178.594 811.196 178.594 C 811.196 178.492 810.945 178.492 810.945 178.492 C 810.945 178.492 810.694 178.594 810.694 178.799 C 810.694 178.594 810.694 178.492 810.443 178.492 C 810.443 178.492 810.443 178.492 810.192 178.492 C 810.192 178.389 809.94 178.287 809.94 178.287 C 809.689 178.287 809.689 178.492 809.438 178.696 C 809.438 178.594 809.438 178.594 809.187 178.594 C 809.187 178.594 809.187 178.594 808.936 178.594 C 808.936 178.594 808.936 178.594 808.936 178.492 C 808.936 178.287 808.936 178.082 808.936 177.98 C 808.685 177.98 808.433 178.287 808.182 178.696 C 808.182 178.696 808.182 178.594 808.182 178.594 C 808.182 178.185 808.182 177.878 807.931 177.878 C 807.931 177.878 807.68 177.98 807.68 178.185 C 807.68 177.878 807.429 177.673 807.429 177.673 C 807.178 177.673 807.178 177.878 807.178 178.185 C 807.178 178.082 807.178 178.082 806.926 178.082 C 806.675 178.082 806.675 178.185 806.424 178.492 C 806.424 178.185 806.173 177.878 806.173 177.878 C 806.173 177.878 805.922 177.98 805.922 178.082 C 805.922 178.082 805.922 178.082 805.671 178.082 C 805.671 178.082 805.671 178.082 805.671 178.082 C 805.671 178.082 805.671 178.082 805.671 178.082 C 805.671 178.082 805.671 178.082 805.671 178.082 C 805.671 177.98 805.671 177.878 805.419 177.878 C 805.419 177.878 805.168 177.98 805.168 178.082 C 805.168 178.082 805.168 177.98 804.917 177.98 C 804.917 177.98 804.666 178.082 804.666 178.185 C 804.666 178.185 804.666 178.082 804.666 178.082 C 804.666 177.775 804.666 177.571 804.415 177.571 C 804.164 177.571 804.164 177.775 803.912 178.082 C 803.912 178.185 803.661 178.287 803.661 178.389 C 803.661 178.287 803.41 178.185 803.159 178.185 C 803.159 178.185 802.908 178.185 802.908 178.287 C 802.908 178.185 802.908 178.185 802.657 178.185 C 802.657 178.185 802.657 178.185 802.657 178.185 C 802.657 177.98 802.405 177.878 802.405 177.878 C 802.154 177.878 802.154 177.98 801.903 178.185 C 801.903 178.185 801.903 178.185 801.652 178.185 C 801.652 178.185 801.401 178.185 801.401 178.287 C 801.401 178.287 801.401 178.287 801.15 178.287 C 801.15 178.287 800.898 178.287 800.898 178.389 C 800.898 178.287 800.647 178.185 800.647 178.185 C 800.647 178.185 800.396 178.287 800.396 178.389 C 800.396 178.389 800.396 178.287 800.145 178.287 C 800.145 178.287 800.145 178.287 800.145 178.287 C 800.145 178.082 800.145 177.98 799.894 177.98 C 799.643 177.98 799.391 178.287 799.391 178.696 C 799.391 178.287 799.391 177.98 799.14 177.98 C 798.889 177.98 798.889 178.185 798.638 178.389 C 798.638 178.389 798.638 178.287 798.387 178.287 C 798.136 178.287 798.136 178.389 797.884 178.594 C 797.884 178.389 797.633 178.287 797.633 178.287 C 797.382 178.287 797.382 178.389 797.382 178.594 C 797.382 178.594 797.382 178.594 797.131 178.594 C 797.131 178.594 796.88 178.696 796.88 178.696 C 796.88 178.696 796.88 178.696 796.629 178.696 C 796.629 178.696 796.377 178.696 796.377 178.799 C 796.377 178.594 796.377 178.492 796.126 178.492 C 795.875 178.492 795.875 178.594 795.624 178.799 C 795.624 178.696 795.624 178.696 795.373 178.696 C 795.373 178.696 795.122 178.696 795.122 178.799 C 795.122 178.696 795.122 178.696 794.87 178.696 C 794.619 178.696 794.368 179.003 794.368 179.31 C 794.368 179.31 794.368 179.413 794.368 179.413 C 794.368 179.413 794.117 179.413 794.117 179.413 C 794.117 179.106 794.117 178.901 794.117 178.901 C 793.866 178.901 793.615 179.208 793.363 179.617 C 793.363 179.617 793.363 179.617 793.363 179.617 C 793.363 179.617 793.363 179.617 793.363 179.617 C 793.363 179.617 793.363 179.617 793.363 179.515 C 793.363 179.208 793.615 178.901 793.363 178.799 C 793.112 178.799 792.861 179.003 792.861 179.208 C 792.861 179.208 792.861 179.208 792.861 179.208 C 792.861 179.106 792.861 179.106 792.61 179.106 C 792.61 179.106 792.61 179.106 792.61 179.106 C 792.61 179.003 792.61 178.901 792.359 178.901 C 792.359 178.901 792.108 179.003 791.856 179.31 C 791.856 179.208 791.856 179.208 791.605 179.208 C 791.605 179.208 791.354 179.31 791.103 179.515 C 791.103 179.413 791.103 179.31 790.852 179.31 C 790.852 179.31 790.601 179.413 790.601 179.515 C 790.601 179.515 790.601 179.413 790.349 179.413 C 790.098 179.413 789.847 179.72 789.847 180.027 C 789.847 180.027 789.847 180.027 789.847 180.027 C 789.847 180.027 789.596 180.129 789.596 180.231 C 789.596 180.129 789.345 180.129 789.345 180.129 C 789.094 180.129 789.094 180.334 789.094 180.743 C 789.094 180.743 789.094 180.743 789.094 180.743 C 789.094 180.436 789.094 180.231 788.842 180.231 C 788.842 180.231 788.591 180.334 788.591 180.538 C 788.591 180.436 788.591 180.334 788.34 180.334 C 788.089 180.334 788.089 180.641 787.838 180.948 C 787.838 181.05 787.587 181.05 787.587 181.152 C 787.587 180.948 787.587 180.845 787.335 180.743 C 787.084 180.743 786.833 180.948 786.833 181.357 C 786.833 181.459 786.833 181.459 786.833 181.562 C 786.833 181.562 786.833 181.562 786.833 181.562 C 786.833 181.562 786.833 181.562 786.833 181.562 C 786.582 181.562 786.582 181.664 786.331 181.766 C 786.331 181.766 786.331 181.664 786.08 181.664 C 786.08 181.664 785.828 181.664 785.828 181.766 C 785.828 181.459 785.828 181.255 785.577 181.255 C 785.326 181.255 785.075 181.562 785.075 182.073 C 785.075 182.073 785.075 182.073 785.075 182.073 C 785.075 182.073 785.075 182.073 785.075 182.073 C 784.824 182.073 784.573 182.278 784.573 182.585 C 784.573 182.687 784.573 182.687 784.573 182.687 C 784.573 182.687 784.573 182.687 784.321 182.585 C 784.07 182.585 784.07 182.687 783.819 182.892 C 783.819 182.892 783.819 182.892 783.819 182.892 C 783.819 182.687 783.819 182.482 783.568 182.482 C 783.317 182.482 783.066 182.585 783.066 182.892 C 783.066 182.789 783.066 182.789 782.814 182.789 C 782.814 182.789 782.563 182.892 782.563 182.892 C 782.563 182.687 782.563 182.585 782.312 182.585 C 782.312 182.585 782.061 182.687 781.81 182.892 C 780.052 182.994 780.052 183.506 780.052 184.12 C 778.545 182.892 775.531 183.506 774.275 183.506 L 774.275 184.12 C 772.768 183.506 775.782 182.892 772.768 182.892 C 772.768 183.506 772.768 183.506 772.768 184.12 C 772.768 183.506 772.768 183.506 771.261 183.506 C 772.768 184.734 768.247 183.506 768.247 184.734 C 768.247 184.12 768.247 184.12 768.247 183.506 C 769.754 184.12 766.74 184.734 766.74 185.348 C 766.74 183.506 762.219 187.189 762.219 184.734 C 760.712 186.576 756.442 185.348 753.428 186.576 C 753.428 185.962 753.428 185.962 753.428 185.348 C 750.414 185.348 748.907 185.962 746.144 187.189 C 744.637 187.803 743.13 187.803 741.623 187.803 C 743.13 188.417 740.116 189.031 743.13 189.031 C 740.116 188.417 738.609 189.645 735.846 189.645 C 735.846 189.031 737.353 189.031 738.86 189.031 L 737.353 188.417 C 728.562 190.771 718.264 189.645 709.222 190.771 C 709.222 190.157 709.222 190.157 709.222 189.543 C 707.715 190.771 703.446 189.543 701.939 190.771 L 700.432 190.157 C 701.939 190.157 703.446 190.157 704.953 190.157 C 701.939 190.771 699.176 189.543 697.669 190.771 C 697.669 190.157 697.669 190.157 697.669 189.543 C 694.655 191.896 688.878 193.738 685.864 196.194 C 684.357 195.58 682.85 194.966 681.343 194.352 C 682.85 196.194 678.329 193.738 678.329 194.966 C 678.329 194.352 678.329 194.352 678.329 193.738 C 673.808 193.738 668.031 191.896 663.51 193.738 C 663.51 193.124 663.51 192.51 662.003 191.896 C 662.003 192.51 662.003 192.51 662.003 193.124 C 662.003 192.51 662.003 192.51 662.003 191.896 C 663.51 191.896 666.524 191.896 667.78 191.896 C 664.766 191.896 667.78 192.51 666.273 193.124 C 661.752 191.896 654.468 193.124 649.947 191.896 L 651.454 191.896 C 645.677 191.283 639.649 191.283 633.872 192.51 C 630.858 192.51 626.588 193.124 623.574 191.896 L 625.081 191.896 C 622.067 191.283 619.304 191.283 616.29 190.669 C 609.007 191.896 602.979 191.283 595.695 191.283 C 583.89 190.055 573.592 190.055 561.787 190.055 C 561.787 190.669 561.787 190.669 561.787 191.283 C 558.773 189.441 551.489 190.055 546.968 188.929 C 548.475 189.543 543.954 189.543 545.461 190.157 C 542.447 189.543 539.684 191.385 535.163 190.157 C 524.866 191.999 510.047 191.999 498.242 190.157 C 493.721 190.771 487.944 191.385 483.423 191.692 C 478.148 192.101 473.125 192.51 468.604 193.738 C 459.813 193.738 451.022 194.966 441.98 194.352 C 441.98 194.966 441.98 194.966 441.98 195.58 L 440.473 194.966 C 438.966 196.194 435.952 195.58 433.189 195.58 C 433.189 196.194 433.189 196.808 431.682 196.808 C 427.161 196.194 424.399 197.422 421.385 198.036 L 421.385 197.422 C 416.864 198.65 411.087 197.422 406.566 199.776 C 399.282 199.776 390.24 201.003 382.956 199.162 L 381.449 199.776 C 381.449 199.162 379.942 199.162 378.435 199.162 C 376.928 199.162 376.928 199.776 376.928 200.39 C 378.435 200.39 378.435 200.39 378.435 199.776 C 373.914 199.776 369.644 201.003 365.123 200.39 L 365.123 199.776 C 363.616 200.39 366.63 201.003 363.616 201.003 C 363.616 200.39 363.616 200.39 363.616 199.776 C 360.602 200.39 356.332 200.39 354.072 200.492 C 350.807 200.594 347.541 200.39 344.527 199.776 C 344.527 200.39 343.02 200.39 341.513 200.39 L 343.02 201.003 C 326.695 199.776 310.62 196.194 294.294 199.162 C 289.773 197.32 282.489 194.966 287.01 191.999 C 285.503 191.385 283.996 190.157 281.233 190.157 C 281.233 190.771 281.233 190.771 281.233 191.385 C 279.726 190.771 279.726 190.771 278.219 190.157 C 278.219 190.771 276.712 190.771 275.205 190.771 C 275.205 190.157 275.205 190.157 275.205 189.543 C 270.684 190.157 267.921 188.315 263.4 188.929 C 261.893 187.701 258.879 187.701 256.117 187.701 C 256.117 188.315 256.117 188.315 256.117 188.929 C 256.117 187.701 251.596 187.087 253.103 185.962 L 251.596 186.576 C 251.596 185.962 251.596 185.962 251.596 185.348 C 250.089 185.348 248.582 185.348 247.075 185.962 C 248.582 184.734 247.075 183.608 244.061 182.994 C 244.061 182.994 244.061 183.608 244.312 183.506 C 245.568 181.766 239.791 181.152 239.791 179.31 C 239.791 179.924 239.791 179.924 239.791 180.538 C 239.791 179.924 239.791 179.31 239.791 179.31 C 235.27 177.469 232.507 175.729 226.479 174.501 C 224.972 174.501 223.465 174.501 221.958 174.501 C 220.451 173.887 218.944 173.273 216.432 173.273 C 216.432 173.069 216.432 172.966 216.181 172.966 C 216.181 172.966 216.181 172.966 215.93 172.966 C 215.93 172.966 215.93 172.864 215.679 172.864 C 215.679 172.864 215.679 172.864 215.427 172.864 C 215.427 172.864 215.427 172.864 215.176 172.966 C 215.176 172.864 215.176 172.762 214.925 172.762 C 214.674 172.762 214.674 172.864 214.423 173.069 C 214.423 173.069 214.423 173.069 214.423 173.069 C 214.423 173.069 214.423 173.069 214.423 173.069 C 214.423 172.659 214.423 172.352 214.172 172.352 C 214.172 172.352 213.92 172.455 213.669 172.762 C 213.669 172.557 213.669 172.352 213.418 172.352 C 213.418 172.352 213.418 172.352 213.418 172.352 C 213.669 172.045 213.669 171.738 213.418 171.738 C 213.418 171.738 213.167 171.738 213.167 171.841 C 213.167 171.841 213.167 171.738 212.916 171.738 C 212.916 171.636 212.916 171.534 212.665 171.534 C 212.665 171.534 212.665 171.534 212.413 171.636 C 212.413 171.636 212.413 171.636 212.413 171.636 C 212.162 171.636 212.162 171.636 212.162 171.738 C 212.162 171.738 212.162 171.636 211.911 171.636 C 211.911 171.636 211.66 171.636 211.66 171.636 C 211.66 171.636 211.66 171.534 211.66 171.431 C 211.66 171.227 211.66 171.124 211.409 171.124 C 211.409 171.124 211.409 171.124 211.158 171.124 C 211.158 171.124 210.906 171.022 210.906 171.022 C 210.906 171.022 210.655 171.022 210.655 171.022 C 210.655 171.022 210.655 171.022 210.655 171.022 C 210.655 170.817 210.655 170.715 210.404 170.715 C 210.404 170.715 210.404 170.715 210.404 170.715 C 210.404 170.613 210.153 170.51 210.153 170.408 C 209.902 170.408 209.651 170.51 209.651 170.715 C 209.651 170.92 209.651 171.022 209.902 171.022 C 209.902 171.022 209.902 171.022 209.902 171.022 C 209.651 171.022 209.651 170.92 209.399 170.92 C 209.399 170.817 209.399 170.817 209.399 170.715 C 209.399 170.51 209.399 170.306 209.148 170.306 C 209.148 170.306 209.148 170.306 208.897 170.306 C 208.897 170.306 208.897 170.306 208.897 170.306 C 208.897 170.306 208.646 170.306 208.646 170.408 C 208.646 170.408 208.646 170.408 208.646 170.408 C 208.646 170.408 208.646 170.408 208.395 170.408 C 208.395 170.408 208.395 170.306 208.144 170.306 C 208.144 170.203 207.892 170.203 207.892 170.203 C 207.892 170.203 207.641 170.203 207.641 170.306 C 207.641 170.203 207.641 170.101 207.39 170.101 C 207.139 170.101 206.888 170.203 206.888 170.408 C 206.888 170.408 206.888 170.51 206.888 170.51 C 206.888 170.51 206.888 170.51 206.637 170.51 C 206.637 170.51 206.637 170.408 206.637 170.408 C 206.637 170.203 206.637 169.999 206.385 169.999 C 206.385 169.999 206.134 169.999 206.134 170.101 C 206.134 170.101 206.134 170.101 206.134 170.101 C 205.883 170.101 205.883 170.203 205.632 170.306 C 205.632 170.306 205.381 170.203 205.381 170.203 C 205.381 170.101 205.381 169.999 205.13 169.999 C 205.13 169.999 204.878 169.999 204.878 170.101 C 204.878 169.896 204.627 169.794 204.376 169.794 C 204.376 169.794 204.125 169.794 204.125 169.896 C 204.125 169.896 204.125 169.896 204.125 169.896 C 204.125 169.896 204.125 169.896 204.125 169.896 C 204.125 169.896 204.125 169.896 203.874 169.896 C 203.874 169.896 203.874 169.896 203.623 169.896 C 203.623 169.896 203.371 169.896 203.371 169.999 C 203.371 169.999 203.371 169.999 203.371 169.999 C 203.371 169.999 203.371 169.896 203.371 169.896 C 203.371 169.692 203.371 169.589 203.12 169.589 C 202.869 169.589 202.618 169.692 202.618 169.896 C 202.618 169.896 202.618 169.999 202.618 169.999 C 202.618 169.999 202.618 170.101 202.367 170.203 C 202.367 170.203 202.367 170.203 202.367 170.203 C 202.367 170.203 202.367 170.203 202.367 170.203 C 202.367 170.203 202.367 170.203 202.367 170.203 C 202.367 170.203 202.116 170.101 202.116 170.101 C 201.864 170.101 201.864 170.101 201.864 170.101 C 201.864 170.101 201.613 170.101 201.613 170.203 C 201.613 170.203 201.362 170.203 201.613 170.101 C 201.613 170.101 201.613 170.101 201.613 170.101 C 201.613 169.999 201.362 169.896 201.362 169.896 C 201.111 169.896 201.111 169.999 201.111 170.101 C 201.111 170.101 201.111 170.101 200.86 170.101 C 200.86 169.999 200.86 169.999 200.609 169.999 C 200.609 169.999 200.609 169.999 200.357 169.999 C 200.357 169.896 200.106 169.794 200.106 169.794 C 199.855 169.794 199.855 169.896 199.855 169.999 C 199.855 169.999 199.855 169.896 199.604 169.896 C 199.353 169.896 199.353 169.896 199.102 169.999 C 199.102 169.896 198.85 169.896 198.85 169.896 C 198.599 169.896 198.599 169.999 198.599 170.101 C 198.599 170.101 198.599 170.101 198.348 169.999 C 198.348 169.999 198.348 169.999 198.097 169.999 C 198.097 169.896 197.846 169.794 197.595 169.794 C 197.343 169.794 197.343 169.896 197.343 169.999 C 197.343 169.999 197.092 169.896 197.092 169.896 C 197.092 169.896 196.841 169.896 196.841 169.896 C 196.841 169.896 196.841 169.896 196.841 169.896 C 196.841 169.896 196.59 169.896 196.59 169.896 C 196.59 169.896 196.339 169.896 196.339 169.896 C 196.339 169.896 196.339 169.896 196.339 169.896 C 196.339 169.896 196.339 169.896 196.088 169.896 C 196.088 169.896 196.088 169.896 195.836 169.896 C 195.836 169.896 195.585 169.896 195.585 169.896 C 195.585 169.896 195.585 169.794 195.334 169.794 C 195.334 169.794 195.334 169.794 195.083 169.794 C 195.083 169.794 195.083 169.692 194.832 169.692 C 194.581 169.692 194.581 169.794 194.329 169.896 C 194.329 169.896 194.329 169.896 194.329 169.896 C 194.329 169.692 194.329 169.487 194.078 169.487 C 194.078 169.487 194.078 169.487 194.078 169.487 C 193.827 169.385 193.325 169.18 193.074 169.589 C 193.074 169.692 192.822 169.692 192.822 169.794 C 192.822 169.794 192.571 169.692 192.571 169.692 C 192.571 169.589 192.571 169.487 192.32 169.487 C 192.32 169.487 192.069 169.487 192.069 169.487 C 192.069 169.487 192.069 169.487 191.818 169.487 C 191.818 169.487 191.818 169.487 191.567 169.487 C 191.567 169.487 191.567 169.487 191.567 169.487 C 191.567 169.487 191.315 169.487 191.315 169.589 L 191.315 169.589 C 191.315 169.487 191.315 169.487 191.315 169.487 C 191.315 169.487 191.315 169.487 191.064 169.487 C 191.064 169.487 191.064 169.487 191.064 169.487 C 190.813 169.487 190.311 169.487 190.562 169.589 C 190.562 169.589 190.562 169.487 190.311 169.487 C 190.311 169.487 190.06 169.487 190.06 169.487 C 190.06 169.385 190.06 169.385 189.808 169.282 C 189.808 169.18 189.557 169.282 189.306 169.385 C 189.306 169.385 189.306 169.385 189.306 169.385 C 189.306 169.282 189.306 169.282 189.306 169.18 L 189.306 169.078 C 189.306 169.078 189.306 169.078 189.306 169.078 L 189.306 169.078 C 189.306 169.078 189.306 169.078 189.306 169.078 C 189.306 169.078 189.055 169.078 188.553 168.975 L 188.553 169.078 C 188.553 169.078 188.553 169.078 188.553 169.078 L 188.553 169.078 C 188.553 169.078 188.553 169.078 188.553 169.078 C 188.553 169.078 188.553 169.078 188.553 169.078 C 188.804 168.873 188.553 168.668 188.301 168.668 C 188.301 168.668 188.05 168.668 188.05 168.771 C 188.05 168.771 188.05 168.771 188.05 168.771 C 187.799 168.771 187.799 168.873 187.548 169.078 C 187.548 168.975 187.297 168.975 187.297 168.975 C 187.297 168.975 187.046 168.975 187.046 169.078 C 187.046 169.078 187.046 169.078 187.046 169.078 C 187.046 168.873 187.046 168.668 187.046 168.668 C 187.046 168.668 187.046 168.668 187.046 168.668 C 187.046 168.668 187.046 168.566 186.794 168.566 C 186.543 168.566 186.543 168.566 186.543 168.668 C 186.543 168.668 186.543 168.668 186.543 168.668 C 186.543 168.668 186.543 168.668 186.543 168.668 C 186.543 168.566 186.543 168.566 186.292 168.464 C 186.292 168.464 186.041 168.362 186.041 168.362 C 186.041 168.362 185.79 168.362 185.79 168.362 C 185.79 168.259 185.539 168.157 185.539 168.157 C 185.539 168.157 185.287 168.157 185.287 168.259 C 185.287 168.259 185.287 168.157 185.036 168.157 C 185.036 168.157 185.036 168.157 184.785 168.157 C 184.785 167.952 184.785 167.748 184.534 167.748 C 184.283 167.748 184.283 167.85 184.032 168.157 C 184.032 168.157 184.032 168.157 184.032 168.157 C 184.032 168.055 183.78 167.952 183.529 167.952 C 183.529 167.952 183.529 167.952 183.529 167.952 C 183.529 167.952 183.529 167.85 183.529 167.85 C 183.78 167.645 183.529 167.543 183.278 167.441 C 183.529 167.338 182.525 167.441 182.776 167.748 C 182.776 167.748 182.776 167.748 182.776 167.85 C 182.776 167.85 182.776 167.85 182.525 167.85 C 182.525 167.85 182.525 167.85 182.525 167.85 C 182.273 167.85 182.273 167.85 182.022 167.85 C 182.022 167.85 182.022 167.748 181.771 167.748 C 181.771 167.748 181.771 167.748 181.771 167.748 C 181.771 167.748 181.771 167.748 181.771 167.748 C 181.771 167.645 181.52 167.645 181.52 167.645 C 181.52 167.645 181.52 167.645 181.52 167.645 C 181.52 167.543 181.269 167.441 181.269 167.441 C 181.269 167.441 181.018 167.441 181.018 167.543 C 181.018 167.338 180.766 167.236 180.766 167.338 C 180.766 167.338 180.515 167.338 180.515 167.441 C 180.515 167.236 180.264 167.134 180.264 167.134 C 180.264 167.134 180.013 167.236 180.013 167.441 C 179.511 167.543 179.511 167.645 179.511 167.748 C 179.511 167.748 179.511 167.748 179.259 167.748 C 179.259 167.748 179.259 167.748 179.259 167.748 C 179.259 167.748 179.259 167.748 179.008 167.85 C 179.008 167.85 179.008 167.85 178.757 167.85 C 178.757 167.85 178.757 167.85 178.757 167.85 C 178.757 167.85 178.506 167.85 178.004 167.85 C 178.004 167.748 177.752 167.748 177.752 167.748 C 177.752 167.748 177.752 167.748 177.752 167.748 C 177.752 167.645 177.501 167.543 177.501 167.543 C 177.25 167.543 177.25 167.748 176.999 167.952 C 176.999 167.952 176.999 167.952 176.999 168.055 C 176.999 168.055 176.748 168.055 176.748 168.055 C 176.748 168.055 176.748 168.055 176.748 167.952 C 176.748 167.85 176.748 167.645 176.496 167.645 C 176.245 167.645 175.994 167.748 175.994 167.85 C 175.994 167.85 175.994 167.952 175.994 167.952 C 175.994 167.952 175.743 167.952 175.743 167.952 C 175.743 167.952 175.743 167.85 175.743 167.748 C 175.743 167.748 175.743 167.748 175.743 167.748 C 175.743 167.645 175.492 167.645 175.743 167.748 C 175.492 167.748 175.492 167.85 175.241 167.85 C 175.241 167.85 174.989 167.85 174.989 167.85 C 174.989 167.748 174.989 167.645 174.738 167.645 C 174.487 167.645 174.487 167.645 174.236 167.748 C 174.236 167.645 174.236 167.645 173.985 167.543 C 173.985 167.441 173.482 167.543 173.482 167.85 C 173.482 167.85 173.482 167.85 173.482 167.952 C 173.482 167.952 173.482 167.952 173.482 167.952 C 173.482 167.952 173.482 167.952 173.482 167.952 C 173.482 167.748 173.482 167.645 173.231 167.645 C 173.231 167.645 172.98 167.645 172.98 167.748 C 172.98 167.748 172.98 167.645 172.729 167.645 C 172.729 167.645 172.729 167.543 172.729 167.543 C 172.729 167.441 172.478 167.338 172.478 167.338 C 172.227 167.338 172.227 167.441 172.227 167.645 C 172.227 167.543 171.975 167.543 171.975 167.441 C 171.975 167.441 171.975 167.441 171.975 167.441 C 171.975 167.338 171.975 167.338 171.724 167.338 C 171.724 167.338 171.473 167.338 171.473 167.441 C 171.473 166.929 171.473 166.622 171.222 166.622 C 171.222 166.622 170.971 166.622 170.971 166.724 C 170.971 166.622 170.971 166.622 170.72 166.622 C 170.468 166.622 170.468 166.929 170.468 167.441 C 170.468 167.543 170.468 167.543 170.468 167.543 C 170.468 167.441 170.468 167.338 170.217 167.338 C 169.966 167.338 169.715 167.441 169.715 167.543 C 169.715 167.338 169.715 167.236 169.464 167.236 C 169.464 167.236 169.464 167.236 169.213 167.236 C 169.213 167.134 168.961 167.031 168.961 167.031 C 168.71 167.031 168.71 167.134 168.459 167.338 C 168.459 167.338 168.459 167.236 168.208 167.236 C 167.957 167.236 167.957 167.338 167.957 167.441 C 167.706 167.441 167.706 167.543 167.454 167.748 C 167.454 167.748 167.454 167.85 167.454 167.85 C 167.454 167.85 167.454 167.85 167.454 167.85 C 167.454 167.85 167.454 167.748 167.454 167.748 C 167.454 167.645 167.454 167.543 167.454 167.543 C 167.454 167.338 167.203 167.236 167.203 167.236 C 167.203 167.236 166.952 167.338 166.952 167.441 C 166.952 167.441 166.952 167.338 166.701 167.338 C 166.701 167.338 166.45 167.338 166.45 167.441 C 166.45 167.236 166.45 167.134 166.199 167.134 C 166.199 167.134 165.947 167.134 165.947 167.236 C 165.696 167.236 165.696 167.338 165.696 167.441 C 165.696 167.441 165.696 167.441 165.445 167.441 C 165.445 167.441 165.194 167.543 165.194 167.543 C 165.194 167.338 164.943 167.236 164.943 167.236 C 164.943 167.134 164.692 167.134 164.692 167.134 C 164.44 167.134 164.44 167.338 164.44 167.543 C 164.44 167.441 164.189 167.441 164.189 167.441 C 164.189 167.441 163.938 167.441 163.938 167.543 C 163.687 167.338 163.687 167.236 163.436 167.236 C 163.436 167.236 163.185 167.338 163.185 167.441 C 163.185 167.338 162.933 167.338 162.933 167.338 C 162.933 167.338 162.682 167.441 162.682 167.441 C 162.682 167.236 162.431 167.031 162.18 167.031 C 162.18 167.031 161.929 167.134 161.929 167.134 C 161.678 167.134 161.426 167.031 161.426 167.134 C 161.426 167.134 161.426 167.134 161.426 167.134 C 161.426 167.031 161.426 167.031 161.426 167.031 C 161.426 167.031 161.426 166.929 161.426 166.929 C 161.426 166.929 161.175 166.929 161.175 166.929 C 161.175 166.622 160.924 166.417 160.924 166.417 C 160.924 166.417 160.673 166.52 160.673 166.724 C 160.673 166.724 160.673 166.724 160.673 166.724 C 160.673 166.724 160.673 166.724 160.673 166.724 C 160.924 166.52 160.422 166.622 160.171 166.827 C 160.171 166.827 160.171 166.827 160.171 166.827 C 160.171 166.827 160.171 166.724 159.919 166.724 C 159.919 166.724 159.919 166.724 159.919 166.724 C 159.919 166.622 159.919 166.52 159.919 166.417 C 159.919 166.008 159.668 165.599 159.668 165.599 C 159.668 165.599 159.417 165.599 159.417 165.701 C 159.417 165.701 159.417 165.701 159.417 165.701 C 159.166 165.701 158.915 166.11 158.915 166.724 C 158.915 166.929 158.915 167.031 158.915 167.236 C 158.915 167.134 158.664 166.929 158.664 166.724 C 158.161 166.622 157.91 166.724 157.91 166.827 C 157.91 166.827 157.91 166.827 157.659 166.929 C 157.659 166.929 157.408 166.827 157.408 166.827 C 157.408 166.929 157.408 166.929 157.408 167.031 C 157.408 167.031 157.408 167.134 157.408 167.134 C 157.408 167.134 157.408 167.134 157.157 167.134 C 157.157 167.134 157.157 167.134 157.157 167.134 C 157.157 167.031 157.157 166.929 156.905 166.929 C 156.905 166.929 156.654 167.031 156.654 167.134 C 156.654 167.134 156.654 167.134 156.654 167.134 C 156.654 167.134 156.654 167.134 156.403 167.134 C 156.403 167.031 156.152 166.929 156.152 166.929 C 156.152 166.929 155.901 167.031 155.901 167.236 C 155.901 167.236 155.65 167.134 155.65 167.134 C 155.65 167.134 155.65 167.134 155.398 167.236 C 155.398 167.236 155.398 167.236 155.398 167.236 C 155.398 167.031 155.147 166.929 154.896 166.929 C 154.645 166.929 154.645 167.031 154.645 167.236 C 154.645 167.236 154.645 167.134 154.645 167.134 C 154.645 167.134 154.645 167.134 154.645 167.134 C 154.645 166.622 154.394 166.315 154.394 166.315 C 154.143 166.315 154.143 166.724 153.891 167.236 C 153.64 167.236 153.891 167.236 153.891 167.338 C 153.891 167.338 153.891 167.338 153.891 167.338 C 153.891 167.338 153.891 167.338 153.891 167.338 C 153.891 167.338 153.891 167.338 153.891 167.338 C 153.64 167.134 153.64 167.031 153.389 167.031 C 153.389 167.031 153.389 167.031 153.138 167.134 C 153.138 167.134 153.138 167.134 153.138 167.134 C 153.138 167.134 152.887 167.236 152.887 167.236 C 152.887 167.236 152.887 167.236 152.636 167.236 C 152.133 167.031 152.133 167.236 152.133 167.441 C 152.133 167.441 152.133 167.441 152.133 167.441 C 152.133 167.543 152.133 167.543 152.133 167.543 C 152.133 167.543 152.133 167.543 152.133 167.543 C 152.133 167.441 151.882 167.338 151.631 167.338 C 151.631 167.338 151.631 167.338 151.631 167.338 C 151.631 167.338 151.38 167.338 151.38 167.338 C 151.38 167.338 151.129 167.338 151.129 167.338 C 151.129 167.338 151.129 167.338 151.129 167.338 C 151.129 167.338 151.129 167.338 151.129 167.338 C 151.129 167.338 151.129 167.236 151.129 167.236 C 151.38 166.827 151.129 166.827 150.877 167.031 C 150.877 167.031 150.877 167.031 150.877 167.031 C 150.877 166.827 150.877 166.724 150.626 166.724 C 150.626 166.724 150.626 166.827 150.375 166.929 C 150.375 166.827 150.124 166.827 150.124 166.827 C 150.124 166.827 150.124 166.827 149.873 166.929 C 149.873 166.827 149.873 166.827 149.622 166.827 L 149.622 166.827 C 149.622 166.417 149.622 166.11 149.37 166.11 C 149.119 166.11 148.868 166.417 148.868 166.724 C 148.868 166.827 148.868 166.929 148.868 167.031 C 148.868 167.031 148.617 167.031 148.617 167.134 C 148.617 166.929 148.366 166.827 148.115 166.827 C 148.115 166.827 147.863 166.929 147.863 166.929 C 147.863 166.827 147.612 166.827 147.612 166.827 C 147.612 166.827 147.612 166.827 147.361 166.929 C 147.361 166.929 147.361 166.929 147.361 166.929 C 147.361 166.929 147.361 166.929 147.361 166.929 C 147.361 166.827 147.11 166.827 147.11 166.827 C 147.11 166.827 146.859 166.929 146.859 166.929 C 146.859 166.827 146.608 166.827 146.608 166.827 C 146.608 166.827 146.356 166.827 146.356 166.929 C 146.356 166.827 146.105 166.724 146.105 166.724 C 146.105 166.417 146.105 166.213 145.854 166.11 C 145.603 166.11 145.603 166.315 145.352 166.622 C 145.352 166.622 145.352 166.622 145.352 166.724 C 145.352 166.724 145.352 166.724 145.352 166.724 C 145.352 166.724 145.101 166.724 145.101 166.622 C 145.101 166.52 144.849 166.52 144.849 166.52 C 144.849 166.52 144.598 166.52 144.598 166.622 C 144.598 166.417 144.347 166.315 144.096 166.315 C 144.096 166.315 144.096 166.315 144.096 166.315 C 144.096 166.315 144.096 166.315 144.096 166.315 C 143.845 166.315 143.845 166.417 143.845 166.52 C 143.845 166.52 143.594 166.52 143.594 166.52 C 143.594 166.52 143.594 166.52 143.594 166.52 C 143.594 166.315 143.342 166.213 143.342 166.213 C 143.342 166.213 143.342 166.213 143.342 166.213 C 143.091 166.213 143.091 166.213 142.84 166.417 C 142.589 166.417 142.589 166.417 142.589 166.315 C 142.589 166.315 142.589 166.315 142.589 166.315 C 142.589 166.315 142.589 166.213 142.338 166.213 C 142.338 166.213 142.338 166.213 142.338 166.213 C 142.338 166.213 142.087 166.11 142.087 166.11 C 142.087 166.11 141.835 166.11 141.835 166.213 C 141.835 166.008 141.584 165.803 141.333 165.803 C 141.333 165.803 141.082 165.906 141.082 166.008 C 141.082 166.008 141.082 166.008 141.082 166.008 C 140.831 166.008 140.58 166.213 140.58 166.52 C 140.58 166.417 140.58 166.315 140.328 166.315 C 140.077 166.315 139.826 166.52 139.826 166.724 C 139.826 166.724 139.575 166.724 139.575 166.724 C 139.575 166.724 139.575 166.622 139.575 166.622 C 139.575 166.315 139.575 166.008 139.324 166.008 C 139.324 166.008 139.324 166.008 139.073 166.008 C 139.073 166.008 139.073 165.906 138.821 165.906 C 138.57 165.906 138.319 166.11 138.319 166.417 C 138.319 166.52 138.319 166.52 138.319 166.52 C 138.068 166.52 138.068 166.52 137.817 166.52 C 137.817 166.52 137.817 166.417 137.817 166.417 C 138.068 166.11 138.068 165.906 137.817 165.906 C 137.817 165.906 137.566 165.906 137.566 165.906 C 137.566 165.906 137.566 165.803 137.314 165.906 C 137.063 165.906 137.063 166.008 137.063 166.213 C 137.063 166.213 136.812 166.11 136.812 166.11 C 136.812 166.11 136.812 166.11 136.812 166.11 C 136.812 165.906 136.561 165.701 136.561 165.701 C 136.561 165.701 136.31 165.803 136.31 165.906 C 136.059 166.008 136.059 166.213 136.059 166.417 C 136.059 166.417 136.059 166.417 136.059 166.52 C 136.059 166.52 136.059 166.52 136.059 166.52 C 136.059 166.52 136.059 166.417 136.059 166.417 C 136.059 166.11 136.059 165.906 135.807 165.906 C 135.807 165.906 135.556 165.906 135.556 166.008 C 135.556 165.906 135.556 165.803 135.305 165.701 C 135.305 165.701 135.054 165.803 135.054 165.906 C 135.054 165.906 134.803 165.906 134.803 166.008 C 134.803 165.906 134.803 165.803 134.552 165.803 C 134.552 165.803 134.3 165.803 134.3 165.906 C 134.3 165.906 134.3 165.906 134.3 165.906 C 134.049 165.906 134.049 166.11 133.798 166.315 C 133.798 166.008 133.798 165.701 133.547 165.701 C 133.296 165.701 133.296 165.906 133.045 166.315 C 133.045 166.11 132.793 165.906 132.793 165.906 C 132.793 165.906 132.542 165.906 132.542 166.008 C 132.542 165.906 132.542 165.803 132.291 165.803 C 132.04 165.803 132.04 165.906 131.789 166.213 C 131.789 166.213 131.789 166.213 131.789 166.213 C 131.789 166.213 131.538 166.213 131.538 166.213 C 131.538 166.213 131.538 166.213 131.538 166.213 C 131.538 166.213 131.538 166.213 131.286 166.213 C 131.286 166.11 131.286 166.008 131.035 166.008 C 131.035 166.008 130.784 166.008 130.784 166.11 C 130.784 166.008 130.784 165.906 130.533 166.008 C 130.282 166.008 130.282 166.11 130.031 166.315 C 130.031 166.315 130.031 166.315 129.779 166.417 C 129.779 166.11 129.779 165.906 129.528 165.906 C 129.528 165.906 129.528 165.906 129.528 165.906 C 129.528 165.803 129.528 165.803 129.277 165.803 C 129.277 165.803 129.026 165.803 129.026 165.906 C 129.026 165.803 128.775 165.599 128.775 165.599 C 128.524 165.599 128.524 165.701 128.272 165.906 C 128.272 165.906 128.272 165.906 128.272 165.906 C 128.272 165.803 128.272 165.803 128.021 165.803 C 127.77 165.803 127.77 165.906 127.77 166.008 C 127.77 165.906 127.77 165.803 127.519 165.803 C 127.268 165.803 127.017 165.906 127.017 166.11 C 127.017 166.11 126.765 166.11 126.765 166.213 C 126.765 166.213 126.765 166.11 126.514 166.11 C 126.514 166.11 126.514 166.11 126.514 166.11 C 126.514 166.11 126.263 166.11 126.263 166.11 C 126.263 166.11 126.012 166.11 126.012 166.213 C 126.012 166.213 125.761 166.11 125.761 166.11 C 125.761 166.11 125.51 166.11 125.51 166.11 C 125.51 166.11 125.51 166.11 125.51 166.11 C 125.51 166.11 125.51 166.11 125.258 166.11 C 125.258 166.11 125.258 166.008 125.007 166.008 C 125.007 166.008 124.756 166.008 124.756 166.008 C 124.756 166.008 124.505 165.906 124.505 165.906 C 124.505 165.906 124.254 165.906 124.254 166.008 C 124.254 166.008 124.254 166.008 124.254 166.008 C 124.254 166.008 124.254 166.008 124.003 166.008 C 124.003 166.008 124.003 166.008 124.003 166.008 C 124.003 165.906 123.751 165.803 123.751 165.803 C 123.751 165.803 123.5 165.803 123.5 165.906 C 123.5 165.906 123.249 165.906 123.249 165.803 C 123.249 165.803 122.998 165.803 122.998 165.906 C 122.496 165.803 121.993 165.803 121.491 165.701 C 120.235 165.599 118.979 165.599 117.723 165.599 C 117.723 165.599 117.472 165.496 117.472 165.496 C 117.472 165.496 117.221 165.496 117.221 165.599 C 117.221 165.599 117.221 165.599 116.97 165.599 C 116.719 165.599 116.468 165.496 116.468 165.496 C 116.468 165.394 116.468 165.292 116.216 165.292 C 115.965 165.292 115.965 165.394 115.714 165.496 C 115.714 165.496 115.463 165.496 115.463 165.496 C 115.463 165.496 115.463 165.394 115.212 165.394 C 115.212 165.394 114.961 165.394 114.961 165.394 C 114.961 165.394 114.961 165.394 114.961 165.292 C 114.961 165.189 114.961 164.985 114.709 164.985 C 114.458 164.985 114.458 165.087 114.207 165.189 C 114.207 165.189 114.207 165.189 114.207 165.189 C 114.207 165.189 114.207 165.189 114.207 165.189 C 114.207 165.087 114.207 164.882 113.956 164.882 C 113.705 164.882 113.705 164.985 113.454 165.087 C 113.454 165.087 113.454 165.087 113.454 165.087 C 113.454 165.087 113.454 165.087 113.202 165.087 C 113.202 165.087 113.202 165.087 113.202 165.087 C 113.202 165.087 112.951 165.087 112.951 165.087 C 112.951 164.985 112.7 164.985 112.7 164.985 C 112.7 164.985 112.449 164.985 112.449 165.087 C 112.449 165.087 112.449 165.087 112.449 165.087 C 112.449 164.985 112.198 164.882 112.198 164.882 C 112.198 164.882 111.946 164.985 111.946 164.985 C 111.946 164.985 111.695 164.882 111.695 164.882 C 111.695 164.882 111.695 164.882 111.695 164.882 C 111.695 164.78 111.444 164.78 111.444 164.78 C 111.193 164.78 111.193 164.882 111.193 164.985 C 111.193 164.985 110.942 165.087 110.942 165.087 C 110.188 164.882 109.184 164.882 108.43 165.087 C 108.43 165.087 108.43 165.087 108.43 165.087 C 108.43 165.087 108.179 165.087 108.179 165.189 C 107.928 165.292 107.677 165.394 107.677 165.496 C 107.677 165.496 107.425 165.496 107.425 165.496 C 107.425 165.496 107.174 165.496 107.174 165.599 C 107.174 165.496 107.174 165.394 106.923 165.394 C 106.672 165.394 106.672 165.496 106.421 165.803 C 106.421 165.701 106.17 165.701 106.17 165.701 C 106.17 165.599 105.918 165.496 105.918 165.496 C 105.667 165.496 105.667 165.599 105.416 165.803 C 105.416 165.803 105.416 165.803 105.165 165.803 C 105.165 165.803 105.165 165.803 105.165 165.803 C 105.165 165.803 105.165 165.803 105.165 165.803 C 105.165 165.803 105.165 165.803 104.914 165.803 C 104.914 165.701 104.914 165.599 104.663 165.599 C 104.663 165.599 104.411 165.599 104.411 165.701 C 104.411 165.701 104.411 165.701 104.411 165.701 C 104.411 165.701 104.16 165.701 104.16 165.803 C 104.16 165.701 103.909 165.701 103.909 165.701 C 103.658 165.701 103.658 165.906 103.658 166.008 C 103.658 166.008 103.658 165.906 103.658 165.906 C 103.658 165.906 103.658 165.906 103.658 165.906 C 103.658 165.906 103.658 165.906 103.407 165.906 C 103.407 165.803 103.407 165.803 103.156 165.701 C 103.156 165.701 102.904 165.701 102.904 165.803 C 102.904 165.701 102.653 165.599 102.653 165.701 C 102.402 165.701 102.402 165.906 102.402 166.008 C 102.402 166.008 102.402 166.008 102.402 166.008 C 102.402 165.906 102.402 165.803 102.402 165.803 C 102.402 165.803 102.151 165.803 101.9 165.906 C 101.9 165.701 101.649 165.599 101.649 165.599 C 101.649 165.599 101.397 165.599 101.397 165.701 C 101.397 165.701 101.397 165.701 101.397 165.701 C 101.146 165.701 101.146 165.803 100.895 166.11 C 100.895 166.11 100.895 166.11 100.644 166.11 C 100.644 166.11 100.644 166.11 100.644 166.11 C 100.895 165.803 100.895 165.599 100.644 165.599 C 100.644 165.599 100.393 165.599 100.393 165.701 C 100.393 165.701 100.393 165.599 100.142 165.599 C 99.89 165.599 99.89 165.701 99.89 165.803 C 99.639 165.599 99.388 165.394 99.137 165.496 C 99.137 165.496 99.137 165.599 99.137 165.599 C 99.137 165.496 99.137 165.394 98.886 165.394 C 98.886 165.394 98.635 165.496 98.383 165.701 C 98.383 165.701 98.383 165.701 98.383 165.701 C 98.383 165.701 98.383 165.599 98.383 165.496 C 98.383 165.394 98.383 165.189 98.132 165.189 C 98.132 165.189 97.881 165.087 97.881 165.087 C 97.881 165.087 97.881 165.087 97.881 165.087 C 97.63 164.985 97.63 164.985 97.379 164.985 C 97.379 164.985 97.379 165.087 97.379 165.189 C 97.379 165.189 97.379 165.189 97.379 165.189 C 97.379 165.189 97.379 165.189 97.379 165.189 C 97.379 165.087 97.379 165.087 97.128 165.087 C 97.128 165.087 97.128 164.985 97.128 164.985 C 97.128 164.78 96.876 164.575 96.625 164.575 C 96.625 164.575 96.625 164.575 96.374 164.678 C 96.374 164.575 96.123 164.473 96.123 164.473 C 96.123 164.473 95.872 164.473 95.872 164.575 C 95.872 164.473 95.621 164.371 95.621 164.371 C 95.369 164.371 95.369 164.473 95.369 164.678 C 95.369 164.575 95.369 164.575 95.369 164.575 C 95.369 164.268 95.369 164.064 95.118 164.064 C 94.867 164.064 94.867 164.268 94.616 164.575 C 94.616 164.473 94.365 164.371 94.365 164.371 C 94.114 164.371 94.114 164.678 94.114 164.985 C 94.114 164.985 94.114 164.985 94.114 164.985 L 94.114 164.985 C 94.114 164.985 94.114 164.985 94.114 164.985 C 94.114 164.985 94.114 164.985 93.862 164.985 C 93.36 164.985 92.858 164.985 92.607 165.087 C 92.607 165.087 92.607 165.087 92.355 165.087 C 92.355 165.087 92.104 165.087 92.104 165.189 C 92.104 165.189 92.104 165.189 92.104 165.189 C 92.104 165.087 91.853 165.087 91.853 165.087 C 91.602 165.087 91.602 165.189 91.351 165.394 C 91.351 165.394 91.351 165.394 91.351 165.394 C 91.351 165.292 91.1 165.189 91.1 165.189 C 90.848 165.189 90.848 165.292 90.848 165.394 C 90.848 165.394 90.848 165.394 90.848 165.394 C 90.848 165.394 90.848 165.394 90.848 165.394 C 90.848 165.189 90.597 165.087 90.597 165.087 C 90.597 165.087 90.597 165.087 90.597 165.087 C 90.597 164.985 90.597 164.985 90.346 164.985 C 90.346 164.985 90.095 164.985 90.095 165.087 C 90.095 165.087 90.095 164.985 89.844 164.985 C 89.844 164.985 89.593 164.985 89.593 165.087 C 89.593 164.985 89.341 164.882 89.341 164.882 C 89.341 164.882 89.341 164.882 89.09 164.985 C 89.09 164.882 88.839 164.882 88.839 164.882 C 88.839 164.882 88.839 164.882 88.839 164.882 C 88.839 164.678 88.839 164.575 88.839 164.575 C 88.839 164.575 88.588 164.575 88.588 164.678 C 88.588 164.575 88.588 164.473 88.588 164.473 C 88.337 164.473 88.086 164.678 87.834 164.985 C 87.834 164.985 87.834 164.985 87.583 164.985 C 87.583 164.985 87.332 164.985 87.332 165.087 C 87.332 164.985 87.081 164.985 87.081 164.985 C 87.081 164.985 87.081 164.985 87.081 164.985 C 87.081 164.78 86.83 164.678 86.579 164.678 C 86.579 164.678 86.579 164.678 86.579 164.678 C 86.327 164.575 86.327 164.575 86.327 164.678 C 86.327 164.78 86.327 164.78 86.076 164.882 C 86.076 164.882 85.825 164.78 85.825 164.78 C 85.825 164.678 85.825 164.575 85.574 164.575 C 85.574 164.575 85.574 164.575 85.574 164.575 C 85.574 164.371 85.574 164.268 85.323 164.268 C 85.323 164.268 85.072 164.268 85.072 164.371 C 85.072 164.268 84.82 164.166 84.82 164.166 C 84.82 164.166 84.569 164.166 84.569 164.268 C 84.569 164.268 84.569 164.268 84.318 164.268 C 84.318 164.268 84.067 164.268 84.067 164.371 C 84.067 164.268 83.816 164.268 83.816 164.268 C 83.816 164.268 83.816 164.268 83.816 164.268 C 83.816 164.268 83.816 164.166 83.816 164.166 C 83.816 164.064 83.565 163.962 83.565 163.962 C 83.565 163.962 83.313 163.962 83.313 164.064 C 83.313 164.064 83.062 163.962 83.062 163.962 C 83.062 163.962 83.062 163.962 83.062 163.859 C 83.062 163.859 83.062 163.757 83.062 163.757 C 83.062 163.757 83.062 163.757 83.062 163.757 C 83.062 163.552 82.811 163.45 82.56 163.45 C 82.309 163.45 82.309 163.552 82.309 163.655 C 82.309 163.655 82.309 163.655 82.309 163.655 C 82.309 163.45 82.309 163.348 82.058 163.348 C 82.058 163.348 82.058 163.348 81.806 163.348 C 81.806 163.041 81.806 162.836 81.555 162.836 C 81.304 162.836 81.304 163.041 81.053 163.348 C 81.053 163.348 81.053 163.348 81.053 163.348 C 81.053 163.348 81.053 163.348 81.053 163.348 C 81.053 163.245 81.053 163.245 80.802 163.245 C 80.802 162.938 80.802 162.734 80.551 162.734 C 80.299 162.734 80.048 163.041 80.048 163.45 C 80.048 163.348 79.797 163.245 79.797 163.245 C 79.797 163.245 79.546 163.245 79.546 163.348 C 79.546 163.348 79.546 163.348 79.295 163.348 C 79.295 163.348 79.044 163.348 79.044 163.45 C 79.044 163.45 79.044 163.45 79.044 163.45 C 79.044 163.245 79.044 163.143 78.792 163.143 C 78.792 163.143 78.541 163.143 78.541 163.245 C 78.541 163.143 78.29 163.041 78.039 163.041 C 78.039 163.041 77.788 163.143 77.788 163.245 C 77.788 163.245 77.788 163.245 77.788 163.245 C 77.788 163.143 77.537 163.143 77.537 163.143 C 77.537 163.143 77.537 163.143 77.537 163.143 C 77.537 163.041 77.285 162.938 77.285 162.938 C 77.285 162.938 77.285 162.938 77.034 162.938 C 77.034 162.938 77.034 162.938 76.783 162.938 C 76.783 162.938 76.532 162.938 76.532 163.041 C 76.532 163.041 76.532 163.041 76.532 163.041 C 76.532 163.041 76.532 163.041 76.532 163.041 C 76.532 162.938 76.532 162.836 76.281 162.836 C 76.03 162.836 75.778 163.041 75.778 163.143 C 75.778 163.143 75.778 163.143 75.778 163.143 C 75.778 163.143 75.778 163.143 75.778 163.143 C 75.778 163.041 75.527 162.836 75.527 162.836 C 75.527 162.734 75.276 162.631 75.276 162.631 C 75.276 162.631 75.025 162.631 75.025 162.734 C 75.025 162.734 75.025 162.734 75.025 162.734 C 74.774 162.734 74.523 162.836 74.523 163.041 C 74.523 163.041 74.523 163.041 74.523 163.041 C 74.523 162.938 74.271 162.734 74.02 162.734 C 74.02 162.734 73.769 162.836 73.769 162.836 C 73.769 162.734 73.518 162.631 73.518 162.734 C 73.267 162.734 73.016 162.836 73.016 162.938 C 73.016 162.938 73.016 162.938 73.016 162.938 C 73.016 162.938 73.016 162.938 72.764 162.938 C 72.764 162.938 72.513 162.938 72.513 162.938 C 72.513 162.938 72.513 162.938 72.513 162.836 C 72.513 162.734 71.76 162.836 70.755 162.938 C 70.755 162.938 70.755 162.938 70.755 162.938 C 70.504 162.938 70.504 162.938 70.253 163.041 C 70.253 162.938 70.002 162.836 70.002 162.836 C 69.75 162.836 69.75 162.938 69.75 163.041 C 69.75 163.041 69.75 163.041 69.75 163.041 C 69.499 163.041 69.248 163.143 69.248 163.245 C 69.248 163.245 69.248 163.245 69.248 163.245 C 69.248 163.245 69.248 163.245 68.997 163.245 C 68.997 163.245 68.997 163.245 68.997 163.245 C 69.248 163.041 69.499 162.836 69.248 162.836 C 69.248 162.836 68.997 162.836 68.746 162.938 C 68.746 162.938 68.746 162.938 68.746 162.938 C 68.495 162.938 68.495 163.041 68.243 163.143 C 68.243 163.143 68.243 163.143 68.243 163.143 C 68.243 163.143 67.992 163.245 67.992 163.245 C 67.992 163.041 67.992 162.938 67.741 162.938 C 67.741 162.938 67.49 163.041 67.239 163.143 C 67.239 163.143 67.239 163.143 67.239 163.143 C 66.988 163.143 66.988 163.245 66.736 163.45 C 66.736 163.348 66.736 163.245 66.485 163.245 C 66.485 163.245 66.485 163.245 66.485 163.245 C 66.485 163.041 66.485 162.938 66.234 162.938 C 65.983 162.938 65.732 163.245 65.732 163.655 C 65.732 163.45 65.732 163.348 65.481 163.348 C 65.229 163.348 64.978 163.655 64.978 163.962 C 64.978 163.962 64.978 163.962 64.978 163.962 C 64.978 163.962 64.978 163.962 64.978 163.962 C 64.978 163.859 64.978 163.757 64.978 163.757 C 64.727 163.757 64.476 163.962 64.225 164.166 C 64.225 164.166 63.974 164.268 63.974 164.268 C 63.471 164.473 63.22 164.678 63.22 164.882 C 63.22 164.985 62.969 165.087 62.969 165.189 C 62.969 165.087 62.969 164.985 62.718 164.985 C 62.467 164.985 62.215 165.189 62.215 165.496 C 62.215 165.292 62.215 165.087 61.964 165.087 C 61.713 165.087 61.713 165.189 61.462 165.394 C 61.462 165.394 61.462 165.394 61.462 165.394 C 61.462 165.394 61.211 165.496 61.211 165.496 C 61.211 165.496 61.211 165.496 61.211 165.496 C 61.211 165.496 60.96 165.496 60.96 165.599 C 60.96 165.599 60.96 165.496 60.708 165.496 C 60.708 165.496 60.708 165.496 60.708 165.496 C 60.708 165.496 60.708 165.394 60.457 165.394 C 60.457 165.394 60.206 165.394 60.206 165.496 C 60.206 165.496 60.206 165.496 59.955 165.496 C 59.955 165.496 59.955 165.496 59.955 165.496 C 59.955 165.394 59.955 165.394 59.955 165.394 C 59.704 165.394 59.704 165.394 59.453 165.599 C 59.453 165.496 59.453 165.394 59.201 165.394 C 59.201 165.394 58.95 165.394 58.95 165.496 C 58.95 165.496 58.95 165.496 58.699 165.496 C 58.448 165.496 58.197 165.701 58.197 166.008 C 58.197 166.008 58.197 166.008 58.197 166.008 C 58.197 166.008 58.197 166.008 58.197 166.008 C 58.197 166.008 58.197 165.906 58.197 165.906 C 58.197 165.803 57.946 165.701 57.946 165.701 C 57.946 165.496 57.946 165.394 57.946 165.394 C 57.946 165.394 57.694 165.496 57.443 165.701 C 57.443 165.701 57.443 165.701 57.192 165.701 C 56.941 165.701 56.941 165.803 56.69 166.008 C 56.69 165.906 56.69 165.906 56.439 165.906 C 56.439 165.906 56.187 165.906 56.187 165.906 C 56.187 165.906 55.936 165.906 55.936 165.906 C 55.936 165.906 55.936 165.906 55.936 165.906 C 55.936 165.701 55.936 165.599 55.685 165.599 C 55.434 165.599 55.183 165.803 55.183 166.008 C 55.183 166.008 55.183 166.008 55.183 166.008 C 55.183 166.008 55.183 166.11 54.932 166.213 C 54.932 166.213 54.932 166.213 54.932 166.213 C 54.932 166.213 54.932 166.11 54.68 166.11 C 54.68 166.008 54.429 166.008 54.429 166.11 C 54.429 166.008 54.429 166.008 54.178 165.906 C 53.927 165.906 53.676 166.008 53.676 166.11 C 53.676 166.11 53.676 166.008 53.425 166.008 C 53.425 166.008 53.425 166.008 53.173 166.008 C 53.173 165.906 52.922 165.803 52.922 165.803 C 52.922 165.803 52.671 165.906 52.671 166.008 C 52.671 165.906 52.42 165.906 52.42 165.803 C 52.42 165.803 52.169 165.803 52.169 165.906 C 52.169 165.906 51.918 165.803 51.918 165.803 C 51.918 165.803 51.666 165.906 51.666 165.906 C 51.164 165.803 50.662 165.599 49.908 165.496 C 49.908 165.496 49.908 165.496 49.657 165.496 C 49.406 165.496 49.155 165.496 48.904 165.394 C 48.904 165.189 48.904 165.292 48.652 165.394 C 48.401 165.394 48.401 165.394 48.15 165.394 C 48.15 165.292 48.15 165.292 47.899 165.394 C 47.899 165.394 47.899 165.394 47.648 165.394 C 47.648 165.394 47.648 165.394 47.648 165.394 C 47.396 165.292 48.401 165.292 46.894 165.189 L 46.894 165.292 C 46.392 165.292 45.889 165.292 45.387 165.292 C 44.885 165.292 44.382 165.292 44.131 165.394 C 44.131 165.394 43.88 165.394 43.88 165.394 C 43.88 165.292 43.88 165.292 43.629 165.394 C 43.629 165.394 43.629 165.394 43.629 165.394 C 43.629 165.394 43.629 165.394 43.629 165.394 C 43.629 165.292 43.629 165.292 43.629 165.189 C 43.629 165.189 43.629 165.087 43.629 164.985 C 42.624 164.882 42.875 164.985 42.875 165.087 C 42.875 165.087 42.875 165.087 42.875 165.087 C 42.875 165.087 42.624 165.087 42.624 165.087 C 42.624 164.985 42.624 164.78 42.624 164.78 C 42.624 164.78 42.373 164.78 42.122 164.985 C 42.122 164.882 42.122 164.78 41.871 164.78 C 41.62 164.78 41.62 164.882 41.62 164.985 C 41.62 164.985 41.368 164.985 41.368 165.087 C 41.368 165.087 41.117 165.087 41.117 164.985 C 41.117 164.882 41.117 164.882 41.117 164.78 C 41.117 164.678 41.117 164.678 40.866 164.678 C 40.866 164.678 40.615 164.78 40.615 164.882 C 40.364 164.882 40.113 164.882 40.113 164.78 C 40.113 164.575 40.113 164.473 39.861 164.473 C 39.861 164.473 39.61 164.473 39.61 164.575 C 39.61 164.473 39.61 164.371 39.359 164.371 C 39.108 164.371 39.108 164.473 38.857 164.678 C 38.857 164.678 38.857 164.678 38.606 164.678 L 38.606 164.678 C 38.606 164.678 38.606 164.678 38.606 164.678 C 38.606 164.678 38.606 164.678 38.606 164.678 C 38.606 164.678 38.606 164.678 38.606 164.678 C 38.606 164.473 38.606 164.268 38.354 164.268 C 38.354 164.268 38.103 164.268 37.852 164.473 C 37.852 164.473 37.852 164.473 37.852 164.473 C 37.852 164.575 37.601 164.575 37.601 164.678 C 37.601 164.678 37.601 164.678 37.35 164.678 C 37.35 164.678 37.35 164.678 37.35 164.678 C 37.35 164.473 37.35 164.371 37.099 164.371 C 37.099 164.371 36.847 164.371 36.847 164.371 C 36.847 164.268 36.596 164.268 36.596 164.268 C 36.596 164.268 36.345 164.268 36.345 164.371 C 36.345 164.371 36.094 164.268 36.094 164.268 C 36.094 164.268 35.843 164.371 35.843 164.473 C 35.843 164.371 35.592 164.268 35.592 164.268 C 35.592 164.268 35.592 164.268 35.34 164.268 C 35.34 164.268 35.34 164.166 35.089 164.166 C 34.838 164.166 34.587 164.371 34.587 164.575 C 34.587 164.473 34.587 164.371 34.587 164.371 C 34.587 164.166 34.587 163.962 34.336 163.962 C 34.336 163.962 34.085 164.064 34.085 164.064 C 34.085 163.859 34.085 163.757 33.833 163.757 C 33.833 163.757 33.833 163.757 33.833 163.757 C 33.833 163.757 33.833 163.655 33.582 163.655 C 33.331 163.655 33.08 163.962 33.08 164.268 C 33.08 164.371 33.08 164.371 33.08 164.473 C 33.08 164.371 33.08 164.371 32.829 164.371 C 32.829 164.371 32.578 164.371 32.578 164.575 C 32.578 164.473 32.578 164.371 32.326 164.371 C 32.075 164.371 31.824 164.575 31.824 164.882 C 31.824 164.882 31.824 164.985 31.824 164.985 C 31.824 164.985 31.824 164.985 31.824 164.985 C 31.573 164.985 31.573 165.087 31.322 165.292 C 31.573 164.882 31.322 164.473 31.322 164.473 C 31.071 164.473 31.071 164.678 30.819 164.882 C 30.819 164.882 30.819 164.882 30.819 164.882 C 30.819 164.882 30.819 164.882 30.568 164.882 C 30.568 164.882 30.568 164.78 30.317 164.78 C 30.317 164.78 30.066 164.78 30.066 164.882 C 30.066 164.78 30.066 164.678 29.815 164.678 C 29.815 164.678 29.815 164.678 29.564 164.678 C 29.564 164.575 29.564 164.473 29.312 164.473 C 29.061 164.473 29.061 164.575 28.81 164.882 C 28.81 164.78 28.81 164.78 28.559 164.78 C 28.308 164.78 28.057 164.985 28.057 165.292 C 27.805 165.292 27.805 165.496 27.805 165.599 C 27.805 165.496 27.805 165.496 27.554 165.496 C 27.554 165.496 27.303 165.496 27.303 165.599 C 26.55 165.599 25.796 165.599 25.043 165.599 C 25.043 165.394 24.791 165.292 24.791 165.292 C 24.54 165.292 24.54 165.394 24.289 165.599 C 24.038 165.599 23.787 165.599 23.536 165.599 C 23.536 165.599 23.536 165.599 23.536 165.599 C 23.536 165.394 23.284 165.189 23.284 165.189 C 23.284 165.189 23.284 165.189 23.284 165.189 C 23.284 165.189 23.284 165.087 23.284 165.087 C 23.284 165.087 23.284 165.087 23.284 165.087 C 23.284 164.985 23.284 164.882 23.033 164.985 C 23.033 164.985 23.033 164.985 22.782 164.985 C 22.782 164.985 22.531 164.985 22.531 164.985 C 22.28 164.78 22.28 164.882 22.28 165.087 C 22.28 165.087 22.28 165.087 22.28 165.087 L 22.28 165.087 C 22.28 165.087 22.28 165.087 22.28 165.087 C 22.28 165.087 22.029 165.087 21.777 165.087 C 21.526 165.087 22.28 164.985 21.275 164.985 C 21.275 164.985 21.024 164.985 21.024 164.985 C 20.773 164.882 21.275 164.678 20.773 164.575 C 20.773 164.575 20.773 164.575 20.773 164.575 C 20.773 164.575 20.773 164.575 20.522 164.575 C 20.522 164.575 20.27 164.575 20.27 164.575 C 20.27 164.575 20.27 164.575 20.27 164.678 C 20.019 164.678 20.019 164.78 20.27 164.78 C 20.27 164.678 20.019 164.678 20.019 164.678 C 19.768 164.678 19.768 164.882 19.768 165.189 C 19.768 165.189 19.768 165.189 19.768 165.189 C 19.768 165.189 19.768 165.189 19.517 165.189 C 19.517 165.189 19.517 165.189 19.517 165.189 C 19.517 165.189 19.517 165.189 19.517 165.189 L 19.517 165.189 C 19.517 165.189 19.517 165.087 19.517 165.087 C 19.517 164.78 19.517 164.575 19.266 164.575 C 19.015 164.575 19.015 164.678 19.015 164.78 C 19.015 164.78 19.015 164.78 19.015 164.78 C 19.015 164.78 19.015 164.78 19.015 164.78 C 19.015 164.78 19.015 164.78 19.015 164.78 C 19.015 164.473 19.015 164.268 18.763 164.166 C 18.512 164.166 18.261 164.371 18.261 164.678 C 18.261 164.678 18.261 164.678 18.261 164.678 C 18.261 164.575 18.261 164.575 18.01 164.575 C 18.01 164.575 18.01 164.575 17.759 164.575 C 17.759 164.575 17.759 164.575 17.759 164.575 C 17.759 164.371 17.508 164.166 17.508 164.166 C 17.256 164.166 17.256 164.371 17.005 164.575 C 17.005 164.473 16.754 164.371 16.754 164.371 C 16.754 164.371 16.754 164.371 16.503 164.371 C 16.503 164.166 16.503 164.064 16.252 164.064 C 16.001 164.064 16.001 164.166 15.749 164.371 C 15.749 164.268 15.498 164.166 15.498 164.064 C 15.498 164.064 15.247 164.064 15.247 164.166 C 15.247 163.962 14.996 163.757 14.996 163.757 C 14.996 163.757 14.745 163.859 14.745 163.962 C 14.745 163.962 14.745 163.962 14.745 163.962 C 14.494 163.962 14.494 164.064 14.494 164.166 C 14.494 163.962 14.494 163.859 14.242 163.859 C 14.242 163.655 13.991 163.552 13.991 163.552 C 13.991 163.552 13.74 163.655 13.74 163.655 C 13.74 163.655 13.74 163.552 13.489 163.552 C 13.489 163.552 13.489 163.552 13.238 163.552 C 13.238 163.348 12.987 163.143 12.987 163.143 C 12.735 163.143 12.484 163.45 12.484 163.859 C 12.484 163.859 12.484 163.962 12.484 163.962 C 12.484 163.962 12.233 163.962 12.233 163.962 C 12.233 163.962 12.233 163.962 11.982 163.962 C 11.982 163.962 11.982 163.962 11.982 163.962 C 11.982 163.962 11.982 163.859 11.982 163.859 C 12.233 163.757 12.233 163.655 11.982 163.655 C 11.982 163.655 12.233 163.552 11.731 163.552 C 11.731 163.45 11.731 163.45 11.48 163.45 C 11.48 163.45 11.48 163.45 11.48 163.45 C 11.48 163.348 11.48 163.245 11.228 163.245 C 11.228 163.041 11.228 162.836 11.228 162.836 C 10.977 162.836 10.977 162.938 10.726 163.143 C 10.726 163.143 10.475 163.143 10.475 163.143 C 10.475 162.836 10.475 162.631 10.224 162.631 C 9.973 162.631 9.973 162.734 9.721 163.041 C 9.721 162.938 9.721 162.836 9.47 162.836 C 9.219 162.836 9.219 162.938 8.968 163.041 C 8.968 162.938 8.968 162.836 8.717 162.836 C 8.717 162.836 8.717 162.836 8.717 162.836 C 8.717 162.734 8.717 162.734 8.466 162.734 C 8.466 162.734 8.214 162.734 8.214 162.836 C 8.214 162.734 8.214 162.734 7.963 162.734 C 7.963 162.734 7.712 162.836 7.461 162.938 C 7.461 162.938 7.461 162.836 7.21 162.836 C 7.21 162.836 6.959 162.836 6.959 162.938 C 6.959 162.938 6.959 162.938 6.959 162.938 C 6.707 162.938 6.456 162.938 6.205 162.938 C 6.205 162.938 5.954 162.938 5.954 162.938 C 5.954 162.836 5.703 162.734 5.703 162.734 C 5.703 162.734 5.703 162.734 5.452 162.734 C 5.452 162.734 5.452 162.734 5.2 162.734 C 5.2 162.734 4.949 162.734 4.949 162.836 C 4.949 162.734 4.698 162.631 4.698 162.631 C 4.698 162.631 4.447 162.631 4.447 162.734 C 4.447 162.734 4.447 162.734 4.447 162.734 C 4.447 162.734 4.447 162.734 4.447 162.734 C 4.447 162.734 4.447 162.734 4.196 162.734 C 4.196 162.734 4.196 162.734 4.196 162.836 C 4.196 162.938 3.945 163.041 3.945 163.143 C 3.945 163.143 3.945 163.143 3.945 163.143 C 3.945 163.143 3.693 163.143 3.693 163.143 C 3.693 163.143 3.693 163.143 3.693 163.143 C 3.945 162.836 3.945 162.631 3.693 162.529 C 3.693 162.529 3.693 162.529 3.442 162.529 C 3.442 162.427 3.442 162.324 3.442 162.324 C 3.191 162.324 2.94 162.529 2.689 162.836 C 2.689 162.836 2.438 162.836 2.438 162.836 C 2.689 162.529 2.689 162.222 2.186 162.324 C 1.935 162.324 1.935 162.324 1.935 162.427 C 1.935 162.427 1.935 162.427 1.935 162.427 C 1.935 162.324 1.935 162.222 1.935 162.222 C 1.935 162.222 1.935 162.222 1.935 162.222 C 1.935 162.222 1.935 162.222 1.684 162.222 C 1.684 162.222 1.433 162.222 1.433 162.222 C 1.182 162.12 1.182 162.12 1.182 162.222 C 1.182 162.222 1.182 162.222 1.182 162.12 C 1.182 162.12 1.182 162.12 1.182 162.12 C 1.182 161.915 0.931 161.813 0.679 161.813 C 0.679 161.813 0.679 161.813 0.428 161.915 C 0.428 161.71 0.177 161.608 0.177 161.608 C 0.177 161.608 -0.074 161.71 -0.074 161.813 C -0.074 161.813 -0.074 161.813 -0.074 161.813 C -0.074 161.813 -0.074 161.813 -0.325 161.915 C -0.325 161.71 -0.325 161.608 -0.576 161.608 C -0.576 161.608 -0.828 161.608 -0.828 161.71 C -0.828 161.71 -0.828 161.71 -0.828 161.71 C -0.828 161.608 -1.079 161.608 -1.079 161.608 C -1.079 161.608 -1.079 161.608 -1.079 161.608 C -1.079 161.403 -1.33 161.199 -1.581 161.199 C -1.581 161.199 -1.832 161.301 -1.832 161.403 C -1.832 161.301 -2.083 161.199 -2.083 161.199 C -2.335 161.199 -2.335 161.301 -2.335 161.506 C -2.335 161.506 -2.335 161.506 -2.335 161.608 L -2.335 350.195 L 1002.335 350.195 L 1002.335 154.241 C 1001.832 154.241 1001.581 154.241 1001.33 154.138 Z " fill="rgb(105,145,155)"/></g></svg>